<svg width="48" height="49" viewBox="0 0 48 49" fill="none" xmlns="http://www.w3.org/2000/svg">
<path d="M23.9925 40.5C23.3305 40.5 22.7662 40.2643 22.2996 39.7929C21.8329 39.3215 21.5996 38.7549 21.5996 38.0929C21.5996 37.431 21.8353 36.8667 22.3067 36.4C22.778 35.9333 23.3447 35.7 24.0067 35.7C24.6686 35.7 25.2329 35.9357 25.6996 36.4071C26.1662 36.8785 26.3996 37.4451 26.3996 38.1071C26.3996 38.769 26.1639 39.3333 25.6925 39.8C25.2211 40.2667 24.6544 40.5 23.9925 40.5ZM23.9925 26.9C23.3305 26.9 22.7662 26.6643 22.2996 26.1929C21.8329 25.7215 21.5996 25.1549 21.5996 24.4929C21.5996 23.831 21.8353 23.2667 22.3067 22.8C22.778 22.3333 23.3447 22.1 24.0067 22.1C24.6686 22.1 25.2329 22.3357 25.6996 22.8071C26.1662 23.2785 26.3996 23.8451 26.3996 24.5071C26.3996 25.169 26.1639 25.7333 25.6925 26.2C25.2211 26.6667 24.6544 26.9 23.9925 26.9ZM23.9925 13.3C23.3305 13.3 22.7662 13.0643 22.2996 12.5929C21.8329 12.1215 21.5996 11.5549 21.5996 10.8929C21.5996 10.231 21.8353 9.66667 22.3067 9.2C22.778 8.73333 23.3447 8.5 24.0067 8.5C24.6686 8.5 25.2329 8.7357 25.6996 9.2071C26.1662 9.67847 26.3996 10.2451 26.3996 10.9071C26.3996 11.569 26.1639 12.1333 25.6925 12.6C25.2211 13.0667 24.6544 13.3 23.9925 13.3Z" fill="black"/>
</svg>
