<svg width="49" height="50" viewBox="0 0 49 50" fill="none" xmlns="http://www.w3.org/2000/svg">
<path d="M24.4906 41C23.8286 41 23.2643 40.7643 22.7977 40.2929C22.331 39.8215 22.0977 39.2549 22.0977 38.5929C22.0977 37.931 22.3334 37.3667 22.8048 36.9C23.2761 36.4333 23.8428 36.2 24.5048 36.2C25.1667 36.2 25.731 36.4357 26.1977 36.9071C26.6643 37.3785 26.8977 37.9451 26.8977 38.6071C26.8977 39.269 26.662 39.8333 26.1906 40.3C25.7192 40.7667 25.1525 41 24.4906 41ZM24.4906 27.4C23.8286 27.4 23.2643 27.1643 22.7977 26.6929C22.331 26.2215 22.0977 25.6549 22.0977 24.9929C22.0977 24.331 22.3334 23.7667 22.8048 23.3C23.2761 22.8333 23.8428 22.6 24.5048 22.6C25.1667 22.6 25.731 22.8357 26.1977 23.3071C26.6643 23.7785 26.8977 24.3451 26.8977 25.0071C26.8977 25.669 26.662 26.2333 26.1906 26.7C25.7192 27.1667 25.1525 27.4 24.4906 27.4ZM24.4906 13.8C23.8286 13.8 23.2643 13.5643 22.7977 13.0929C22.331 12.6215 22.0977 12.0549 22.0977 11.3929C22.0977 10.731 22.3334 10.1667 22.8048 9.7C23.2761 9.23333 23.8428 9 24.5048 9C25.1667 9 25.731 9.2357 26.1977 9.7071C26.6643 10.1785 26.8977 10.7451 26.8977 11.4071C26.8977 12.069 26.662 12.6333 26.1906 13.1C25.7192 13.5667 25.1525 13.8 24.4906 13.8Z" fill="black"/>
</svg>
