<svg width="101" height="28" viewBox="0 0 101 28" fill="none" xmlns="http://www.w3.org/2000/svg">
<path d="M32.1484 18.5V9.34033H33.5703V18.5H32.1484ZM35.3195 18.5V11.6064H36.6969V12.6475H36.8048C36.9741 12.2793 37.2238 11.9915 37.5538 11.7842C37.8839 11.5768 38.3007 11.4731 38.8043 11.4731C39.5787 11.4731 40.1712 11.6953 40.5817 12.1396C40.9921 12.584 41.1974 13.2166 41.1974 14.0376V18.5H39.8136V14.3613C39.8136 13.7858 39.693 13.3584 39.4518 13.0791C39.2148 12.7956 38.8424 12.6538 38.3346 12.6538C38.0003 12.6538 37.7104 12.7279 37.465 12.876C37.2195 13.0199 37.0291 13.2272 36.8937 13.498C36.7625 13.7646 36.6969 14.0841 36.6969 14.4565V18.5H35.3195ZM45.2317 18.6333C44.6773 18.6333 44.1949 18.5529 43.7844 18.3921C43.374 18.2271 43.0481 18.0007 42.8069 17.7129C42.5657 17.4209 42.4239 17.0824 42.3816 16.6973V16.6846H43.7654V16.6973C43.8543 16.9554 44.0235 17.1649 44.2732 17.3257C44.5229 17.4865 44.853 17.5669 45.2634 17.5669C45.547 17.5669 45.7945 17.5267 46.0061 17.4463C46.2219 17.3659 46.3912 17.2537 46.5139 17.1099C46.6367 16.966 46.698 16.8009 46.698 16.6147V16.6021C46.698 16.3862 46.6113 16.2043 46.4378 16.0562C46.2643 15.908 45.9786 15.7874 45.5808 15.6943L44.4763 15.4404C44.0447 15.3431 43.6871 15.2098 43.4036 15.0405C43.1201 14.8713 42.9106 14.6639 42.7752 14.4185C42.6397 14.1688 42.572 13.8768 42.572 13.5425V13.5361C42.572 13.1341 42.6863 12.7786 42.9148 12.4697C43.1433 12.1566 43.4586 11.9132 43.8606 11.7397C44.2669 11.562 44.7302 11.4731 45.2508 11.4731C45.7755 11.4731 46.2325 11.5557 46.6218 11.7207C47.0154 11.8815 47.3264 12.1058 47.5549 12.3936C47.7835 12.6771 47.9189 13.0072 47.9612 13.3838V13.3901H46.6409V13.3774C46.5774 13.1362 46.4251 12.9352 46.1839 12.7744C45.9469 12.6136 45.6337 12.5332 45.2444 12.5332C44.9947 12.5332 44.7726 12.5734 44.5779 12.6538C44.3832 12.73 44.2288 12.8379 44.1145 12.9775C44.0045 13.113 43.9495 13.2738 43.9495 13.46V13.4727C43.9495 13.6165 43.9855 13.7435 44.0574 13.8535C44.1336 13.9593 44.2521 14.0545 44.4129 14.1392C44.5737 14.2196 44.781 14.2915 45.0349 14.355L46.1331 14.6025C46.7932 14.7591 47.2841 14.9855 47.6057 15.2817C47.9316 15.578 48.0945 15.9757 48.0945 16.4751V16.4878C48.0945 16.911 47.9697 17.2855 47.72 17.6113C47.4703 17.9329 47.1297 18.1847 46.698 18.3667C46.2706 18.5444 45.7818 18.6333 45.2317 18.6333ZM51.894 18.5444C51.1407 18.5444 50.5948 18.4006 50.2563 18.1128C49.9219 17.8208 49.7548 17.3447 49.7548 16.6846V12.6919H48.6757V11.6064H49.7548V9.86719H51.164V11.6064H52.643V12.6919H51.164V16.3481C51.164 16.7205 51.238 16.9893 51.3861 17.1543C51.5343 17.3151 51.7797 17.3955 52.1225 17.3955C52.224 17.3955 52.3108 17.3934 52.3827 17.3892C52.4589 17.3849 52.5456 17.3786 52.643 17.3701V18.4746C52.533 18.4915 52.4145 18.5063 52.2875 18.519C52.1606 18.536 52.0294 18.5444 51.894 18.5444ZM55.7569 18.6143C55.321 18.6143 54.9296 18.5317 54.5826 18.3667C54.2398 18.1974 53.969 17.9583 53.7701 17.6494C53.5712 17.3405 53.4717 16.9787 53.4717 16.564V16.5513C53.4717 16.1366 53.5712 15.7832 53.7701 15.4912C53.9732 15.1992 54.2652 14.9707 54.646 14.8057C55.0311 14.6364 55.4966 14.5348 56.0425 14.501L58.5879 14.3486V15.3198L56.233 15.4722C55.759 15.5018 55.4099 15.6034 55.1856 15.7769C54.9613 15.9461 54.8492 16.1852 54.8492 16.4941V16.5068C54.8492 16.82 54.9698 17.0675 55.211 17.2495C55.4522 17.4272 55.7569 17.5161 56.125 17.5161C56.4678 17.5161 56.7725 17.4484 57.0391 17.313C57.3099 17.1733 57.5215 16.9871 57.6739 16.7544C57.8262 16.5174 57.9024 16.2508 57.9024 15.9546V13.7837C57.9024 13.4028 57.7839 13.113 57.5469 12.9141C57.3142 12.7109 56.9672 12.6094 56.5059 12.6094C56.1208 12.6094 55.8055 12.6771 55.5601 12.8125C55.3189 12.9479 55.1581 13.1383 55.0777 13.3838L55.065 13.4028H53.7383L53.7447 13.3584C53.7997 12.9775 53.9499 12.6475 54.1954 12.3682C54.445 12.0846 54.7709 11.8646 55.1729 11.708C55.5791 11.5514 56.0425 11.4731 56.563 11.4731C57.1428 11.4731 57.6337 11.5662 58.0357 11.7524C58.4419 11.9344 58.7487 12.1989 58.9561 12.5459C59.1677 12.8887 59.2735 13.3013 59.2735 13.7837V18.5H57.9024V17.5225H57.8008C57.6654 17.7552 57.4961 17.9541 57.293 18.1191C57.0899 18.2799 56.8593 18.4027 56.6011 18.4873C56.343 18.5719 56.0616 18.6143 55.7569 18.6143ZM60.8893 18.5V8.90234H62.2668V18.5H60.8893ZM63.9906 18.5V8.90234H65.368V18.5H63.9906ZM69.6344 18.5L72.9415 9.34033H74.0904V10.9463H73.6588L71.1324 18.5H69.6344ZM71.2276 16.0244L71.6275 14.8818H75.798L76.1979 16.0244H71.2276ZM76.2867 18.5L73.7667 10.9463V9.34033H74.484L77.7848 18.5H76.2867ZM78.8293 20.7979V11.6064H80.2068V12.6919H80.3147C80.4459 12.438 80.6152 12.2222 80.8225 12.0444C81.0341 11.8667 81.2753 11.7292 81.5461 11.6318C81.817 11.5345 82.1132 11.4858 82.4348 11.4858C83.0146 11.4858 83.5181 11.634 83.9456 11.9302C84.373 12.2222 84.703 12.6348 84.9358 13.168C85.1728 13.6969 85.2913 14.3232 85.2913 15.0469V15.0596C85.2913 15.7874 85.1749 16.418 84.9421 16.9512C84.7094 17.4801 84.3793 17.8906 83.9519 18.1826C83.5245 18.4704 83.0188 18.6143 82.4348 18.6143C82.1174 18.6143 81.8212 18.5656 81.5461 18.4683C81.2711 18.3667 81.0278 18.2271 80.8162 18.0493C80.6046 17.8716 80.4374 17.6579 80.3147 17.4082H80.2068V20.7979H78.8293ZM82.0413 17.4336C82.4264 17.4336 82.7564 17.3384 83.0315 17.1479C83.3066 16.9575 83.516 16.6846 83.6599 16.3291C83.808 15.9736 83.8821 15.5505 83.8821 15.0596V15.0469C83.8821 14.5518 83.808 14.1265 83.6599 13.771C83.516 13.4155 83.3066 13.1426 83.0315 12.9521C82.7564 12.7617 82.4264 12.6665 82.0413 12.6665C81.6604 12.6665 81.3303 12.7638 81.051 12.9585C80.7717 13.1489 80.558 13.4219 80.4099 13.7773C80.2618 14.1286 80.1877 14.5518 80.1877 15.0469V15.0596C80.1877 15.5462 80.2618 15.9673 80.4099 16.3228C80.558 16.6782 80.7717 16.9533 81.051 17.1479C81.3303 17.3384 81.6604 17.4336 82.0413 17.4336ZM86.5516 20.7979V11.6064H87.9291V12.6919H88.037C88.1682 12.438 88.3375 12.2222 88.5448 12.0444C88.7564 11.8667 88.9976 11.7292 89.2684 11.6318C89.5393 11.5345 89.8355 11.4858 90.1571 11.4858C90.7369 11.4858 91.2404 11.634 91.6679 11.9302C92.0953 12.2222 92.4253 12.6348 92.6581 13.168C92.8951 13.6969 93.0136 14.3232 93.0136 15.0469V15.0596C93.0136 15.7874 92.8972 16.418 92.6644 16.9512C92.4317 17.4801 92.1016 17.8906 91.6742 18.1826C91.2468 18.4704 90.7411 18.6143 90.1571 18.6143C89.8397 18.6143 89.5435 18.5656 89.2684 18.4683C88.9934 18.3667 88.7501 18.2271 88.5385 18.0493C88.3269 17.8716 88.1597 17.6579 88.037 17.4082H87.9291V20.7979H86.5516ZM89.7636 17.4336C90.1487 17.4336 90.4787 17.3384 90.7538 17.1479C91.0289 16.9575 91.2383 16.6846 91.3822 16.3291C91.5303 15.9736 91.6044 15.5505 91.6044 15.0596V15.0469C91.6044 14.5518 91.5303 14.1265 91.3822 13.771C91.2383 13.4155 91.0289 13.1426 90.7538 12.9521C90.4787 12.7617 90.1487 12.6665 89.7636 12.6665C89.3827 12.6665 89.0526 12.7638 88.7733 12.9585C88.494 13.1489 88.2803 13.4219 88.1322 13.7773C87.9841 14.1286 87.91 14.5518 87.91 15.0469V15.0596C87.91 15.5462 87.9841 15.9673 88.1322 16.3228C88.2803 16.6782 88.494 16.9533 88.7733 17.1479C89.0526 17.3384 89.3827 17.4336 89.7636 17.4336Z" fill="black"/>
<path d="M9.3125 26.375C8.8625 26.375 8.46875 26.2062 8.13125 25.8687C7.79375 25.5312 7.625 25.1375 7.625 24.6875V3.3125C7.625 2.8625 7.79375 2.46875 8.13125 2.13125C8.46875 1.79375 8.8625 1.625 9.3125 1.625H18.3125V5.84375H9.3125V22.1562H21.6875V18.5H23.375V24.6875C23.375 25.1375 23.2062 25.5312 22.8687 25.8687C22.5312 26.2062 22.1375 26.375 21.6875 26.375H9.3125ZM22.6437 15.8562L17.4125 10.625L18.5937 9.44375L21.8 12.6219V4.15625H23.4875V12.6219L26.6937 9.44375L27.875 10.625L22.6437 15.8562Z" fill="black"/>
</svg>
