<svg width="17" height="23" viewBox="0 0 17 23" fill="none" xmlns="http://www.w3.org/2000/svg">
<g clip-path="url(#clip0_839_532)">
<mask id="mask0_839_532" style="mask-type:luminance" maskUnits="userSpaceOnUse" x="0" y="0" width="17" height="23">
<path d="M17 0.5H0V22.5H17V0.5Z" fill="white"/>
</mask>
<g mask="url(#mask0_839_532)">
<path fill-rule="evenodd" clip-rule="evenodd" d="M14.9998 0.51L4.99973 0.5C3.89973 0.5 2.99973 1.4 2.99973 2.5V5.5C2.99973 6.05 3.44973 6.5 3.99973 6.5C4.54973 6.5 4.99973 6.05 4.99973 5.5V4.5H14.9998V18.5H4.99973V17.5C4.99973 16.95 4.54973 16.5 3.99973 16.5C3.44973 16.5 2.99973 16.95 2.99973 17.5V20.5C2.99973 21.6 3.89973 22.5 4.99973 22.5H14.9998C16.0998 22.5 16.9998 21.6 16.9998 20.5V2.5C16.9998 1.4 16.0998 0.51 14.9998 0.51ZM7.99973 14.5C8.54973 14.5 8.99973 14.05 8.99973 13.5V8.5C8.99973 7.95 8.54973 7.5 7.99973 7.5H2.99973C2.44973 7.5 1.99973 7.95 1.99973 8.5C1.99973 9.05 2.44973 9.5 2.99973 9.5H5.58973L0.699727 14.39C0.309727 14.78 0.309727 15.41 0.699727 15.8C1.08973 16.19 1.71973 16.19 2.10973 15.8L6.99973 10.91V13.5C6.99973 14.05 7.44973 14.5 7.99973 14.5Z" fill="#1D1D1D"/>
</g>
</g>
<defs>
<clipPath id="clip0_839_532">
<rect width="17" height="22" fill="white" transform="translate(0 0.5)"/>
</clipPath>
</defs>
</svg>
