<svg width="102" height="29" viewBox="0 0 102 29" fill="none" xmlns="http://www.w3.org/2000/svg">
<path d="M32.6484 19V9.84033H34.0703V19H32.6484ZM35.8195 19V12.1064H37.1969V13.1475H37.3048C37.4741 12.7793 37.7238 12.4915 38.0538 12.2842C38.3839 12.0768 38.8007 11.9731 39.3043 11.9731C40.0787 11.9731 40.6712 12.1953 41.0817 12.6396C41.4921 13.084 41.6974 13.7166 41.6974 14.5376V19H40.3136V14.8613C40.3136 14.2858 40.193 13.8584 39.9518 13.5791C39.7148 13.2956 39.3424 13.1538 38.8346 13.1538C38.5003 13.1538 38.2104 13.2279 37.965 13.376C37.7195 13.5199 37.5291 13.7272 37.3937 13.998C37.2625 14.2646 37.1969 14.5841 37.1969 14.9565V19H35.8195ZM45.7317 19.1333C45.1773 19.1333 44.6949 19.0529 44.2844 18.8921C43.874 18.7271 43.5481 18.5007 43.3069 18.2129C43.0657 17.9209 42.9239 17.5824 42.8816 17.1973V17.1846H44.2654V17.1973C44.3543 17.4554 44.5235 17.6649 44.7732 17.8257C45.0229 17.9865 45.353 18.0669 45.7634 18.0669C46.047 18.0669 46.2945 18.0267 46.5061 17.9463C46.7219 17.8659 46.8912 17.7537 47.0139 17.6099C47.1367 17.466 47.198 17.3009 47.198 17.1147V17.1021C47.198 16.8862 47.1113 16.7043 46.9378 16.5562C46.7643 16.408 46.4786 16.2874 46.0808 16.1943L44.9763 15.9404C44.5447 15.8431 44.1871 15.7098 43.9036 15.5405C43.6201 15.3713 43.4106 15.1639 43.2752 14.9185C43.1397 14.6688 43.072 14.3768 43.072 14.0425V14.0361C43.072 13.6341 43.1863 13.2786 43.4148 12.9697C43.6433 12.6566 43.9586 12.4132 44.3606 12.2397C44.7669 12.062 45.2302 11.9731 45.7508 11.9731C46.2755 11.9731 46.7325 12.0557 47.1218 12.2207C47.5154 12.3815 47.8264 12.6058 48.0549 12.8936C48.2835 13.1771 48.4189 13.5072 48.4612 13.8838V13.8901H47.1409V13.8774C47.0774 13.6362 46.9251 13.4352 46.6839 13.2744C46.4469 13.1136 46.1337 13.0332 45.7444 13.0332C45.4947 13.0332 45.2726 13.0734 45.0779 13.1538C44.8832 13.23 44.7288 13.3379 44.6145 13.4775C44.5045 13.613 44.4495 13.7738 44.4495 13.96V13.9727C44.4495 14.1165 44.4855 14.2435 44.5574 14.3535C44.6336 14.4593 44.7521 14.5545 44.9129 14.6392C45.0737 14.7196 45.281 14.7915 45.5349 14.855L46.6331 15.1025C47.2932 15.2591 47.7841 15.4855 48.1057 15.7817C48.4316 16.078 48.5945 16.4757 48.5945 16.9751V16.9878C48.5945 17.411 48.4697 17.7855 48.22 18.1113C47.9703 18.4329 47.6297 18.6847 47.198 18.8667C46.7706 19.0444 46.2818 19.1333 45.7317 19.1333ZM52.394 19.0444C51.6407 19.0444 51.0948 18.9006 50.7563 18.6128C50.4219 18.3208 50.2548 17.8447 50.2548 17.1846V13.1919H49.1757V12.1064H50.2548V10.3672H51.664V12.1064H53.143V13.1919H51.664V16.8481C51.664 17.2205 51.738 17.4893 51.8861 17.6543C52.0343 17.8151 52.2797 17.8955 52.6225 17.8955C52.724 17.8955 52.8108 17.8934 52.8827 17.8892C52.9589 17.8849 53.0456 17.8786 53.143 17.8701V18.9746C53.033 18.9915 52.9145 19.0063 52.7875 19.019C52.6606 19.036 52.5294 19.0444 52.394 19.0444ZM56.2569 19.1143C55.821 19.1143 55.4296 19.0317 55.0826 18.8667C54.7398 18.6974 54.469 18.4583 54.2701 18.1494C54.0712 17.8405 53.9717 17.4787 53.9717 17.064V17.0513C53.9717 16.6366 54.0712 16.2832 54.2701 15.9912C54.4732 15.6992 54.7652 15.4707 55.146 15.3057C55.5311 15.1364 55.9966 15.0348 56.5425 15.001L59.0879 14.8486V15.8198L56.733 15.9722C56.259 16.0018 55.9099 16.1034 55.6856 16.2769C55.4613 16.4461 55.3492 16.6852 55.3492 16.9941V17.0068C55.3492 17.32 55.4698 17.5675 55.711 17.7495C55.9522 17.9272 56.2569 18.0161 56.625 18.0161C56.9678 18.0161 57.2725 17.9484 57.5391 17.813C57.8099 17.6733 58.0215 17.4871 58.1739 17.2544C58.3262 17.0174 58.4024 16.7508 58.4024 16.4546V14.2837C58.4024 13.9028 58.2839 13.613 58.0469 13.4141C57.8142 13.2109 57.4672 13.1094 57.0059 13.1094C56.6208 13.1094 56.3055 13.1771 56.0601 13.3125C55.8189 13.4479 55.6581 13.6383 55.5777 13.8838L55.565 13.9028H54.2383L54.2447 13.8584C54.2997 13.4775 54.4499 13.1475 54.6954 12.8682C54.945 12.5846 55.2709 12.3646 55.6729 12.208C56.0791 12.0514 56.5425 11.9731 57.063 11.9731C57.6428 11.9731 58.1337 12.0662 58.5357 12.2524C58.9419 12.4344 59.2487 12.6989 59.4561 13.0459C59.6677 13.3887 59.7735 13.8013 59.7735 14.2837V19H58.4024V18.0225H58.3008C58.1654 18.2552 57.9961 18.4541 57.793 18.6191C57.5899 18.7799 57.3593 18.9027 57.1011 18.9873C56.843 19.0719 56.5616 19.1143 56.2569 19.1143ZM61.3893 19V9.40234H62.7668V19H61.3893ZM64.4906 19V9.40234H65.868V19H64.4906ZM70.1344 19L73.4415 9.84033H74.5904V11.4463H74.1588L71.6324 19H70.1344ZM71.7276 16.5244L72.1275 15.3818H76.298L76.6979 16.5244H71.7276ZM76.7867 19L74.2667 11.4463V9.84033H74.984L78.2848 19H76.7867ZM79.3293 21.2979V12.1064H80.7068V13.1919H80.8147C80.9459 12.938 81.1152 12.7222 81.3225 12.5444C81.5341 12.3667 81.7753 12.2292 82.0461 12.1318C82.317 12.0345 82.6132 11.9858 82.9348 11.9858C83.5146 11.9858 84.0181 12.134 84.4456 12.4302C84.873 12.7222 85.203 13.1348 85.4358 13.668C85.6728 14.1969 85.7913 14.8232 85.7913 15.5469V15.5596C85.7913 16.2874 85.6749 16.918 85.4421 17.4512C85.2094 17.9801 84.8793 18.3906 84.4519 18.6826C84.0245 18.9704 83.5188 19.1143 82.9348 19.1143C82.6174 19.1143 82.3212 19.0656 82.0461 18.9683C81.7711 18.8667 81.5278 18.7271 81.3162 18.5493C81.1046 18.3716 80.9374 18.1579 80.8147 17.9082H80.7068V21.2979H79.3293ZM82.5413 17.9336C82.9264 17.9336 83.2564 17.8384 83.5315 17.6479C83.8066 17.4575 84.016 17.1846 84.1599 16.8291C84.308 16.4736 84.3821 16.0505 84.3821 15.5596V15.5469C84.3821 15.0518 84.308 14.6265 84.1599 14.271C84.016 13.9155 83.8066 13.6426 83.5315 13.4521C83.2564 13.2617 82.9264 13.1665 82.5413 13.1665C82.1604 13.1665 81.8303 13.2638 81.551 13.4585C81.2717 13.6489 81.058 13.9219 80.9099 14.2773C80.7618 14.6286 80.6877 15.0518 80.6877 15.5469V15.5596C80.6877 16.0462 80.7618 16.4673 80.9099 16.8228C81.058 17.1782 81.2717 17.4533 81.551 17.6479C81.8303 17.8384 82.1604 17.9336 82.5413 17.9336ZM87.0516 21.2979V12.1064H88.4291V13.1919H88.537C88.6682 12.938 88.8375 12.7222 89.0448 12.5444C89.2564 12.3667 89.4976 12.2292 89.7684 12.1318C90.0393 12.0345 90.3355 11.9858 90.6571 11.9858C91.2369 11.9858 91.7404 12.134 92.1679 12.4302C92.5953 12.7222 92.9253 13.1348 93.1581 13.668C93.3951 14.1969 93.5136 14.8232 93.5136 15.5469V15.5596C93.5136 16.2874 93.3972 16.918 93.1644 17.4512C92.9317 17.9801 92.6016 18.3906 92.1742 18.6826C91.7468 18.9704 91.2411 19.1143 90.6571 19.1143C90.3397 19.1143 90.0435 19.0656 89.7684 18.9683C89.4934 18.8667 89.2501 18.7271 89.0385 18.5493C88.8269 18.3716 88.6597 18.1579 88.537 17.9082H88.4291V21.2979H87.0516ZM90.2636 17.9336C90.6487 17.9336 90.9787 17.8384 91.2538 17.6479C91.5289 17.4575 91.7383 17.1846 91.8822 16.8291C92.0303 16.4736 92.1044 16.0505 92.1044 15.5596V15.5469C92.1044 15.0518 92.0303 14.6265 91.8822 14.271C91.7383 13.9155 91.5289 13.6426 91.2538 13.4521C90.9787 13.2617 90.6487 13.1665 90.2636 13.1665C89.8827 13.1665 89.5526 13.2638 89.2733 13.4585C88.994 13.6489 88.7803 13.9219 88.6322 14.2773C88.4841 14.6286 88.41 15.0518 88.41 15.5469V15.5596C88.41 16.0462 88.4841 16.4673 88.6322 16.8228C88.7803 17.1782 88.994 17.4533 89.2733 17.6479C89.5526 17.8384 89.8827 17.9336 90.2636 17.9336Z" fill="#007AFF"/>
<path d="M9.8125 26.875C9.3625 26.875 8.96875 26.7062 8.63125 26.3687C8.29375 26.0312 8.125 25.6375 8.125 25.1875V3.8125C8.125 3.3625 8.29375 2.96875 8.63125 2.63125C8.96875 2.29375 9.3625 2.125 9.8125 2.125H18.8125V6.34375H9.8125V22.6562H22.1875V19H23.875V25.1875C23.875 25.6375 23.7062 26.0312 23.3687 26.3687C23.0312 26.7062 22.6375 26.875 22.1875 26.875H9.8125ZM23.1437 16.3562L17.9125 11.125L19.0937 9.94375L22.3 13.1219V4.65625H23.9875V13.1219L27.1937 9.94375L28.375 11.125L23.1437 16.3562Z" fill="#007AFF"/>
</svg>
