<svg width="23" height="24" viewBox="0 0 23 24" fill="none" xmlns="http://www.w3.org/2000/svg">
<path d="M11.5 22C12.6046 22 13.5 21.1046 13.5 20C13.5 18.8954 12.6046 18 11.5 18C10.3954 18 9.5 18.8954 9.5 20C9.5 21.1046 10.3954 22 11.5 22Z" fill="black"/>
<path d="M11.5 6C12.6046 6 13.5 5.10457 13.5 4C13.5 2.89543 12.6046 2 11.5 2C10.3954 2 9.5 2.89543 9.5 4C9.5 5.10457 10.3954 6 11.5 6Z" fill="black"/>
<path d="M11.5 14C12.6046 14 13.5 13.1046 13.5 12C13.5 10.8954 12.6046 10 11.5 10C10.3954 10 9.5 10.8954 9.5 12C9.5 13.1046 10.3954 14 11.5 14Z" fill="black"/>
</svg>
