<svg width="154" height="28" viewBox="0 0 154 28" fill="none" xmlns="http://www.w3.org/2000/svg">
<path d="M30.9453 18.5L34.2525 9.34033H35.4014V10.9463H34.9698L32.4434 18.5H30.9453ZM32.5386 16.0244L32.9385 14.8818H37.1089L37.5088 16.0244H32.5386ZM37.5977 18.5L35.0777 10.9463V9.34033H35.7949L39.0957 18.5H37.5977ZM42.2731 18.6143C41.6976 18.6143 41.194 18.4704 40.7624 18.1826C40.335 17.8906 40.0028 17.478 39.7658 16.9448C39.533 16.4116 39.4167 15.7832 39.4167 15.0596V15.0469C39.4167 14.319 39.533 13.6885 39.7658 13.1553C39.9985 12.6221 40.3286 12.2116 40.756 11.9238C41.1834 11.6318 41.6891 11.4858 42.2731 11.4858C42.5905 11.4858 42.8867 11.5366 43.1618 11.6382C43.4368 11.7355 43.6802 11.8752 43.8918 12.0571C44.1033 12.2349 44.2705 12.4486 44.3932 12.6982H44.4948V8.90234H45.8786V18.5H44.4948V17.4146H44.3932C44.2578 17.6642 44.0864 17.88 43.8791 18.062C43.6717 18.2397 43.4326 18.3773 43.1618 18.4746C42.8909 18.5677 42.5947 18.6143 42.2731 18.6143ZM42.6667 17.4336C43.0475 17.4336 43.3776 17.3384 43.6569 17.1479C43.9362 16.9575 44.1499 16.6846 44.298 16.3291C44.4461 15.9694 44.5202 15.5462 44.5202 15.0596V15.0469C44.5202 14.556 44.444 14.1328 44.2917 13.7773C44.1436 13.4219 43.9298 13.1489 43.6506 12.9585C43.3755 12.7638 43.0475 12.6665 42.6667 12.6665C42.2858 12.6665 41.9557 12.7638 41.6764 12.9585C41.4014 13.1489 41.1898 13.4219 41.0417 13.7773C40.8978 14.1286 40.8258 14.5518 40.8258 15.0469V15.0596C40.8258 15.5505 40.8978 15.9736 41.0417 16.3291C41.1898 16.6846 41.4014 16.9575 41.6764 17.1479C41.9557 17.3384 42.2858 17.4336 42.6667 17.4336ZM50.0462 18.6143C49.4707 18.6143 48.9671 18.4704 48.5355 18.1826C48.108 17.8906 47.7758 17.478 47.5389 16.9448C47.3061 16.4116 47.1897 15.7832 47.1897 15.0596V15.0469C47.1897 14.319 47.3061 13.6885 47.5389 13.1553C47.7716 12.6221 48.1017 12.2116 48.5291 11.9238C48.9565 11.6318 49.4622 11.4858 50.0462 11.4858C50.3636 11.4858 50.6598 11.5366 50.9349 11.6382C51.2099 11.7355 51.4533 11.8752 51.6648 12.0571C51.8764 12.2349 52.0436 12.4486 52.1663 12.6982H52.2679V8.90234H53.6517V18.5H52.2679V17.4146H52.1663C52.0309 17.6642 51.8595 17.88 51.6522 18.062C51.4448 18.2397 51.2057 18.3773 50.9349 18.4746C50.664 18.5677 50.3678 18.6143 50.0462 18.6143ZM50.4397 17.4336C50.8206 17.4336 51.1507 17.3384 51.43 17.1479C51.7093 16.9575 51.923 16.6846 52.0711 16.3291C52.2192 15.9694 52.2933 15.5462 52.2933 15.0596V15.0469C52.2933 14.556 52.2171 14.1328 52.0647 13.7773C51.9166 13.4219 51.7029 13.1489 51.4236 12.9585C51.1486 12.7638 50.8206 12.6665 50.4397 12.6665C50.0589 12.6665 49.7288 12.7638 49.4495 12.9585C49.1744 13.1489 48.9629 13.4219 48.8147 13.7773C48.6709 14.1286 48.5989 14.5518 48.5989 15.0469V15.0596C48.5989 15.5505 48.6709 15.9736 48.8147 16.3291C48.9629 16.6846 49.1744 16.9575 49.4495 17.1479C49.7288 17.3384 50.0589 17.4336 50.4397 17.4336ZM61.0601 18.5444C60.3069 18.5444 59.761 18.4006 59.4224 18.1128C59.0881 17.8208 58.921 17.3447 58.921 16.6846V12.6919H57.8419V11.6064H58.921V9.86719H60.3302V11.6064H61.8092V12.6919H60.3302V16.3481C60.3302 16.7205 60.4042 16.9893 60.5523 17.1543C60.7004 17.3151 60.9459 17.3955 61.2887 17.3955C61.3902 17.3955 61.477 17.3934 61.5489 17.3892C61.6251 17.3849 61.7118 17.3786 61.8092 17.3701V18.4746C61.6991 18.4915 61.5806 18.5063 61.4537 18.519C61.3267 18.536 61.1956 18.5444 61.0601 18.5444ZM65.8752 18.6333C65.2024 18.6333 64.6205 18.4894 64.1296 18.2017C63.643 17.9139 63.2684 17.5034 63.0061 16.9702C62.7437 16.4328 62.6125 15.7959 62.6125 15.0596V15.0469C62.6125 14.3063 62.7437 13.6694 63.0061 13.1362C63.2727 12.603 63.6493 12.1925 64.136 11.9048C64.6268 11.617 65.2066 11.4731 65.8752 11.4731C66.5481 11.4731 67.1278 11.617 67.6145 11.9048C68.1011 12.1883 68.4756 12.5988 68.738 13.1362C69.0046 13.6694 69.1379 14.3063 69.1379 15.0469V15.0596C69.1379 15.7959 69.0046 16.4328 68.738 16.9702C68.4756 17.5034 68.1011 17.9139 67.6145 18.2017C67.1321 18.4894 66.5523 18.6333 65.8752 18.6333ZM65.8752 17.478C66.2688 17.478 66.6031 17.3828 66.8781 17.1924C67.1532 16.9977 67.3627 16.7205 67.5066 16.3608C67.6504 16.0011 67.7224 15.5674 67.7224 15.0596V15.0469C67.7224 14.5348 67.6504 14.099 67.5066 13.7393C67.3627 13.3796 67.1532 13.1045 66.8781 12.9141C66.6031 12.7194 66.2688 12.6221 65.8752 12.6221C65.4817 12.6221 65.1474 12.7194 64.8723 12.9141C64.5972 13.1045 64.3856 13.3796 64.2375 13.7393C64.0936 14.099 64.0217 14.5348 64.0217 15.0469V15.0596C64.0217 15.5674 64.0936 16.0011 64.2375 16.3608C64.3856 16.7205 64.5972 16.9977 64.8723 17.1924C65.1474 17.3828 65.4817 17.478 65.8752 17.478ZM73.6963 18.5V9.34033H75.1182V13.2124H79.8154V9.34033H81.2437V18.5H79.8154V14.4438H75.1182V18.5H73.6963ZM85.9191 18.6333C85.2462 18.6333 84.6644 18.4894 84.1735 18.2017C83.6868 17.9139 83.3123 17.5034 83.0499 16.9702C82.7876 16.4328 82.6564 15.7959 82.6564 15.0596V15.0469C82.6564 14.3063 82.7876 13.6694 83.0499 13.1362C83.3165 12.603 83.6932 12.1925 84.1798 11.9048C84.6707 11.617 85.2505 11.4731 85.9191 11.4731C86.5919 11.4731 87.1717 11.617 87.6583 11.9048C88.145 12.1883 88.5195 12.5988 88.7819 13.1362C89.0485 13.6694 89.1818 14.3063 89.1818 15.0469V15.0596C89.1818 15.7959 89.0485 16.4328 88.7819 16.9702C88.5195 17.5034 88.145 17.9139 87.6583 18.2017C87.1759 18.4894 86.5962 18.6333 85.9191 18.6333ZM85.9191 17.478C86.3126 17.478 86.647 17.3828 86.922 17.1924C87.1971 16.9977 87.4066 16.7205 87.5504 16.3608C87.6943 16.0011 87.7663 15.5674 87.7663 15.0596V15.0469C87.7663 14.5348 87.6943 14.099 87.5504 13.7393C87.4066 13.3796 87.1971 13.1045 86.922 12.9141C86.647 12.7194 86.3126 12.6221 85.9191 12.6221C85.5255 12.6221 85.1912 12.7194 84.9162 12.9141C84.6411 13.1045 84.4295 13.3796 84.2814 13.7393C84.1375 14.099 84.0656 14.5348 84.0656 15.0469V15.0596C84.0656 15.5674 84.1375 16.0011 84.2814 16.3608C84.4295 16.7205 84.6411 16.9977 84.9162 17.1924C85.1912 17.3828 85.5255 17.478 85.9191 17.478ZM90.4295 18.5V11.6064H91.8069V12.6665H91.9148C92.0672 12.2856 92.3042 11.9915 92.6258 11.7842C92.9516 11.5768 93.3409 11.4731 93.7937 11.4731C94.1069 11.4731 94.3883 11.5239 94.638 11.6255C94.8876 11.7271 95.1014 11.8709 95.2791 12.0571C95.4611 12.2391 95.6028 12.4549 95.7044 12.7046H95.8123C95.9265 12.4549 96.0874 12.2391 96.2947 12.0571C96.5021 11.8709 96.7433 11.7271 97.0183 11.6255C97.2976 11.5239 97.5939 11.4731 97.907 11.4731C98.3725 11.4731 98.7703 11.5641 99.1004 11.7461C99.4305 11.9238 99.6822 12.182 99.8557 12.5205C100.029 12.859 100.116 13.2674 100.116 13.7456V18.5H98.7386V14.0757C98.7386 13.7583 98.6899 13.4959 98.5926 13.2886C98.4952 13.077 98.3471 12.9183 98.1482 12.8125C97.9536 12.7067 97.7081 12.6538 97.4119 12.6538C97.1199 12.6538 96.8639 12.7215 96.6438 12.8569C96.428 12.9881 96.2587 13.1659 96.136 13.3901C96.0175 13.6102 95.9583 13.8599 95.9583 14.1392V18.5H94.5808V13.936C94.5808 13.6737 94.5258 13.4473 94.4158 13.2568C94.31 13.0622 94.1577 12.9141 93.9588 12.8125C93.7599 12.7067 93.525 12.6538 93.2542 12.6538C92.9791 12.6538 92.7316 12.7257 92.5115 12.8696C92.2957 13.0135 92.1243 13.2082 91.9973 13.4536C91.8704 13.6948 91.8069 13.9657 91.8069 14.2661V18.5H90.4295ZM104.55 18.6333C103.877 18.6333 103.3 18.4894 102.817 18.2017C102.335 17.9097 101.962 17.4971 101.7 16.9639C101.442 16.4307 101.313 15.8001 101.313 15.0723V15.0659C101.313 14.3465 101.442 13.7181 101.7 13.1807C101.962 12.6432 102.331 12.2243 102.805 11.9238C103.283 11.6234 103.841 11.4731 104.48 11.4731C105.124 11.4731 105.676 11.617 106.137 11.9048C106.603 12.1925 106.96 12.5967 107.21 13.1172C107.46 13.6335 107.584 14.2386 107.584 14.9326V15.415H102.011V14.4312H106.899L106.239 15.3452V14.793C106.239 14.3021 106.163 13.8958 106.01 13.5742C105.862 13.2484 105.657 13.005 105.394 12.8442C105.132 12.6834 104.83 12.603 104.487 12.603C104.144 12.603 103.837 12.6877 103.566 12.8569C103.3 13.022 103.088 13.2674 102.932 13.5933C102.779 13.9191 102.703 14.319 102.703 14.793V15.3452C102.703 15.798 102.779 16.1852 102.932 16.5068C103.084 16.8285 103.3 17.0739 103.579 17.2432C103.863 17.4124 104.197 17.4971 104.582 17.4971C104.878 17.4971 105.132 17.4569 105.344 17.3765C105.559 17.2918 105.735 17.1882 105.871 17.0654C106.01 16.9427 106.105 16.8221 106.156 16.7036L106.182 16.6528H107.515L107.502 16.71C107.443 16.9385 107.339 17.167 107.191 17.3955C107.043 17.6198 106.846 17.825 106.601 18.0112C106.359 18.1974 106.067 18.3477 105.725 18.4619C105.386 18.5762 104.995 18.6333 104.55 18.6333ZM115.24 18.7222C114.551 18.7222 113.95 18.6143 113.438 18.3984C112.926 18.1784 112.522 17.8737 112.225 17.4844C111.929 17.0951 111.76 16.6444 111.717 16.1323L111.711 16.0498H113.114L113.12 16.1196C113.15 16.3947 113.258 16.6338 113.444 16.8369C113.634 17.04 113.888 17.1987 114.206 17.313C114.527 17.4272 114.893 17.4844 115.304 17.4844C115.689 17.4844 116.032 17.423 116.332 17.3003C116.633 17.1776 116.868 17.0083 117.037 16.7925C117.21 16.5767 117.297 16.3291 117.297 16.0498V16.0435C117.297 15.6922 117.164 15.4002 116.897 15.1675C116.631 14.9347 116.195 14.7528 115.59 14.6216L114.587 14.4121C113.66 14.2132 112.985 13.8979 112.562 13.4663C112.139 13.0304 111.927 12.474 111.927 11.7969V11.7905C111.931 11.2616 112.073 10.7961 112.352 10.394C112.636 9.99202 113.027 9.67887 113.527 9.45459C114.026 9.23031 114.599 9.11816 115.247 9.11816C115.894 9.11816 116.459 9.23031 116.942 9.45459C117.428 9.67464 117.811 9.9751 118.091 10.356C118.374 10.7368 118.533 11.1663 118.567 11.6445L118.573 11.7271H117.183L117.17 11.6445C117.132 11.3949 117.028 11.1727 116.859 10.978C116.694 10.7834 116.472 10.631 116.193 10.521C115.918 10.4067 115.596 10.3517 115.228 10.356C114.872 10.356 114.555 10.411 114.276 10.521C113.996 10.6268 113.774 10.7812 113.609 10.9844C113.448 11.1875 113.368 11.4329 113.368 11.7207V11.7271C113.368 12.0656 113.497 12.3491 113.755 12.5776C114.017 12.8019 114.443 12.9775 115.031 13.1045L116.034 13.3267C116.673 13.4621 117.191 13.6419 117.589 13.8662C117.987 14.0905 118.277 14.3677 118.459 14.6978C118.645 15.0236 118.738 15.4129 118.738 15.8657V15.8721C118.738 16.4561 118.594 16.9618 118.306 17.3892C118.023 17.8123 117.619 18.1403 117.094 18.373C116.569 18.6058 115.951 18.7222 115.24 18.7222ZM122.963 18.6333C122.294 18.6333 121.716 18.4894 121.23 18.2017C120.747 17.9097 120.375 17.495 120.113 16.9575C119.85 16.4201 119.719 15.779 119.719 15.0342V15.0215C119.719 14.2894 119.848 13.6589 120.106 13.1299C120.369 12.6009 120.741 12.1925 121.223 11.9048C121.71 11.617 122.288 11.4731 122.956 11.4731C123.536 11.4731 124.033 11.5747 124.448 11.7778C124.867 11.9767 125.199 12.2518 125.445 12.603C125.694 12.95 125.851 13.3457 125.914 13.79L125.921 13.8218H124.594L124.588 13.8091C124.512 13.4705 124.336 13.1891 124.061 12.9648C123.786 12.7363 123.42 12.6221 122.963 12.6221C122.582 12.6221 122.254 12.7194 121.979 12.9141C121.704 13.1045 121.492 13.3796 121.344 13.7393C121.2 14.099 121.128 14.5264 121.128 15.0215V15.0342C121.128 15.542 121.202 15.9779 121.35 16.3418C121.499 16.7057 121.71 16.9871 121.985 17.186C122.26 17.3807 122.586 17.478 122.963 17.478C123.394 17.478 123.744 17.3828 124.01 17.1924C124.281 17.002 124.471 16.7205 124.581 16.3481L124.594 16.3164L125.914 16.3101L125.902 16.3672C125.821 16.8158 125.658 17.2093 125.413 17.5479C125.167 17.8864 124.84 18.153 124.429 18.3477C124.023 18.5381 123.534 18.6333 122.963 18.6333ZM127.086 18.5V11.6064H128.463V12.6475H128.571C128.694 12.2793 128.91 11.9937 129.219 11.7905C129.532 11.5874 129.917 11.4858 130.374 11.4858C130.488 11.4858 130.6 11.4922 130.71 11.5049C130.82 11.5176 130.909 11.5324 130.977 11.5493V12.8188C130.854 12.7935 130.732 12.7744 130.609 12.7617C130.49 12.749 130.366 12.7427 130.234 12.7427C129.883 12.7427 129.574 12.8104 129.308 12.9458C129.045 13.0812 128.838 13.2716 128.686 13.5171C128.537 13.7583 128.463 14.0461 128.463 14.3804V18.5H127.086ZM134.63 18.6333C133.958 18.6333 133.38 18.4894 132.898 18.2017C132.415 17.9097 132.043 17.4971 131.78 16.9639C131.522 16.4307 131.393 15.8001 131.393 15.0723V15.0659C131.393 14.3465 131.522 13.7181 131.78 13.1807C132.043 12.6432 132.411 12.2243 132.885 11.9238C133.363 11.6234 133.922 11.4731 134.561 11.4731C135.204 11.4731 135.756 11.617 136.217 11.9048C136.683 12.1925 137.04 12.5967 137.29 13.1172C137.54 13.6335 137.665 14.2386 137.665 14.9326V15.415H132.091V14.4312H136.979L136.319 15.3452V14.793C136.319 14.3021 136.243 13.8958 136.09 13.5742C135.942 13.2484 135.737 13.005 135.475 12.8442C135.212 12.6834 134.91 12.603 134.567 12.603C134.224 12.603 133.917 12.6877 133.647 12.8569C133.38 13.022 133.168 13.2674 133.012 13.5933C132.859 13.9191 132.783 14.319 132.783 14.793V15.3452C132.783 15.798 132.859 16.1852 133.012 16.5068C133.164 16.8285 133.38 17.0739 133.659 17.2432C133.943 17.4124 134.277 17.4971 134.662 17.4971C134.958 17.4971 135.212 17.4569 135.424 17.3765C135.64 17.2918 135.815 17.1882 135.951 17.0654C136.09 16.9427 136.186 16.8221 136.236 16.7036L136.262 16.6528H137.595L137.582 16.71C137.523 16.9385 137.419 17.167 137.271 17.3955C137.123 17.6198 136.926 17.825 136.681 18.0112C136.44 18.1974 136.148 18.3477 135.805 18.4619C135.466 18.5762 135.075 18.6333 134.63 18.6333ZM141.807 18.6333C141.134 18.6333 140.556 18.4894 140.074 18.2017C139.592 17.9097 139.219 17.4971 138.957 16.9639C138.699 16.4307 138.57 15.8001 138.57 15.0723V15.0659C138.57 14.3465 138.699 13.7181 138.957 13.1807C139.219 12.6432 139.587 12.2243 140.061 11.9238C140.539 11.6234 141.098 11.4731 141.737 11.4731C142.38 11.4731 142.933 11.617 143.394 11.9048C143.859 12.1925 144.217 12.5967 144.467 13.1172C144.716 13.6335 144.841 14.2386 144.841 14.9326V15.415H139.268V14.4312H144.156L143.495 15.3452V14.793C143.495 14.3021 143.419 13.8958 143.267 13.5742C143.119 13.2484 142.914 13.005 142.651 12.8442C142.389 12.6834 142.086 12.603 141.743 12.603C141.401 12.603 141.094 12.6877 140.823 12.8569C140.556 13.022 140.345 13.2674 140.188 13.5933C140.036 13.9191 139.96 14.319 139.96 14.793V15.3452C139.96 15.798 140.036 16.1852 140.188 16.5068C140.341 16.8285 140.556 17.0739 140.836 17.2432C141.119 17.4124 141.454 17.4971 141.839 17.4971C142.135 17.4971 142.389 17.4569 142.6 17.3765C142.816 17.2918 142.992 17.1882 143.127 17.0654C143.267 16.9427 143.362 16.8221 143.413 16.7036L143.438 16.6528H144.771L144.759 16.71C144.699 16.9385 144.596 17.167 144.448 17.3955C144.299 17.6198 144.103 17.825 143.857 18.0112C143.616 18.1974 143.324 18.3477 142.981 18.4619C142.643 18.5762 142.251 18.6333 141.807 18.6333ZM146.089 18.5V11.6064H147.466V12.6475H147.574C147.743 12.2793 147.993 11.9915 148.323 11.7842C148.653 11.5768 149.07 11.4731 149.574 11.4731C150.348 11.4731 150.941 11.6953 151.351 12.1396C151.761 12.584 151.967 13.2166 151.967 14.0376V18.5H150.583V14.3613C150.583 13.7858 150.462 13.3584 150.221 13.0791C149.984 12.7956 149.612 12.6538 149.104 12.6538C148.77 12.6538 148.48 12.7279 148.234 12.876C147.989 13.0199 147.798 13.2272 147.663 13.498C147.532 13.7646 147.466 14.0841 147.466 14.4565V18.5H146.089Z" fill="black"/>
<mask id="mask0_872_261" style="mask-type:luminance" maskUnits="userSpaceOnUse" x="0" y="0" width="28" height="28">
<path d="M27.5 0.5H0.5V27.5H27.5V0.5Z" fill="white"/>
</mask>
<g mask="url(#mask0_872_261)">
<path d="M20.75 1.63625L9.5 1.625C8.2625 1.625 7.25 2.6375 7.25 3.875V7.25H9.5V6.125H20.75V21.875H9.5V20.75H7.25V24.125C7.25 25.3625 8.2625 26.375 9.5 26.375H20.75C21.9875 26.375 23 25.3625 23 24.125V3.875C23 2.6375 21.9875 1.63625 20.75 1.63625ZM11.75 17.375H14V9.5H6.125V11.75H10.1637L3.875 18.0388L5.46125 19.625L11.75 13.3362V17.375Z" fill="black"/>
</g>
</svg>
