<svg width="48" height="48" viewBox="0 0 48 48" fill="none" xmlns="http://www.w3.org/2000/svg">
<path d="M23.9929 40C23.3309 40 22.7666 39.7643 22.3 39.2929C21.8333 38.8215 21.6 38.2549 21.6 37.5929C21.6 36.931 21.8357 36.3667 22.3071 35.9C22.7784 35.4333 23.3451 35.2 24.0071 35.2C24.669 35.2 25.2333 35.4357 25.7 35.9071C26.1666 36.3785 26.4 36.9451 26.4 37.6071C26.4 38.269 26.1643 38.8333 25.6929 39.3C25.2215 39.7667 24.6548 40 23.9929 40ZM23.9929 26.4C23.3309 26.4 22.7666 26.1643 22.3 25.6929C21.8333 25.2215 21.6 24.6549 21.6 23.9929C21.6 23.331 21.8357 22.7667 22.3071 22.3C22.7784 21.8333 23.3451 21.6 24.0071 21.6C24.669 21.6 25.2333 21.8357 25.7 22.3071C26.1666 22.7785 26.4 23.3451 26.4 24.0071C26.4 24.669 26.1643 25.2333 25.6929 25.7C25.2215 26.1667 24.6548 26.4 23.9929 26.4ZM23.9929 12.8C23.3309 12.8 22.7666 12.5643 22.3 12.0929C21.8333 11.6215 21.6 11.0549 21.6 10.3929C21.6 9.73097 21.8357 9.16667 22.3071 8.7C22.7784 8.23333 23.3451 8 24.0071 8C24.669 8 25.2333 8.2357 25.7 8.7071C26.1666 9.17847 26.4 9.74513 26.4 10.4071C26.4 11.069 26.1643 11.6333 25.6929 12.1C25.2215 12.5667 24.6548 12.8 23.9929 12.8Z" fill="black"/>
</svg>
