<svg width="18" height="24" viewBox="0 0 18 24" fill="none" xmlns="http://www.w3.org/2000/svg">
<g clip-path="url(#clip0_872_268)">
<mask id="mask0_872_268" style="mask-type:luminance" maskUnits="userSpaceOnUse" x="0" y="1" width="18" height="22">
<path d="M17.5 1H0.5V23H17.5V1Z" fill="white"/>
</mask>
<g mask="url(#mask0_872_268)">
<mask id="mask1_872_268" style="mask-type:luminance" maskUnits="userSpaceOnUse" x="0" y="1" width="18" height="22">
<path d="M17.5 1H0.5V23H17.5V1Z" fill="white"/>
</mask>
<g mask="url(#mask1_872_268)">
<path fill-rule="evenodd" clip-rule="evenodd" d="M15.4988 1.01L5.49875 1C4.39875 1 3.49875 1.9 3.49875 3V6C3.49875 6.55 3.94875 7 4.49875 7C5.04875 7 5.49875 6.55 5.49875 6V5H15.4988V19H5.49875V18C5.49875 17.45 5.04875 17 4.49875 17C3.94875 17 3.49875 17.45 3.49875 18V21C3.49875 22.1 4.39875 23 5.49875 23H15.4988C16.5988 23 17.4988 22.1 17.4988 21V3C17.4988 1.9 16.5988 1.01 15.4988 1.01ZM8.49875 15C9.04875 15 9.49875 14.55 9.49875 14V9C9.49875 8.45 9.04875 8 8.49875 8H3.49875C2.94875 8 2.49875 8.45 2.49875 9C2.49875 9.55 2.94875 10 3.49875 10H6.08875L1.19875 14.89C0.80875 15.28 0.80875 15.91 1.19875 16.3C1.58875 16.69 2.21875 16.69 2.60875 16.3L7.49875 11.41V14C7.49875 14.55 7.94875 15 8.49875 15Z" fill="#1D1D1D"/>
</g>
</g>
</g>
<defs>
<clipPath id="clip0_872_268">
<rect width="17" height="23" fill="white" transform="translate(0.5 0.5)"/>
</clipPath>
</defs>
</svg>
