<svg width="22" height="23" viewBox="0 0 22 23" fill="none" xmlns="http://www.w3.org/2000/svg">
<path d="M11 21.5C12.1046 21.5 13 20.6046 13 19.5C13 18.3954 12.1046 17.5 11 17.5C9.89543 17.5 9 18.3954 9 19.5C9 20.6046 9.89543 21.5 11 21.5Z" fill="black"/>
<path d="M11 5.5C12.1046 5.5 13 4.60457 13 3.5C13 2.39543 12.1046 1.5 11 1.5C9.89543 1.5 9 2.39543 9 3.5C9 4.60457 9.89543 5.5 11 5.5Z" fill="black"/>
<path d="M11 13.5C12.1046 13.5 13 12.6046 13 11.5C13 10.3954 12.1046 9.5 11 9.5C9.89543 9.5 9 10.3954 9 11.5C9 12.6046 9.89543 13.5 11 13.5Z" fill="black"/>
</svg>
