<svg width="26" height="20" viewBox="0 0 26 20" fill="none" xmlns="http://www.w3.org/2000/svg">
<mask id="mask0_872_137" style="mask-type:luminance" maskUnits="userSpaceOnUse" x="0" y="1" width="26" height="18">
<path d="M25.5 1H0.5V19H25.5V1Z" fill="white"/>
</mask>
<g mask="url(#mask0_872_137)">
<mask id="mask1_872_137" style="mask-type:luminance" maskUnits="userSpaceOnUse" x="1" y="1" width="24" height="18">
<path d="M25 1H1V19H25V1Z" fill="white"/>
</mask>
<g mask="url(#mask1_872_137)">
<path d="M22.33 1.5H3C2.17157 1.5 1.5 2.17157 1.5 3V16.4975C1.5 17.3259 2.17157 17.9975 3 17.9975H22.33C23.1584 17.9975 23.83 17.3259 23.83 16.4975V3C23.83 2.17157 23.1584 1.5 22.33 1.5Z" stroke="black"/>
<path d="M2.16797 5.16602H23.165" stroke="black"/>
<path d="M19.831 12.6641H5.5C4.94772 12.6641 4.5 13.1118 4.5 13.6641V15.1636C4.5 15.7158 4.94772 16.1636 5.5 16.1636H19.831C20.3833 16.1636 20.831 15.7158 20.831 15.1636V13.6641C20.831 13.1118 20.3833 12.6641 19.831 12.6641Z" fill="black"/>
</g>
</g>
</svg>
