<svg width="83" height="117" viewBox="0 0 83 117" fill="none" xmlns="http://www.w3.org/2000/svg">
<mask id="mask0_880_407" style="mask-type:luminance" maskUnits="userSpaceOnUse" x="0" y="0" width="83" height="117">
<path d="M82.5 0.5H0.5V116.5H82.5V0.5Z" fill="white"/>
</mask>
<g mask="url(#mask0_880_407)">
<mask id="mask1_880_407" style="mask-type:luminance" maskUnits="userSpaceOnUse" x="0" y="1" width="83" height="115">
<path d="M82.5 1H0.5V116H82.5V1Z" fill="white"/>
</mask>
<g mask="url(#mask1_880_407)">
<mask id="mask2_880_407" style="mask-type:luminance" maskUnits="userSpaceOnUse" x="0" y="1" width="83" height="115">
<path d="M82.5 1H0.5V116H82.5V1Z" fill="white"/>
</mask>
<g mask="url(#mask2_880_407)">
<path d="M45.9065 3.12701C43.7685 0.969201 40.2862 0.953079 38.1284 3.091L2.9649 37.9303C0.807091 40.0683 0.79097 43.5506 2.92889 45.7084C5.0668 47.8662 8.54917 47.8824 10.707 45.7444L41.9634 14.7761L72.9317 46.0325C75.0696 48.1903 78.552 48.2064 80.7098 46.0685C82.8676 43.9306 82.8837 40.4482 80.7458 38.2904L45.9065 3.12701ZM46.9993 115.024L47.4993 7.02351L36.4995 6.97258L35.9995 114.974L46.9993 115.024Z" fill="#869900"/>
</g>
</g>
</g>
</svg>
