<svg width="25" height="18" viewBox="0 0 25 18" fill="none" xmlns="http://www.w3.org/2000/svg">
<g clip-path="url(#clip0_837_238)">
<path d="M21.83 0.5H2.5C1.67157 0.5 1 1.17157 1 2V15.4975C1 16.3259 1.67157 16.9975 2.5 16.9975H21.83C22.6584 16.9975 23.33 16.3259 23.33 15.4975V2C23.33 1.17157 22.6584 0.5 21.83 0.5Z" stroke="black"/>
<path d="M1.66626 4.16602H22.6633" stroke="black"/>
<path d="M19.3305 11.6641H4.99951C4.44723 11.6641 3.99951 12.1118 3.99951 12.6641V14.1636C3.99951 14.7158 4.44723 15.1636 4.99951 15.1636H19.3305C19.8828 15.1636 20.3305 14.7158 20.3305 14.1636V12.6641C20.3305 12.1118 19.8828 11.6641 19.3305 11.6641Z" fill="black"/>
</g>
<defs>
<clipPath id="clip0_837_238">
<rect width="24" height="18" fill="white" transform="translate(0.5)"/>
</clipPath>
</defs>
</svg>
