<svg width="25" height="19" viewBox="0 0 25 19" fill="none" xmlns="http://www.w3.org/2000/svg">
<g clip-path="url(#clip0_839_559)">
<mask id="mask0_839_559" style="mask-type:luminance" maskUnits="userSpaceOnUse" x="0" y="0" width="25" height="19">
<path d="M24.5 0.5H0.5V18.5H24.5V0.5Z" fill="white"/>
</mask>
<g mask="url(#mask0_839_559)">
<path d="M21.83 1H2.5C1.67157 1 1 1.67157 1 2.5V15.9975C1 16.8259 1.67157 17.4975 2.5 17.4975H21.83C22.6584 17.4975 23.33 16.8259 23.33 15.9975V2.5C23.33 1.67157 22.6584 1 21.83 1Z" stroke="black"/>
<path d="M1.66602 4.66602H22.6631" stroke="black"/>
<path d="M19.33 12.1641H4.99902C4.44674 12.1641 3.99902 12.6118 3.99902 13.1641V14.6636C3.99902 15.2158 4.44674 15.6636 4.99902 15.6636H19.33C19.8823 15.6636 20.33 15.2158 20.33 14.6636V13.1641C20.33 12.6118 19.8823 12.1641 19.33 12.1641Z" fill="black"/>
</g>
</g>
<defs>
<clipPath id="clip0_839_559">
<rect width="25" height="18" fill="white" transform="translate(0 0.5)"/>
</clipPath>
</defs>
</svg>
