<svg width="19" height="24" viewBox="0 0 19 24" fill="none" xmlns="http://www.w3.org/2000/svg">
<mask id="mask0_872_149" style="mask-type:luminance" maskUnits="userSpaceOnUse" x="0" y="1" width="19" height="22">
<path d="M18.5 1H0.5V23H18.5V1Z" fill="white"/>
</mask>
<g mask="url(#mask0_872_149)">
<mask id="mask1_872_149" style="mask-type:luminance" maskUnits="userSpaceOnUse" x="1" y="1" width="17" height="22">
<path d="M18 1H1V23H18V1Z" fill="white"/>
</mask>
<g mask="url(#mask1_872_149)">
<mask id="mask2_872_149" style="mask-type:luminance" maskUnits="userSpaceOnUse" x="1" y="1" width="17" height="22">
<path d="M18 1H1V23H18V1Z" fill="white"/>
</mask>
<g mask="url(#mask2_872_149)">
<path d="M3.862 22.708H15.094C16.066 22.708 16.768 22.492 17.254 22.006C17.74 21.52 17.956 20.818 17.956 19.9V9.856C17.956 8.938 17.74 8.236 17.254 7.75C16.768 7.264 16.066 7.048 15.094 7.048H12.34V8.236H15.094C15.634 8.236 16.066 8.398 16.336 8.668C16.606 8.938 16.768 9.37 16.768 9.964V19.792C16.768 20.332 16.606 20.764 16.336 21.088C16.066 21.412 15.634 21.52 15.094 21.52H3.916C3.376 21.52 2.944 21.358 2.674 21.088C2.404 20.818 2.242 20.386 2.242 19.792V9.91C2.242 9.37 2.404 8.938 2.674 8.614C2.944 8.29 3.376 8.182 3.916 8.182H6.67V6.994H3.862C2.89 6.994 2.188 7.21 1.702 7.696C1.216 8.182 1 8.938 1 9.856V19.846C1 20.764 1.216 21.52 1.702 21.952C2.188 22.384 2.944 22.708 3.862 22.708ZM9.478 15.202C9.64 15.202 9.802 15.148 9.91 15.04C10.018 14.932 10.072 14.77 10.072 14.608V4.078L10.018 2.674L10.882 3.592L12.556 5.32C12.664 5.428 12.826 5.482 12.988 5.482C13.15 5.482 13.258 5.428 13.366 5.32C13.474 5.212 13.528 5.104 13.528 4.942C13.528 4.78 13.474 4.672 13.366 4.564L9.91 1.216C9.856 1.162 9.748 1.108 9.694 1.054C9.64 1 9.586 1 9.478 1C9.424 1 9.316 1 9.262 1.054C9.208 1.108 9.1 1.162 9.046 1.216L5.644 4.564C5.482 4.672 5.428 4.78 5.428 4.942C5.428 5.104 5.482 5.212 5.59 5.32C5.698 5.428 5.806 5.482 5.968 5.482C6.13 5.482 6.292 5.428 6.4 5.32L8.074 3.592L8.938 2.674L8.884 4.078V14.608C8.884 14.77 8.938 14.878 9.046 15.04C9.154 15.202 9.316 15.202 9.478 15.202Z" fill="#0A56AA"/>
</g>
</g>
</g>
</svg>
