<svg width="18" height="22" viewBox="0 0 18 22" fill="none" xmlns="http://www.w3.org/2000/svg">
<g clip-path="url(#clip0_837_242)">
<mask id="mask0_837_242" style="mask-type:luminance" maskUnits="userSpaceOnUse" x="0" y="0" width="18" height="22">
<path d="M17.5 0H0.5V22H17.5V0Z" fill="white"/>
</mask>
<g mask="url(#mask0_837_242)">
<path d="M3.362 21.708H14.594C15.566 21.708 16.268 21.492 16.754 21.006C17.24 20.52 17.456 19.818 17.456 18.9V8.856C17.456 7.938 17.24 7.236 16.754 6.75C16.268 6.264 15.566 6.048 14.594 6.048H11.84V7.236H14.594C15.134 7.236 15.566 7.398 15.836 7.668C16.106 7.938 16.268 8.37 16.268 8.964V18.792C16.268 19.332 16.106 19.764 15.836 20.088C15.566 20.412 15.134 20.52 14.594 20.52H3.416C2.876 20.52 2.444 20.358 2.174 20.088C1.904 19.818 1.742 19.386 1.742 18.792V8.91C1.742 8.37 1.904 7.938 2.174 7.614C2.444 7.29 2.876 7.182 3.416 7.182H6.17V5.994H3.362C2.39 5.994 1.688 6.21 1.202 6.696C0.716 7.182 0.5 7.938 0.5 8.856V18.846C0.5 19.764 0.716 20.52 1.202 20.952C1.688 21.384 2.444 21.708 3.362 21.708ZM8.978 14.202C9.14 14.202 9.302 14.148 9.41 14.04C9.518 13.932 9.572 13.77 9.572 13.608V3.078L9.518 1.674L10.382 2.592L12.056 4.32C12.164 4.428 12.326 4.482 12.488 4.482C12.65 4.482 12.758 4.428 12.866 4.32C12.974 4.212 13.028 4.104 13.028 3.942C13.028 3.78 12.974 3.672 12.866 3.564L9.41 0.216C9.356 0.162 9.248 0.108 9.194 0.054C9.14 0 9.086 0 8.978 0C8.924 0 8.816 0 8.762 0.054C8.708 0.108 8.6 0.162 8.546 0.216L5.144 3.564C4.982 3.672 4.928 3.78 4.928 3.942C4.928 4.104 4.982 4.212 5.09 4.32C5.198 4.428 5.306 4.482 5.468 4.482C5.63 4.482 5.792 4.428 5.9 4.32L7.574 2.592L8.438 1.674L8.384 3.078V13.608C8.384 13.77 8.438 13.878 8.546 14.04C8.654 14.202 8.816 14.202 8.978 14.202Z" fill="black"/>
</g>
</g>
<defs>
<clipPath id="clip0_837_242">
<rect width="17" height="22" fill="white" transform="translate(0.5)"/>
</clipPath>
</defs>
</svg>
