<svg width="84" height="116" viewBox="0 0 84 116" fill="none" xmlns="http://www.w3.org/2000/svg">
<mask id="mask0_872_165" style="mask-type:luminance" maskUnits="userSpaceOnUse" x="0" y="1" width="84" height="114">
<path d="M83.5 1H0.5V115H83.5V1Z" fill="white"/>
</mask>
<g mask="url(#mask0_872_165)">
<mask id="mask1_872_165" style="mask-type:luminance" maskUnits="userSpaceOnUse" x="1" y="1" width="82" height="114">
<path d="M83 1H1V115H83V1Z" fill="white"/>
</mask>
<g mask="url(#mask1_872_165)">
<path d="M38.3627 112.892C40.5106 115.04 43.993 115.04 46.1409 112.892L81.1427 77.8896C83.2906 75.7417 83.2906 72.2594 81.1427 70.1115C78.9948 67.9636 75.5124 67.9636 73.3645 70.1115L42.2518 101.225L11.1391 70.1115C8.9912 67.9636 5.5088 67.9636 3.36092 70.1115C1.21303 72.2594 1.21303 75.7417 3.36092 77.8896L38.3627 112.892ZM36.7518 1V109.003H47.7518V1H36.7518Z" fill="#869900"/>
</g>
</g>
</svg>
