<svg width="49" height="49" viewBox="0 0 49 49" fill="none" xmlns="http://www.w3.org/2000/svg">
<path d="M10.8929 26.8996C10.231 26.8996 9.66667 26.6639 9.2 26.1925C8.73333 25.7211 8.5 25.1545 8.5 24.4925C8.5 23.8306 8.7357 23.2663 9.2071 22.7996C9.67847 22.3329 10.2451 22.0996 10.9071 22.0996C11.569 22.0996 12.1333 22.3353 12.6 22.8067C13.0667 23.2781 13.3 23.8447 13.3 24.5067C13.3 25.1686 13.0643 25.7329 12.5929 26.1996C12.1215 26.6663 11.5549 26.8996 10.8929 26.8996ZM24.4929 26.8996C23.831 26.8996 23.2667 26.6639 22.8 26.1925C22.3333 25.7211 22.1 25.1545 22.1 24.4925C22.1 23.8306 22.3357 23.2663 22.8071 22.7996C23.2785 22.3329 23.8451 22.0996 24.5071 22.0996C25.169 22.0996 25.7333 22.3353 26.2 22.8067C26.6667 23.2781 26.9 23.8447 26.9 24.5067C26.9 25.1686 26.6643 25.7329 26.1929 26.1996C25.7215 26.6663 25.1549 26.8996 24.4929 26.8996ZM38.0929 26.8996C37.431 26.8996 36.8667 26.6639 36.4 26.1925C35.9333 25.7211 35.7 25.1545 35.7 24.4925C35.7 23.8306 35.9357 23.2663 36.4071 22.7996C36.8785 22.3329 37.4451 22.0996 38.1071 22.0996C38.769 22.0996 39.3333 22.3353 39.8 22.8067C40.2667 23.2781 40.5 23.8447 40.5 24.5067C40.5 25.1686 40.2643 25.7329 39.7929 26.1996C39.3215 26.6663 38.7549 26.8996 38.0929 26.8996Z" fill="black"/>
</svg>
