<svg width="50" height="50" viewBox="0 0 50 50" fill="none" xmlns="http://www.w3.org/2000/svg">
<path d="M11.3929 27.3996C10.731 27.3996 10.1667 27.1639 9.7 26.6925C9.23333 26.2211 9 25.6545 9 24.9925C9 24.3306 9.2357 23.7663 9.7071 23.2996C10.1785 22.8329 10.7451 22.5996 11.4071 22.5996C12.069 22.5996 12.6333 22.8353 13.1 23.3067C13.5667 23.7781 13.8 24.3447 13.8 25.0067C13.8 25.6686 13.5643 26.2329 13.0929 26.6996C12.6215 27.1663 12.0549 27.3996 11.3929 27.3996ZM24.9929 27.3996C24.331 27.3996 23.7667 27.1639 23.3 26.6925C22.8333 26.2211 22.6 25.6545 22.6 24.9925C22.6 24.3306 22.8357 23.7663 23.3071 23.2996C23.7785 22.8329 24.3451 22.5996 25.0071 22.5996C25.669 22.5996 26.2333 22.8353 26.7 23.3067C27.1667 23.7781 27.4 24.3447 27.4 25.0067C27.4 25.6686 27.1643 26.2329 26.6929 26.6996C26.2215 27.1663 25.6549 27.3996 24.9929 27.3996ZM38.5929 27.3996C37.931 27.3996 37.3667 27.1639 36.9 26.6925C36.4333 26.2211 36.2 25.6545 36.2 24.9925C36.2 24.3306 36.4357 23.7663 36.9071 23.2996C37.3785 22.8329 37.9451 22.5996 38.6071 22.5996C39.269 22.5996 39.8333 22.8353 40.3 23.3067C40.7667 23.7781 41 24.3447 41 25.0067C41 25.6686 40.7643 26.2329 40.2929 26.6996C39.8215 27.1663 39.2549 27.3996 38.5929 27.3996Z" fill="black"/>
</svg>
