<svg width="83" height="116" viewBox="0 0 83 116" fill="none" xmlns="http://www.w3.org/2000/svg">
<g clip-path="url(#clip0_839_463)">
<mask id="mask0_839_463" style="mask-type:luminance" maskUnits="userSpaceOnUse" x="0" y="0" width="83" height="116">
<path d="M82.5 0.5H0.5V115.5H82.5V0.5Z" fill="white"/>
</mask>
<g mask="url(#mask0_839_463)">
<path d="M45.9075 2.62701C43.7695 0.469201 40.2872 0.453079 38.1294 2.591L2.96588 37.4303C0.808068 39.5683 0.791947 43.0506 2.92987 45.2084C5.06778 47.3662 8.55015 47.3824 10.708 45.2444L41.9644 14.2761L72.9327 45.5325C75.0706 47.6903 78.553 47.7064 80.7108 45.5685C82.8686 43.4306 82.8847 39.9482 80.7468 37.7904L45.9075 2.62701ZM47.0003 114.524L47.5003 6.52351L36.5005 6.47258L36.0005 114.474L47.0003 114.524Z" fill="#869900"/>
</g>
</g>
<defs>
<clipPath id="clip0_839_463">
<rect width="83" height="115" fill="white" transform="translate(0 0.5)"/>
</clipPath>
</defs>
</svg>
