<svg width="49" height="48" viewBox="0 0 49 48" fill="none" xmlns="http://www.w3.org/2000/svg">
<path d="M10.8929 26.3996C10.231 26.3996 9.66667 26.1639 9.2 25.6925C8.73333 25.2211 8.5 24.6545 8.5 23.9925C8.5 23.3306 8.7357 22.7663 9.2071 22.2996C9.67847 21.8329 10.2451 21.5996 10.9071 21.5996C11.569 21.5996 12.1333 21.8353 12.6 22.3067C13.0667 22.7781 13.3 23.3447 13.3 24.0067C13.3 24.6686 13.0643 25.2329 12.5929 25.6996C12.1215 26.1663 11.5549 26.3996 10.8929 26.3996ZM24.4929 26.3996C23.831 26.3996 23.2667 26.1639 22.8 25.6925C22.3333 25.2211 22.1 24.6545 22.1 23.9925C22.1 23.3306 22.3357 22.7663 22.8071 22.2996C23.2785 21.8329 23.8451 21.5996 24.5071 21.5996C25.169 21.5996 25.7333 21.8353 26.2 22.3067C26.6667 22.7781 26.9 23.3447 26.9 24.0067C26.9 24.6686 26.6643 25.2329 26.1929 25.6996C25.7215 26.1663 25.1549 26.3996 24.4929 26.3996ZM38.0929 26.3996C37.431 26.3996 36.8667 26.1639 36.4 25.6925C35.9333 25.2211 35.7 24.6545 35.7 23.9925C35.7 23.3306 35.9357 22.7663 36.4071 22.2996C36.8785 21.8329 37.4451 21.5996 38.1071 21.5996C38.769 21.5996 39.3333 21.8353 39.8 22.3067C40.2667 22.7781 40.5 23.3447 40.5 24.0067C40.5 24.6686 40.2643 25.2329 39.7929 25.6996C39.3215 26.1663 38.7549 26.3996 38.0929 26.3996Z" fill="black"/>
</svg>
