<svg width="162" height="31" viewBox="0 0 162 31" fill="none" xmlns="http://www.w3.org/2000/svg">
<path d="M152.484 19.7512C152.483 20.2444 152.385 20.7325 152.196 21.1878C152.006 21.6431 151.729 22.0566 151.38 22.4047C151.032 22.7528 150.618 23.0287 150.162 23.2166C149.707 23.4046 149.219 23.5009 148.726 23.5L139.244 23.4834C138.249 23.4817 137.296 23.0844 136.594 22.3789C135.892 21.6734 135.498 20.7175 135.5 19.7216L135.516 10.2488C135.517 9.75563 135.615 9.26747 135.804 8.81218C135.994 8.3569 136.271 7.94339 136.62 7.59529C136.968 7.24718 137.382 6.97129 137.838 6.78336C138.293 6.59543 138.781 6.49915 139.274 6.50001L148.756 6.51658C149.751 6.51832 150.704 6.91564 151.406 7.62113C152.108 8.32661 152.502 9.28247 152.5 10.2784L152.484 19.7512ZM151.259 10.4507C151.259 10.0993 151.191 9.75117 151.057 9.42625C150.923 9.10133 150.727 8.80597 150.479 8.55703C150.231 8.30809 149.937 8.11045 149.613 7.97539C149.289 7.84034 148.942 7.77051 148.591 7.76989L139.424 7.75387C139.073 7.75325 138.725 7.82186 138.401 7.95578C138.076 8.0897 137.781 8.28631 137.532 8.53438C137.284 8.78244 137.086 9.07712 136.952 9.40156C136.817 9.72601 136.747 10.0739 136.746 10.4253L136.731 19.4839C136.73 19.8353 136.798 20.1834 136.932 20.5083C137.066 20.8333 137.262 21.1286 137.51 21.3776C137.758 21.6265 138.052 21.8241 138.376 21.9592C138.7 22.0943 139.048 22.1641 139.399 22.1647L148.565 22.1807C148.916 22.1813 149.264 22.1127 149.589 21.9788C149.913 21.8449 150.208 21.6483 150.457 21.4002C150.705 21.1522 150.903 20.8575 151.038 20.533C151.172 20.2086 151.242 19.8607 151.243 19.5093L151.259 10.4507Z" fill="black"/>
<path d="M147.689 14.5195H140.632C140.278 14.5195 139.991 14.8067 139.991 15.161C139.991 15.5153 140.278 15.8026 140.632 15.8026H147.689C148.043 15.8026 148.331 15.5153 148.331 15.161C148.331 14.8067 148.043 14.5195 147.689 14.5195Z" fill="black"/>
<path d="M144.802 18.6883V11.6317C144.802 11.2774 144.515 10.9902 144.16 10.9902C143.806 10.9902 143.519 11.2774 143.519 11.6317V18.6883C143.519 19.0426 143.806 19.3298 144.16 19.3298C144.515 19.3298 144.802 19.0426 144.802 18.6883Z" fill="black"/>
<path d="M8.94434 20.5L12.2515 11.3403H13.4004V12.9463H12.9688L10.4424 20.5H8.94434ZM10.5376 18.0244L10.9375 16.8818H15.1079L15.5078 18.0244H10.5376ZM15.5967 20.5L13.0767 12.9463V11.3403H13.7939L17.0947 20.5H15.5967ZM20.2721 20.6143C19.6966 20.6143 19.193 20.4704 18.7614 20.1826C18.334 19.8906 18.0018 19.478 17.7648 18.9448C17.532 18.4116 17.4157 17.7832 17.4157 17.0596V17.0469C17.4157 16.319 17.532 15.6885 17.7648 15.1553C17.9975 14.6221 18.3276 14.2116 18.755 13.9238C19.1824 13.6318 19.6881 13.4858 20.2721 13.4858C20.5895 13.4858 20.8857 13.5366 21.1608 13.6382C21.4358 13.7355 21.6792 13.8752 21.8908 14.0571C22.1023 14.2349 22.2695 14.4486 22.3922 14.6982H22.4938V10.9023H23.8776V20.5H22.4938V19.4146H22.3922C22.2568 19.6642 22.0854 19.88 21.8781 20.062C21.6707 20.2397 21.4316 20.3773 21.1608 20.4746C20.8899 20.5677 20.5937 20.6143 20.2721 20.6143ZM20.6657 19.4336C21.0465 19.4336 21.3766 19.3384 21.6559 19.1479C21.9352 18.9575 22.1489 18.6846 22.297 18.3291C22.4451 17.9694 22.5192 17.5462 22.5192 17.0596V17.0469C22.5192 16.556 22.443 16.1328 22.2907 15.7773C22.1426 15.4219 21.9288 15.1489 21.6496 14.9585C21.3745 14.7638 21.0465 14.6665 20.6657 14.6665C20.2848 14.6665 19.9547 14.7638 19.6754 14.9585C19.4004 15.1489 19.1888 15.4219 19.0407 15.7773C18.8968 16.1286 18.8248 16.5518 18.8248 17.0469V17.0596C18.8248 17.5505 18.8968 17.9736 19.0407 18.3291C19.1888 18.6846 19.4004 18.9575 19.6754 19.1479C19.9547 19.3384 20.2848 19.4336 20.6657 19.4336ZM28.0452 20.6143C27.4697 20.6143 26.9661 20.4704 26.5345 20.1826C26.107 19.8906 25.7748 19.478 25.5379 18.9448C25.3051 18.4116 25.1887 17.7832 25.1887 17.0596V17.0469C25.1887 16.319 25.3051 15.6885 25.5379 15.1553C25.7706 14.6221 26.1007 14.2116 26.5281 13.9238C26.9555 13.6318 27.4612 13.4858 28.0452 13.4858C28.3626 13.4858 28.6588 13.5366 28.9339 13.6382C29.2089 13.7355 29.4523 13.8752 29.6638 14.0571C29.8754 14.2349 30.0426 14.4486 30.1653 14.6982H30.2669V10.9023H31.6507V20.5H30.2669V19.4146H30.1653C30.0299 19.6642 29.8585 19.88 29.6512 20.062C29.4438 20.2397 29.2047 20.3773 28.9339 20.4746C28.663 20.5677 28.3668 20.6143 28.0452 20.6143ZM28.4387 19.4336C28.8196 19.4336 29.1497 19.3384 29.429 19.1479C29.7083 18.9575 29.922 18.6846 30.0701 18.3291C30.2182 17.9694 30.2923 17.5462 30.2923 17.0596V17.0469C30.2923 16.556 30.2161 16.1328 30.0637 15.7773C29.9156 15.4219 29.7019 15.1489 29.4226 14.9585C29.1476 14.7638 28.8196 14.6665 28.4387 14.6665C28.0579 14.6665 27.7278 14.7638 27.4485 14.9585C27.1734 15.1489 26.9619 15.4219 26.8137 15.7773C26.6699 16.1286 26.5979 16.5518 26.5979 17.0469V17.0596C26.5979 17.5505 26.6699 17.9736 26.8137 18.3291C26.9619 18.6846 27.1734 18.9575 27.4485 19.1479C27.7278 19.3384 28.0579 19.4336 28.4387 19.4336ZM39.0591 20.5444C38.3059 20.5444 37.76 20.4006 37.4214 20.1128C37.0871 19.8208 36.92 19.3447 36.92 18.6846V14.6919H35.8409V13.6064H36.92V11.8672H38.3292V13.6064H39.8082V14.6919H38.3292V18.3481C38.3292 18.7205 38.4032 18.9893 38.5513 19.1543C38.6994 19.3151 38.9449 19.3955 39.2877 19.3955C39.3892 19.3955 39.476 19.3934 39.5479 19.3892C39.6241 19.3849 39.7108 19.3786 39.8082 19.3701V20.4746C39.6981 20.4915 39.5796 20.5063 39.4527 20.519C39.3257 20.536 39.1946 20.5444 39.0591 20.5444ZM43.8742 20.6333C43.2014 20.6333 42.6195 20.4894 42.1286 20.2017C41.642 19.9139 41.2674 19.5034 41.0051 18.9702C40.7427 18.4328 40.6115 17.7959 40.6115 17.0596V17.0469C40.6115 16.3063 40.7427 15.6694 41.0051 15.1362C41.2717 14.603 41.6483 14.1925 42.135 13.9048C42.6258 13.617 43.2056 13.4731 43.8742 13.4731C44.5471 13.4731 45.1268 13.617 45.6135 13.9048C46.1001 14.1883 46.4746 14.5988 46.737 15.1362C47.0036 15.6694 47.1369 16.3063 47.1369 17.0469V17.0596C47.1369 17.7959 47.0036 18.4328 46.737 18.9702C46.4746 19.5034 46.1001 19.9139 45.6135 20.2017C45.1311 20.4894 44.5513 20.6333 43.8742 20.6333ZM43.8742 19.478C44.2678 19.478 44.6021 19.3828 44.8771 19.1924C45.1522 18.9977 45.3617 18.7205 45.5056 18.3608C45.6494 18.0011 45.7214 17.5674 45.7214 17.0596V17.0469C45.7214 16.5348 45.6494 16.099 45.5056 15.7393C45.3617 15.3796 45.1522 15.1045 44.8771 14.9141C44.6021 14.7194 44.2678 14.6221 43.8742 14.6221C43.4807 14.6221 43.1464 14.7194 42.8713 14.9141C42.5962 15.1045 42.3846 15.3796 42.2365 15.7393C42.0926 16.099 42.0207 16.5348 42.0207 17.0469V17.0596C42.0207 17.5674 42.0926 18.0011 42.2365 18.3608C42.3846 18.7205 42.5962 18.9977 42.8713 19.1924C43.1464 19.3828 43.4807 19.478 43.8742 19.478ZM51.6953 20.5V11.3403H53.1172V15.2124H57.8144V11.3403H59.2427V20.5H57.8144V16.4438H53.1172V20.5H51.6953ZM63.9181 20.6333C63.2452 20.6333 62.6634 20.4894 62.1725 20.2017C61.6858 19.9139 61.3113 19.5034 61.0489 18.9702C60.7866 18.4328 60.6554 17.7959 60.6554 17.0596V17.0469C60.6554 16.3063 60.7866 15.6694 61.0489 15.1362C61.3155 14.603 61.6922 14.1925 62.1788 13.9048C62.6697 13.617 63.2495 13.4731 63.9181 13.4731C64.5909 13.4731 65.1707 13.617 65.6573 13.9048C66.144 14.1883 66.5185 14.5988 66.7809 15.1362C67.0475 15.6694 67.1808 16.3063 67.1808 17.0469V17.0596C67.1808 17.7959 67.0475 18.4328 66.7809 18.9702C66.5185 19.5034 66.144 19.9139 65.6573 20.2017C65.1749 20.4894 64.5952 20.6333 63.9181 20.6333ZM63.9181 19.478C64.3116 19.478 64.646 19.3828 64.921 19.1924C65.1961 18.9977 65.4056 18.7205 65.5494 18.3608C65.6933 18.0011 65.7653 17.5674 65.7653 17.0596V17.0469C65.7653 16.5348 65.6933 16.099 65.5494 15.7393C65.4056 15.3796 65.1961 15.1045 64.921 14.9141C64.646 14.7194 64.3116 14.6221 63.9181 14.6221C63.5245 14.6221 63.1902 14.7194 62.9152 14.9141C62.6401 15.1045 62.4285 15.3796 62.2804 15.7393C62.1365 16.099 62.0646 16.5348 62.0646 17.0469V17.0596C62.0646 17.5674 62.1365 18.0011 62.2804 18.3608C62.4285 18.7205 62.6401 18.9977 62.9152 19.1924C63.1902 19.3828 63.5245 19.478 63.9181 19.478ZM68.4285 20.5V13.6064H69.8059V14.6665H69.9138C70.0662 14.2856 70.3032 13.9915 70.6248 13.7842C70.9506 13.5768 71.3399 13.4731 71.7927 13.4731C72.1059 13.4731 72.3873 13.5239 72.637 13.6255C72.8866 13.7271 73.1004 13.8709 73.2781 14.0571C73.4601 14.2391 73.6018 14.4549 73.7034 14.7046H73.8113C73.9255 14.4549 74.0864 14.2391 74.2937 14.0571C74.5011 13.8709 74.7423 13.7271 75.0173 13.6255C75.2966 13.5239 75.5929 13.4731 75.906 13.4731C76.3715 13.4731 76.7693 13.5641 77.0994 13.7461C77.4295 13.9238 77.6812 14.182 77.8547 14.5205C78.0283 14.859 78.115 15.2674 78.115 15.7456V20.5H76.7376V16.0757C76.7376 15.7583 76.6889 15.4959 76.5916 15.2886C76.4942 15.077 76.3461 14.9183 76.1472 14.8125C75.9526 14.7067 75.7071 14.6538 75.4109 14.6538C75.1189 14.6538 74.8629 14.7215 74.6428 14.8569C74.427 14.9881 74.2577 15.1659 74.135 15.3901C74.0165 15.6102 73.9573 15.8599 73.9573 16.1392V20.5H72.5798V15.936C72.5798 15.6737 72.5248 15.4473 72.4148 15.2568C72.309 15.0622 72.1567 14.9141 71.9578 14.8125C71.7589 14.7067 71.524 14.6538 71.2532 14.6538C70.9781 14.6538 70.7306 14.7257 70.5105 14.8696C70.2947 15.0135 70.1233 15.2082 69.9963 15.4536C69.8694 15.6948 69.8059 15.9657 69.8059 16.2661V20.5H68.4285ZM82.5492 20.6333C81.8764 20.6333 81.2987 20.4894 80.8163 20.2017C80.3339 19.9097 79.9615 19.4971 79.6991 18.9639C79.441 18.4307 79.3119 17.8001 79.3119 17.0723V17.0659C79.3119 16.3465 79.441 15.7181 79.6991 15.1807C79.9615 14.6432 80.3297 14.2243 80.8036 13.9238C81.2818 13.6234 81.8404 13.4731 82.4794 13.4731C83.1226 13.4731 83.6749 13.617 84.1361 13.9048C84.6016 14.1925 84.9592 14.5967 85.2089 15.1172C85.4586 15.6335 85.5834 16.2386 85.5834 16.9326V17.415H80.0102V16.4312H84.8979L84.2377 17.3452V16.793C84.2377 16.3021 84.1615 15.8958 84.0092 15.5742C83.8611 15.2484 83.6558 15.005 83.3935 14.8442C83.1311 14.6834 82.8285 14.603 82.4857 14.603C82.143 14.603 81.8362 14.6877 81.5653 14.8569C81.2987 15.022 81.0871 15.2674 80.9306 15.5933C80.7782 15.9191 80.702 16.319 80.702 16.793V17.3452C80.702 17.798 80.7782 18.1852 80.9306 18.5068C81.0829 18.8285 81.2987 19.0739 81.578 19.2432C81.8616 19.4124 82.1959 19.4971 82.581 19.4971C82.8772 19.4971 83.1311 19.4569 83.3427 19.3765C83.5585 19.2918 83.7341 19.1882 83.8695 19.0654C84.0092 18.9427 84.1044 18.8221 84.1552 18.7036L84.1806 18.6528H85.5136L85.5009 18.71C85.4416 18.9385 85.338 19.167 85.1898 19.3955C85.0417 19.6198 84.845 19.825 84.5995 20.0112C84.3583 20.1974 84.0663 20.3477 83.7235 20.4619C83.385 20.5762 82.9936 20.6333 82.5492 20.6333ZM93.2394 20.7222C92.5497 20.7222 91.9487 20.6143 91.4367 20.3984C90.9247 20.1784 90.5205 19.8737 90.2243 19.4844C89.9281 19.0951 89.7588 18.6444 89.7165 18.1323L89.7101 18.0498H91.113L91.1193 18.1196C91.1489 18.3947 91.2568 18.6338 91.443 18.8369C91.6335 19.04 91.8874 19.1987 92.2048 19.313C92.5264 19.4272 92.8924 19.4844 93.3029 19.4844C93.688 19.4844 94.0308 19.423 94.3312 19.3003C94.6317 19.1776 94.8665 19.0083 95.0358 18.7925C95.2093 18.5767 95.2961 18.3291 95.2961 18.0498V18.0435C95.2961 17.6922 95.1628 17.4002 94.8962 17.1675C94.6296 16.9347 94.1937 16.7528 93.5886 16.6216L92.5856 16.4121C91.6589 16.2132 90.9839 15.8979 90.5607 15.4663C90.1375 15.0304 89.926 14.474 89.926 13.7969V13.7905C89.9302 13.2616 90.072 12.7961 90.3512 12.394C90.6348 11.992 91.0262 11.6789 91.5256 11.4546C92.0249 11.2303 92.5983 11.1182 93.2458 11.1182C93.8932 11.1182 94.4582 11.2303 94.9406 11.4546C95.4273 11.6746 95.8102 11.9751 96.0895 12.356C96.3731 12.7368 96.5318 13.1663 96.5656 13.6445L96.572 13.7271H95.1818L95.1691 13.6445C95.131 13.3949 95.0274 13.1727 94.8581 12.978C94.693 12.7834 94.4709 12.631 94.1916 12.521C93.9165 12.4067 93.5949 12.3517 93.2267 12.356C92.8713 12.356 92.5539 12.411 92.2746 12.521C91.9953 12.6268 91.7731 12.7812 91.6081 12.9844C91.4473 13.1875 91.3669 13.4329 91.3669 13.7207V13.7271C91.3669 14.0656 91.4959 14.3491 91.7541 14.5776C92.0165 14.8019 92.4417 14.9775 93.03 15.1045L94.0329 15.3267C94.6719 15.4621 95.1903 15.6419 95.5881 15.8662C95.9859 16.0905 96.2757 16.3677 96.4577 16.6978C96.6439 17.0236 96.737 17.4129 96.737 17.8657V17.8721C96.737 18.4561 96.5931 18.9618 96.3054 19.3892C96.0218 19.8123 95.6177 20.1403 95.0929 20.373C94.5682 20.6058 93.9504 20.7222 93.2394 20.7222ZM100.962 20.6333C100.293 20.6333 99.7155 20.4894 99.2288 20.2017C98.7464 19.9097 98.374 19.495 98.1116 18.9575C97.8493 18.4201 97.7181 17.779 97.7181 17.0342V17.0215C97.7181 16.2894 97.8472 15.6589 98.1053 15.1299C98.3677 14.6009 98.7401 14.1925 99.2225 13.9048C99.7091 13.617 100.287 13.4731 100.955 13.4731C101.535 13.4731 102.032 13.5747 102.447 13.7778C102.866 13.9767 103.198 14.2518 103.444 14.603C103.693 14.95 103.85 15.3457 103.913 15.79L103.92 15.8218H102.593L102.587 15.8091C102.511 15.4705 102.335 15.1891 102.06 14.9648C101.785 14.7363 101.419 14.6221 100.962 14.6221C100.581 14.6221 100.253 14.7194 99.9779 14.9141C99.7028 15.1045 99.4912 15.3796 99.3431 15.7393C99.1992 16.099 99.1273 16.5264 99.1273 17.0215V17.0342C99.1273 17.542 99.2013 17.9779 99.3494 18.3418C99.4975 18.7057 99.7091 18.9871 99.9842 19.186C100.259 19.3807 100.585 19.478 100.962 19.478C101.393 19.478 101.743 19.3828 102.009 19.1924C102.28 19.002 102.47 18.7205 102.58 18.3481L102.593 18.3164L103.913 18.3101L103.901 18.3672C103.82 18.8158 103.657 19.2093 103.412 19.5479C103.166 19.8864 102.839 20.153 102.428 20.3477C102.022 20.5381 101.533 20.6333 100.962 20.6333ZM105.085 20.5V13.6064H106.462V14.6475H106.57C106.693 14.2793 106.909 13.9937 107.218 13.7905C107.531 13.5874 107.916 13.4858 108.373 13.4858C108.487 13.4858 108.599 13.4922 108.709 13.5049C108.819 13.5176 108.908 13.5324 108.976 13.5493V14.8188C108.853 14.7935 108.731 14.7744 108.608 14.7617C108.489 14.749 108.365 14.7427 108.233 14.7427C107.882 14.7427 107.573 14.8104 107.307 14.9458C107.044 15.0812 106.837 15.2716 106.685 15.5171C106.536 15.7583 106.462 16.0461 106.462 16.3804V20.5H105.085ZM112.629 20.6333C111.957 20.6333 111.379 20.4894 110.897 20.2017C110.414 19.9097 110.042 19.4971 109.779 18.9639C109.521 18.4307 109.392 17.8001 109.392 17.0723V17.0659C109.392 16.3465 109.521 15.7181 109.779 15.1807C110.042 14.6432 110.41 14.2243 110.884 13.9238C111.362 13.6234 111.921 13.4731 112.56 13.4731C113.203 13.4731 113.755 13.617 114.216 13.9048C114.682 14.1925 115.039 14.5967 115.289 15.1172C115.539 15.6335 115.664 16.2386 115.664 16.9326V17.415H110.09V16.4312H114.978L114.318 17.3452V16.793C114.318 16.3021 114.242 15.8958 114.089 15.5742C113.941 15.2484 113.736 15.005 113.474 14.8442C113.211 14.6834 112.909 14.603 112.566 14.603C112.223 14.603 111.916 14.6877 111.646 14.8569C111.379 15.022 111.167 15.2674 111.011 15.5933C110.858 15.9191 110.782 16.319 110.782 16.793V17.3452C110.782 17.798 110.858 18.1852 111.011 18.5068C111.163 18.8285 111.379 19.0739 111.658 19.2432C111.942 19.4124 112.276 19.4971 112.661 19.4971C112.957 19.4971 113.211 19.4569 113.423 19.3765C113.639 19.2918 113.814 19.1882 113.95 19.0654C114.089 18.9427 114.185 18.8221 114.235 18.7036L114.261 18.6528H115.594L115.581 18.71C115.522 18.9385 115.418 19.167 115.27 19.3955C115.122 19.6198 114.925 19.825 114.68 20.0112C114.439 20.1974 114.147 20.3477 113.804 20.4619C113.465 20.5762 113.074 20.6333 112.629 20.6333ZM119.806 20.6333C119.133 20.6333 118.555 20.4894 118.073 20.2017C117.591 19.9097 117.218 19.4971 116.956 18.9639C116.698 18.4307 116.569 17.8001 116.569 17.0723V17.0659C116.569 16.3465 116.698 15.7181 116.956 15.1807C117.218 14.6432 117.586 14.2243 118.06 13.9238C118.538 13.6234 119.097 13.4731 119.736 13.4731C120.379 13.4731 120.932 13.617 121.393 13.9048C121.858 14.1925 122.216 14.5967 122.466 15.1172C122.715 15.6335 122.84 16.2386 122.84 16.9326V17.415H117.267V16.4312H122.155L121.494 17.3452V16.793C121.494 16.3021 121.418 15.8958 121.266 15.5742C121.118 15.2484 120.913 15.005 120.65 14.8442C120.388 14.6834 120.085 14.603 119.742 14.603C119.4 14.603 119.093 14.6877 118.822 14.8569C118.555 15.022 118.344 15.2674 118.187 15.5933C118.035 15.9191 117.959 16.319 117.959 16.793V17.3452C117.959 17.798 118.035 18.1852 118.187 18.5068C118.34 18.8285 118.555 19.0739 118.835 19.2432C119.118 19.4124 119.453 19.4971 119.838 19.4971C120.134 19.4971 120.388 19.4569 120.599 19.3765C120.815 19.2918 120.991 19.1882 121.126 19.0654C121.266 18.9427 121.361 18.8221 121.412 18.7036L121.437 18.6528H122.77L122.758 18.71C122.698 18.9385 122.595 19.167 122.447 19.3955C122.298 19.6198 122.102 19.825 121.856 20.0112C121.615 20.1974 121.323 20.3477 120.98 20.4619C120.642 20.5762 120.25 20.6333 119.806 20.6333ZM124.088 20.5V13.6064H125.465V14.6475H125.573C125.742 14.2793 125.992 13.9915 126.322 13.7842C126.652 13.5768 127.069 13.4731 127.573 13.4731C128.347 13.4731 128.94 13.6953 129.35 14.1396C129.76 14.584 129.966 15.2166 129.966 16.0376V20.5H128.582V16.3613C128.582 15.7858 128.461 15.3584 128.22 15.0791C127.983 14.7956 127.611 14.6538 127.103 14.6538C126.769 14.6538 126.479 14.7279 126.233 14.876C125.988 15.0199 125.797 15.2272 125.662 15.498C125.531 15.7646 125.465 16.0841 125.465 16.4565V20.5H124.088Z" fill="black"/>
</svg>
