<svg width="19" height="24" viewBox="0 0 19 24" fill="none" xmlns="http://www.w3.org/2000/svg">
<mask id="mask0_872_251" style="mask-type:luminance" maskUnits="userSpaceOnUse" x="0" y="1" width="19" height="22">
<path d="M18.5 1H0.5V23H18.5V1Z" fill="white"/>
</mask>
<g mask="url(#mask0_872_251)">
<mask id="mask1_872_251" style="mask-type:luminance" maskUnits="userSpaceOnUse" x="1" y="1" width="17" height="22">
<path d="M18 1H1V23H18V1Z" fill="white"/>
</mask>
<g mask="url(#mask1_872_251)">
<path d="M3.76815 22.1993H14.6318C15.572 22.1993 16.251 21.9904 16.721 21.5203C17.1911 21.0502 17.4 20.3712 17.4 19.4834V9.76873C17.4 8.88083 17.1911 8.20185 16.721 7.73179C16.251 7.26172 15.572 7.05281 14.6318 7.05281H11.9682V8.20185H14.6318C15.1541 8.20185 15.572 8.35854 15.8331 8.61969C16.0943 8.88083 16.251 9.29867 16.251 9.87319V19.3789C16.251 19.9012 16.0943 20.319 15.8331 20.6324C15.572 20.9458 15.1541 21.0502 14.6318 21.0502H3.82038C3.29809 21.0502 2.88025 20.8935 2.61911 20.6324C2.35796 20.3712 2.20127 19.9534 2.20127 19.3789V9.82096C2.20127 9.29867 2.35796 8.88083 2.61911 8.56746C2.88025 8.25408 3.29809 8.14962 3.82038 8.14962H6.48408V7.00058H3.76815C2.82803 7.00058 2.14904 7.2095 1.67898 7.67956C1.20892 8.14962 1 8.88083 1 9.76873V19.4311C1 20.319 1.20892 21.0502 1.67898 21.4681C2.14904 21.8859 2.88025 22.1993 3.76815 22.1993ZM9.2 14.9394C9.35669 14.9394 9.51338 14.8872 9.61783 14.7827C9.72229 14.6783 9.77452 14.5216 9.77452 14.3649V4.1802L9.72229 2.82223L10.558 3.71013L12.1771 5.38147C12.2815 5.48593 12.4382 5.53816 12.5949 5.53816C12.7516 5.53816 12.8561 5.48593 12.9605 5.38147C13.065 5.27701 13.1172 5.17255 13.1172 5.01587C13.1172 4.85918 13.065 4.75472 12.9605 4.65026L9.61783 1.41204C9.5656 1.35981 9.46115 1.30758 9.40892 1.25536C9.35669 1.20312 9.30446 1.20312 9.2 1.20312C9.14777 1.20312 9.04331 1.20312 8.99108 1.25536C8.93885 1.30758 8.83439 1.35981 8.78217 1.41204L5.49172 4.65026C5.33503 4.75472 5.2828 4.85918 5.2828 5.01587C5.2828 5.17255 5.33503 5.27701 5.43949 5.38147C5.54395 5.48593 5.64841 5.53816 5.8051 5.53816C5.96178 5.53816 6.11847 5.48593 6.22293 5.38147L7.84204 3.71013L8.67771 2.82223L8.62548 4.1802V14.3649C8.62548 14.5216 8.67771 14.626 8.78217 14.7827C8.88662 14.9394 9.04331 14.9394 9.2 14.9394Z" fill="#007AFF"/>
</g>
</g>
</svg>
