<svg width="18" height="18" viewBox="0 0 18 18" fill="none" xmlns="http://www.w3.org/2000/svg">
<g clip-path="url(#clip0_839_497)">
<mask id="mask0_839_497" style="mask-type:luminance" maskUnits="userSpaceOnUse" x="0" y="0" width="18" height="18">
<path d="M17.5 0.5H0.5V17.5H17.5V0.5Z" fill="white"/>
</mask>
<g mask="url(#mask0_839_497)">
<mask id="mask1_839_497" style="mask-type:luminance" maskUnits="userSpaceOnUse" x="0" y="0" width="18" height="18">
<path d="M17.5 0.5H0.5V17.5H17.5V0.5Z" fill="white"/>
</mask>
<g mask="url(#mask1_839_497)">
<path d="M17.484 13.7512C17.483 14.2444 17.385 14.7325 17.196 15.1878C17.006 15.6431 16.729 16.0566 16.38 16.4047C16.032 16.7528 15.618 17.0287 15.162 17.2166C14.707 17.4046 14.219 17.5009 13.726 17.5L4.24401 17.4834C3.24901 17.4817 2.296 17.0844 1.594 16.3789C0.892002 15.6734 0.498008 14.7175 0.500008 13.7216L0.516014 4.24879C0.517014 3.75563 0.615008 3.26747 0.804008 2.81218C0.994008 2.3569 1.271 1.94339 1.62 1.59529C1.968 1.24718 2.38201 0.971286 2.83801 0.783356C3.29301 0.595426 3.78101 0.499146 4.27401 0.500006L13.756 0.516576C14.751 0.518316 15.704 0.915636 16.406 1.62113C17.108 2.32661 17.502 3.28247 17.5 4.27844L17.484 13.7512ZM16.259 4.45072C16.259 4.09929 16.191 3.75117 16.057 3.42625C15.923 3.10133 15.727 2.80597 15.479 2.55703C15.231 2.30809 14.937 2.11045 14.613 1.97539C14.289 1.84034 13.942 1.77051 13.591 1.76989L4.424 1.75387C4.073 1.75325 3.72501 1.82186 3.40101 1.95578C3.07601 2.0897 2.78101 2.28631 2.53201 2.53438C2.28401 2.78244 2.086 3.07712 1.952 3.40156C1.817 3.72601 1.74701 4.07389 1.74601 4.42532L1.73101 13.4839C1.73001 13.8353 1.79801 14.1834 1.93201 14.5083C2.06601 14.8333 2.262 15.1286 2.51 15.3776C2.758 15.6265 3.05201 15.8241 3.37601 15.9592C3.70001 16.0943 4.04801 16.1641 4.39901 16.1647L13.565 16.1807C13.916 16.1813 14.264 16.1127 14.589 15.9788C14.913 15.8449 15.208 15.6483 15.457 15.4002C15.705 15.1522 15.903 14.8575 16.038 14.533C16.172 14.2086 16.242 13.8607 16.243 13.5093L16.259 4.45072Z" fill="black"/>
<path d="M12.6893 8.51953H5.63272C5.27843 8.51953 4.99121 8.80674 4.99121 9.16104C4.99121 9.51534 5.27843 9.80255 5.63272 9.80255H12.6893C13.0436 9.80255 13.3308 9.51534 13.3308 9.16104C13.3308 8.80674 13.0436 8.51953 12.6893 8.51953Z" fill="black"/>
<path d="M9.80157 12.6883V5.63174C9.80157 5.27744 9.51435 4.99023 9.16006 4.99023C8.80576 4.99023 8.51855 5.27744 8.51855 5.63174V12.6883C8.51855 13.0426 8.80576 13.3298 9.16006 13.3298C9.51435 13.3298 9.80157 13.0426 9.80157 12.6883Z" fill="black"/>
</g>
</g>
</g>
<defs>
<clipPath id="clip0_839_497">
<rect width="18" height="17" fill="white" transform="translate(0 0.5)"/>
</clipPath>
</defs>
</svg>
