<svg width="18" height="24" viewBox="0 0 18 24" fill="none" xmlns="http://www.w3.org/2000/svg">
<mask id="mask0_872_202" style="mask-type:luminance" maskUnits="userSpaceOnUse" x="0" y="1" width="18" height="22">
<path d="M17.5 1H0.5V23H17.5V1Z" fill="white"/>
</mask>
<g mask="url(#mask0_872_202)">
<mask id="mask1_872_202" style="mask-type:luminance" maskUnits="userSpaceOnUse" x="1" y="1" width="16" height="22">
<path d="M17 1H1V23H17V1Z" fill="white"/>
</mask>
<g mask="url(#mask1_872_202)">
<mask id="mask2_872_202" style="mask-type:luminance" maskUnits="userSpaceOnUse" x="1" y="1" width="16" height="22">
<path d="M17 1H1V23H17V1Z" fill="white"/>
</mask>
<g mask="url(#mask2_872_202)">
<path d="M2.5 23C2.1 23 1.75 22.85 1.45 22.55C1.15 22.25 1 21.9 1 21.5V8.775C1 8.375 1.15 8.025 1.45 7.725C1.75 7.425 2.1 7.275 2.5 7.275H6.725V8.775H2.5V21.5H15.5V8.775H11.225V7.275H15.5C15.9 7.275 16.25 7.425 16.55 7.725C16.85 8.025 17 8.375 17 8.775V21.5C17 21.9 16.85 22.25 16.55 22.55C16.25 22.85 15.9 23 15.5 23H2.5ZM8.225 15.325V3.9L6.025 6.1L4.95 5.025L8.975 1L13 5.025L11.925 6.1L9.725 3.9V15.325H8.225Z" fill="#3A3838"/>
</g>
</g>
</g>
</svg>
