<svg width="51" height="50" viewBox="0 0 51 50" fill="none" xmlns="http://www.w3.org/2000/svg">
<path d="M14.8 45.2H35.6C37.4 45.2 38.7 44.8 39.6 43.9C40.5 43 40.9 41.7 40.9 40V21.4C40.9 19.7 40.5 18.4 39.6 17.5C38.7 16.6 37.4 16.2 35.6 16.2H30.5V18.4H35.6C36.6 18.4 37.4 18.7 37.9 19.2C38.4 19.7 38.7 20.5 38.7 21.6V39.8C38.7 40.8 38.4 41.6 37.9 42.2C37.4 42.8 36.6 43 35.6 43H14.9C13.9 43 13.1 42.7 12.6 42.2C12.1 41.7 11.8 40.9 11.8 39.8V21.5C11.8 20.5 12.1 19.7 12.6 19.1C13.1 18.5 13.9 18.3 14.9 18.3H20V16.1H14.8C13 16.1 11.7 16.5 10.8 17.4C9.9 18.3 9.5 19.7 9.5 21.4V39.9C9.5 41.6 9.9 43 10.8 43.8C11.7 44.6 13.1 45.2 14.8 45.2ZM25.2 31.3C25.5 31.3 25.8 31.2 26 31C26.2 30.8 26.3 30.5 26.3 30.2V10.7L26.2 8.1L27.8 9.8L30.9 13C31.1 13.2 31.4 13.3 31.7 13.3C32 13.3 32.2 13.2 32.4 13C32.6 12.8 32.7 12.6 32.7 12.3C32.7 12 32.6 11.8 32.4 11.6L26 5.4C25.9 5.3 25.7 5.2 25.6 5.1C25.5 5 25.4 5 25.2 5C25.1 5 24.9 5 24.8 5.1C24.7 5.2 24.5 5.3 24.4 5.4L18.1 11.6C17.8 11.8 17.7 12 17.7 12.3C17.7 12.6 17.8 12.8 18 13C18.2 13.2 18.4 13.3 18.7 13.3C19 13.3 19.3 13.2 19.5 13L22.6 9.8L24.2 8.1L24.1 10.7V30.2C24.1 30.5 24.2 30.7 24.4 31C24.6 31.3 24.9 31.3 25.2 31.3Z" fill="#007AFF"/>
</svg>
