<svg width="18" height="17" viewBox="0 0 18 17" fill="none" xmlns="http://www.w3.org/2000/svg">
<g clip-path="url(#clip0_837_274)">
<mask id="mask0_837_274" style="mask-type:luminance" maskUnits="userSpaceOnUse" x="0" y="0" width="18" height="17">
<path d="M17.5 0H0.5V17H17.5V0Z" fill="white"/>
</mask>
<g mask="url(#mask0_837_274)">
<path d="M17.484 13.2512C17.483 13.7444 17.385 14.2325 17.196 14.6878C17.006 15.1431 16.729 15.5566 16.38 15.9047C16.032 16.2528 15.618 16.5287 15.162 16.7166C14.707 16.9046 14.219 17.0009 13.726 17L4.24401 16.9834C3.24901 16.9817 2.296 16.5844 1.594 15.8789C0.892002 15.1734 0.498008 14.2175 0.500008 13.2216L0.516014 3.74879C0.517014 3.25563 0.615008 2.76747 0.804008 2.31218C0.994008 1.8569 1.271 1.44339 1.62 1.09529C1.968 0.747176 2.38201 0.471286 2.83801 0.283356C3.29301 0.0954257 3.78101 -0.000854289 4.27401 5.71079e-06L13.756 0.0165758C14.751 0.0183158 15.704 0.415636 16.406 1.12113C17.108 1.82661 17.502 2.78247 17.5 3.77844L17.484 13.2512ZM16.259 3.95072C16.259 3.59929 16.191 3.25117 16.057 2.92625C15.923 2.60133 15.727 2.30597 15.479 2.05703C15.231 1.80809 14.937 1.61045 14.613 1.47539C14.289 1.34034 13.942 1.27051 13.591 1.26989L4.424 1.25387C4.073 1.25325 3.72501 1.32186 3.40101 1.45578C3.07601 1.5897 2.78101 1.78631 2.53201 2.03438C2.28401 2.28244 2.086 2.57712 1.952 2.90156C1.817 3.22601 1.74701 3.57389 1.74601 3.92532L1.73101 12.9839C1.73001 13.3353 1.79801 13.6834 1.93201 14.0083C2.06601 14.3333 2.262 14.6286 2.51 14.8776C2.758 15.1265 3.05201 15.3241 3.37601 15.4592C3.70001 15.5943 4.04801 15.6641 4.39901 15.6647L13.565 15.6807C13.916 15.6813 14.264 15.6127 14.589 15.4788C14.913 15.3449 15.208 15.1483 15.457 14.9002C15.705 14.6522 15.903 14.3575 16.038 14.033C16.172 13.7086 16.242 13.3607 16.243 13.0093L16.259 3.95072Z" fill="black"/>
<path d="M12.6893 8.01953H5.63272C5.27843 8.01953 4.99121 8.30674 4.99121 8.66104C4.99121 9.01534 5.27843 9.30255 5.63272 9.30255H12.6893C13.0436 9.30255 13.3308 9.01534 13.3308 8.66104C13.3308 8.30674 13.0436 8.01953 12.6893 8.01953Z" fill="black"/>
<path d="M9.80176 12.1883V5.13174C9.80176 4.77744 9.51454 4.49023 9.16025 4.49023C8.80595 4.49023 8.51874 4.77744 8.51874 5.13174V12.1883C8.51874 12.5426 8.80595 12.8298 9.16025 12.8298C9.51454 12.8298 9.80176 12.5426 9.80176 12.1883Z" fill="black"/>
</g>
</g>
<defs>
<clipPath id="clip0_837_274">
<rect width="17" height="17" fill="white" transform="translate(0.5)"/>
</clipPath>
</defs>
</svg>
