<svg width="50" height="50" viewBox="0 0 50 50" fill="none" xmlns="http://www.w3.org/2000/svg">
<path d="M12 47C11.2 47 10.5 46.7 9.9 46.1C9.3 45.5 9 44.8 9 44V18.55C9 17.75 9.3 17.05 9.9 16.45C10.5 15.85 11.2 15.55 12 15.55H20.45V18.55H12V44H38V18.55H29.45V15.55H38C38.8 15.55 39.5 15.85 40.1 16.45C40.7 17.05 41 17.75 41 18.55V44C41 44.8 40.7 45.5 40.1 46.1C39.5 46.7 38.8 47 38 47H12ZM23.45 31.65V8.8L19.05 13.2L16.9 11.05L24.95 3L33 11.05L30.85 13.2L26.45 8.8V31.65H23.45Z" fill="black"/>
</svg>
