<svg width="19" height="19" viewBox="0 0 19 19" fill="none" xmlns="http://www.w3.org/2000/svg">
<mask id="mask0_872_216" style="mask-type:luminance" maskUnits="userSpaceOnUse" x="0" y="1" width="19" height="17">
<path d="M18.5 1H0.5V18H18.5V1Z" fill="white"/>
</mask>
<g mask="url(#mask0_872_216)">
<mask id="mask1_872_216" style="mask-type:luminance" maskUnits="userSpaceOnUse" x="1" y="1" width="17" height="17">
<path d="M18 1H1V18H18V1Z" fill="white"/>
</mask>
<g mask="url(#mask1_872_216)">
<mask id="mask2_872_216" style="mask-type:luminance" maskUnits="userSpaceOnUse" x="1" y="1" width="17" height="17">
<path d="M18 1H1V18H18V1Z" fill="white"/>
</mask>
<g mask="url(#mask2_872_216)">
<path d="M17.984 14.2512C17.983 14.7444 17.885 15.2325 17.696 15.6878C17.506 16.1431 17.229 16.5566 16.88 16.9047C16.532 17.2528 16.118 17.5287 15.662 17.7166C15.207 17.9046 14.719 18.0009 14.226 18L4.74401 17.9834C3.74901 17.9817 2.796 17.5844 2.094 16.8789C1.392 16.1734 0.998008 15.2175 1.00001 14.2216L1.01601 4.74879C1.01701 4.25563 1.11501 3.76747 1.30401 3.31218C1.49401 2.8569 1.771 2.44339 2.12 2.09529C2.468 1.74718 2.88201 1.47129 3.33801 1.28336C3.79301 1.09543 4.28101 0.999146 4.77401 1.00001L14.256 1.01658C15.251 1.01832 16.204 1.41564 16.906 2.12113C17.608 2.82661 18.002 3.78247 18 4.77844L17.984 14.2512ZM16.759 4.95072C16.759 4.59929 16.691 4.25117 16.557 3.92625C16.423 3.60133 16.227 3.30597 15.979 3.05703C15.731 2.80809 15.437 2.61045 15.113 2.47539C14.789 2.34034 14.442 2.27051 14.091 2.26989L4.924 2.25387C4.573 2.25325 4.22501 2.32186 3.90101 2.45578C3.57601 2.5897 3.28101 2.78631 3.03201 3.03438C2.78401 3.28244 2.586 3.57712 2.452 3.90156C2.317 4.22601 2.24701 4.57389 2.24601 4.92532L2.23101 13.9839C2.23001 14.3353 2.29801 14.6834 2.43201 15.0083C2.56601 15.3333 2.762 15.6286 3.01 15.8776C3.258 16.1265 3.55201 16.3241 3.87601 16.4592C4.20001 16.5943 4.54801 16.6641 4.89901 16.6647L14.065 16.6807C14.416 16.6813 14.764 16.6127 15.089 16.4788C15.413 16.3449 15.708 16.1483 15.957 15.9002C16.205 15.6522 16.403 15.3575 16.538 15.033C16.672 14.7086 16.742 14.3607 16.743 14.0093L16.759 4.95072Z" fill="#007AFF"/>
<path d="M13.1903 9.01953H6.1337C5.77941 9.01953 5.49219 9.30674 5.49219 9.66104C5.49219 10.0153 5.77941 10.3026 6.1337 10.3026H13.1903C13.5446 10.3026 13.8318 10.0153 13.8318 9.66104C13.8318 9.30674 13.5446 9.01953 13.1903 9.01953Z" fill="#007AFF"/>
<path d="M10.3026 13.1883V6.13174C10.3026 5.77744 10.0153 5.49023 9.66104 5.49023C9.30674 5.49023 9.01953 5.77744 9.01953 6.13174V13.1883C9.01953 13.5426 9.30674 13.8298 9.66104 13.8298C10.0153 13.8298 10.3026 13.5426 10.3026 13.1883Z" fill="#007AFF"/>
</g>
</g>
</g>
</svg>
