<svg width="162" height="30" viewBox="0 0 162 30" fill="none" xmlns="http://www.w3.org/2000/svg">
<path d="M152.484 19.2512C152.483 19.7444 152.385 20.2325 152.196 20.6878C152.006 21.1431 151.729 21.5566 151.38 21.9047C151.032 22.2528 150.618 22.5287 150.162 22.7166C149.707 22.9046 149.219 23.0009 148.726 23L139.244 22.9834C138.249 22.9817 137.296 22.5844 136.594 21.8789C135.892 21.1734 135.498 20.2175 135.5 19.2216L135.516 9.74879C135.517 9.25563 135.615 8.76747 135.804 8.31218C135.994 7.8569 136.271 7.44339 136.62 7.09529C136.968 6.74718 137.382 6.47129 137.838 6.28336C138.293 6.09543 138.781 5.99915 139.274 6.00001L148.756 6.01658C149.751 6.01832 150.704 6.41564 151.406 7.12113C152.108 7.82661 152.502 8.78247 152.5 9.77844L152.484 19.2512ZM151.259 9.95072C151.259 9.59929 151.191 9.25117 151.057 8.92625C150.923 8.60133 150.727 8.30597 150.479 8.05703C150.231 7.80809 149.937 7.61045 149.613 7.47539C149.289 7.34034 148.942 7.27051 148.591 7.26989L139.424 7.25387C139.073 7.25325 138.725 7.32186 138.401 7.45578C138.076 7.5897 137.781 7.78631 137.532 8.03438C137.284 8.28244 137.086 8.57712 136.952 8.90156C136.817 9.22601 136.747 9.57389 136.746 9.92532L136.731 18.9839C136.73 19.3353 136.798 19.6834 136.932 20.0083C137.066 20.3333 137.262 20.6286 137.51 20.8776C137.758 21.1265 138.052 21.3241 138.376 21.4592C138.7 21.5943 139.048 21.6641 139.399 21.6647L148.565 21.6807C148.916 21.6813 149.264 21.6127 149.589 21.4788C149.913 21.3449 150.208 21.1483 150.457 20.9002C150.705 20.6522 150.903 20.3575 151.038 20.033C151.172 19.7086 151.242 19.3607 151.243 19.0093L151.259 9.95072Z" fill="black"/>
<path d="M147.689 14.0195H140.632C140.278 14.0195 139.991 14.3067 139.991 14.661V14.661C139.991 15.0153 140.278 15.3026 140.632 15.3026H147.689C148.043 15.3026 148.331 15.0153 148.331 14.661C148.331 14.3067 148.043 14.0195 147.689 14.0195Z" fill="black"/>
<path d="M144.802 18.1883V11.1317C144.802 10.7774 144.515 10.4902 144.16 10.4902H144.16C143.806 10.4902 143.519 10.7774 143.519 11.1317V18.1883C143.519 18.5426 143.806 18.8298 144.16 18.8298C144.515 18.8298 144.802 18.5426 144.802 18.1883Z" fill="black"/>
<path d="M8.94434 20L12.2515 10.8403H13.4004V12.4463H12.9688L10.4424 20H8.94434ZM10.5376 17.5244L10.9375 16.3818H15.1079L15.5078 17.5244H10.5376ZM15.5967 20L13.0767 12.4463V10.8403H13.7939L17.0947 20H15.5967ZM20.2721 20.1143C19.6966 20.1143 19.193 19.9704 18.7614 19.6826C18.334 19.3906 18.0018 18.978 17.7648 18.4448C17.532 17.9116 17.4157 17.2832 17.4157 16.5596V16.5469C17.4157 15.819 17.532 15.1885 17.7648 14.6553C17.9975 14.1221 18.3276 13.7116 18.755 13.4238C19.1824 13.1318 19.6881 12.9858 20.2721 12.9858C20.5895 12.9858 20.8857 13.0366 21.1608 13.1382C21.4358 13.2355 21.6792 13.3752 21.8908 13.5571C22.1023 13.7349 22.2695 13.9486 22.3922 14.1982H22.4938V10.4023H23.8776V20H22.4938V18.9146H22.3922C22.2568 19.1642 22.0854 19.38 21.8781 19.562C21.6707 19.7397 21.4316 19.8773 21.1608 19.9746C20.8899 20.0677 20.5937 20.1143 20.2721 20.1143ZM20.6657 18.9336C21.0465 18.9336 21.3766 18.8384 21.6559 18.6479C21.9352 18.4575 22.1489 18.1846 22.297 17.8291C22.4451 17.4694 22.5192 17.0462 22.5192 16.5596V16.5469C22.5192 16.056 22.443 15.6328 22.2907 15.2773C22.1426 14.9219 21.9288 14.6489 21.6496 14.4585C21.3745 14.2638 21.0465 14.1665 20.6657 14.1665C20.2848 14.1665 19.9547 14.2638 19.6754 14.4585C19.4004 14.6489 19.1888 14.9219 19.0407 15.2773C18.8968 15.6286 18.8248 16.0518 18.8248 16.5469V16.5596C18.8248 17.0505 18.8968 17.4736 19.0407 17.8291C19.1888 18.1846 19.4004 18.4575 19.6754 18.6479C19.9547 18.8384 20.2848 18.9336 20.6657 18.9336ZM28.0452 20.1143C27.4697 20.1143 26.9661 19.9704 26.5345 19.6826C26.107 19.3906 25.7748 18.978 25.5379 18.4448C25.3051 17.9116 25.1887 17.2832 25.1887 16.5596V16.5469C25.1887 15.819 25.3051 15.1885 25.5379 14.6553C25.7706 14.1221 26.1007 13.7116 26.5281 13.4238C26.9555 13.1318 27.4612 12.9858 28.0452 12.9858C28.3626 12.9858 28.6588 13.0366 28.9339 13.1382C29.2089 13.2355 29.4523 13.3752 29.6638 13.5571C29.8754 13.7349 30.0426 13.9486 30.1653 14.1982H30.2669V10.4023H31.6507V20H30.2669V18.9146H30.1653C30.0299 19.1642 29.8585 19.38 29.6512 19.562C29.4438 19.7397 29.2047 19.8773 28.9339 19.9746C28.663 20.0677 28.3668 20.1143 28.0452 20.1143ZM28.4387 18.9336C28.8196 18.9336 29.1497 18.8384 29.429 18.6479C29.7083 18.4575 29.922 18.1846 30.0701 17.8291C30.2182 17.4694 30.2923 17.0462 30.2923 16.5596V16.5469C30.2923 16.056 30.2161 15.6328 30.0637 15.2773C29.9156 14.9219 29.7019 14.6489 29.4226 14.4585C29.1476 14.2638 28.8196 14.1665 28.4387 14.1665C28.0579 14.1665 27.7278 14.2638 27.4485 14.4585C27.1734 14.6489 26.9619 14.9219 26.8137 15.2773C26.6699 15.6286 26.5979 16.0518 26.5979 16.5469V16.5596C26.5979 17.0505 26.6699 17.4736 26.8137 17.8291C26.9619 18.1846 27.1734 18.4575 27.4485 18.6479C27.7278 18.8384 28.0579 18.9336 28.4387 18.9336ZM39.0591 20.0444C38.3059 20.0444 37.76 19.9006 37.4214 19.6128C37.0871 19.3208 36.92 18.8447 36.92 18.1846V14.1919H35.8409V13.1064H36.92V11.3672H38.3292V13.1064H39.8082V14.1919H38.3292V17.8481C38.3292 18.2205 38.4032 18.4893 38.5513 18.6543C38.6994 18.8151 38.9449 18.8955 39.2877 18.8955C39.3892 18.8955 39.476 18.8934 39.5479 18.8892C39.6241 18.8849 39.7108 18.8786 39.8082 18.8701V19.9746C39.6981 19.9915 39.5796 20.0063 39.4527 20.019C39.3257 20.036 39.1946 20.0444 39.0591 20.0444ZM43.8742 20.1333C43.2014 20.1333 42.6195 19.9894 42.1286 19.7017C41.642 19.4139 41.2674 19.0034 41.0051 18.4702C40.7427 17.9328 40.6115 17.2959 40.6115 16.5596V16.5469C40.6115 15.8063 40.7427 15.1694 41.0051 14.6362C41.2717 14.103 41.6483 13.6925 42.135 13.4048C42.6258 13.117 43.2056 12.9731 43.8742 12.9731C44.5471 12.9731 45.1268 13.117 45.6135 13.4048C46.1001 13.6883 46.4746 14.0988 46.737 14.6362C47.0036 15.1694 47.1369 15.8063 47.1369 16.5469V16.5596C47.1369 17.2959 47.0036 17.9328 46.737 18.4702C46.4746 19.0034 46.1001 19.4139 45.6135 19.7017C45.1311 19.9894 44.5513 20.1333 43.8742 20.1333ZM43.8742 18.978C44.2678 18.978 44.6021 18.8828 44.8771 18.6924C45.1522 18.4977 45.3617 18.2205 45.5056 17.8608C45.6494 17.5011 45.7214 17.0674 45.7214 16.5596V16.5469C45.7214 16.0348 45.6494 15.599 45.5056 15.2393C45.3617 14.8796 45.1522 14.6045 44.8771 14.4141C44.6021 14.2194 44.2678 14.1221 43.8742 14.1221C43.4807 14.1221 43.1464 14.2194 42.8713 14.4141C42.5962 14.6045 42.3846 14.8796 42.2365 15.2393C42.0926 15.599 42.0207 16.0348 42.0207 16.5469V16.5596C42.0207 17.0674 42.0926 17.5011 42.2365 17.8608C42.3846 18.2205 42.5962 18.4977 42.8713 18.6924C43.1464 18.8828 43.4807 18.978 43.8742 18.978ZM51.6953 20V10.8403H53.1172V14.7124H57.8144V10.8403H59.2427V20H57.8144V15.9438H53.1172V20H51.6953ZM63.9181 20.1333C63.2452 20.1333 62.6634 19.9894 62.1725 19.7017C61.6858 19.4139 61.3113 19.0034 61.0489 18.4702C60.7866 17.9328 60.6554 17.2959 60.6554 16.5596V16.5469C60.6554 15.8063 60.7866 15.1694 61.0489 14.6362C61.3155 14.103 61.6922 13.6925 62.1788 13.4048C62.6697 13.117 63.2495 12.9731 63.9181 12.9731C64.5909 12.9731 65.1707 13.117 65.6573 13.4048C66.144 13.6883 66.5185 14.0988 66.7809 14.6362C67.0475 15.1694 67.1808 15.8063 67.1808 16.5469V16.5596C67.1808 17.2959 67.0475 17.9328 66.7809 18.4702C66.5185 19.0034 66.144 19.4139 65.6573 19.7017C65.1749 19.9894 64.5952 20.1333 63.9181 20.1333ZM63.9181 18.978C64.3116 18.978 64.646 18.8828 64.921 18.6924C65.1961 18.4977 65.4056 18.2205 65.5494 17.8608C65.6933 17.5011 65.7653 17.0674 65.7653 16.5596V16.5469C65.7653 16.0348 65.6933 15.599 65.5494 15.2393C65.4056 14.8796 65.1961 14.6045 64.921 14.4141C64.646 14.2194 64.3116 14.1221 63.9181 14.1221C63.5245 14.1221 63.1902 14.2194 62.9152 14.4141C62.6401 14.6045 62.4285 14.8796 62.2804 15.2393C62.1365 15.599 62.0646 16.0348 62.0646 16.5469V16.5596C62.0646 17.0674 62.1365 17.5011 62.2804 17.8608C62.4285 18.2205 62.6401 18.4977 62.9152 18.6924C63.1902 18.8828 63.5245 18.978 63.9181 18.978ZM68.4285 20V13.1064H69.8059V14.1665H69.9138C70.0662 13.7856 70.3032 13.4915 70.6248 13.2842C70.9506 13.0768 71.3399 12.9731 71.7927 12.9731C72.1059 12.9731 72.3873 13.0239 72.637 13.1255C72.8866 13.2271 73.1004 13.3709 73.2781 13.5571C73.4601 13.7391 73.6018 13.9549 73.7034 14.2046H73.8113C73.9255 13.9549 74.0864 13.7391 74.2937 13.5571C74.5011 13.3709 74.7423 13.2271 75.0173 13.1255C75.2966 13.0239 75.5929 12.9731 75.906 12.9731C76.3715 12.9731 76.7693 13.0641 77.0994 13.2461C77.4295 13.4238 77.6812 13.682 77.8547 14.0205C78.0283 14.359 78.115 14.7674 78.115 15.2456V20H76.7376V15.5757C76.7376 15.2583 76.6889 14.9959 76.5916 14.7886C76.4942 14.577 76.3461 14.4183 76.1472 14.3125C75.9526 14.2067 75.7071 14.1538 75.4109 14.1538C75.1189 14.1538 74.8629 14.2215 74.6428 14.3569C74.427 14.4881 74.2577 14.6659 74.135 14.8901C74.0165 15.1102 73.9573 15.3599 73.9573 15.6392V20H72.5798V15.436C72.5798 15.1737 72.5248 14.9473 72.4148 14.7568C72.309 14.5622 72.1567 14.4141 71.9578 14.3125C71.7589 14.2067 71.524 14.1538 71.2532 14.1538C70.9781 14.1538 70.7306 14.2257 70.5105 14.3696C70.2947 14.5135 70.1233 14.7082 69.9963 14.9536C69.8694 15.1948 69.8059 15.4657 69.8059 15.7661V20H68.4285ZM82.5492 20.1333C81.8764 20.1333 81.2987 19.9894 80.8163 19.7017C80.3339 19.4097 79.9615 18.9971 79.6991 18.4639C79.441 17.9307 79.3119 17.3001 79.3119 16.5723V16.5659C79.3119 15.8465 79.441 15.2181 79.6991 14.6807C79.9615 14.1432 80.3297 13.7243 80.8036 13.4238C81.2818 13.1234 81.8404 12.9731 82.4794 12.9731C83.1226 12.9731 83.6749 13.117 84.1361 13.4048C84.6016 13.6925 84.9592 14.0967 85.2089 14.6172C85.4586 15.1335 85.5834 15.7386 85.5834 16.4326V16.915H80.0102V15.9312H84.8979L84.2377 16.8452V16.293C84.2377 15.8021 84.1615 15.3958 84.0092 15.0742C83.8611 14.7484 83.6558 14.505 83.3935 14.3442C83.1311 14.1834 82.8285 14.103 82.4857 14.103C82.143 14.103 81.8362 14.1877 81.5653 14.3569C81.2987 14.522 81.0871 14.7674 80.9306 15.0933C80.7782 15.4191 80.702 15.819 80.702 16.293V16.8452C80.702 17.298 80.7782 17.6852 80.9306 18.0068C81.0829 18.3285 81.2987 18.5739 81.578 18.7432C81.8616 18.9124 82.1959 18.9971 82.581 18.9971C82.8772 18.9971 83.1311 18.9569 83.3427 18.8765C83.5585 18.7918 83.7341 18.6882 83.8695 18.5654C84.0092 18.4427 84.1044 18.3221 84.1552 18.2036L84.1806 18.1528H85.5136L85.5009 18.21C85.4416 18.4385 85.338 18.667 85.1898 18.8955C85.0417 19.1198 84.845 19.325 84.5995 19.5112C84.3583 19.6974 84.0663 19.8477 83.7235 19.9619C83.385 20.0762 82.9936 20.1333 82.5492 20.1333ZM93.2394 20.2222C92.5497 20.2222 91.9487 20.1143 91.4367 19.8984C90.9247 19.6784 90.5205 19.3737 90.2243 18.9844C89.9281 18.5951 89.7588 18.1444 89.7165 17.6323L89.7101 17.5498H91.113L91.1193 17.6196C91.1489 17.8947 91.2568 18.1338 91.443 18.3369C91.6335 18.54 91.8874 18.6987 92.2048 18.813C92.5264 18.9272 92.8924 18.9844 93.3029 18.9844C93.688 18.9844 94.0308 18.923 94.3312 18.8003C94.6317 18.6776 94.8665 18.5083 95.0358 18.2925C95.2093 18.0767 95.2961 17.8291 95.2961 17.5498V17.5435C95.2961 17.1922 95.1628 16.9002 94.8962 16.6675C94.6296 16.4347 94.1937 16.2528 93.5886 16.1216L92.5856 15.9121C91.6589 15.7132 90.9839 15.3979 90.5607 14.9663C90.1375 14.5304 89.926 13.974 89.926 13.2969V13.2905C89.9302 12.7616 90.072 12.2961 90.3512 11.894C90.6348 11.492 91.0262 11.1789 91.5256 10.9546C92.0249 10.7303 92.5983 10.6182 93.2458 10.6182C93.8932 10.6182 94.4582 10.7303 94.9406 10.9546C95.4273 11.1746 95.8102 11.4751 96.0895 11.856C96.3731 12.2368 96.5318 12.6663 96.5656 13.1445L96.572 13.2271H95.1818L95.1691 13.1445C95.131 12.8949 95.0274 12.6727 94.8581 12.478C94.693 12.2834 94.4709 12.131 94.1916 12.021C93.9165 11.9067 93.5949 11.8517 93.2267 11.856C92.8713 11.856 92.5539 11.911 92.2746 12.021C91.9953 12.1268 91.7731 12.2812 91.6081 12.4844C91.4473 12.6875 91.3669 12.9329 91.3669 13.2207V13.2271C91.3669 13.5656 91.4959 13.8491 91.7541 14.0776C92.0165 14.3019 92.4417 14.4775 93.03 14.6045L94.0329 14.8267C94.6719 14.9621 95.1903 15.1419 95.5881 15.3662C95.9859 15.5905 96.2757 15.8677 96.4577 16.1978C96.6439 16.5236 96.737 16.9129 96.737 17.3657V17.3721C96.737 17.9561 96.5931 18.4618 96.3054 18.8892C96.0218 19.3123 95.6177 19.6403 95.0929 19.873C94.5682 20.1058 93.9504 20.2222 93.2394 20.2222ZM100.962 20.1333C100.293 20.1333 99.7155 19.9894 99.2288 19.7017C98.7464 19.4097 98.374 18.995 98.1116 18.4575C97.8493 17.9201 97.7181 17.279 97.7181 16.5342V16.5215C97.7181 15.7894 97.8472 15.1589 98.1053 14.6299C98.3677 14.1009 98.7401 13.6925 99.2225 13.4048C99.7091 13.117 100.287 12.9731 100.955 12.9731C101.535 12.9731 102.032 13.0747 102.447 13.2778C102.866 13.4767 103.198 13.7518 103.444 14.103C103.693 14.45 103.85 14.8457 103.913 15.29L103.92 15.3218H102.593L102.587 15.3091C102.511 14.9705 102.335 14.6891 102.06 14.4648C101.785 14.2363 101.419 14.1221 100.962 14.1221C100.581 14.1221 100.253 14.2194 99.9779 14.4141C99.7028 14.6045 99.4912 14.8796 99.3431 15.2393C99.1992 15.599 99.1273 16.0264 99.1273 16.5215V16.5342C99.1273 17.042 99.2013 17.4779 99.3494 17.8418C99.4975 18.2057 99.7091 18.4871 99.9842 18.686C100.259 18.8807 100.585 18.978 100.962 18.978C101.393 18.978 101.743 18.8828 102.009 18.6924C102.28 18.502 102.47 18.2205 102.58 17.8481L102.593 17.8164L103.913 17.8101L103.901 17.8672C103.82 18.3158 103.657 18.7093 103.412 19.0479C103.166 19.3864 102.839 19.653 102.428 19.8477C102.022 20.0381 101.533 20.1333 100.962 20.1333ZM105.085 20V13.1064H106.462V14.1475H106.57C106.693 13.7793 106.909 13.4937 107.218 13.2905C107.531 13.0874 107.916 12.9858 108.373 12.9858C108.487 12.9858 108.599 12.9922 108.709 13.0049C108.819 13.0176 108.908 13.0324 108.976 13.0493V14.3188C108.853 14.2935 108.731 14.2744 108.608 14.2617C108.489 14.249 108.365 14.2427 108.233 14.2427C107.882 14.2427 107.573 14.3104 107.307 14.4458C107.044 14.5812 106.837 14.7716 106.685 15.0171C106.536 15.2583 106.462 15.5461 106.462 15.8804V20H105.085ZM112.629 20.1333C111.957 20.1333 111.379 19.9894 110.897 19.7017C110.414 19.4097 110.042 18.9971 109.779 18.4639C109.521 17.9307 109.392 17.3001 109.392 16.5723V16.5659C109.392 15.8465 109.521 15.2181 109.779 14.6807C110.042 14.1432 110.41 13.7243 110.884 13.4238C111.362 13.1234 111.921 12.9731 112.56 12.9731C113.203 12.9731 113.755 13.117 114.216 13.4048C114.682 13.6925 115.039 14.0967 115.289 14.6172C115.539 15.1335 115.664 15.7386 115.664 16.4326V16.915H110.09V15.9312H114.978L114.318 16.8452V16.293C114.318 15.8021 114.242 15.3958 114.089 15.0742C113.941 14.7484 113.736 14.505 113.474 14.3442C113.211 14.1834 112.909 14.103 112.566 14.103C112.223 14.103 111.916 14.1877 111.646 14.3569C111.379 14.522 111.167 14.7674 111.011 15.0933C110.858 15.4191 110.782 15.819 110.782 16.293V16.8452C110.782 17.298 110.858 17.6852 111.011 18.0068C111.163 18.3285 111.379 18.5739 111.658 18.7432C111.942 18.9124 112.276 18.9971 112.661 18.9971C112.957 18.9971 113.211 18.9569 113.423 18.8765C113.639 18.7918 113.814 18.6882 113.95 18.5654C114.089 18.4427 114.185 18.3221 114.235 18.2036L114.261 18.1528H115.594L115.581 18.21C115.522 18.4385 115.418 18.667 115.27 18.8955C115.122 19.1198 114.925 19.325 114.68 19.5112C114.439 19.6974 114.147 19.8477 113.804 19.9619C113.465 20.0762 113.074 20.1333 112.629 20.1333ZM119.806 20.1333C119.133 20.1333 118.555 19.9894 118.073 19.7017C117.591 19.4097 117.218 18.9971 116.956 18.4639C116.698 17.9307 116.569 17.3001 116.569 16.5723V16.5659C116.569 15.8465 116.698 15.2181 116.956 14.6807C117.218 14.1432 117.586 13.7243 118.06 13.4238C118.538 13.1234 119.097 12.9731 119.736 12.9731C120.379 12.9731 120.932 13.117 121.393 13.4048C121.858 13.6925 122.216 14.0967 122.466 14.6172C122.715 15.1335 122.84 15.7386 122.84 16.4326V16.915H117.267V15.9312H122.155L121.494 16.8452V16.293C121.494 15.8021 121.418 15.3958 121.266 15.0742C121.118 14.7484 120.913 14.505 120.65 14.3442C120.388 14.1834 120.085 14.103 119.742 14.103C119.4 14.103 119.093 14.1877 118.822 14.3569C118.555 14.522 118.344 14.7674 118.187 15.0933C118.035 15.4191 117.959 15.819 117.959 16.293V16.8452C117.959 17.298 118.035 17.6852 118.187 18.0068C118.34 18.3285 118.555 18.5739 118.835 18.7432C119.118 18.9124 119.453 18.9971 119.838 18.9971C120.134 18.9971 120.388 18.9569 120.599 18.8765C120.815 18.7918 120.991 18.6882 121.126 18.5654C121.266 18.4427 121.361 18.3221 121.412 18.2036L121.437 18.1528H122.77L122.758 18.21C122.698 18.4385 122.595 18.667 122.447 18.8955C122.298 19.1198 122.102 19.325 121.856 19.5112C121.615 19.6974 121.323 19.8477 120.98 19.9619C120.642 20.0762 120.25 20.1333 119.806 20.1333ZM124.088 20V13.1064H125.465V14.1475H125.573C125.742 13.7793 125.992 13.4915 126.322 13.2842C126.652 13.0768 127.069 12.9731 127.573 12.9731C128.347 12.9731 128.94 13.1953 129.35 13.6396C129.76 14.084 129.966 14.7166 129.966 15.5376V20H128.582V15.8613C128.582 15.2858 128.461 14.8584 128.22 14.5791C127.983 14.2956 127.611 14.1538 127.103 14.1538C126.769 14.1538 126.479 14.2279 126.233 14.376C125.988 14.5199 125.797 14.7272 125.662 14.998C125.531 15.2646 125.465 15.5841 125.465 15.9565V20H124.088Z" fill="black"/>
</svg>
