<svg width="49" height="49" viewBox="0 0 49 49" fill="none" xmlns="http://www.w3.org/2000/svg">
<path d="M11.5 46.5C10.7 46.5 10 46.2 9.4 45.6C8.8 45 8.5 44.3 8.5 43.5V18.05C8.5 17.25 8.8 16.55 9.4 15.95C10 15.35 10.7 15.05 11.5 15.05H19.95V18.05H11.5V43.5H37.5V18.05H28.95V15.05H37.5C38.3 15.05 39 15.35 39.6 15.95C40.2 16.55 40.5 17.25 40.5 18.05V43.5C40.5 44.3 40.2 45 39.6 45.6C39 46.2 38.3 46.5 37.5 46.5H11.5ZM22.95 31.15V8.3L18.55 12.7L16.4 10.55L24.45 2.5L32.5 10.55L30.35 12.7L25.95 8.3V31.15H22.95Z" fill="black"/>
</svg>
