<svg width="52" height="52" viewBox="0 0 52 52" fill="none" xmlns="http://www.w3.org/2000/svg">
<path d="M15.3 46.2H36.1C37.9 46.2 39.2 45.8 40.1 44.9C41 44 41.4 42.7 41.4 41V22.4C41.4 20.7 41 19.4 40.1 18.5C39.2 17.6 37.9 17.2 36.1 17.2H31V19.4H36.1C37.1 19.4 37.9 19.7 38.4 20.2C38.9 20.7 39.2 21.5 39.2 22.6V40.8C39.2 41.8 38.9 42.6 38.4 43.2C37.9 43.8 37.1 44 36.1 44H15.4C14.4 44 13.6 43.7 13.1 43.2C12.6 42.7 12.3 41.9 12.3 40.8V22.5C12.3 21.5 12.6 20.7 13.1 20.1C13.6 19.5 14.4 19.3 15.4 19.3H20.5V17.1H15.3C13.5 17.1 12.2 17.5 11.3 18.4C10.4 19.3 10 20.7 10 22.4V40.9C10 42.6 10.4 44 11.3 44.8C12.2 45.6 13.6 46.2 15.3 46.2ZM25.7 32.3C26 32.3 26.3 32.2 26.5 32C26.7 31.8 26.8 31.5 26.8 31.2V11.7L26.7 9.1L28.3 10.8L31.4 14C31.6 14.2 31.9 14.3 32.2 14.3C32.5 14.3 32.7 14.2 32.9 14C33.1 13.8 33.2 13.6 33.2 13.3C33.2 13 33.1 12.8 32.9 12.6L26.5 6.4C26.4 6.3 26.2 6.2 26.1 6.1C26 6 25.9 6 25.7 6C25.6 6 25.4 6 25.3 6.1C25.2 6.2 25 6.3 24.9 6.4L18.6 12.6C18.3 12.8 18.2 13 18.2 13.3C18.2 13.6 18.3 13.8 18.5 14C18.7 14.2 18.9 14.3 19.2 14.3C19.5 14.3 19.8 14.2 20 14L23.1 10.8L24.7 9.1L24.6 11.7V31.2C24.6 31.5 24.7 31.7 24.9 32C25.1 32.3 25.4 32.3 25.7 32.3Z" fill="#007AFF"/>
</svg>
