<svg width="17" height="23" viewBox="0 0 17 23" fill="none" xmlns="http://www.w3.org/2000/svg">
<g clip-path="url(#clip0_839_482)">
<mask id="mask0_839_482" style="mask-type:luminance" maskUnits="userSpaceOnUse" x="0" y="0" width="17" height="23">
<path d="M16.5 0.5H0.5V22.5H16.5V0.5Z" fill="white"/>
</mask>
<g mask="url(#mask0_839_482)">
<mask id="mask1_839_482" style="mask-type:luminance" maskUnits="userSpaceOnUse" x="0" y="0" width="17" height="23">
<path d="M16.5 0.5H0.5V22.5H16.5V0.5Z" fill="white"/>
</mask>
<g mask="url(#mask1_839_482)">
<path d="M2 22.5C1.6 22.5 1.25 22.35 0.95 22.05C0.65 21.75 0.5 21.4 0.5 21V8.275C0.5 7.875 0.65 7.525 0.95 7.225C1.25 6.925 1.6 6.775 2 6.775H6.225V8.275H2V21H15V8.275H10.725V6.775H15C15.4 6.775 15.75 6.925 16.05 7.225C16.35 7.525 16.5 7.875 16.5 8.275V21C16.5 21.4 16.35 21.75 16.05 22.05C15.75 22.35 15.4 22.5 15 22.5H2ZM7.725 14.825V3.4L5.525 5.6L4.45 4.525L8.475 0.5L12.5 4.525L11.425 5.6L9.225 3.4V14.825H7.725Z" fill="#3A3838"/>
</g>
</g>
</g>
<defs>
<clipPath id="clip0_839_482">
<rect width="17" height="22" fill="white" transform="translate(0 0.5)"/>
</clipPath>
</defs>
</svg>
