<svg width="51" height="51" viewBox="0 0 51 51" fill="none" xmlns="http://www.w3.org/2000/svg">
<path d="M14.8 45.7H35.6C37.4 45.7 38.7 45.3 39.6 44.4C40.5 43.5 40.9 42.2 40.9 40.5V21.9C40.9 20.2 40.5 18.9 39.6 18C38.7 17.1 37.4 16.7 35.6 16.7H30.5V18.9H35.6C36.6 18.9 37.4 19.2 37.9 19.7C38.4 20.2 38.7 21 38.7 22.1V40.3C38.7 41.3 38.4 42.1 37.9 42.7C37.4 43.3 36.6 43.5 35.6 43.5H14.9C13.9 43.5 13.1 43.2 12.6 42.7C12.1 42.2 11.8 41.4 11.8 40.3V22C11.8 21 12.1 20.2 12.6 19.6C13.1 19 13.9 18.8 14.9 18.8H20V16.6H14.8C13 16.6 11.7 17 10.8 17.9C9.9 18.8 9.5 20.2 9.5 21.9V40.4C9.5 42.1 9.9 43.5 10.8 44.3C11.7 45.1 13.1 45.7 14.8 45.7ZM25.2 31.8C25.5 31.8 25.8 31.7 26 31.5C26.2 31.3 26.3 31 26.3 30.7V11.2L26.2 8.6L27.8 10.3L30.9 13.5C31.1 13.7 31.4 13.8 31.7 13.8C32 13.8 32.2 13.7 32.4 13.5C32.6 13.3 32.7 13.1 32.7 12.8C32.7 12.5 32.6 12.3 32.4 12.1L26 5.9C25.9 5.8 25.7 5.7 25.6 5.6C25.5 5.5 25.4 5.5 25.2 5.5C25.1 5.5 24.9 5.5 24.8 5.6C24.7 5.7 24.5 5.8 24.4 5.9L18.1 12.1C17.8 12.3 17.7 12.5 17.7 12.8C17.7 13.1 17.8 13.3 18 13.5C18.2 13.7 18.4 13.8 18.7 13.8C19 13.8 19.3 13.7 19.5 13.5L22.6 10.3L24.2 8.6L24.1 11.2V30.7C24.1 31 24.2 31.2 24.4 31.5C24.6 31.8 24.9 31.8 25.2 31.8Z" fill="#007AFF"/>
</svg>
