<svg width="17" height="22" viewBox="0 0 17 22" fill="none" xmlns="http://www.w3.org/2000/svg">
<g clip-path="url(#clip0_837_263)">
<mask id="mask0_837_263" style="mask-type:luminance" maskUnits="userSpaceOnUse" x="0" y="0" width="17" height="22">
<path d="M16.5 0H0.5V22H16.5V0Z" fill="white"/>
</mask>
<g mask="url(#mask0_837_263)">
<path d="M2 22C1.6 22 1.25 21.85 0.95 21.55C0.65 21.25 0.5 20.9 0.5 20.5V7.775C0.5 7.375 0.65 7.025 0.95 6.725C1.25 6.425 1.6 6.275 2 6.275H6.225V7.775H2V20.5H15V7.775H10.725V6.275H15C15.4 6.275 15.75 6.425 16.05 6.725C16.35 7.025 16.5 7.375 16.5 7.775V20.5C16.5 20.9 16.35 21.25 16.05 21.55C15.75 21.85 15.4 22 15 22H2ZM7.725 14.325V2.9L5.525 5.1L4.45 4.025L8.475 0L12.5 4.025L11.425 5.1L9.225 2.9V14.325H7.725Z" fill="#3A3838"/>
</g>
</g>
<defs>
<clipPath id="clip0_837_263">
<rect width="16" height="22" fill="white" transform="translate(0.5)"/>
</clipPath>
</defs>
</svg>
