<svg width="18" height="22" viewBox="0 0 18 22" fill="none" xmlns="http://www.w3.org/2000/svg">
<g clip-path="url(#clip0_837_289)">
<path d="M3.26815 21.1993H14.1318C15.072 21.1993 15.751 20.9904 16.221 20.5203C16.6911 20.0502 16.9 19.3712 16.9 18.4834V8.76873C16.9 7.88083 16.6911 7.20185 16.221 6.73179C15.751 6.26172 15.072 6.05281 14.1318 6.05281H11.4682V7.20185H14.1318C14.6541 7.20185 15.072 7.35854 15.3331 7.61969C15.5943 7.88083 15.751 8.29867 15.751 8.87319V18.3789C15.751 18.9012 15.5943 19.319 15.3331 19.6324C15.072 19.9458 14.6541 20.0502 14.1318 20.0502H3.32038C2.79809 20.0502 2.38025 19.8935 2.11911 19.6324C1.85796 19.3712 1.70127 18.9534 1.70127 18.3789V8.82096C1.70127 8.29867 1.85796 7.88083 2.11911 7.56746C2.38025 7.25408 2.79809 7.14962 3.32038 7.14962H5.98408V6.00058H3.26815C2.32803 6.00058 1.64904 6.2095 1.17898 6.67956C0.708917 7.14962 0.5 7.88083 0.5 8.76873V18.4311C0.5 19.319 0.708917 20.0502 1.17898 20.4681C1.64904 20.8859 2.38025 21.1993 3.26815 21.1993ZM8.7 13.9394C8.85669 13.9394 9.01338 13.8872 9.11783 13.7827C9.22229 13.6783 9.27452 13.5216 9.27452 13.3649V3.1802L9.22229 1.82223L10.058 2.71013L11.6771 4.38147C11.7815 4.48593 11.9382 4.53816 12.0949 4.53816C12.2516 4.53816 12.3561 4.48593 12.4605 4.38147C12.565 4.27701 12.6172 4.17255 12.6172 4.01587C12.6172 3.85918 12.565 3.75472 12.4605 3.65026L9.11783 0.412043C9.0656 0.359813 8.96115 0.307584 8.90892 0.255355C8.85669 0.203125 8.80446 0.203125 8.7 0.203125C8.64777 0.203125 8.54331 0.203125 8.49108 0.255355C8.43885 0.307584 8.33439 0.359813 8.28217 0.412043L4.99172 3.65026C4.83503 3.75472 4.7828 3.85918 4.7828 4.01587C4.7828 4.17255 4.83503 4.27701 4.93949 4.38147C5.04395 4.48593 5.14841 4.53816 5.3051 4.53816C5.46178 4.53816 5.61847 4.48593 5.72293 4.38147L7.34204 2.71013L8.17771 1.82223L8.12548 3.1802V13.3649C8.12548 13.5216 8.17771 13.626 8.28217 13.7827C8.38662 13.9394 8.54331 13.9394 8.7 13.9394Z" fill="#007AFF"/>
</g>
<defs>
<clipPath id="clip0_837_289">
<rect width="17" height="22" fill="white" transform="translate(0.5)"/>
</clipPath>
</defs>
</svg>
