<svg width="18" height="23" viewBox="0 0 18 23" fill="none" xmlns="http://www.w3.org/2000/svg">
<g clip-path="url(#clip0_839_513)">
<mask id="mask0_839_513" style="mask-type:luminance" maskUnits="userSpaceOnUse" x="0" y="0" width="18" height="23">
<path d="M17.5 0.5H0.5V22.5H17.5V0.5Z" fill="white"/>
</mask>
<g mask="url(#mask0_839_513)">
<path d="M3.26815 21.6993H14.1318C15.072 21.6993 15.751 21.4904 16.221 21.0203C16.6911 20.5502 16.9 19.8712 16.9 18.9834V9.26873C16.9 8.38083 16.6911 7.70185 16.221 7.23179C15.751 6.76172 15.072 6.55281 14.1318 6.55281H11.4682V7.70185H14.1318C14.6541 7.70185 15.072 7.85854 15.3331 8.11969C15.5943 8.38083 15.751 8.79867 15.751 9.37319V18.8789C15.751 19.4012 15.5943 19.819 15.3331 20.1324C15.072 20.4458 14.6541 20.5502 14.1318 20.5502H3.32038C2.79809 20.5502 2.38025 20.3935 2.11911 20.1324C1.85796 19.8712 1.70127 19.4534 1.70127 18.8789V9.32096C1.70127 8.79867 1.85796 8.38083 2.11911 8.06746C2.38025 7.75408 2.79809 7.64962 3.32038 7.64962H5.98408V6.50058H3.26815C2.32803 6.50058 1.64904 6.7095 1.17898 7.17956C0.708917 7.64962 0.5 8.38083 0.5 9.26873V18.9311C0.5 19.819 0.708917 20.5502 1.17898 20.9681C1.64904 21.3859 2.38025 21.6993 3.26815 21.6993ZM8.7 14.4394C8.85669 14.4394 9.01338 14.3872 9.11783 14.2827C9.22229 14.1783 9.27452 14.0216 9.27452 13.8649V3.6802L9.22229 2.32223L10.058 3.21013L11.6771 4.88147C11.7815 4.98593 11.9382 5.03816 12.0949 5.03816C12.2516 5.03816 12.3561 4.98593 12.4605 4.88147C12.565 4.77701 12.6172 4.67255 12.6172 4.51587C12.6172 4.35918 12.565 4.25472 12.4605 4.15026L9.11783 0.912043C9.0656 0.859813 8.96115 0.807584 8.90892 0.755355C8.85669 0.703125 8.80446 0.703125 8.7 0.703125C8.64777 0.703125 8.54331 0.703125 8.49108 0.755355C8.43885 0.807584 8.33439 0.859813 8.28217 0.912043L4.99172 4.15026C4.83503 4.25472 4.7828 4.35918 4.7828 4.51587C4.7828 4.67255 4.83503 4.77701 4.93949 4.88147C5.04395 4.98593 5.14841 5.03816 5.3051 5.03816C5.46178 5.03816 5.61847 4.98593 5.72293 4.88147L7.34204 3.21013L8.17771 2.32223L8.12548 3.6802V13.8649C8.12548 14.0216 8.17771 14.126 8.28217 14.2827C8.38662 14.4394 8.54331 14.4394 8.7 14.4394Z" fill="#007AFF"/>
</g>
</g>
<defs>
<clipPath id="clip0_839_513">
<rect width="18" height="22" fill="white" transform="translate(0 0.5)"/>
</clipPath>
</defs>
</svg>
