<svg width="163" height="32" viewBox="0 0 163 32" fill="none" xmlns="http://www.w3.org/2000/svg">
<path d="M152.984 20.2512C152.983 20.7444 152.885 21.2325 152.696 21.6878C152.506 22.1431 152.229 22.5566 151.88 22.9047C151.532 23.2528 151.118 23.5287 150.662 23.7166C150.207 23.9046 149.719 24.0009 149.226 24L139.744 23.9834C138.749 23.9817 137.796 23.5844 137.094 22.8789C136.392 22.1734 135.998 21.2175 136 20.2216L136.016 10.7488C136.017 10.2556 136.115 9.76747 136.304 9.31218C136.494 8.8569 136.771 8.44339 137.12 8.09529C137.468 7.74718 137.882 7.47129 138.338 7.28336C138.793 7.09543 139.281 6.99915 139.774 7.00001L149.256 7.01658C150.251 7.01832 151.204 7.41564 151.906 8.12113C152.608 8.82661 153.002 9.78247 153 10.7784L152.984 20.2512ZM151.759 10.9507C151.759 10.5993 151.691 10.2512 151.557 9.92625C151.423 9.60133 151.227 9.30597 150.979 9.05703C150.731 8.80809 150.437 8.61045 150.113 8.47539C149.789 8.34034 149.442 8.27051 149.091 8.26989L139.924 8.25387C139.573 8.25325 139.225 8.32186 138.901 8.45578C138.576 8.5897 138.281 8.78631 138.032 9.03438C137.784 9.28244 137.586 9.57712 137.452 9.90156C137.317 10.226 137.247 10.5739 137.246 10.9253L137.231 19.9839C137.23 20.3353 137.298 20.6834 137.432 21.0083C137.566 21.3333 137.762 21.6286 138.01 21.8776C138.258 22.1265 138.552 22.3241 138.876 22.4592C139.2 22.5943 139.548 22.6641 139.899 22.6647L149.065 22.6807C149.416 22.6813 149.764 22.6127 150.089 22.4788C150.413 22.3449 150.708 22.1483 150.957 21.9002C151.205 21.6522 151.403 21.3575 151.538 21.033C151.672 20.7086 151.742 20.3607 151.743 20.0093L151.759 10.9507Z" fill="#007AFF"/>
<path d="M148.19 15.0195H141.133C140.779 15.0195 140.492 15.3067 140.492 15.661C140.492 16.0153 140.779 16.3026 141.133 16.3026H148.19C148.544 16.3026 148.832 16.0153 148.832 15.661C148.832 15.3067 148.544 15.0195 148.19 15.0195Z" fill="#007AFF"/>
<path d="M145.303 19.1883V12.1317C145.303 11.7774 145.016 11.4902 144.661 11.4902C144.307 11.4902 144.02 11.7774 144.02 12.1317V19.1883C144.02 19.5426 144.307 19.8298 144.661 19.8298C145.016 19.8298 145.303 19.5426 145.303 19.1883Z" fill="#007AFF"/>
<path d="M9.44531 21L12.7525 11.8403H13.9014V13.4463H13.4698L10.9434 21H9.44531ZM11.0386 18.5244L11.4385 17.3818H15.6089L16.0088 18.5244H11.0386ZM16.0977 21L13.5777 13.4463V11.8403H14.2949L17.5957 21H16.0977ZM20.7731 21.1143C20.1976 21.1143 19.694 20.9704 19.2624 20.6826C18.835 20.3906 18.5028 19.978 18.2658 19.4448C18.033 18.9116 17.9167 18.2832 17.9167 17.5596V17.5469C17.9167 16.819 18.033 16.1885 18.2658 15.6553C18.4985 15.1221 18.8286 14.7116 19.256 14.4238C19.6834 14.1318 20.1891 13.9858 20.7731 13.9858C21.0905 13.9858 21.3867 14.0366 21.6618 14.1382C21.9368 14.2355 22.1802 14.3752 22.3918 14.5571C22.6033 14.7349 22.7705 14.9486 22.8932 15.1982H22.9948V11.4023H24.3786V21H22.9948V19.9146H22.8932C22.7578 20.1642 22.5864 20.38 22.3791 20.562C22.1717 20.7397 21.9326 20.8773 21.6618 20.9746C21.3909 21.0677 21.0947 21.1143 20.7731 21.1143ZM21.1667 19.9336C21.5475 19.9336 21.8776 19.8384 22.1569 19.6479C22.4362 19.4575 22.6499 19.1846 22.798 18.8291C22.9461 18.4694 23.0202 18.0462 23.0202 17.5596V17.5469C23.0202 17.056 22.944 16.6328 22.7917 16.2773C22.6436 15.9219 22.4298 15.6489 22.1506 15.4585C21.8755 15.2638 21.5475 15.1665 21.1667 15.1665C20.7858 15.1665 20.4557 15.2638 20.1764 15.4585C19.9014 15.6489 19.6898 15.9219 19.5417 16.2773C19.3978 16.6286 19.3258 17.0518 19.3258 17.5469V17.5596C19.3258 18.0505 19.3978 18.4736 19.5417 18.8291C19.6898 19.1846 19.9014 19.4575 20.1764 19.6479C20.4557 19.8384 20.7858 19.9336 21.1667 19.9336ZM28.5462 21.1143C27.9707 21.1143 27.4671 20.9704 27.0355 20.6826C26.608 20.3906 26.2758 19.978 26.0389 19.4448C25.8061 18.9116 25.6897 18.2832 25.6897 17.5596V17.5469C25.6897 16.819 25.8061 16.1885 26.0389 15.6553C26.2716 15.1221 26.6017 14.7116 27.0291 14.4238C27.4565 14.1318 27.9622 13.9858 28.5462 13.9858C28.8636 13.9858 29.1598 14.0366 29.4349 14.1382C29.7099 14.2355 29.9533 14.3752 30.1648 14.5571C30.3764 14.7349 30.5436 14.9486 30.6663 15.1982H30.7679V11.4023H32.1517V21H30.7679V19.9146H30.6663C30.5309 20.1642 30.3595 20.38 30.1522 20.562C29.9448 20.7397 29.7057 20.8773 29.4349 20.9746C29.164 21.0677 28.8678 21.1143 28.5462 21.1143ZM28.9397 19.9336C29.3206 19.9336 29.6507 19.8384 29.93 19.6479C30.2093 19.4575 30.423 19.1846 30.5711 18.8291C30.7192 18.4694 30.7933 18.0462 30.7933 17.5596V17.5469C30.7933 17.056 30.7171 16.6328 30.5647 16.2773C30.4166 15.9219 30.2029 15.6489 29.9236 15.4585C29.6486 15.2638 29.3206 15.1665 28.9397 15.1665C28.5589 15.1665 28.2288 15.2638 27.9495 15.4585C27.6744 15.6489 27.4629 15.9219 27.3147 16.2773C27.1709 16.6286 27.0989 17.0518 27.0989 17.5469V17.5596C27.0989 18.0505 27.1709 18.4736 27.3147 18.8291C27.4629 19.1846 27.6744 19.4575 27.9495 19.6479C28.2288 19.8384 28.5589 19.9336 28.9397 19.9336ZM39.5601 21.0444C38.8069 21.0444 38.261 20.9006 37.9224 20.6128C37.5881 20.3208 37.421 19.8447 37.421 19.1846V15.1919H36.3419V14.1064H37.421V12.3672H38.8302V14.1064H40.3092V15.1919H38.8302V18.8481C38.8302 19.2205 38.9042 19.4893 39.0523 19.6543C39.2004 19.8151 39.4459 19.8955 39.7887 19.8955C39.8902 19.8955 39.977 19.8934 40.0489 19.8892C40.1251 19.8849 40.2118 19.8786 40.3092 19.8701V20.9746C40.1991 20.9915 40.0806 21.0063 39.9537 21.019C39.8267 21.036 39.6956 21.0444 39.5601 21.0444ZM44.3752 21.1333C43.7024 21.1333 43.1205 20.9894 42.6296 20.7017C42.143 20.4139 41.7684 20.0034 41.5061 19.4702C41.2437 18.9328 41.1125 18.2959 41.1125 17.5596V17.5469C41.1125 16.8063 41.2437 16.1694 41.5061 15.6362C41.7727 15.103 42.1493 14.6925 42.636 14.4048C43.1268 14.117 43.7066 13.9731 44.3752 13.9731C45.0481 13.9731 45.6278 14.117 46.1145 14.4048C46.6011 14.6883 46.9756 15.0988 47.238 15.6362C47.5046 16.1694 47.6379 16.8063 47.6379 17.5469V17.5596C47.6379 18.2959 47.5046 18.9328 47.238 19.4702C46.9756 20.0034 46.6011 20.4139 46.1145 20.7017C45.6321 20.9894 45.0523 21.1333 44.3752 21.1333ZM44.3752 19.978C44.7688 19.978 45.1031 19.8828 45.3781 19.6924C45.6532 19.4977 45.8627 19.2205 46.0066 18.8608C46.1504 18.5011 46.2224 18.0674 46.2224 17.5596V17.5469C46.2224 17.0348 46.1504 16.599 46.0066 16.2393C45.8627 15.8796 45.6532 15.6045 45.3781 15.4141C45.1031 15.2194 44.7688 15.1221 44.3752 15.1221C43.9817 15.1221 43.6474 15.2194 43.3723 15.4141C43.0972 15.6045 42.8856 15.8796 42.7375 16.2393C42.5936 16.599 42.5217 17.0348 42.5217 17.5469V17.5596C42.5217 18.0674 42.5936 18.5011 42.7375 18.8608C42.8856 19.2205 43.0972 19.4977 43.3723 19.6924C43.6474 19.8828 43.9817 19.978 44.3752 19.978ZM52.1963 21V11.8403H53.6182V15.7124H58.3154V11.8403H59.7437V21H58.3154V16.9438H53.6182V21H52.1963ZM64.4191 21.1333C63.7462 21.1333 63.1644 20.9894 62.6735 20.7017C62.1868 20.4139 61.8123 20.0034 61.5499 19.4702C61.2876 18.9328 61.1564 18.2959 61.1564 17.5596V17.5469C61.1564 16.8063 61.2876 16.1694 61.5499 15.6362C61.8165 15.103 62.1932 14.6925 62.6798 14.4048C63.1707 14.117 63.7505 13.9731 64.4191 13.9731C65.0919 13.9731 65.6717 14.117 66.1583 14.4048C66.645 14.6883 67.0195 15.0988 67.2819 15.6362C67.5485 16.1694 67.6818 16.8063 67.6818 17.5469V17.5596C67.6818 18.2959 67.5485 18.9328 67.2819 19.4702C67.0195 20.0034 66.645 20.4139 66.1583 20.7017C65.6759 20.9894 65.0962 21.1333 64.4191 21.1333ZM64.4191 19.978C64.8126 19.978 65.147 19.8828 65.422 19.6924C65.6971 19.4977 65.9066 19.2205 66.0504 18.8608C66.1943 18.5011 66.2663 18.0674 66.2663 17.5596V17.5469C66.2663 17.0348 66.1943 16.599 66.0504 16.2393C65.9066 15.8796 65.6971 15.6045 65.422 15.4141C65.147 15.2194 64.8126 15.1221 64.4191 15.1221C64.0255 15.1221 63.6912 15.2194 63.4162 15.4141C63.1411 15.6045 62.9295 15.8796 62.7814 16.2393C62.6375 16.599 62.5656 17.0348 62.5656 17.5469V17.5596C62.5656 18.0674 62.6375 18.5011 62.7814 18.8608C62.9295 19.2205 63.1411 19.4977 63.4162 19.6924C63.6912 19.8828 64.0255 19.978 64.4191 19.978ZM68.9295 21V14.1064H70.3069V15.1665H70.4148C70.5672 14.7856 70.8042 14.4915 71.1258 14.2842C71.4516 14.0768 71.8409 13.9731 72.2937 13.9731C72.6069 13.9731 72.8883 14.0239 73.138 14.1255C73.3876 14.2271 73.6014 14.3709 73.7791 14.5571C73.9611 14.7391 74.1028 14.9549 74.2044 15.2046H74.3123C74.4265 14.9549 74.5874 14.7391 74.7947 14.5571C75.0021 14.3709 75.2433 14.2271 75.5183 14.1255C75.7976 14.0239 76.0939 13.9731 76.407 13.9731C76.8725 13.9731 77.2703 14.0641 77.6004 14.2461C77.9305 14.4238 78.1822 14.682 78.3557 15.0205C78.5293 15.359 78.616 15.7674 78.616 16.2456V21H77.2386V16.5757C77.2386 16.2583 77.1899 15.9959 77.0926 15.7886C76.9952 15.577 76.8471 15.4183 76.6482 15.3125C76.4536 15.2067 76.2081 15.1538 75.9119 15.1538C75.6199 15.1538 75.3639 15.2215 75.1438 15.3569C74.928 15.4881 74.7587 15.6659 74.636 15.8901C74.5175 16.1102 74.4583 16.3599 74.4583 16.6392V21H73.0808V16.436C73.0808 16.1737 73.0258 15.9473 72.9158 15.7568C72.81 15.5622 72.6577 15.4141 72.4588 15.3125C72.2599 15.2067 72.025 15.1538 71.7542 15.1538C71.4791 15.1538 71.2316 15.2257 71.0115 15.3696C70.7957 15.5135 70.6243 15.7082 70.4973 15.9536C70.3704 16.1948 70.3069 16.4657 70.3069 16.7661V21H68.9295ZM83.0502 21.1333C82.3774 21.1333 81.7997 20.9894 81.3173 20.7017C80.8349 20.4097 80.4625 19.9971 80.2001 19.4639C79.942 18.9307 79.8129 18.3001 79.8129 17.5723V17.5659C79.8129 16.8465 79.942 16.2181 80.2001 15.6807C80.4625 15.1432 80.8307 14.7243 81.3046 14.4238C81.7828 14.1234 82.3414 13.9731 82.9804 13.9731C83.6236 13.9731 84.1759 14.117 84.6371 14.4048C85.1026 14.6925 85.4602 15.0967 85.7099 15.6172C85.9596 16.1335 86.0844 16.7386 86.0844 17.4326V17.915H80.5112V16.9312H85.3989L84.7387 17.8452V17.293C84.7387 16.8021 84.6625 16.3958 84.5102 16.0742C84.3621 15.7484 84.1568 15.505 83.8945 15.3442C83.6321 15.1834 83.3295 15.103 82.9867 15.103C82.644 15.103 82.3372 15.1877 82.0663 15.3569C81.7997 15.522 81.5881 15.7674 81.4316 16.0933C81.2792 16.4191 81.203 16.819 81.203 17.293V17.8452C81.203 18.298 81.2792 18.6852 81.4316 19.0068C81.5839 19.3285 81.7997 19.5739 82.079 19.7432C82.3626 19.9124 82.6969 19.9971 83.082 19.9971C83.3782 19.9971 83.6321 19.9569 83.8437 19.8765C84.0595 19.7918 84.2351 19.6882 84.3705 19.5654C84.5102 19.4427 84.6054 19.3221 84.6562 19.2036L84.6816 19.1528H86.0146L86.0019 19.21C85.9426 19.4385 85.839 19.667 85.6908 19.8955C85.5427 20.1198 85.346 20.325 85.1005 20.5112C84.8593 20.6974 84.5673 20.8477 84.2245 20.9619C83.886 21.0762 83.4946 21.1333 83.0502 21.1333ZM93.7404 21.2222C93.0507 21.2222 92.4497 21.1143 91.9377 20.8984C91.4257 20.6784 91.0215 20.3737 90.7253 19.9844C90.4291 19.5951 90.2598 19.1444 90.2175 18.6323L90.2111 18.5498H91.614L91.6203 18.6196C91.6499 18.8947 91.7578 19.1338 91.944 19.3369C92.1345 19.54 92.3884 19.6987 92.7058 19.813C93.0274 19.9272 93.3934 19.9844 93.8039 19.9844C94.189 19.9844 94.5318 19.923 94.8322 19.8003C95.1327 19.6776 95.3675 19.5083 95.5368 19.2925C95.7103 19.0767 95.7971 18.8291 95.7971 18.5498V18.5435C95.7971 18.1922 95.6638 17.9002 95.3972 17.6675C95.1306 17.4347 94.6947 17.2528 94.0896 17.1216L93.0866 16.9121C92.1599 16.7132 91.4849 16.3979 91.0617 15.9663C90.6385 15.5304 90.427 14.974 90.427 14.2969V14.2905C90.4312 13.7616 90.573 13.2961 90.8522 12.894C91.1358 12.492 91.5272 12.1789 92.0266 11.9546C92.5259 11.7303 93.0993 11.6182 93.7468 11.6182C94.3942 11.6182 94.9592 11.7303 95.4416 11.9546C95.9283 12.1746 96.3112 12.4751 96.5905 12.856C96.8741 13.2368 97.0328 13.6663 97.0666 14.1445L97.073 14.2271H95.6828L95.6701 14.1445C95.632 13.8949 95.5284 13.6727 95.3591 13.478C95.194 13.2834 94.9719 13.131 94.6926 13.021C94.4175 12.9067 94.0959 12.8517 93.7277 12.856C93.3723 12.856 93.0549 12.911 92.7756 13.021C92.4963 13.1268 92.2741 13.2812 92.1091 13.4844C91.9483 13.6875 91.8679 13.9329 91.8679 14.2207V14.2271C91.8679 14.5656 91.9969 14.8491 92.2551 15.0776C92.5175 15.3019 92.9427 15.4775 93.531 15.6045L94.5339 15.8267C95.1729 15.9621 95.6913 16.1419 96.0891 16.3662C96.4869 16.5905 96.7767 16.8677 96.9587 17.1978C97.1449 17.5236 97.238 17.9129 97.238 18.3657V18.3721C97.238 18.9561 97.0941 19.4618 96.8064 19.8892C96.5228 20.3123 96.1187 20.6403 95.5939 20.873C95.0692 21.1058 94.4514 21.2222 93.7404 21.2222ZM101.463 21.1333C100.794 21.1333 100.216 20.9894 99.7298 20.7017C99.2474 20.4097 98.875 19.995 98.6126 19.4575C98.3503 18.9201 98.2191 18.279 98.2191 17.5342V17.5215C98.2191 16.7894 98.3482 16.1589 98.6063 15.6299C98.8687 15.1009 99.2411 14.6925 99.7235 14.4048C100.21 14.117 100.788 13.9731 101.456 13.9731C102.036 13.9731 102.533 14.0747 102.948 14.2778C103.367 14.4767 103.699 14.7518 103.945 15.103C104.194 15.45 104.351 15.8457 104.414 16.29L104.421 16.3218H103.094L103.088 16.3091C103.012 15.9705 102.836 15.6891 102.561 15.4648C102.286 15.2363 101.92 15.1221 101.463 15.1221C101.082 15.1221 100.754 15.2194 100.479 15.4141C100.204 15.6045 99.9922 15.8796 99.8441 16.2393C99.7002 16.599 99.6283 17.0264 99.6283 17.5215V17.5342C99.6283 18.042 99.7023 18.4779 99.8504 18.8418C99.9985 19.2057 100.21 19.4871 100.485 19.686C100.76 19.8807 101.086 19.978 101.463 19.978C101.894 19.978 102.244 19.8828 102.51 19.6924C102.781 19.502 102.971 19.2205 103.081 18.8481L103.094 18.8164L104.414 18.8101L104.402 18.8672C104.321 19.3158 104.158 19.7093 103.913 20.0479C103.667 20.3864 103.34 20.653 102.929 20.8477C102.523 21.0381 102.034 21.1333 101.463 21.1333ZM105.586 21V14.1064H106.963V15.1475H107.071C107.194 14.7793 107.41 14.4937 107.719 14.2905C108.032 14.0874 108.417 13.9858 108.874 13.9858C108.988 13.9858 109.1 13.9922 109.21 14.0049C109.32 14.0176 109.409 14.0324 109.477 14.0493V15.3188C109.354 15.2935 109.232 15.2744 109.109 15.2617C108.99 15.249 108.866 15.2427 108.734 15.2427C108.383 15.2427 108.074 15.3104 107.808 15.4458C107.545 15.5812 107.338 15.7716 107.186 16.0171C107.037 16.2583 106.963 16.5461 106.963 16.8804V21H105.586ZM113.13 21.1333C112.458 21.1333 111.88 20.9894 111.398 20.7017C110.915 20.4097 110.543 19.9971 110.28 19.4639C110.022 18.9307 109.893 18.3001 109.893 17.5723V17.5659C109.893 16.8465 110.022 16.2181 110.28 15.6807C110.543 15.1432 110.911 14.7243 111.385 14.4238C111.863 14.1234 112.422 13.9731 113.061 13.9731C113.704 13.9731 114.256 14.117 114.717 14.4048C115.183 14.6925 115.54 15.0967 115.79 15.6172C116.04 16.1335 116.165 16.7386 116.165 17.4326V17.915H110.591V16.9312H115.479L114.819 17.8452V17.293C114.819 16.8021 114.743 16.3958 114.59 16.0742C114.442 15.7484 114.237 15.505 113.975 15.3442C113.712 15.1834 113.41 15.103 113.067 15.103C112.724 15.103 112.417 15.1877 112.147 15.3569C111.88 15.522 111.668 15.7674 111.512 16.0933C111.359 16.4191 111.283 16.819 111.283 17.293V17.8452C111.283 18.298 111.359 18.6852 111.512 19.0068C111.664 19.3285 111.88 19.5739 112.159 19.7432C112.443 19.9124 112.777 19.9971 113.162 19.9971C113.458 19.9971 113.712 19.9569 113.924 19.8765C114.14 19.7918 114.315 19.6882 114.451 19.5654C114.59 19.4427 114.686 19.3221 114.736 19.2036L114.762 19.1528H116.095L116.082 19.21C116.023 19.4385 115.919 19.667 115.771 19.8955C115.623 20.1198 115.426 20.325 115.181 20.5112C114.94 20.6974 114.648 20.8477 114.305 20.9619C113.966 21.0762 113.575 21.1333 113.13 21.1333ZM120.307 21.1333C119.634 21.1333 119.056 20.9894 118.574 20.7017C118.092 20.4097 117.719 19.9971 117.457 19.4639C117.199 18.9307 117.07 18.3001 117.07 17.5723V17.5659C117.07 16.8465 117.199 16.2181 117.457 15.6807C117.719 15.1432 118.087 14.7243 118.561 14.4238C119.039 14.1234 119.598 13.9731 120.237 13.9731C120.88 13.9731 121.433 14.117 121.894 14.4048C122.359 14.6925 122.717 15.0967 122.967 15.6172C123.216 16.1335 123.341 16.7386 123.341 17.4326V17.915H117.768V16.9312H122.656L121.995 17.8452V17.293C121.995 16.8021 121.919 16.3958 121.767 16.0742C121.619 15.7484 121.414 15.505 121.151 15.3442C120.889 15.1834 120.586 15.103 120.243 15.103C119.901 15.103 119.594 15.1877 119.323 15.3569C119.056 15.522 118.845 15.7674 118.688 16.0933C118.536 16.4191 118.46 16.819 118.46 17.293V17.8452C118.46 18.298 118.536 18.6852 118.688 19.0068C118.841 19.3285 119.056 19.5739 119.336 19.7432C119.619 19.9124 119.954 19.9971 120.339 19.9971C120.635 19.9971 120.889 19.9569 121.1 19.8765C121.316 19.7918 121.492 19.6882 121.627 19.5654C121.767 19.4427 121.862 19.3221 121.913 19.2036L121.938 19.1528H123.271L123.259 19.21C123.199 19.4385 123.096 19.667 122.948 19.8955C122.799 20.1198 122.603 20.325 122.357 20.5112C122.116 20.6974 121.824 20.8477 121.481 20.9619C121.143 21.0762 120.751 21.1333 120.307 21.1333ZM124.589 21V14.1064H125.966V15.1475H126.074C126.243 14.7793 126.493 14.4915 126.823 14.2842C127.153 14.0768 127.57 13.9731 128.074 13.9731C128.848 13.9731 129.441 14.1953 129.851 14.6396C130.261 15.084 130.467 15.7166 130.467 16.5376V21H129.083V16.8613C129.083 16.2858 128.962 15.8584 128.721 15.5791C128.484 15.2956 128.112 15.1538 127.604 15.1538C127.27 15.1538 126.98 15.2279 126.734 15.376C126.489 15.5199 126.298 15.7272 126.163 15.998C126.032 16.2646 125.966 16.5841 125.966 16.9565V21H124.589Z" fill="#007AFF"/>
</svg>
