<svg width="49" height="48" viewBox="0 0 49 48" fill="none" xmlns="http://www.w3.org/2000/svg">
<path d="M11.5 46C10.7 46 10 45.7 9.4 45.1C8.8 44.5 8.5 43.8 8.5 43V17.55C8.5 16.75 8.8 16.05 9.4 15.45C10 14.85 10.7 14.55 11.5 14.55H19.95V17.55H11.5V43H37.5V17.55H28.95V14.55H37.5C38.3 14.55 39 14.85 39.6 15.45C40.2 16.05 40.5 16.75 40.5 17.55V43C40.5 43.8 40.2 44.5 39.6 45.1C39 45.7 38.3 46 37.5 46H11.5ZM22.95 30.65V7.8L18.55 12.2L16.4 10.05L24.45 2L32.5 10.05L30.35 12.2L25.95 7.8V30.65H22.95Z" fill="black"/>
</svg>
