<svg width="24" height="24" viewBox="0 0 24 24" fill="none" xmlns="http://www.w3.org/2000/svg">
<g clip-path="url(#clip0_837_291)">
<path d="M12 24C5.373 24 0 18.627 0 12C0 5.373 5.373 0 12 0C18.627 0 24 5.373 24 12C24 18.627 18.627 24 12 24ZM12 23.25C18.213 23.25 23.25 18.213 23.25 12C23.25 5.787 18.213 0.75 12 0.75C5.787 0.75 0.75 5.787 0.75 12C0.75 18.213 5.787 23.25 12 23.25ZM12 2C12.0663 2 12.1299 2.02634 12.1768 2.07322C12.2237 2.12011 12.25 2.1837 12.25 2.25V3.25C12.25 3.3163 12.2237 3.37989 12.1768 3.42678C12.1299 3.47366 12.0663 3.5 12 3.5C11.9337 3.5 11.8701 3.47366 11.8232 3.42678C11.7763 3.37989 11.75 3.3163 11.75 3.25V2.25C11.75 2.1837 11.7763 2.12011 11.8232 2.07322C11.8701 2.02634 11.9337 2 12 2ZM12 20.5C12.0663 20.5 12.1299 20.5263 12.1768 20.5732C12.2237 20.6201 12.25 20.6837 12.25 20.75V21.75C12.25 21.8163 12.2237 21.8799 12.1768 21.9268C12.1299 21.9737 12.0663 22 12 22C11.9337 22 11.8701 21.9737 11.8232 21.9268C11.7763 21.8799 11.75 21.8163 11.75 21.75V20.75C11.75 20.6837 11.7763 20.6201 11.8232 20.5732C11.8701 20.5263 11.9337 20.5 12 20.5ZM19.071 4.929C19.1177 4.97586 19.1439 5.03933 19.1439 5.1055C19.1439 5.17167 19.1177 5.23514 19.071 5.282L18.364 5.99C18.3171 6.03694 18.2534 6.06332 18.187 6.06332C18.1206 6.06332 18.0569 6.03694 18.01 5.99C17.9631 5.94306 17.9367 5.87939 17.9367 5.813C17.9367 5.74661 17.9631 5.68294 18.01 5.636L18.718 4.929C18.7649 4.88228 18.8283 4.85605 18.8945 4.85605C18.9607 4.85605 19.0241 4.88228 19.071 4.929ZM5.99 18.01C6.01328 18.0332 6.03175 18.0608 6.04436 18.0912C6.05696 18.1216 6.06345 18.1541 6.06345 18.187C6.06345 18.2199 6.05696 18.2524 6.04436 18.2828C6.03175 18.3132 6.01328 18.3408 5.99 18.364L5.282 19.071C5.25934 19.0964 5.23174 19.1168 5.20089 19.1311C5.17004 19.1455 5.1366 19.1533 5.10261 19.1543C5.06861 19.1552 5.03478 19.1492 5.00318 19.1367C4.97158 19.1241 4.94288 19.1052 4.91884 19.0812C4.89479 19.0571 4.8759 19.0284 4.86333 18.9968C4.85075 18.9652 4.84476 18.9314 4.84571 18.8974C4.84666 18.8634 4.85454 18.83 4.86886 18.7991C4.88318 18.7683 4.90365 18.7407 4.929 18.718L5.636 18.01C5.65922 17.9867 5.68681 17.9682 5.71718 17.9556C5.74756 17.943 5.78012 17.9366 5.813 17.9366C5.84588 17.9366 5.87844 17.943 5.90882 17.9556C5.93919 17.9682 5.96678 17.9867 5.99 18.01ZM4.929 4.93C4.97586 4.88328 5.03933 4.85705 5.1055 4.85705C5.17167 4.85705 5.23514 4.88328 5.282 4.93L5.99 5.637C6.01324 5.66024 6.03168 5.68784 6.04426 5.71821C6.05684 5.74858 6.06332 5.78113 6.06332 5.814C6.06332 5.84687 6.05684 5.87942 6.04426 5.90979C6.03168 5.94016 6.01324 5.96776 5.99 5.991C5.96676 6.01424 5.93916 6.03268 5.90879 6.04526C5.87842 6.05784 5.84587 6.06432 5.813 6.06432C5.78013 6.06432 5.74758 6.05784 5.71721 6.04526C5.68684 6.03268 5.65924 6.01424 5.636 5.991L4.929 5.283C4.88228 5.23614 4.85605 5.17267 4.85605 5.1065C4.85605 5.04033 4.88228 4.97686 4.929 4.93ZM18.01 18.01C18.0332 17.9867 18.0608 17.9682 18.0912 17.9556C18.1216 17.943 18.1541 17.9366 18.187 17.9366C18.2199 17.9366 18.2524 17.943 18.2828 17.9556C18.3132 17.9682 18.3408 17.9867 18.364 18.01L19.071 18.718C19.0964 18.7407 19.1168 18.7683 19.1311 18.7991C19.1455 18.83 19.1533 18.8634 19.1543 18.8974C19.1552 18.9314 19.1492 18.9652 19.1367 18.9968C19.1241 19.0284 19.1052 19.0571 19.0812 19.0812C19.0571 19.1052 19.0284 19.1241 18.9968 19.1367C18.9652 19.1492 18.9314 19.1552 18.8974 19.1543C18.8634 19.1533 18.83 19.1455 18.7991 19.1311C18.7683 19.1168 18.7407 19.0964 18.718 19.071L18.01 18.364C17.9867 18.3408 17.9682 18.3132 17.9556 18.2828C17.943 18.2524 17.9366 18.2199 17.9366 18.187C17.9366 18.1541 17.943 18.1216 17.9556 18.0912C17.9682 18.0608 17.9867 18.0332 18.01 18.01ZM2 12C2 11.9337 2.02634 11.8701 2.07322 11.8232C2.12011 11.7763 2.1837 11.75 2.25 11.75H3.25C3.3163 11.75 3.37989 11.7763 3.42678 11.8232C3.47366 11.8701 3.5 11.9337 3.5 12C3.5 12.0663 3.47366 12.1299 3.42678 12.1768C3.37989 12.2237 3.3163 12.25 3.25 12.25H2.25C2.1837 12.25 2.12011 12.2237 2.07322 12.1768C2.02634 12.1299 2 12.0663 2 12ZM20.5 12C20.5 11.9337 20.5263 11.8701 20.5732 11.8232C20.6201 11.7763 20.6837 11.75 20.75 11.75H21.75C21.8163 11.75 21.8799 11.7763 21.9268 11.8232C21.9737 11.8701 22 11.9337 22 12C22 12.0663 21.9737 12.1299 21.9268 12.1768C21.8799 12.2237 21.8163 12.25 21.75 12.25H20.75C20.6837 12.25 20.6201 12.2237 20.5732 12.1768C20.5263 12.1299 20.5 12.0663 20.5 12ZM15.907 2.795C15.9373 2.80777 15.9648 2.8264 15.9879 2.84981C16.0109 2.87321 16.0292 2.90095 16.0415 2.93141C16.0539 2.96188 16.0601 2.99448 16.0599 3.02736C16.0596 3.06023 16.0528 3.09273 16.04 3.123L15.649 4.043C15.6371 4.07446 15.6189 4.10319 15.5956 4.12748C15.5723 4.15176 15.5444 4.17109 15.5135 4.18431C15.4825 4.19753 15.4492 4.20437 15.4156 4.20441C15.3819 4.20446 15.3486 4.19772 15.3176 4.18459C15.2867 4.17146 15.2587 4.15221 15.2353 4.12799C15.2119 4.10378 15.1937 4.0751 15.1817 4.04367C15.1697 4.01224 15.1641 3.97871 15.1654 3.94509C15.1666 3.91147 15.1747 3.87845 15.189 3.848L15.579 2.928C15.5918 2.89771 15.6104 2.87023 15.6338 2.84715C15.6572 2.82406 15.6849 2.80582 15.7154 2.79346C15.7459 2.78111 15.7785 2.77489 15.8114 2.77515C15.8442 2.77541 15.8767 2.78216 15.907 2.795ZM8.68 19.825C8.74075 19.851 8.78874 19.9 8.81348 19.9613C8.83821 20.0225 8.83768 20.0911 8.812 20.152L8.422 21.072C8.39449 21.1305 8.3454 21.176 8.28504 21.1991C8.22467 21.2222 8.15771 21.221 8.09821 21.1958C8.0387 21.1705 7.99128 21.1232 7.96589 21.0638C7.94049 21.0044 7.9391 20.9374 7.962 20.877L8.352 19.957C8.36477 19.9267 8.3834 19.8992 8.40681 19.8761C8.43021 19.8531 8.45794 19.8348 8.48841 19.8225C8.51888 19.8101 8.55148 19.8039 8.58436 19.8041C8.61723 19.8044 8.64974 19.8112 8.68 19.824V19.825ZM21.272 8.253C21.2967 8.31441 21.2961 8.3831 21.2702 8.44403C21.2443 8.50495 21.1953 8.55313 21.134 8.578L20.207 8.953C20.1765 8.96534 20.1439 8.97157 20.1111 8.97131C20.0782 8.97106 20.0457 8.96433 20.0154 8.95152C19.9851 8.9387 19.9577 8.92005 19.9346 8.89663C19.9116 8.8732 19.8933 8.84547 19.881 8.815C19.8687 8.78453 19.8624 8.75193 19.8627 8.71906C19.8629 8.68619 19.8697 8.65369 19.8825 8.62342C19.8953 8.59315 19.9139 8.5657 19.9374 8.54263C19.9608 8.51957 19.9885 8.50134 20.019 8.489L20.946 8.115C20.9765 8.10261 21.0091 8.09636 21.042 8.09659C21.0748 8.09682 21.1073 8.10354 21.1376 8.11636C21.1679 8.12918 21.1954 8.14785 21.2184 8.17129C21.2415 8.19474 21.2597 8.22251 21.272 8.253ZM4.119 15.183C4.13139 15.2135 4.13764 15.2461 4.13741 15.279C4.13718 15.3118 4.13046 15.3444 4.11764 15.3746C4.10482 15.4049 4.08615 15.4324 4.06271 15.4554C4.03926 15.4785 4.01149 15.4967 3.981 15.509L3.054 15.883C3.02337 15.8967 2.9903 15.904 2.95676 15.9046C2.92322 15.9053 2.8899 15.8991 2.85878 15.8866C2.82767 15.8741 2.79939 15.8554 2.77564 15.8317C2.75188 15.808 2.73314 15.7798 2.72052 15.7487C2.7079 15.7177 2.70166 15.6844 2.70218 15.6508C2.7027 15.6173 2.70996 15.5842 2.72354 15.5535C2.73711 15.5228 2.75672 15.4952 2.7812 15.4723C2.80567 15.4493 2.83451 15.4316 2.866 15.42L3.793 15.045C3.82346 15.0326 3.85607 15.0264 3.88895 15.0266C3.92184 15.0268 3.95435 15.0335 3.98463 15.0464C4.01492 15.0592 4.04237 15.0778 4.06543 15.1013C4.08849 15.1247 4.10669 15.1525 4.119 15.183ZM8.254 2.728C8.31541 2.70329 8.3841 2.70395 8.44503 2.72982C8.50595 2.75569 8.55413 2.80466 8.579 2.866L8.954 3.793C8.96634 3.82347 8.97257 3.85607 8.97231 3.88894C8.97206 3.92181 8.96533 3.95431 8.95252 3.98458C8.9397 4.01485 8.92105 4.0423 8.89763 4.06537C8.8742 4.08843 8.84647 4.10666 8.816 4.119C8.78553 4.13134 8.75293 4.13757 8.72006 4.13731C8.68719 4.13706 8.65469 4.13033 8.62442 4.11752C8.59415 4.1047 8.5667 4.08605 8.54363 4.06263C8.52057 4.0392 8.50234 4.01147 8.49 3.981L8.116 3.054C8.10361 3.02354 8.09736 2.99093 8.09759 2.95805C8.09782 2.92516 8.10454 2.89265 8.11736 2.86237C8.13018 2.83208 8.14885 2.80463 8.17229 2.78157C8.19574 2.75851 8.22351 2.74031 8.254 2.728ZM15.184 19.881C15.2145 19.8686 15.2471 19.8624 15.28 19.8626C15.3128 19.8628 15.3453 19.8695 15.3756 19.8824C15.4059 19.8952 15.4334 19.9138 15.4564 19.9373C15.4795 19.9607 15.4977 19.9885 15.51 20.019L15.884 20.946C15.8977 20.9766 15.905 21.0097 15.9056 21.0432C15.9063 21.0768 15.9001 21.1101 15.8876 21.1412C15.8751 21.1723 15.8564 21.2006 15.8327 21.2244C15.809 21.2481 15.7808 21.2669 15.7497 21.2795C15.7187 21.2921 15.6854 21.2983 15.6518 21.2978C15.6183 21.2973 15.5852 21.29 15.5545 21.2765C15.5238 21.2629 15.4962 21.2433 15.4733 21.2188C15.4503 21.1943 15.4326 21.1655 15.421 21.134L15.046 20.207C15.0336 20.1765 15.0274 20.1439 15.0276 20.111C15.0278 20.0782 15.0345 20.0457 15.0474 20.0154C15.0602 19.9851 15.0788 19.9576 15.1023 19.9346C15.1257 19.9115 15.1535 19.8933 15.184 19.881ZM2.795 8.093C2.80777 8.06271 2.8264 8.03523 2.84981 8.01215C2.87321 7.98906 2.90095 7.97082 2.93141 7.95846C2.96188 7.94611 2.99448 7.93989 3.02736 7.94015C3.06023 7.94041 3.09273 7.94716 3.123 7.96L4.043 8.351C4.10148 8.37851 4.14704 8.4276 4.17011 8.48797C4.19318 8.54833 4.19198 8.61529 4.16676 8.67479C4.14153 8.7343 4.09425 8.78172 4.03482 8.80711C3.97539 8.83251 3.90843 8.8339 3.848 8.811L2.928 8.421C2.89771 8.40822 2.87023 8.3896 2.84715 8.36619C2.82406 8.34279 2.80582 8.31505 2.79346 8.28459C2.78111 8.25412 2.77489 8.22152 2.77515 8.18864C2.77541 8.15577 2.78216 8.12327 2.795 8.093ZM19.825 15.321C19.851 15.2602 19.9 15.2123 19.9613 15.1875C20.0225 15.1628 20.0911 15.1633 20.152 15.189L21.072 15.579C21.1035 15.5909 21.1322 15.6091 21.1565 15.6324C21.1808 15.6557 21.2001 15.6836 21.2133 15.7145C21.2265 15.7455 21.2334 15.7788 21.2334 15.8124C21.2335 15.8461 21.2267 15.8794 21.2136 15.9104C21.2005 15.9413 21.1812 15.9693 21.157 15.9927C21.1328 16.0161 21.1041 16.0343 21.0727 16.0463C21.0412 16.0583 21.0077 16.0639 20.9741 16.0626C20.9405 16.0614 20.9074 16.0533 20.877 16.039L19.957 15.649C19.9267 15.6362 19.8992 15.6176 19.8761 15.5942C19.8531 15.5708 19.8348 15.5431 19.8225 15.5126C19.8101 15.4821 19.8039 15.4495 19.8041 15.4166C19.8044 15.3838 19.8112 15.3513 19.824 15.321H19.825ZM12.879 12.879L11.12 11.12L6.979 17.02L12.878 12.878L12.879 12.879ZM19.071 4.929L13.237 13.237L4.929 19.071L10.763 10.763L19.071 4.929Z" fill="black"/>
</g>
<defs>
<clipPath id="clip0_837_291">
<rect width="24" height="24" fill="white"/>
</clipPath>
</defs>
</svg>
