<svg width="17" height="22" viewBox="0 0 17 22" fill="none" xmlns="http://www.w3.org/2000/svg">
<g clip-path="url(#clip0_837_329)">
<path fill-rule="evenodd" clip-rule="evenodd" d="M15 0.00999999L4.99997 0C3.89997 0 2.99997 0.9 2.99997 2V5C2.99997 5.55 3.44997 6 3.99997 6C4.54997 6 4.99997 5.55 4.99997 5V4H15V18H4.99997V17C4.99997 16.45 4.54997 16 3.99997 16C3.44997 16 2.99997 16.45 2.99997 17V20C2.99997 21.1 3.89997 22 4.99997 22H15C16.1 22 17 21.1 17 20V2C17 0.9 16.1 0.00999999 15 0.00999999ZM7.99997 14C8.54997 14 8.99997 13.55 8.99997 13V8C8.99997 7.45 8.54997 7 7.99997 7H2.99997C2.44997 7 1.99997 7.45 1.99997 8C1.99997 8.55 2.44997 9 2.99997 9H5.58997L0.699971 13.89C0.309971 14.28 0.309971 14.91 0.699971 15.3C1.08997 15.69 1.71997 15.69 2.10997 15.3L6.99997 10.41V13C6.99997 13.55 7.44997 14 7.99997 14Z" fill="#1D1D1D"/>
</g>
<defs>
<clipPath id="clip0_837_329">
<rect width="17" height="22" fill="white"/>
</clipPath>
</defs>
</svg>
