<svg width="49" height="49" viewBox="0 0 49 49" fill="none" xmlns="http://www.w3.org/2000/svg">
<path d="M24.493 40.5C23.831 40.5 23.2667 40.2643 22.8001 39.7929C22.3334 39.3215 22.1001 38.7549 22.1001 38.0929C22.1001 37.431 22.3358 36.8667 22.8072 36.4C23.2785 35.9333 23.8452 35.7 24.5072 35.7C25.1691 35.7 25.7334 35.9357 26.2001 36.4071C26.6667 36.8785 26.9001 37.4451 26.9001 38.1071C26.9001 38.769 26.6644 39.3333 26.193 39.8C25.7216 40.2667 25.1549 40.5 24.493 40.5ZM24.493 26.9C23.831 26.9 23.2667 26.6643 22.8001 26.1929C22.3334 25.7215 22.1001 25.1549 22.1001 24.4929C22.1001 23.831 22.3358 23.2667 22.8072 22.8C23.2785 22.3333 23.8452 22.1 24.5072 22.1C25.1691 22.1 25.7334 22.3357 26.2001 22.8071C26.6667 23.2785 26.9001 23.8451 26.9001 24.5071C26.9001 25.169 26.6644 25.7333 26.193 26.2C25.7216 26.6667 25.1549 26.9 24.493 26.9ZM24.493 13.3C23.831 13.3 23.2667 13.0643 22.8001 12.5929C22.3334 12.1215 22.1001 11.5549 22.1001 10.8929C22.1001 10.231 22.3358 9.66667 22.8072 9.2C23.2785 8.73333 23.8452 8.5 24.5072 8.5C25.1691 8.5 25.7334 8.7357 26.2001 9.2071C26.6667 9.67847 26.9001 10.2451 26.9001 10.9071C26.9001 11.569 26.6644 12.1333 26.193 12.6C25.7216 13.0667 25.1549 13.3 24.493 13.3Z" fill="black"/>
</svg>
