<svg width="18" height="23" viewBox="0 0 18 23" fill="none" xmlns="http://www.w3.org/2000/svg">
<g clip-path="url(#clip0_839_639)">
<mask id="mask0_839_639" style="mask-type:luminance" maskUnits="userSpaceOnUse" x="0" y="0" width="18" height="23">
<path d="M17.5 0.5H0.5V22.5H17.5V0.5Z" fill="white"/>
</mask>
<g mask="url(#mask0_839_639)">
<path fill-rule="evenodd" clip-rule="evenodd" d="M15.5002 0.51L5.50021 0.5C4.40021 0.5 3.50021 1.4 3.50021 2.5V5.5C3.50021 6.05 3.95021 6.5 4.50021 6.5C5.05021 6.5 5.50021 6.05 5.50021 5.5V4.5H15.5002V18.5H5.50021V17.5C5.50021 16.95 5.05021 16.5 4.50021 16.5C3.95021 16.5 3.50021 16.95 3.50021 17.5V20.5C3.50021 21.6 4.40021 22.5 5.50021 22.5H15.5002C16.6002 22.5 17.5002 21.6 17.5002 20.5V2.5C17.5002 1.4 16.6002 0.51 15.5002 0.51ZM8.50021 14.5C9.05021 14.5 9.50021 14.05 9.50021 13.5V8.5C9.50021 7.95 9.05021 7.5 8.50021 7.5H3.50021C2.95021 7.5 2.50021 7.95 2.50021 8.5C2.50021 9.05 2.95021 9.5 3.50021 9.5H6.09021L1.20021 14.39C0.810215 14.78 0.810215 15.41 1.20021 15.8C1.59021 16.19 2.22021 16.19 2.61021 15.8L7.50021 10.91V13.5C7.50021 14.05 7.95021 14.5 8.50021 14.5Z" fill="#1D1D1D"/>
</g>
</g>
<defs>
<clipPath id="clip0_839_639">
<rect width="17" height="22" fill="white" transform="translate(0.5 0.5)"/>
</clipPath>
</defs>
</svg>
