<svg width="18" height="23" viewBox="0 0 18 23" fill="none" xmlns="http://www.w3.org/2000/svg">
<g clip-path="url(#clip0_880_112)">
<mask id="mask0_880_112" style="mask-type:luminance" maskUnits="userSpaceOnUse" x="0" y="0" width="18" height="23">
<path d="M18 0H0V23H18V0Z" fill="white"/>
</mask>
<g mask="url(#mask0_880_112)">
<mask id="mask1_880_112" style="mask-type:luminance" maskUnits="userSpaceOnUse" x="0" y="0" width="18" height="23">
<path d="M17.5 0.5H0.5V22.5H17.5V0.5Z" fill="white"/>
</mask>
<g mask="url(#mask1_880_112)">
<mask id="mask2_880_112" style="mask-type:luminance" maskUnits="userSpaceOnUse" x="0" y="0" width="18" height="23">
<path d="M17.5 0.5H0.5V22.5H17.5V0.5Z" fill="white"/>
</mask>
<g mask="url(#mask2_880_112)">
<path fill-rule="evenodd" clip-rule="evenodd" d="M15.4987 0.51L5.49875 0.5C4.39875 0.5 3.49875 1.4 3.49875 2.5V5.5C3.49875 6.05 3.94875 6.5 4.49875 6.5C5.04875 6.5 5.49875 6.05 5.49875 5.5V4.5H15.4987V18.5H5.49875V17.5C5.49875 16.95 5.04875 16.5 4.49875 16.5C3.94875 16.5 3.49875 16.95 3.49875 17.5V20.5C3.49875 21.6 4.39875 22.5 5.49875 22.5H15.4987C16.5987 22.5 17.4987 21.6 17.4987 20.5V2.5C17.4987 1.4 16.5987 0.51 15.4987 0.51ZM8.49875 14.5C9.04875 14.5 9.49875 14.05 9.49875 13.5V8.5C9.49875 7.95 9.04875 7.5 8.49875 7.5H3.49875C2.94875 7.5 2.49875 7.95 2.49875 8.5C2.49875 9.05 2.94875 9.5 3.49875 9.5H6.08875L1.19875 14.39C0.80875 14.78 0.80875 15.41 1.19875 15.8C1.58875 16.19 2.21875 16.19 2.60875 15.8L7.49875 10.91V13.5C7.49875 14.05 7.94875 14.5 8.49875 14.5Z" fill="#007AFF"/>
</g>
</g>
</g>
</g>
<defs>
<clipPath id="clip0_880_112">
<rect width="18" height="23" fill="white"/>
</clipPath>
</defs>
</svg>
