<svg width="50" height="50" viewBox="0 0 50 50" fill="none" xmlns="http://www.w3.org/2000/svg">
<path d="M24.9945 41C24.3325 41 23.7682 40.7643 23.3016 40.2929C22.8349 39.8215 22.6016 39.2549 22.6016 38.5929C22.6016 37.931 22.8373 37.3667 23.3087 36.9C23.78 36.4333 24.3467 36.2 25.0087 36.2C25.6706 36.2 26.2349 36.4357 26.7016 36.9071C27.1682 37.3785 27.4016 37.9451 27.4016 38.6071C27.4016 39.269 27.1659 39.8333 26.6945 40.3C26.2231 40.7667 25.6564 41 24.9945 41ZM24.9945 27.4C24.3325 27.4 23.7682 27.1643 23.3016 26.6929C22.8349 26.2215 22.6016 25.6549 22.6016 24.9929C22.6016 24.331 22.8373 23.7667 23.3087 23.3C23.78 22.8333 24.3467 22.6 25.0087 22.6C25.6706 22.6 26.2349 22.8357 26.7016 23.3071C27.1682 23.7785 27.4016 24.3451 27.4016 25.0071C27.4016 25.669 27.1659 26.2333 26.6945 26.7C26.2231 27.1667 25.6564 27.4 24.9945 27.4ZM24.9945 13.8C24.3325 13.8 23.7682 13.5643 23.3016 13.0929C22.8349 12.6215 22.6016 12.0549 22.6016 11.3929C22.6016 10.731 22.8373 10.1667 23.3087 9.7C23.78 9.23333 24.3467 9 25.0087 9C25.6706 9 26.2349 9.2357 26.7016 9.7071C27.1682 10.1785 27.4016 10.7451 27.4016 11.4071C27.4016 12.069 27.1659 12.6333 26.6945 13.1C26.2231 13.5667 25.6564 13.8 24.9945 13.8Z" fill="#007AFF"/>
</svg>
