<svg width="102" height="28" viewBox="0 0 102 28" fill="none" xmlns="http://www.w3.org/2000/svg">
<path d="M32.6489 18.5V9.34033H34.0708V18.5H32.6489ZM35.82 18.5V11.6064H37.1974V12.6475H37.3053C37.4746 12.2793 37.7243 11.9915 38.0543 11.7842C38.3844 11.5768 38.8012 11.4731 39.3048 11.4731C40.0792 11.4731 40.6717 11.6953 41.0822 12.1396C41.4926 12.584 41.6979 13.2166 41.6979 14.0376V18.5H40.3141V14.3613C40.3141 13.7858 40.1935 13.3584 39.9523 13.0791C39.7153 12.7956 39.3429 12.6538 38.8351 12.6538C38.5008 12.6538 38.2109 12.7279 37.9655 12.876C37.72 13.0199 37.5296 13.2272 37.3942 13.498C37.263 13.7646 37.1974 14.0841 37.1974 14.4565V18.5H35.82ZM45.7322 18.6333C45.1778 18.6333 44.6954 18.5529 44.2849 18.3921C43.8745 18.2271 43.5486 18.0007 43.3074 17.7129C43.0662 17.4209 42.9244 17.0824 42.8821 16.6973V16.6846H44.2659V16.6973C44.3548 16.9554 44.524 17.1649 44.7737 17.3257C45.0234 17.4865 45.3535 17.5669 45.7639 17.5669C46.0475 17.5669 46.295 17.5267 46.5066 17.4463C46.7224 17.3659 46.8917 17.2537 47.0144 17.1099C47.1372 16.966 47.1985 16.8009 47.1985 16.6147V16.6021C47.1985 16.3862 47.1118 16.2043 46.9383 16.0562C46.7648 15.908 46.4791 15.7874 46.0813 15.6943L44.9768 15.4404C44.5452 15.3431 44.1876 15.2098 43.9041 15.0405C43.6206 14.8713 43.4111 14.6639 43.2757 14.4185C43.1402 14.1688 43.0725 13.8768 43.0725 13.5425V13.5361C43.0725 13.1341 43.1868 12.7786 43.4153 12.4697C43.6438 12.1566 43.9591 11.9132 44.3611 11.7397C44.7674 11.562 45.2307 11.4731 45.7513 11.4731C46.276 11.4731 46.733 11.5557 47.1223 11.7207C47.5159 11.8815 47.8269 12.1058 48.0554 12.3936C48.284 12.6771 48.4194 13.0072 48.4617 13.3838V13.3901H47.1414V13.3774C47.0779 13.1362 46.9256 12.9352 46.6844 12.7744C46.4474 12.6136 46.1342 12.5332 45.7449 12.5332C45.4952 12.5332 45.2731 12.5734 45.0784 12.6538C44.8837 12.73 44.7293 12.8379 44.615 12.9775C44.505 13.113 44.45 13.2738 44.45 13.46V13.4727C44.45 13.6165 44.486 13.7435 44.5579 13.8535C44.6341 13.9593 44.7526 14.0545 44.9134 14.1392C45.0742 14.2196 45.2815 14.2915 45.5354 14.355L46.6336 14.6025C47.2937 14.7591 47.7846 14.9855 48.1062 15.2817C48.4321 15.578 48.595 15.9757 48.595 16.4751V16.4878C48.595 16.911 48.4702 17.2855 48.2205 17.6113C47.9708 17.9329 47.6302 18.1847 47.1985 18.3667C46.7711 18.5444 46.2823 18.6333 45.7322 18.6333ZM52.3945 18.5444C51.6412 18.5444 51.0953 18.4006 50.7568 18.1128C50.4224 17.8208 50.2553 17.3447 50.2553 16.6846V12.6919H49.1762V11.6064H50.2553V9.86719H51.6645V11.6064H53.1435V12.6919H51.6645V16.3481C51.6645 16.7205 51.7385 16.9893 51.8866 17.1543C52.0348 17.3151 52.2802 17.3955 52.623 17.3955C52.7245 17.3955 52.8113 17.3934 52.8832 17.3892C52.9594 17.3849 53.0461 17.3786 53.1435 17.3701V18.4746C53.0335 18.4915 52.915 18.5063 52.788 18.519C52.6611 18.536 52.5299 18.5444 52.3945 18.5444ZM56.2574 18.6143C55.8215 18.6143 55.4301 18.5317 55.0831 18.3667C54.7403 18.1974 54.4695 17.9583 54.2706 17.6494C54.0717 17.3405 53.9722 16.9787 53.9722 16.564V16.5513C53.9722 16.1366 54.0717 15.7832 54.2706 15.4912C54.4737 15.1992 54.7657 14.9707 55.1465 14.8057C55.5316 14.6364 55.9971 14.5348 56.543 14.501L59.0884 14.3486V15.3198L56.7335 15.4722C56.2595 15.5018 55.9104 15.6034 55.6861 15.7769C55.4618 15.9461 55.3497 16.1852 55.3497 16.4941V16.5068C55.3497 16.82 55.4703 17.0675 55.7115 17.2495C55.9527 17.4272 56.2574 17.5161 56.6255 17.5161C56.9683 17.5161 57.273 17.4484 57.5396 17.313C57.8104 17.1733 58.022 16.9871 58.1744 16.7544C58.3267 16.5174 58.4029 16.2508 58.4029 15.9546V13.7837C58.4029 13.4028 58.2844 13.113 58.0474 12.9141C57.8147 12.7109 57.4677 12.6094 57.0064 12.6094C56.6213 12.6094 56.306 12.6771 56.0606 12.8125C55.8194 12.9479 55.6586 13.1383 55.5782 13.3838L55.5655 13.4028H54.2388L54.2452 13.3584C54.3002 12.9775 54.4504 12.6475 54.6959 12.3682C54.9455 12.0846 55.2714 11.8646 55.6734 11.708C56.0796 11.5514 56.543 11.4731 57.0635 11.4731C57.6433 11.4731 58.1342 11.5662 58.5362 11.7524C58.9424 11.9344 59.2492 12.1989 59.4566 12.5459C59.6682 12.8887 59.774 13.3013 59.774 13.7837V18.5H58.4029V17.5225H58.3013C58.1659 17.7552 57.9966 17.9541 57.7935 18.1191C57.5904 18.2799 57.3598 18.4027 57.1016 18.4873C56.8435 18.5719 56.5621 18.6143 56.2574 18.6143ZM61.3898 18.5V8.90234H62.7673V18.5H61.3898ZM64.4911 18.5V8.90234H65.8685V18.5H64.4911ZM70.1349 18.5L73.442 9.34033H74.5909V10.9463H74.1593L71.6329 18.5H70.1349ZM71.7281 16.0244L72.128 14.8818H76.2985L76.6984 16.0244H71.7281ZM76.7872 18.5L74.2672 10.9463V9.34033H74.9845L78.2853 18.5H76.7872ZM79.3298 20.7979V11.6064H80.7073V12.6919H80.8152C80.9464 12.438 81.1157 12.2222 81.323 12.0444C81.5346 11.8667 81.7758 11.7292 82.0466 11.6318C82.3175 11.5345 82.6137 11.4858 82.9353 11.4858C83.5151 11.4858 84.0186 11.634 84.4461 11.9302C84.8735 12.2222 85.2035 12.6348 85.4363 13.168C85.6733 13.6969 85.7918 14.3232 85.7918 15.0469V15.0596C85.7918 15.7874 85.6754 16.418 85.4426 16.9512C85.2099 17.4801 84.8798 17.8906 84.4524 18.1826C84.025 18.4704 83.5193 18.6143 82.9353 18.6143C82.6179 18.6143 82.3217 18.5656 82.0466 18.4683C81.7716 18.3667 81.5283 18.2271 81.3167 18.0493C81.1051 17.8716 80.9379 17.6579 80.8152 17.4082H80.7073V20.7979H79.3298ZM82.5418 17.4336C82.9269 17.4336 83.2569 17.3384 83.532 17.1479C83.8071 16.9575 84.0165 16.6846 84.1604 16.3291C84.3085 15.9736 84.3826 15.5505 84.3826 15.0596V15.0469C84.3826 14.5518 84.3085 14.1265 84.1604 13.771C84.0165 13.4155 83.8071 13.1426 83.532 12.9521C83.2569 12.7617 82.9269 12.6665 82.5418 12.6665C82.1609 12.6665 81.8308 12.7638 81.5515 12.9585C81.2722 13.1489 81.0585 13.4219 80.9104 13.7773C80.7623 14.1286 80.6882 14.5518 80.6882 15.0469V15.0596C80.6882 15.5462 80.7623 15.9673 80.9104 16.3228C81.0585 16.6782 81.2722 16.9533 81.5515 17.1479C81.8308 17.3384 82.1609 17.4336 82.5418 17.4336ZM87.0521 20.7979V11.6064H88.4296V12.6919H88.5375C88.6687 12.438 88.838 12.2222 89.0453 12.0444C89.2569 11.8667 89.4981 11.7292 89.7689 11.6318C90.0398 11.5345 90.336 11.4858 90.6576 11.4858C91.2374 11.4858 91.7409 11.634 92.1684 11.9302C92.5958 12.2222 92.9258 12.6348 93.1586 13.168C93.3956 13.6969 93.5141 14.3232 93.5141 15.0469V15.0596C93.5141 15.7874 93.3977 16.418 93.1649 16.9512C92.9322 17.4801 92.6021 17.8906 92.1747 18.1826C91.7473 18.4704 91.2416 18.6143 90.6576 18.6143C90.3402 18.6143 90.044 18.5656 89.7689 18.4683C89.4939 18.3667 89.2506 18.2271 89.039 18.0493C88.8274 17.8716 88.6602 17.6579 88.5375 17.4082H88.4296V20.7979H87.0521ZM90.2641 17.4336C90.6492 17.4336 90.9792 17.3384 91.2543 17.1479C91.5294 16.9575 91.7388 16.6846 91.8827 16.3291C92.0308 15.9736 92.1049 15.5505 92.1049 15.0596V15.0469C92.1049 14.5518 92.0308 14.1265 91.8827 13.771C91.7388 13.4155 91.5294 13.1426 91.2543 12.9521C90.9792 12.7617 90.6492 12.6665 90.2641 12.6665C89.8832 12.6665 89.5531 12.7638 89.2738 12.9585C88.9945 13.1489 88.7808 13.4219 88.6327 13.7773C88.4846 14.1286 88.4105 14.5518 88.4105 15.0469V15.0596C88.4105 15.5462 88.4846 15.9673 88.6327 16.3228C88.7808 16.6782 88.9945 16.9533 89.2738 17.1479C89.5531 17.3384 89.8832 17.4336 90.2641 17.4336Z" fill="black"/>
<path d="M9.8125 26.375C9.3625 26.375 8.96875 26.2062 8.63125 25.8687C8.29375 25.5312 8.125 25.1375 8.125 24.6875V3.3125C8.125 2.8625 8.29375 2.46875 8.63125 2.13125C8.96875 1.79375 9.3625 1.625 9.8125 1.625H18.8125V5.84375H9.8125V22.1562H22.1875V18.5H23.875V24.6875C23.875 25.1375 23.7062 25.5312 23.3687 25.8687C23.0312 26.2062 22.6375 26.375 22.1875 26.375H9.8125ZM23.1437 15.8562L17.9125 10.625L19.0937 9.44375L22.3 12.6219V4.15625H23.9875V12.6219L27.1937 9.44375L28.375 10.625L23.1437 15.8562Z" fill="black"/>
</svg>
