<svg width="23" height="23" viewBox="0 0 23 23" fill="none" xmlns="http://www.w3.org/2000/svg">
<path d="M11.5 21.5C12.6046 21.5 13.5 20.6046 13.5 19.5C13.5 18.3954 12.6046 17.5 11.5 17.5C10.3954 17.5 9.5 18.3954 9.5 19.5C9.5 20.6046 10.3954 21.5 11.5 21.5Z" fill="black"/>
<path d="M11.5 5.5C12.6046 5.5 13.5 4.60457 13.5 3.5C13.5 2.39543 12.6046 1.5 11.5 1.5C10.3954 1.5 9.5 2.39543 9.5 3.5C9.5 4.60457 10.3954 5.5 11.5 5.5Z" fill="black"/>
<path d="M11.5 13.5C12.6046 13.5 13.5 12.6046 13.5 11.5C13.5 10.3954 12.6046 9.5 11.5 9.5C10.3954 9.5 9.5 10.3954 9.5 11.5C9.5 12.6046 10.3954 13.5 11.5 13.5Z" fill="black"/>
</svg>
