<svg width="49" height="49" viewBox="0 0 49 49" fill="none" xmlns="http://www.w3.org/2000/svg">
<path d="M24.4945 40.5C23.8325 40.5 23.2682 40.2643 22.8016 39.7929C22.3349 39.3215 22.1016 38.7549 22.1016 38.0929C22.1016 37.431 22.3373 36.8667 22.8087 36.4C23.28 35.9333 23.8467 35.7 24.5087 35.7C25.1706 35.7 25.7349 35.9357 26.2016 36.4071C26.6682 36.8785 26.9016 37.4451 26.9016 38.1071C26.9016 38.769 26.6659 39.3333 26.1945 39.8C25.7231 40.2667 25.1564 40.5 24.4945 40.5ZM24.4945 26.9C23.8325 26.9 23.2682 26.6643 22.8016 26.1929C22.3349 25.7215 22.1016 25.1549 22.1016 24.4929C22.1016 23.831 22.3373 23.2667 22.8087 22.8C23.28 22.3333 23.8467 22.1 24.5087 22.1C25.1706 22.1 25.7349 22.3357 26.2016 22.8071C26.6682 23.2785 26.9016 23.8451 26.9016 24.5071C26.9016 25.169 26.6659 25.7333 26.1945 26.2C25.7231 26.6667 25.1564 26.9 24.4945 26.9ZM24.4945 13.3C23.8325 13.3 23.2682 13.0643 22.8016 12.5929C22.3349 12.1215 22.1016 11.5549 22.1016 10.8929C22.1016 10.231 22.3373 9.66667 22.8087 9.2C23.28 8.73333 23.8467 8.5 24.5087 8.5C25.1706 8.5 25.7349 8.7357 26.2016 9.2071C26.6682 9.67847 26.9016 10.2451 26.9016 10.9071C26.9016 11.569 26.6659 12.1333 26.1945 12.6C25.7231 13.0667 25.1564 13.3 24.4945 13.3Z" fill="black"/>
</svg>
