<svg width="153" height="27" viewBox="0 0 153 27" fill="none" xmlns="http://www.w3.org/2000/svg">
<path d="M30.4453 18L33.7525 8.84033H34.9014V10.4463H34.4698L31.9434 18H30.4453ZM32.0386 15.5244L32.4385 14.3818H36.6089L37.0088 15.5244H32.0386ZM37.0977 18L34.5777 10.4463V8.84033H35.2949L38.5957 18H37.0977ZM41.7731 18.1143C41.1976 18.1143 40.694 17.9704 40.2624 17.6826C39.835 17.3906 39.5028 16.978 39.2658 16.4448C39.033 15.9116 38.9167 15.2832 38.9167 14.5596V14.5469C38.9167 13.819 39.033 13.1885 39.2658 12.6553C39.4985 12.1221 39.8286 11.7116 40.256 11.4238C40.6834 11.1318 41.1891 10.9858 41.7731 10.9858C42.0905 10.9858 42.3867 11.0366 42.6618 11.1382C42.9368 11.2355 43.1802 11.3752 43.3918 11.5571C43.6033 11.7349 43.7705 11.9486 43.8932 12.1982H43.9948V8.40234H45.3786V18H43.9948V16.9146H43.8932C43.7578 17.1642 43.5864 17.38 43.3791 17.562C43.1717 17.7397 42.9326 17.8773 42.6618 17.9746C42.3909 18.0677 42.0947 18.1143 41.7731 18.1143ZM42.1667 16.9336C42.5475 16.9336 42.8776 16.8384 43.1569 16.6479C43.4362 16.4575 43.6499 16.1846 43.798 15.8291C43.9461 15.4694 44.0202 15.0462 44.0202 14.5596V14.5469C44.0202 14.056 43.944 13.6328 43.7917 13.2773C43.6436 12.9219 43.4298 12.6489 43.1506 12.4585C42.8755 12.2638 42.5475 12.1665 42.1667 12.1665C41.7858 12.1665 41.4557 12.2638 41.1764 12.4585C40.9014 12.6489 40.6898 12.9219 40.5417 13.2773C40.3978 13.6286 40.3258 14.0518 40.3258 14.5469V14.5596C40.3258 15.0505 40.3978 15.4736 40.5417 15.8291C40.6898 16.1846 40.9014 16.4575 41.1764 16.6479C41.4557 16.8384 41.7858 16.9336 42.1667 16.9336ZM49.5462 18.1143C48.9707 18.1143 48.4671 17.9704 48.0355 17.6826C47.608 17.3906 47.2758 16.978 47.0389 16.4448C46.8061 15.9116 46.6897 15.2832 46.6897 14.5596V14.5469C46.6897 13.819 46.8061 13.1885 47.0389 12.6553C47.2716 12.1221 47.6017 11.7116 48.0291 11.4238C48.4565 11.1318 48.9622 10.9858 49.5462 10.9858C49.8636 10.9858 50.1598 11.0366 50.4349 11.1382C50.7099 11.2355 50.9533 11.3752 51.1648 11.5571C51.3764 11.7349 51.5436 11.9486 51.6663 12.1982H51.7679V8.40234H53.1517V18H51.7679V16.9146H51.6663C51.5309 17.1642 51.3595 17.38 51.1522 17.562C50.9448 17.7397 50.7057 17.8773 50.4349 17.9746C50.164 18.0677 49.8678 18.1143 49.5462 18.1143ZM49.9397 16.9336C50.3206 16.9336 50.6507 16.8384 50.93 16.6479C51.2093 16.4575 51.423 16.1846 51.5711 15.8291C51.7192 15.4694 51.7933 15.0462 51.7933 14.5596V14.5469C51.7933 14.056 51.7171 13.6328 51.5647 13.2773C51.4166 12.9219 51.2029 12.6489 50.9236 12.4585C50.6486 12.2638 50.3206 12.1665 49.9397 12.1665C49.5589 12.1665 49.2288 12.2638 48.9495 12.4585C48.6744 12.6489 48.4629 12.9219 48.3147 13.2773C48.1709 13.6286 48.0989 14.0518 48.0989 14.5469V14.5596C48.0989 15.0505 48.1709 15.4736 48.3147 15.8291C48.4629 16.1846 48.6744 16.4575 48.9495 16.6479C49.2288 16.8384 49.5589 16.9336 49.9397 16.9336ZM60.5601 18.0444C59.8069 18.0444 59.261 17.9006 58.9224 17.6128C58.5881 17.3208 58.421 16.8447 58.421 16.1846V12.1919H57.3419V11.1064H58.421V9.36719H59.8302V11.1064H61.3092V12.1919H59.8302V15.8481C59.8302 16.2205 59.9042 16.4893 60.0523 16.6543C60.2004 16.8151 60.4459 16.8955 60.7887 16.8955C60.8902 16.8955 60.977 16.8934 61.0489 16.8892C61.1251 16.8849 61.2118 16.8786 61.3092 16.8701V17.9746C61.1991 17.9915 61.0806 18.0063 60.9537 18.019C60.8267 18.036 60.6956 18.0444 60.5601 18.0444ZM65.3752 18.1333C64.7024 18.1333 64.1205 17.9894 63.6296 17.7017C63.143 17.4139 62.7684 17.0034 62.5061 16.4702C62.2437 15.9328 62.1125 15.2959 62.1125 14.5596V14.5469C62.1125 13.8063 62.2437 13.1694 62.5061 12.6362C62.7727 12.103 63.1493 11.6925 63.636 11.4048C64.1268 11.117 64.7066 10.9731 65.3752 10.9731C66.0481 10.9731 66.6278 11.117 67.1145 11.4048C67.6011 11.6883 67.9756 12.0988 68.238 12.6362C68.5046 13.1694 68.6379 13.8063 68.6379 14.5469V14.5596C68.6379 15.2959 68.5046 15.9328 68.238 16.4702C67.9756 17.0034 67.6011 17.4139 67.1145 17.7017C66.6321 17.9894 66.0523 18.1333 65.3752 18.1333ZM65.3752 16.978C65.7688 16.978 66.1031 16.8828 66.3781 16.6924C66.6532 16.4977 66.8627 16.2205 67.0066 15.8608C67.1504 15.5011 67.2224 15.0674 67.2224 14.5596V14.5469C67.2224 14.0348 67.1504 13.599 67.0066 13.2393C66.8627 12.8796 66.6532 12.6045 66.3781 12.4141C66.1031 12.2194 65.7688 12.1221 65.3752 12.1221C64.9817 12.1221 64.6474 12.2194 64.3723 12.4141C64.0972 12.6045 63.8856 12.8796 63.7375 13.2393C63.5936 13.599 63.5217 14.0348 63.5217 14.5469V14.5596C63.5217 15.0674 63.5936 15.5011 63.7375 15.8608C63.8856 16.2205 64.0972 16.4977 64.3723 16.6924C64.6474 16.8828 64.9817 16.978 65.3752 16.978ZM73.1963 18V8.84033H74.6182V12.7124H79.3154V8.84033H80.7437V18H79.3154V13.9438H74.6182V18H73.1963ZM85.4191 18.1333C84.7462 18.1333 84.1644 17.9894 83.6735 17.7017C83.1868 17.4139 82.8123 17.0034 82.5499 16.4702C82.2876 15.9328 82.1564 15.2959 82.1564 14.5596V14.5469C82.1564 13.8063 82.2876 13.1694 82.5499 12.6362C82.8165 12.103 83.1932 11.6925 83.6798 11.4048C84.1707 11.117 84.7505 10.9731 85.4191 10.9731C86.0919 10.9731 86.6717 11.117 87.1583 11.4048C87.645 11.6883 88.0195 12.0988 88.2819 12.6362C88.5485 13.1694 88.6818 13.8063 88.6818 14.5469V14.5596C88.6818 15.2959 88.5485 15.9328 88.2819 16.4702C88.0195 17.0034 87.645 17.4139 87.1583 17.7017C86.6759 17.9894 86.0962 18.1333 85.4191 18.1333ZM85.4191 16.978C85.8126 16.978 86.147 16.8828 86.422 16.6924C86.6971 16.4977 86.9066 16.2205 87.0504 15.8608C87.1943 15.5011 87.2663 15.0674 87.2663 14.5596V14.5469C87.2663 14.0348 87.1943 13.599 87.0504 13.2393C86.9066 12.8796 86.6971 12.6045 86.422 12.4141C86.147 12.2194 85.8126 12.1221 85.4191 12.1221C85.0255 12.1221 84.6912 12.2194 84.4162 12.4141C84.1411 12.6045 83.9295 12.8796 83.7814 13.2393C83.6375 13.599 83.5656 14.0348 83.5656 14.5469V14.5596C83.5656 15.0674 83.6375 15.5011 83.7814 15.8608C83.9295 16.2205 84.1411 16.4977 84.4162 16.6924C84.6912 16.8828 85.0255 16.978 85.4191 16.978ZM89.9295 18V11.1064H91.3069V12.1665H91.4148C91.5672 11.7856 91.8042 11.4915 92.1258 11.2842C92.4516 11.0768 92.8409 10.9731 93.2937 10.9731C93.6069 10.9731 93.8883 11.0239 94.138 11.1255C94.3876 11.2271 94.6014 11.3709 94.7791 11.5571C94.9611 11.7391 95.1028 11.9549 95.2044 12.2046H95.3123C95.4265 11.9549 95.5874 11.7391 95.7947 11.5571C96.0021 11.3709 96.2433 11.2271 96.5183 11.1255C96.7976 11.0239 97.0939 10.9731 97.407 10.9731C97.8725 10.9731 98.2703 11.0641 98.6004 11.2461C98.9305 11.4238 99.1822 11.682 99.3557 12.0205C99.5293 12.359 99.616 12.7674 99.616 13.2456V18H98.2386V13.5757C98.2386 13.2583 98.1899 12.9959 98.0926 12.7886C97.9952 12.577 97.8471 12.4183 97.6482 12.3125C97.4536 12.2067 97.2081 12.1538 96.9119 12.1538C96.6199 12.1538 96.3639 12.2215 96.1438 12.3569C95.928 12.4881 95.7587 12.6659 95.636 12.8901C95.5175 13.1102 95.4583 13.3599 95.4583 13.6392V18H94.0808V13.436C94.0808 13.1737 94.0258 12.9473 93.9158 12.7568C93.81 12.5622 93.6577 12.4141 93.4588 12.3125C93.2599 12.2067 93.025 12.1538 92.7542 12.1538C92.4791 12.1538 92.2316 12.2257 92.0115 12.3696C91.7957 12.5135 91.6243 12.7082 91.4973 12.9536C91.3704 13.1948 91.3069 13.4657 91.3069 13.7661V18H89.9295ZM104.05 18.1333C103.377 18.1333 102.8 17.9894 102.317 17.7017C101.835 17.4097 101.462 16.9971 101.2 16.4639C100.942 15.9307 100.813 15.3001 100.813 14.5723V14.5659C100.813 13.8465 100.942 13.2181 101.2 12.6807C101.462 12.1432 101.831 11.7243 102.305 11.4238C102.783 11.1234 103.341 10.9731 103.98 10.9731C104.624 10.9731 105.176 11.117 105.637 11.4048C106.103 11.6925 106.46 12.0967 106.71 12.6172C106.96 13.1335 107.084 13.7386 107.084 14.4326V14.915H101.511V13.9312H106.399L105.739 14.8452V14.293C105.739 13.8021 105.663 13.3958 105.51 13.0742C105.362 12.7484 105.157 12.505 104.894 12.3442C104.632 12.1834 104.33 12.103 103.987 12.103C103.644 12.103 103.337 12.1877 103.066 12.3569C102.8 12.522 102.588 12.7674 102.432 13.0933C102.279 13.4191 102.203 13.819 102.203 14.293V14.8452C102.203 15.298 102.279 15.6852 102.432 16.0068C102.584 16.3285 102.8 16.5739 103.079 16.7432C103.363 16.9124 103.697 16.9971 104.082 16.9971C104.378 16.9971 104.632 16.9569 104.844 16.8765C105.059 16.7918 105.235 16.6882 105.371 16.5654C105.51 16.4427 105.605 16.3221 105.656 16.2036L105.682 16.1528H107.015L107.002 16.21C106.943 16.4385 106.839 16.667 106.691 16.8955C106.543 17.1198 106.346 17.325 106.101 17.5112C105.859 17.6974 105.567 17.8477 105.225 17.9619C104.886 18.0762 104.495 18.1333 104.05 18.1333ZM114.74 18.2222C114.051 18.2222 113.45 18.1143 112.938 17.8984C112.426 17.6784 112.022 17.3737 111.725 16.9844C111.429 16.5951 111.26 16.1444 111.217 15.6323L111.211 15.5498H112.614L112.62 15.6196C112.65 15.8947 112.758 16.1338 112.944 16.3369C113.134 16.54 113.388 16.6987 113.706 16.813C114.027 16.9272 114.393 16.9844 114.804 16.9844C115.189 16.9844 115.532 16.923 115.832 16.8003C116.133 16.6776 116.368 16.5083 116.537 16.2925C116.71 16.0767 116.797 15.8291 116.797 15.5498V15.5435C116.797 15.1922 116.664 14.9002 116.397 14.6675C116.131 14.4347 115.695 14.2528 115.09 14.1216L114.087 13.9121C113.16 13.7132 112.485 13.3979 112.062 12.9663C111.639 12.5304 111.427 11.974 111.427 11.2969V11.2905C111.431 10.7616 111.573 10.2961 111.852 9.89404C112.136 9.49202 112.527 9.17887 113.027 8.95459C113.526 8.73031 114.099 8.61816 114.747 8.61816C115.394 8.61816 115.959 8.73031 116.442 8.95459C116.928 9.17464 117.311 9.4751 117.591 9.85596C117.874 10.2368 118.033 10.6663 118.067 11.1445L118.073 11.2271H116.683L116.67 11.1445C116.632 10.8949 116.528 10.6727 116.359 10.478C116.194 10.2834 115.972 10.131 115.693 10.021C115.418 9.90674 115.096 9.85173 114.728 9.85596C114.372 9.85596 114.055 9.91097 113.776 10.021C113.496 10.1268 113.274 10.2812 113.109 10.4844C112.948 10.6875 112.868 10.9329 112.868 11.2207V11.2271C112.868 11.5656 112.997 11.8491 113.255 12.0776C113.517 12.3019 113.943 12.4775 114.531 12.6045L115.534 12.8267C116.173 12.9621 116.691 13.1419 117.089 13.3662C117.487 13.5905 117.777 13.8677 117.959 14.1978C118.145 14.5236 118.238 14.9129 118.238 15.3657V15.3721C118.238 15.9561 118.094 16.4618 117.806 16.8892C117.523 17.3123 117.119 17.6403 116.594 17.873C116.069 18.1058 115.451 18.2222 114.74 18.2222ZM122.463 18.1333C121.794 18.1333 121.216 17.9894 120.73 17.7017C120.247 17.4097 119.875 16.995 119.613 16.4575C119.35 15.9201 119.219 15.279 119.219 14.5342V14.5215C119.219 13.7894 119.348 13.1589 119.606 12.6299C119.869 12.1009 120.241 11.6925 120.723 11.4048C121.21 11.117 121.788 10.9731 122.456 10.9731C123.036 10.9731 123.533 11.0747 123.948 11.2778C124.367 11.4767 124.699 11.7518 124.945 12.103C125.194 12.45 125.351 12.8457 125.414 13.29L125.421 13.3218H124.094L124.088 13.3091C124.012 12.9705 123.836 12.6891 123.561 12.4648C123.286 12.2363 122.92 12.1221 122.463 12.1221C122.082 12.1221 121.754 12.2194 121.479 12.4141C121.204 12.6045 120.992 12.8796 120.844 13.2393C120.7 13.599 120.628 14.0264 120.628 14.5215V14.5342C120.628 15.042 120.702 15.4779 120.85 15.8418C120.999 16.2057 121.21 16.4871 121.485 16.686C121.76 16.8807 122.086 16.978 122.463 16.978C122.894 16.978 123.244 16.8828 123.51 16.6924C123.781 16.502 123.971 16.2205 124.081 15.8481L124.094 15.8164L125.414 15.8101L125.402 15.8672C125.321 16.3158 125.158 16.7093 124.913 17.0479C124.667 17.3864 124.34 17.653 123.929 17.8477C123.523 18.0381 123.034 18.1333 122.463 18.1333ZM126.586 18V11.1064H127.963V12.1475H128.071C128.194 11.7793 128.41 11.4937 128.719 11.2905C129.032 11.0874 129.417 10.9858 129.874 10.9858C129.988 10.9858 130.1 10.9922 130.21 11.0049C130.32 11.0176 130.409 11.0324 130.477 11.0493V12.3188C130.354 12.2935 130.232 12.2744 130.109 12.2617C129.99 12.249 129.866 12.2427 129.734 12.2427C129.383 12.2427 129.074 12.3104 128.808 12.4458C128.545 12.5812 128.338 12.7716 128.186 13.0171C128.037 13.2583 127.963 13.5461 127.963 13.8804V18H126.586ZM134.13 18.1333C133.458 18.1333 132.88 17.9894 132.398 17.7017C131.915 17.4097 131.543 16.9971 131.28 16.4639C131.022 15.9307 130.893 15.3001 130.893 14.5723V14.5659C130.893 13.8465 131.022 13.2181 131.28 12.6807C131.543 12.1432 131.911 11.7243 132.385 11.4238C132.863 11.1234 133.422 10.9731 134.061 10.9731C134.704 10.9731 135.256 11.117 135.717 11.4048C136.183 11.6925 136.54 12.0967 136.79 12.6172C137.04 13.1335 137.165 13.7386 137.165 14.4326V14.915H131.591V13.9312H136.479L135.819 14.8452V14.293C135.819 13.8021 135.743 13.3958 135.59 13.0742C135.442 12.7484 135.237 12.505 134.975 12.3442C134.712 12.1834 134.41 12.103 134.067 12.103C133.724 12.103 133.417 12.1877 133.147 12.3569C132.88 12.522 132.668 12.7674 132.512 13.0933C132.359 13.4191 132.283 13.819 132.283 14.293V14.8452C132.283 15.298 132.359 15.6852 132.512 16.0068C132.664 16.3285 132.88 16.5739 133.159 16.7432C133.443 16.9124 133.777 16.9971 134.162 16.9971C134.458 16.9971 134.712 16.9569 134.924 16.8765C135.14 16.7918 135.315 16.6882 135.451 16.5654C135.59 16.4427 135.686 16.3221 135.736 16.2036L135.762 16.1528H137.095L137.082 16.21C137.023 16.4385 136.919 16.667 136.771 16.8955C136.623 17.1198 136.426 17.325 136.181 17.5112C135.94 17.6974 135.648 17.8477 135.305 17.9619C134.966 18.0762 134.575 18.1333 134.13 18.1333ZM141.307 18.1333C140.634 18.1333 140.056 17.9894 139.574 17.7017C139.092 17.4097 138.719 16.9971 138.457 16.4639C138.199 15.9307 138.07 15.3001 138.07 14.5723V14.5659C138.07 13.8465 138.199 13.2181 138.457 12.6807C138.719 12.1432 139.087 11.7243 139.561 11.4238C140.039 11.1234 140.598 10.9731 141.237 10.9731C141.88 10.9731 142.433 11.117 142.894 11.4048C143.359 11.6925 143.717 12.0967 143.967 12.6172C144.216 13.1335 144.341 13.7386 144.341 14.4326V14.915H138.768V13.9312H143.656L142.995 14.8452V14.293C142.995 13.8021 142.919 13.3958 142.767 13.0742C142.619 12.7484 142.414 12.505 142.151 12.3442C141.889 12.1834 141.586 12.103 141.243 12.103C140.901 12.103 140.594 12.1877 140.323 12.3569C140.056 12.522 139.845 12.7674 139.688 13.0933C139.536 13.4191 139.46 13.819 139.46 14.293V14.8452C139.46 15.298 139.536 15.6852 139.688 16.0068C139.841 16.3285 140.056 16.5739 140.336 16.7432C140.619 16.9124 140.954 16.9971 141.339 16.9971C141.635 16.9971 141.889 16.9569 142.1 16.8765C142.316 16.7918 142.492 16.6882 142.627 16.5654C142.767 16.4427 142.862 16.3221 142.913 16.2036L142.938 16.1528H144.271L144.259 16.21C144.199 16.4385 144.096 16.667 143.948 16.8955C143.799 17.1198 143.603 17.325 143.357 17.5112C143.116 17.6974 142.824 17.8477 142.481 17.9619C142.143 18.0762 141.751 18.1333 141.307 18.1333ZM145.589 18V11.1064H146.966V12.1475H147.074C147.243 11.7793 147.493 11.4915 147.823 11.2842C148.153 11.0768 148.57 10.9731 149.074 10.9731C149.848 10.9731 150.441 11.1953 150.851 11.6396C151.261 12.084 151.467 12.7166 151.467 13.5376V18H150.083V13.8613C150.083 13.2858 149.962 12.8584 149.721 12.5791C149.484 12.2956 149.112 12.1538 148.604 12.1538C148.27 12.1538 147.98 12.2279 147.734 12.376C147.489 12.5199 147.298 12.7272 147.163 12.998C147.032 13.2646 146.966 13.5841 146.966 13.9565V18H145.589Z" fill="#007AFF"/>
<mask id="mask0_880_105" style="mask-type:luminance" maskUnits="userSpaceOnUse" x="0" y="0" width="27" height="27">
<path d="M27 0H0V27H27V0Z" fill="white"/>
</mask>
<g mask="url(#mask0_880_105)">
<path d="M20.25 1.13625L9 1.125C7.7625 1.125 6.75 2.1375 6.75 3.375V6.75H9V5.625H20.25V21.375H9V20.25H6.75V23.625C6.75 24.8625 7.7625 25.875 9 25.875H20.25C21.4875 25.875 22.5 24.8625 22.5 23.625V3.375C22.5 2.1375 21.4875 1.13625 20.25 1.13625ZM11.25 16.875H13.5V9H5.625V11.25H9.66375L3.375 17.5388L4.96125 19.125L11.25 12.8362V16.875Z" fill="#007AFF"/>
</g>
</svg>
