<svg width="102" height="28" viewBox="0 0 102 28" fill="none" xmlns="http://www.w3.org/2000/svg">
<path d="M32.6484 18.5V9.34033H34.0703V18.5H32.6484ZM35.8195 18.5V11.6064H37.1969V12.6475H37.3048C37.4741 12.2793 37.7238 11.9915 38.0538 11.7842C38.3839 11.5768 38.8007 11.4731 39.3043 11.4731C40.0787 11.4731 40.6712 11.6953 41.0817 12.1396C41.4921 12.584 41.6974 13.2166 41.6974 14.0376V18.5H40.3136V14.3613C40.3136 13.7858 40.193 13.3584 39.9518 13.0791C39.7148 12.7956 39.3424 12.6538 38.8346 12.6538C38.5003 12.6538 38.2104 12.7279 37.965 12.876C37.7195 13.0199 37.5291 13.2272 37.3937 13.498C37.2625 13.7646 37.1969 14.0841 37.1969 14.4565V18.5H35.8195ZM45.7317 18.6333C45.1773 18.6333 44.6949 18.5529 44.2844 18.3921C43.874 18.2271 43.5481 18.0007 43.3069 17.7129C43.0657 17.4209 42.9239 17.0824 42.8816 16.6973V16.6846H44.2654V16.6973C44.3543 16.9554 44.5235 17.1649 44.7732 17.3257C45.0229 17.4865 45.353 17.5669 45.7634 17.5669C46.047 17.5669 46.2945 17.5267 46.5061 17.4463C46.7219 17.3659 46.8912 17.2537 47.0139 17.1099C47.1367 16.966 47.198 16.8009 47.198 16.6147V16.6021C47.198 16.3862 47.1113 16.2043 46.9378 16.0562C46.7643 15.908 46.4786 15.7874 46.0808 15.6943L44.9763 15.4404C44.5447 15.3431 44.1871 15.2098 43.9036 15.0405C43.6201 14.8713 43.4106 14.6639 43.2752 14.4185C43.1397 14.1688 43.072 13.8768 43.072 13.5425V13.5361C43.072 13.1341 43.1863 12.7786 43.4148 12.4697C43.6433 12.1566 43.9586 11.9132 44.3606 11.7397C44.7669 11.562 45.2302 11.4731 45.7508 11.4731C46.2755 11.4731 46.7325 11.5557 47.1218 11.7207C47.5154 11.8815 47.8264 12.1058 48.0549 12.3936C48.2835 12.6771 48.4189 13.0072 48.4612 13.3838V13.3901H47.1409V13.3774C47.0774 13.1362 46.9251 12.9352 46.6839 12.7744C46.4469 12.6136 46.1337 12.5332 45.7444 12.5332C45.4947 12.5332 45.2726 12.5734 45.0779 12.6538C44.8832 12.73 44.7288 12.8379 44.6145 12.9775C44.5045 13.113 44.4495 13.2738 44.4495 13.46V13.4727C44.4495 13.6165 44.4855 13.7435 44.5574 13.8535C44.6336 13.9593 44.7521 14.0545 44.9129 14.1392C45.0737 14.2196 45.281 14.2915 45.5349 14.355L46.6331 14.6025C47.2932 14.7591 47.7841 14.9855 48.1057 15.2817C48.4316 15.578 48.5945 15.9757 48.5945 16.4751V16.4878C48.5945 16.911 48.4697 17.2855 48.22 17.6113C47.9703 17.9329 47.6297 18.1847 47.198 18.3667C46.7706 18.5444 46.2818 18.6333 45.7317 18.6333ZM52.394 18.5444C51.6407 18.5444 51.0948 18.4006 50.7563 18.1128C50.4219 17.8208 50.2548 17.3447 50.2548 16.6846V12.6919H49.1757V11.6064H50.2548V9.86719H51.664V11.6064H53.143V12.6919H51.664V16.3481C51.664 16.7205 51.738 16.9893 51.8861 17.1543C52.0343 17.3151 52.2797 17.3955 52.6225 17.3955C52.724 17.3955 52.8108 17.3934 52.8827 17.3892C52.9589 17.3849 53.0456 17.3786 53.143 17.3701V18.4746C53.033 18.4915 52.9145 18.5063 52.7875 18.519C52.6606 18.536 52.5294 18.5444 52.394 18.5444ZM56.2569 18.6143C55.821 18.6143 55.4296 18.5317 55.0826 18.3667C54.7398 18.1974 54.469 17.9583 54.2701 17.6494C54.0712 17.3405 53.9717 16.9787 53.9717 16.564V16.5513C53.9717 16.1366 54.0712 15.7832 54.2701 15.4912C54.4732 15.1992 54.7652 14.9707 55.146 14.8057C55.5311 14.6364 55.9966 14.5348 56.5425 14.501L59.0879 14.3486V15.3198L56.733 15.4722C56.259 15.5018 55.9099 15.6034 55.6856 15.7769C55.4613 15.9461 55.3492 16.1852 55.3492 16.4941V16.5068C55.3492 16.82 55.4698 17.0675 55.711 17.2495C55.9522 17.4272 56.2569 17.5161 56.625 17.5161C56.9678 17.5161 57.2725 17.4484 57.5391 17.313C57.8099 17.1733 58.0215 16.9871 58.1739 16.7544C58.3262 16.5174 58.4024 16.2508 58.4024 15.9546V13.7837C58.4024 13.4028 58.2839 13.113 58.0469 12.9141C57.8142 12.7109 57.4672 12.6094 57.0059 12.6094C56.6208 12.6094 56.3055 12.6771 56.0601 12.8125C55.8189 12.9479 55.6581 13.1383 55.5777 13.3838L55.565 13.4028H54.2383L54.2447 13.3584C54.2997 12.9775 54.4499 12.6475 54.6954 12.3682C54.945 12.0846 55.2709 11.8646 55.6729 11.708C56.0791 11.5514 56.5425 11.4731 57.063 11.4731C57.6428 11.4731 58.1337 11.5662 58.5357 11.7524C58.9419 11.9344 59.2487 12.1989 59.4561 12.5459C59.6677 12.8887 59.7735 13.3013 59.7735 13.7837V18.5H58.4024V17.5225H58.3008C58.1654 17.7552 57.9961 17.9541 57.793 18.1191C57.5899 18.2799 57.3593 18.4027 57.1011 18.4873C56.843 18.5719 56.5616 18.6143 56.2569 18.6143ZM61.3893 18.5V8.90234H62.7668V18.5H61.3893ZM64.4906 18.5V8.90234H65.868V18.5H64.4906ZM70.1344 18.5L73.4415 9.34033H74.5904V10.9463H74.1588L71.6324 18.5H70.1344ZM71.7276 16.0244L72.1275 14.8818H76.298L76.6979 16.0244H71.7276ZM76.7867 18.5L74.2667 10.9463V9.34033H74.984L78.2848 18.5H76.7867ZM79.3293 20.7979V11.6064H80.7068V12.6919H80.8147C80.9459 12.438 81.1152 12.2222 81.3225 12.0444C81.5341 11.8667 81.7753 11.7292 82.0461 11.6318C82.317 11.5345 82.6132 11.4858 82.9348 11.4858C83.5146 11.4858 84.0181 11.634 84.4456 11.9302C84.873 12.2222 85.203 12.6348 85.4358 13.168C85.6728 13.6969 85.7913 14.3232 85.7913 15.0469V15.0596C85.7913 15.7874 85.6749 16.418 85.4421 16.9512C85.2094 17.4801 84.8793 17.8906 84.4519 18.1826C84.0245 18.4704 83.5188 18.6143 82.9348 18.6143C82.6174 18.6143 82.3212 18.5656 82.0461 18.4683C81.7711 18.3667 81.5278 18.2271 81.3162 18.0493C81.1046 17.8716 80.9374 17.6579 80.8147 17.4082H80.7068V20.7979H79.3293ZM82.5413 17.4336C82.9264 17.4336 83.2564 17.3384 83.5315 17.1479C83.8066 16.9575 84.016 16.6846 84.1599 16.3291C84.308 15.9736 84.3821 15.5505 84.3821 15.0596V15.0469C84.3821 14.5518 84.308 14.1265 84.1599 13.771C84.016 13.4155 83.8066 13.1426 83.5315 12.9521C83.2564 12.7617 82.9264 12.6665 82.5413 12.6665C82.1604 12.6665 81.8303 12.7638 81.551 12.9585C81.2717 13.1489 81.058 13.4219 80.9099 13.7773C80.7618 14.1286 80.6877 14.5518 80.6877 15.0469V15.0596C80.6877 15.5462 80.7618 15.9673 80.9099 16.3228C81.058 16.6782 81.2717 16.9533 81.551 17.1479C81.8303 17.3384 82.1604 17.4336 82.5413 17.4336ZM87.0516 20.7979V11.6064H88.4291V12.6919H88.537C88.6682 12.438 88.8375 12.2222 89.0448 12.0444C89.2564 11.8667 89.4976 11.7292 89.7684 11.6318C90.0393 11.5345 90.3355 11.4858 90.6571 11.4858C91.2369 11.4858 91.7404 11.634 92.1679 11.9302C92.5953 12.2222 92.9253 12.6348 93.1581 13.168C93.3951 13.6969 93.5136 14.3232 93.5136 15.0469V15.0596C93.5136 15.7874 93.3972 16.418 93.1644 16.9512C92.9317 17.4801 92.6016 17.8906 92.1742 18.1826C91.7468 18.4704 91.2411 18.6143 90.6571 18.6143C90.3397 18.6143 90.0435 18.5656 89.7684 18.4683C89.4934 18.3667 89.2501 18.2271 89.0385 18.0493C88.8269 17.8716 88.6597 17.6579 88.537 17.4082H88.4291V20.7979H87.0516ZM90.2636 17.4336C90.6487 17.4336 90.9787 17.3384 91.2538 17.1479C91.5289 16.9575 91.7383 16.6846 91.8822 16.3291C92.0303 15.9736 92.1044 15.5505 92.1044 15.0596V15.0469C92.1044 14.5518 92.0303 14.1265 91.8822 13.771C91.7383 13.4155 91.5289 13.1426 91.2538 12.9521C90.9787 12.7617 90.6487 12.6665 90.2636 12.6665C89.8827 12.6665 89.5526 12.7638 89.2733 12.9585C88.994 13.1489 88.7803 13.4219 88.6322 13.7773C88.4841 14.1286 88.41 14.5518 88.41 15.0469V15.0596C88.41 15.5462 88.4841 15.9673 88.6322 16.3228C88.7803 16.6782 88.994 16.9533 89.2733 17.1479C89.5526 17.3384 89.8827 17.4336 90.2636 17.4336Z" fill="black"/>
<path d="M9.8125 26.375C9.3625 26.375 8.96875 26.2062 8.63125 25.8687C8.29375 25.5312 8.125 25.1375 8.125 24.6875V3.3125C8.125 2.8625 8.29375 2.46875 8.63125 2.13125C8.96875 1.79375 9.3625 1.625 9.8125 1.625H18.8125V5.84375H9.8125V22.1562H22.1875V18.5H23.875V24.6875C23.875 25.1375 23.7062 25.5312 23.3687 25.8687C23.0312 26.2062 22.6375 26.375 22.1875 26.375H9.8125ZM23.1437 15.8562L17.9125 10.625L19.0937 9.44375L22.3 12.6219V4.15625H23.9875V12.6219L27.1937 9.44375L28.375 10.625L23.1437 15.8562Z" fill="black"/>
</svg>
