<svg width="75" height="76" viewBox="0 0 75 76" fill="none" xmlns="http://www.w3.org/2000/svg">
<g clip-path="url(#clip0_837_351)">
<path d="M37.5 75.5C58.2107 75.5 75 58.7107 75 38C75 17.2893 58.2107 0.5 37.5 0.5C16.7893 0.5 0 17.2893 0 38C0 58.7107 16.7893 75.5 37.5 75.5Z" fill="black"/>
<path d="M45.7305 45.6543V49.4995H28.709V46.2183L36.7583 37.5879C37.5672 36.6878 38.2052 35.896 38.6724 35.2124C39.1395 34.5174 39.4756 33.8965 39.6807 33.3496C39.8971 32.7913 40.0054 32.2615 40.0054 31.7602C40.0054 31.0083 39.88 30.3646 39.6294 29.8291C39.3787 29.2822 39.0085 28.8607 38.5186 28.5644C38.04 28.2682 37.4476 28.1201 36.7412 28.1201C35.9893 28.1201 35.3398 28.3024 34.793 28.667C34.2575 29.0316 33.8473 29.5386 33.5625 30.188C33.2891 30.8374 33.1523 31.5723 33.1523 32.3926H28.2134C28.2134 30.9114 28.5666 29.5557 29.2729 28.3252C29.9793 27.0833 30.9762 26.0978 32.2637 25.3686C33.5511 24.6281 35.0778 24.2578 36.8438 24.2578C38.5869 24.2578 40.0566 24.5426 41.2529 25.1123C42.4606 25.6706 43.3721 26.4795 43.9873 27.5391C44.6139 28.5872 44.9272 29.8405 44.9272 31.2988C44.9272 32.1191 44.7962 32.9224 44.5342 33.7085C44.2721 34.4832 43.8962 35.258 43.4062 36.0327C42.9277 36.796 42.3467 37.5708 41.6631 38.3569C40.9795 39.1431 40.2218 39.9577 39.3901 40.8008L35.0664 45.6543H45.7305Z" fill="white"/>
</g>
<defs>
<clipPath id="clip0_837_351">
<rect width="75" height="75" fill="white" transform="translate(0 0.5)"/>
</clipPath>
</defs>
</svg>
