<svg width="76" height="77" viewBox="0 0 76 77" fill="none" xmlns="http://www.w3.org/2000/svg">
<mask id="mask0_872_348" style="mask-type:luminance" maskUnits="userSpaceOnUse" x="0" y="0" width="76" height="77">
<path d="M75.5 0.5H0.5V76.5H75.5V0.5Z" fill="white"/>
</mask>
<g mask="url(#mask0_872_348)">
<mask id="mask1_872_348" style="mask-type:luminance" maskUnits="userSpaceOnUse" x="0" y="1" width="76" height="75">
<path d="M75.5 1H0.5V76H75.5V1Z" fill="white"/>
</mask>
<g mask="url(#mask1_872_348)">
<path d="M38 76C58.7107 76 75.5 59.2107 75.5 38.5C75.5 17.7893 58.7107 1 38 1C17.2893 1 0.5 17.7893 0.5 38.5C0.5 59.2107 17.2893 76 38 76Z" fill="black"/>
<path d="M46.2319 46.1543V49.9995H29.2104V46.7183L37.2597 38.0879C38.0686 37.1878 38.7066 36.396 39.1738 35.7124C39.6409 35.0174 39.977 34.3965 40.1821 33.8496C40.3985 33.2913 40.5068 32.7615 40.5068 32.2602C40.5068 31.5083 40.3814 30.8646 40.1308 30.3291C39.8801 29.7822 39.5099 29.3607 39.02 29.0644C38.5414 28.7682 37.949 28.6201 37.2426 28.6201C36.4907 28.6201 35.8412 28.8024 35.2944 29.167C34.7589 29.5316 34.3487 30.0386 34.0639 30.688C33.7905 31.3374 33.6537 32.0723 33.6537 32.8926H28.7148C28.7148 31.4114 29.068 30.0557 29.7743 28.8252C30.4807 27.5833 31.4776 26.5978 32.7651 25.8686C34.0525 25.1281 35.5792 24.7578 37.3452 24.7578C39.0883 24.7578 40.558 25.0426 41.7543 25.6123C42.962 26.1706 43.8735 26.9795 44.4887 28.0391C45.1153 29.0872 45.4286 30.3405 45.4286 31.7988C45.4286 32.6191 45.2976 33.4224 45.0356 34.2085C44.7735 34.9832 44.3976 35.758 43.9076 36.5327C43.4291 37.296 42.8481 38.0708 42.1645 38.8569C41.4809 39.6431 40.7232 40.4577 39.8915 41.3008L35.5678 46.1543H46.2319Z" fill="white"/>
</g>
</g>
</svg>
