<svg width="76" height="77" viewBox="0 0 76 77" fill="none" xmlns="http://www.w3.org/2000/svg">
<g clip-path="url(#clip0_839_667)">
<mask id="mask0_839_667" style="mask-type:luminance" maskUnits="userSpaceOnUse" x="0" y="1" width="76" height="75">
<path d="M75.5 1H0.5V76H75.5V1Z" fill="white"/>
</mask>
<g mask="url(#mask0_839_667)">
<path d="M38 76C58.7107 76 75.5 59.2107 75.5 38.5C75.5 17.7893 58.7107 1 38 1C17.2893 1 0.5 17.7893 0.5 38.5C0.5 59.2107 17.2893 76 38 76Z" fill="black"/>
<path d="M46.2305 46.1543V49.9995H29.209V46.7183L37.2583 38.0879C38.0672 37.1878 38.7052 36.396 39.1724 35.7124C39.6395 35.0174 39.9756 34.3965 40.1807 33.8496C40.3971 33.2913 40.5054 32.7615 40.5054 32.2602C40.5054 31.5083 40.38 30.8646 40.1294 30.3291C39.8787 29.7822 39.5085 29.3607 39.0186 29.0644C38.54 28.7682 37.9476 28.6201 37.2412 28.6201C36.4893 28.6201 35.8398 28.8024 35.293 29.167C34.7575 29.5316 34.3473 30.0386 34.0625 30.688C33.7891 31.3374 33.6523 32.0723 33.6523 32.8926H28.7134C28.7134 31.4114 29.0666 30.0557 29.7729 28.8252C30.4793 27.5833 31.4762 26.5978 32.7637 25.8686C34.0511 25.1281 35.5778 24.7578 37.3438 24.7578C39.0869 24.7578 40.5566 25.0426 41.7529 25.6123C42.9606 26.1706 43.8721 26.9795 44.4873 28.0391C45.1139 29.0872 45.4272 30.3405 45.4272 31.7988C45.4272 32.6191 45.2962 33.4224 45.0342 34.2085C44.7721 34.9832 44.3962 35.758 43.9062 36.5327C43.4277 37.296 42.8467 38.0708 42.1631 38.8569C41.4795 39.6431 40.7218 40.4577 39.8901 41.3008L35.5664 46.1543H46.2305Z" fill="white"/>
</g>
</g>
<defs>
<clipPath id="clip0_839_667">
<rect width="75" height="76" fill="white" transform="translate(0.5 0.5)"/>
</clipPath>
</defs>
</svg>
