<svg width="76" height="77" viewBox="0 0 76 77" fill="none" xmlns="http://www.w3.org/2000/svg">
<g clip-path="url(#clip0_839_674)">
<mask id="mask0_839_674" style="mask-type:luminance" maskUnits="userSpaceOnUse" x="0" y="1" width="76" height="75">
<path d="M75.5 1H0.5V76H75.5V1Z" fill="white"/>
</mask>
<g mask="url(#mask0_839_674)">
<path d="M38 76C58.7107 76 75.5 59.2107 75.5 38.5C75.5 17.7893 58.7107 1 38 1C17.2893 1 0.5 17.7893 0.5 38.5C0.5 59.2107 17.2893 76 38 76Z" fill="black"/>
<path d="M34.2505 35.4219H36.8823C37.7254 35.4219 38.4204 35.2794 38.9673 34.9946C39.5142 34.6984 39.9186 34.2882 40.1807 33.7641C40.4541 33.2287 40.5908 32.6077 40.5908 31.9014C40.5908 31.2633 40.4655 30.6994 40.2148 30.2095C39.9756 29.7082 39.6053 29.3208 39.104 29.0474C38.6027 28.7625 37.9704 28.6201 37.207 28.6201C36.6032 28.6201 36.0449 28.7397 35.5322 28.979C35.0195 29.2183 34.6094 29.5544 34.3018 29.9873C33.9941 30.4202 33.8403 30.9443 33.8403 31.5596H28.9014C28.9014 30.1924 29.266 29.0018 29.9951 27.9878C30.7357 26.9738 31.7269 26.182 32.9688 25.6123C34.2106 25.0426 35.5778 24.7578 37.0703 24.7578C38.7565 24.7578 40.2319 25.0312 41.4966 25.5781C42.7612 26.1136 43.7467 26.9054 44.4531 27.9536C45.1595 29.0018 45.5127 30.3006 45.5127 31.8501C45.5127 32.6362 45.3304 33.3996 44.9658 34.1401C44.6012 34.8693 44.0771 35.5301 43.3936 36.1225C42.7214 36.7036 41.901 37.1707 40.9326 37.5239C39.9642 37.8657 38.8761 38.0366 37.6685 38.0366H34.2505V35.4219ZM34.2505 39.1645V36.6182H37.6685C39.0243 36.6182 40.2148 36.772 41.2402 37.0796C42.2656 37.3872 43.1258 37.8315 43.8208 38.4126C44.5158 38.9822 45.0399 39.6601 45.3931 40.4463C45.7463 41.221 45.9229 42.0812 45.9229 43.0268C45.9229 44.189 45.7007 45.2257 45.2563 46.1372C44.812 47.0373 44.1854 47.8006 43.3765 48.4272C42.5789 49.0539 41.6447 49.5324 40.5737 49.8628C39.5028 50.1818 38.335 50.3413 37.0703 50.3413C36.0221 50.3413 34.991 50.1989 33.9771 49.9141C32.9744 49.6178 32.063 49.1792 31.2427 48.5981C30.4338 48.0057 29.7843 47.2651 29.2944 46.3765C28.8159 45.4764 28.5767 44.4111 28.5767 43.1807H33.5156C33.5156 43.8187 33.6751 44.3883 33.9941 44.8896C34.3132 45.3909 34.7518 45.784 35.3101 46.0688C35.8797 46.3537 36.512 46.4961 37.207 46.4961C37.9932 46.4961 38.6654 46.3537 39.2236 46.0688C39.7933 45.7726 40.2262 45.3625 40.5225 44.8384C40.8301 44.3029 40.9839 43.682 40.9839 42.9756C40.9839 42.0641 40.8187 41.3349 40.4883 40.7881C40.1579 40.2298 39.6851 39.8196 39.0698 39.5576C38.4546 39.2956 37.7254 39.1645 36.8823 39.1645H34.2505Z" fill="white"/>
</g>
</g>
<defs>
<clipPath id="clip0_839_674">
<rect width="75" height="76" fill="white" transform="translate(0.5 0.5)"/>
</clipPath>
</defs>
</svg>
