<svg width="77" height="78" viewBox="0 0 77 78" fill="none" xmlns="http://www.w3.org/2000/svg">
<mask id="mask0_880_167" style="mask-type:luminance" maskUnits="userSpaceOnUse" x="1" y="1" width="75" height="76">
<path d="M76 1H1V77H76V1Z" fill="white"/>
</mask>
<g mask="url(#mask0_880_167)">
<mask id="mask1_880_167" style="mask-type:luminance" maskUnits="userSpaceOnUse" x="1" y="1" width="75" height="76">
<path d="M76 1.5H1V76.5H76V1.5Z" fill="white"/>
</mask>
<g mask="url(#mask1_880_167)">
<path d="M38.5 76.5C59.2107 76.5 76 59.7107 76 39C76 18.2893 59.2107 1.5 38.5 1.5C17.7893 1.5 1 18.2893 1 39C1 59.7107 17.7893 76.5 38.5 76.5Z" fill="black"/>
<path d="M34.7519 35.9219H37.3837C38.2268 35.9219 38.9218 35.7794 39.4687 35.4946C40.0156 35.1984 40.42 34.7882 40.6821 34.2641C40.9555 33.7287 41.0922 33.1077 41.0922 32.4014C41.0922 31.7633 40.9669 31.1994 40.7162 30.7095C40.477 30.2082 40.1067 29.8208 39.6054 29.5474C39.1041 29.2625 38.4718 29.1201 37.7084 29.1201C37.1046 29.1201 36.5463 29.2397 36.0336 29.479C35.5209 29.7183 35.1108 30.0544 34.8032 30.4873C34.4955 30.9202 34.3417 31.4443 34.3417 32.0596H29.4028C29.4028 30.6924 29.7674 29.5018 30.4965 28.4878C31.2371 27.4738 32.2283 26.682 33.4702 26.1123C34.712 25.5426 36.0792 25.2578 37.5717 25.2578C39.2579 25.2578 40.7333 25.5312 41.998 26.0781C43.2626 26.6136 44.2481 27.4054 44.9545 28.4536C45.6609 29.5018 46.0141 30.8006 46.0141 32.3501C46.0141 33.1362 45.8318 33.8996 45.4672 34.6401C45.1026 35.3693 44.5785 36.0301 43.895 36.6225C43.2228 37.2036 42.4024 37.6707 41.434 38.0239C40.4656 38.3657 39.3775 38.5366 38.1699 38.5366H34.7519V35.9219ZM34.7519 39.6645V37.1182H38.1699C39.5257 37.1182 40.7162 37.272 41.7416 37.5796C42.767 37.8872 43.6272 38.3315 44.3222 38.9126C45.0172 39.4822 45.5413 40.1601 45.8945 40.9463C46.2477 41.721 46.4243 42.5812 46.4243 43.5268C46.4243 44.689 46.2021 45.7257 45.7577 46.6372C45.3134 47.5373 44.6868 48.3006 43.8779 48.9272C43.0803 49.5539 42.1461 50.0324 41.0751 50.3628C40.0042 50.6818 38.8364 50.8413 37.5717 50.8413C36.5235 50.8413 35.4924 50.6989 34.4785 50.4141C33.4758 50.1178 32.5644 49.6792 31.7441 49.0981C30.9352 48.5057 30.2857 47.7651 29.7958 46.8765C29.3173 45.9764 29.0781 44.9111 29.0781 43.6807H34.017C34.017 44.3187 34.1765 44.8883 34.4955 45.3896C34.8146 45.8909 35.2532 46.284 35.8115 46.5688C36.3811 46.8537 37.0134 46.9961 37.7084 46.9961C38.4946 46.9961 39.1668 46.8537 39.725 46.5688C40.2947 46.2726 40.7276 45.8625 41.0239 45.3384C41.3315 44.8029 41.4853 44.182 41.4853 43.4756C41.4853 42.5641 41.3201 41.8349 40.9897 41.2881C40.6593 40.7298 40.1865 40.3196 39.5712 40.0576C38.956 39.7956 38.2268 39.6645 37.3837 39.6645H34.7519Z" fill="white"/>
</g>
</g>
</svg>
