<svg width="76" height="77" viewBox="0 0 76 77" fill="none" xmlns="http://www.w3.org/2000/svg">
<mask id="mask0_872_359" style="mask-type:luminance" maskUnits="userSpaceOnUse" x="0" y="0" width="76" height="77">
<path d="M75.5 0.5H0.5V76.5H75.5V0.5Z" fill="white"/>
</mask>
<g mask="url(#mask0_872_359)">
<mask id="mask1_872_359" style="mask-type:luminance" maskUnits="userSpaceOnUse" x="0" y="1" width="76" height="75">
<path d="M75.5 1H0.5V76H75.5V1Z" fill="white"/>
</mask>
<g mask="url(#mask1_872_359)">
<path d="M38 76C58.7107 76 75.5 59.2107 75.5 38.5C75.5 17.7893 58.7107 1 38 1C17.2893 1 0.5 17.7893 0.5 38.5C0.5 59.2107 17.2893 76 38 76Z" fill="black"/>
<path d="M34.2519 35.4219H36.8837C37.7268 35.4219 38.4218 35.2794 38.9687 34.9946C39.5156 34.6984 39.92 34.2882 40.1821 33.7641C40.4555 33.2287 40.5922 32.6077 40.5922 31.9014C40.5922 31.2633 40.4669 30.6994 40.2162 30.2095C39.977 29.7082 39.6067 29.3208 39.1054 29.0474C38.6041 28.7625 37.9718 28.6201 37.2084 28.6201C36.6046 28.6201 36.0463 28.7397 35.5336 28.979C35.0209 29.2183 34.6108 29.5544 34.3032 29.9873C33.9955 30.4202 33.8417 30.9443 33.8417 31.5596H28.9028C28.9028 30.1924 29.2674 29.0018 29.9965 27.9878C30.7371 26.9738 31.7283 26.182 32.9702 25.6123C34.212 25.0426 35.5792 24.7578 37.0717 24.7578C38.7579 24.7578 40.2333 25.0312 41.498 25.5781C42.7626 26.1136 43.7481 26.9054 44.4545 27.9536C45.1609 29.0018 45.5141 30.3006 45.5141 31.8501C45.5141 32.6362 45.3318 33.3996 44.9672 34.1401C44.6026 34.8693 44.0785 35.5301 43.395 36.1225C42.7228 36.7036 41.9024 37.1707 40.934 37.5239C39.9656 37.8657 38.8775 38.0366 37.6699 38.0366H34.2519V35.4219ZM34.2519 39.1645V36.6182H37.6699C39.0257 36.6182 40.2162 36.772 41.2416 37.0796C42.267 37.3872 43.1272 37.8315 43.8222 38.4126C44.5172 38.9822 45.0413 39.6601 45.3945 40.4463C45.7477 41.221 45.9243 42.0812 45.9243 43.0268C45.9243 44.189 45.7021 45.2257 45.2577 46.1372C44.8134 47.0373 44.1868 47.8006 43.3779 48.4272C42.5803 49.0539 41.6461 49.5324 40.5751 49.8628C39.5042 50.1818 38.3364 50.3413 37.0717 50.3413C36.0235 50.3413 34.9924 50.1989 33.9785 49.9141C32.9758 49.6178 32.0644 49.1792 31.2441 48.5981C30.4352 48.0057 29.7857 47.2651 29.2958 46.3765C28.8173 45.4764 28.5781 44.4111 28.5781 43.1807H33.517C33.517 43.8187 33.6765 44.3883 33.9955 44.8896C34.3146 45.3909 34.7532 45.784 35.3115 46.0688C35.8811 46.3537 36.5134 46.4961 37.2084 46.4961C37.9946 46.4961 38.6668 46.3537 39.225 46.0688C39.7947 45.7726 40.2276 45.3625 40.5239 44.8384C40.8315 44.3029 40.9853 43.682 40.9853 42.9756C40.9853 42.0641 40.8201 41.3349 40.4897 40.7881C40.1593 40.2298 39.6865 39.8196 39.0712 39.5576C38.456 39.2956 37.7268 39.1645 36.8837 39.1645H34.2519Z" fill="white"/>
</g>
</g>
</svg>
