<svg width="77" height="78" viewBox="0 0 77 78" fill="none" xmlns="http://www.w3.org/2000/svg">
<mask id="mask0_880_156" style="mask-type:luminance" maskUnits="userSpaceOnUse" x="1" y="1" width="75" height="76">
<path d="M76 1H1V77H76V1Z" fill="white"/>
</mask>
<g mask="url(#mask0_880_156)">
<mask id="mask1_880_156" style="mask-type:luminance" maskUnits="userSpaceOnUse" x="1" y="1" width="75" height="76">
<path d="M76 1.5H1V76.5H76V1.5Z" fill="white"/>
</mask>
<g mask="url(#mask1_880_156)">
<path d="M38.5 76.5C59.2107 76.5 76 59.7107 76 39C76 18.2893 59.2107 1.5 38.5 1.5C17.7893 1.5 1 18.2893 1 39C1 59.7107 17.7893 76.5 38.5 76.5Z" fill="black"/>
<path d="M46.7319 46.6543V50.4995H29.7104V47.2183L37.7597 38.5879C38.5686 37.6878 39.2066 36.896 39.6738 36.2124C40.1409 35.5174 40.477 34.8965 40.6821 34.3496C40.8985 33.7913 41.0068 33.2615 41.0068 32.7602C41.0068 32.0083 40.8814 31.3646 40.6308 30.8291C40.3801 30.2822 40.0099 29.8607 39.52 29.5644C39.0414 29.2682 38.449 29.1201 37.7426 29.1201C36.9907 29.1201 36.3412 29.3024 35.7944 29.667C35.2589 30.0316 34.8487 30.5386 34.5639 31.188C34.2905 31.8374 34.1537 32.5723 34.1537 33.3926H29.2148C29.2148 31.9114 29.568 30.5557 30.2743 29.3252C30.9807 28.0833 31.9776 27.0978 33.2651 26.3686C34.5525 25.6281 36.0792 25.2578 37.8452 25.2578C39.5883 25.2578 41.058 25.5426 42.2543 26.1123C43.462 26.6706 44.3735 27.4795 44.9887 28.5391C45.6153 29.5872 45.9286 30.8405 45.9286 32.2988C45.9286 33.1191 45.7976 33.9224 45.5356 34.7085C45.2735 35.4832 44.8976 36.258 44.4076 37.0327C43.9291 37.796 43.3481 38.5708 42.6645 39.3569C41.9809 40.1431 41.2232 40.9577 40.3915 41.8008L36.0678 46.6543H46.7319Z" fill="white"/>
</g>
</g>
</svg>
