<svg width="75" height="76" viewBox="0 0 75 76" fill="none" xmlns="http://www.w3.org/2000/svg">
<g clip-path="url(#clip0_837_354)">
<path d="M37.5 75.5C58.2107 75.5 75 58.7107 75 38C75 17.2893 58.2107 0.5 37.5 0.5C16.7893 0.5 0 17.2893 0 38C0 58.7107 16.7893 75.5 37.5 75.5Z" fill="black"/>
<path d="M33.7505 34.9219H36.3823C37.2254 34.9219 37.9204 34.7794 38.4673 34.4946C39.0142 34.1984 39.4186 33.7882 39.6807 33.2641C39.9541 32.7287 40.0908 32.1077 40.0908 31.4014C40.0908 30.7633 39.9655 30.1994 39.7148 29.7095C39.4756 29.2082 39.1053 28.8208 38.604 28.5474C38.1027 28.2625 37.4704 28.1201 36.707 28.1201C36.1032 28.1201 35.5449 28.2397 35.0322 28.479C34.5195 28.7183 34.1094 29.0544 33.8018 29.4873C33.4941 29.9202 33.3403 30.4443 33.3403 31.0596H28.4014C28.4014 29.6924 28.766 28.5018 29.4951 27.4878C30.2357 26.4738 31.2269 25.682 32.4688 25.1123C33.7106 24.5426 35.0778 24.2578 36.5703 24.2578C38.2565 24.2578 39.7319 24.5312 40.9966 25.0781C42.2612 25.6136 43.2467 26.4054 43.9531 27.4536C44.6595 28.5018 45.0127 29.8006 45.0127 31.3501C45.0127 32.1362 44.8304 32.8996 44.4658 33.6401C44.1012 34.3693 43.5771 35.0301 42.8936 35.6225C42.2214 36.2036 41.401 36.6707 40.4326 37.0239C39.4642 37.3657 38.3761 37.5366 37.1685 37.5366H33.7505V34.9219ZM33.7505 38.6645V36.1182H37.1685C38.5243 36.1182 39.7148 36.272 40.7402 36.5796C41.7656 36.8872 42.6258 37.3315 43.3208 37.9126C44.0158 38.4822 44.5399 39.1601 44.8931 39.9463C45.2463 40.721 45.4229 41.5812 45.4229 42.5268C45.4229 43.689 45.2007 44.7257 44.7563 45.6372C44.312 46.5373 43.6854 47.3006 42.8765 47.9272C42.0789 48.5539 41.1447 49.0324 40.0737 49.3628C39.0028 49.6818 37.835 49.8413 36.5703 49.8413C35.5221 49.8413 34.491 49.6989 33.4771 49.4141C32.4744 49.1178 31.563 48.6792 30.7427 48.0981C29.9338 47.5057 29.2843 46.7651 28.7944 45.8765C28.3159 44.9764 28.0767 43.9111 28.0767 42.6807H33.0156C33.0156 43.3187 33.1751 43.8883 33.4941 44.3896C33.8132 44.8909 34.2518 45.284 34.8101 45.5688C35.3797 45.8537 36.012 45.9961 36.707 45.9961C37.4932 45.9961 38.1654 45.8537 38.7236 45.5688C39.2933 45.2726 39.7262 44.8625 40.0225 44.3384C40.3301 43.8029 40.4839 43.182 40.4839 42.4756C40.4839 41.5641 40.3187 40.8349 39.9883 40.2881C39.6579 39.7298 39.1851 39.3196 38.5698 39.0576C37.9546 38.7956 37.2254 38.6645 36.3823 38.6645H33.7505Z" fill="white"/>
</g>
<defs>
<clipPath id="clip0_837_354">
<rect width="75" height="75" fill="white" transform="translate(0 0.5)"/>
</clipPath>
</defs>
</svg>
