<svg width="18" height="23" viewBox="0 0 18 23" fill="none" xmlns="http://www.w3.org/2000/svg">
<g clip-path="url(#clip0_872_388)">
<mask id="mask0_872_388" style="mask-type:luminance" maskUnits="userSpaceOnUse" x="0" y="0" width="18" height="23">
<path d="M17.5 0.5H0.5V22.5H17.5V0.5Z" fill="white"/>
</mask>
<g mask="url(#mask0_872_388)">
<mask id="mask1_872_388" style="mask-type:luminance" maskUnits="userSpaceOnUse" x="0" y="0" width="18" height="23">
<path d="M17.5 0.5H0.5V22.5H17.5V0.5Z" fill="white"/>
</mask>
<g mask="url(#mask1_872_388)">
<mask id="mask2_872_388" style="mask-type:luminance" maskUnits="userSpaceOnUse" x="0" y="0" width="18" height="23">
<path d="M17.5 0.5H0.5V22.5H17.5V0.5Z" fill="white"/>
</mask>
<g mask="url(#mask2_872_388)">
<path d="M3.362 22.208H14.594C15.566 22.208 16.268 21.992 16.754 21.506C17.24 21.02 17.456 20.318 17.456 19.4V9.356C17.456 8.438 17.24 7.736 16.754 7.25C16.268 6.764 15.566 6.548 14.594 6.548H11.84V7.736H14.594C15.134 7.736 15.566 7.898 15.836 8.168C16.106 8.438 16.268 8.87 16.268 9.464V19.292C16.268 19.832 16.106 20.264 15.836 20.588C15.566 20.912 15.134 21.02 14.594 21.02H3.416C2.876 21.02 2.444 20.858 2.174 20.588C1.904 20.318 1.742 19.886 1.742 19.292V9.41C1.742 8.87 1.904 8.438 2.174 8.114C2.444 7.79 2.876 7.682 3.416 7.682H6.17V6.494H3.362C2.39 6.494 1.688 6.71 1.202 7.196C0.716 7.682 0.5 8.438 0.5 9.356V19.346C0.5 20.264 0.716 21.02 1.202 21.452C1.688 21.884 2.444 22.208 3.362 22.208ZM8.978 14.702C9.14 14.702 9.302 14.648 9.41 14.54C9.518 14.432 9.572 14.27 9.572 14.108V3.578L9.518 2.174L10.382 3.092L12.056 4.82C12.164 4.928 12.326 4.982 12.488 4.982C12.65 4.982 12.758 4.928 12.866 4.82C12.974 4.712 13.028 4.604 13.028 4.442C13.028 4.28 12.974 4.172 12.866 4.064L9.41 0.716C9.356 0.662 9.248 0.608 9.194 0.554C9.14 0.5 9.086 0.5 8.978 0.5C8.924 0.5 8.816 0.5 8.762 0.554C8.708 0.608 8.6 0.662 8.546 0.716L5.144 4.064C4.982 4.172 4.928 4.28 4.928 4.442C4.928 4.604 4.982 4.712 5.09 4.82C5.198 4.928 5.306 4.982 5.468 4.982C5.63 4.982 5.792 4.928 5.9 4.82L7.574 3.092L8.438 2.174L8.384 3.578V14.108C8.384 14.27 8.438 14.378 8.546 14.54C8.654 14.702 8.816 14.702 8.978 14.702Z" fill="#007AFF"/>
</g>
</g>
</g>
</g>
<defs>
<clipPath id="clip0_872_388">
<rect width="18" height="23" fill="white"/>
</clipPath>
</defs>
</svg>
