<svg width="83" height="117" viewBox="0 0 83 117" fill="none" xmlns="http://www.w3.org/2000/svg">
<mask id="mask0_872_370" style="mask-type:luminance" maskUnits="userSpaceOnUse" x="0" y="0" width="83" height="117">
<path d="M82.5 0.5H0.5V116.5H82.5V0.5Z" fill="white"/>
</mask>
<g mask="url(#mask0_872_370)">
<path d="M45.9065 3.12897C43.7685 0.971153 40.2862 0.955031 38.1284 3.09296L2.9649 37.9323C0.807091 40.0703 0.79097 43.5526 2.92889 45.7104C5.0668 47.8682 8.54917 47.8844 10.707 45.7464L41.9634 14.7781L72.9317 46.0345C75.0696 48.1923 78.552 48.2084 80.7098 46.0705C82.8676 43.9326 82.8837 40.4502 80.7458 38.2924L45.9065 3.12897ZM46.9993 115.026L47.4993 7.02547L36.4995 6.97454L35.9995 114.976L46.9993 115.026Z" fill="#869900"/>
</g>
</svg>
