<svg width="25" height="20" viewBox="0 0 25 20" fill="none" xmlns="http://www.w3.org/2000/svg">
<g clip-path="url(#clip0_839_683)">
<mask id="mask0_839_683" style="mask-type:luminance" maskUnits="userSpaceOnUse" x="0" y="1" width="25" height="18">
<path d="M24.5 1H0.5V19H24.5V1Z" fill="white"/>
</mask>
<g mask="url(#mask0_839_683)">
<path d="M21.83 1.5H2.5C1.67157 1.5 1 2.17157 1 3V16.4975C1 17.3259 1.67157 17.9975 2.5 17.9975H21.83C22.6584 17.9975 23.33 17.3259 23.33 16.4975V3C23.33 2.17157 22.6584 1.5 21.83 1.5Z" stroke="black"/>
<path d="M1.6665 5.16602H22.6635" stroke="black"/>
<path d="M19.3305 12.665H4.99951C4.44723 12.665 3.99951 13.1128 3.99951 13.665V15.1645C3.99951 15.7168 4.44723 16.1645 4.99951 16.1645H19.3305C19.8828 16.1645 20.3305 15.7168 20.3305 15.1645V13.665C20.3305 13.1128 19.8828 12.665 19.3305 12.665Z" fill="black"/>
</g>
</g>
<defs>
<clipPath id="clip0_839_683">
<rect width="24" height="19" fill="white" transform="translate(0.5 0.5)"/>
</clipPath>
</defs>
</svg>
