<svg width="24" height="19" viewBox="0 0 24 19" fill="none" xmlns="http://www.w3.org/2000/svg">
<g clip-path="url(#clip0_837_359)">
<path d="M21.33 1H2C1.17157 1 0.5 1.67157 0.5 2.5V15.9975C0.5 16.8259 1.17157 17.4975 2 17.4975H21.33C22.1584 17.4975 22.83 16.8259 22.83 15.9975V2.5C22.83 1.67157 22.1584 1 21.33 1Z" stroke="black"/>
<path d="M1.16626 4.66602H22.1633" stroke="black"/>
<path d="M18.8305 12.165H4.49951C3.94723 12.165 3.49951 12.6128 3.49951 13.165V14.6645C3.49951 15.2168 3.94723 15.6645 4.49951 15.6645H18.8305C19.3828 15.6645 19.8305 15.2168 19.8305 14.6645V13.165C19.8305 12.6128 19.3828 12.165 18.8305 12.165Z" fill="black"/>
</g>
<defs>
<clipPath id="clip0_837_359">
<rect width="24" height="18" fill="white" transform="translate(0 0.5)"/>
</clipPath>
</defs>
</svg>
