<svg width="49" height="50" viewBox="0 0 49 50" fill="none" xmlns="http://www.w3.org/2000/svg">
<path d="M10.8929 27.3996C10.231 27.3996 9.66667 27.1639 9.2 26.6925C8.73333 26.2211 8.5 25.6545 8.5 24.9925C8.5 24.3306 8.7357 23.7663 9.2071 23.2996C9.67847 22.8329 10.2451 22.5996 10.9071 22.5996C11.569 22.5996 12.1333 22.8353 12.6 23.3067C13.0667 23.7781 13.3 24.3447 13.3 25.0067C13.3 25.6686 13.0643 26.2329 12.5929 26.6996C12.1215 27.1663 11.5549 27.3996 10.8929 27.3996ZM24.4929 27.3996C23.831 27.3996 23.2667 27.1639 22.8 26.6925C22.3333 26.2211 22.1 25.6545 22.1 24.9925C22.1 24.3306 22.3357 23.7663 22.8071 23.2996C23.2785 22.8329 23.8451 22.5996 24.5071 22.5996C25.169 22.5996 25.7333 22.8353 26.2 23.3067C26.6667 23.7781 26.9 24.3447 26.9 25.0067C26.9 25.6686 26.6643 26.2329 26.1929 26.6996C25.7215 27.1663 25.1549 27.3996 24.4929 27.3996ZM38.0929 27.3996C37.431 27.3996 36.8667 27.1639 36.4 26.6925C35.9333 26.2211 35.7 25.6545 35.7 24.9925C35.7 24.3306 35.9357 23.7663 36.4071 23.2996C36.8785 22.8329 37.4451 22.5996 38.1071 22.5996C38.769 22.5996 39.3333 22.8353 39.8 23.3067C40.2667 23.7781 40.5 24.3447 40.5 25.0067C40.5 25.6686 40.2643 26.2329 39.7929 26.6996C39.3215 27.1663 38.7549 27.3996 38.0929 27.3996Z" fill="black"/>
</svg>
