<svg width="84" height="118" viewBox="0 0 84 118" fill="none" xmlns="http://www.w3.org/2000/svg">
<mask id="mask0_880_220" style="mask-type:luminance" maskUnits="userSpaceOnUse" x="1" y="1" width="82" height="116">
<path d="M83 1H1V117H83V1Z" fill="white"/>
</mask>
<g mask="url(#mask0_880_220)">
<path d="M46.4065 3.62897C44.2685 1.47115 40.7862 1.45503 38.6284 3.59296L3.4649 38.4323C1.30709 40.5703 1.29097 44.0526 3.42889 46.2104C5.5668 48.3682 9.04917 48.3844 11.207 46.2464L42.4634 15.2781L73.4317 46.5345C75.5696 48.6923 79.052 48.7084 81.2098 46.5705C83.3676 44.4326 83.3837 40.9502 81.2458 38.7924L46.4065 3.62897ZM47.4993 115.526L47.9993 7.52547L36.9995 7.47454L36.4995 115.476L47.4993 115.526Z" fill="#869900"/>
</g>
</svg>
