<svg width="83" height="117" viewBox="0 0 83 117" fill="none" xmlns="http://www.w3.org/2000/svg">
<g clip-path="url(#clip0_839_715)">
<mask id="mask0_839_715" style="mask-type:luminance" maskUnits="userSpaceOnUse" x="0" y="1" width="83" height="115">
<path d="M82.5 1H0.5V116H82.5V1Z" fill="white"/>
</mask>
<g mask="url(#mask0_839_715)">
<path d="M45.907 3.12701C43.769 0.969201 40.2867 0.953079 38.1289 3.091L2.96539 37.9303C0.80758 40.0683 0.791459 43.5506 2.92938 45.7084C5.06729 47.8662 8.54966 47.8824 10.7075 45.7444L41.9639 14.7761L72.9322 46.0325C75.0701 48.1903 78.5525 48.2064 80.7103 46.0685C82.8681 43.9306 82.8842 40.4482 80.7463 38.2904L45.907 3.12701ZM46.9998 115.024L47.4998 7.02351L36.5 6.97258L36 114.974L46.9998 115.024Z" fill="#869900"/>
</g>
</g>
<defs>
<clipPath id="clip0_839_715">
<rect width="82" height="116" fill="white" transform="translate(0.5 0.5)"/>
</clipPath>
</defs>
</svg>
