<svg width="50" height="51" viewBox="0 0 50 51" fill="none" xmlns="http://www.w3.org/2000/svg">
<path d="M11.3929 27.8996C10.731 27.8996 10.1667 27.6639 9.7 27.1925C9.23333 26.7211 9 26.1545 9 25.4925C9 24.8306 9.2357 24.2663 9.7071 23.7996C10.1785 23.3329 10.7451 23.0996 11.4071 23.0996C12.069 23.0996 12.6333 23.3353 13.1 23.8067C13.5667 24.2781 13.8 24.8447 13.8 25.5067C13.8 26.1686 13.5643 26.7329 13.0929 27.1996C12.6215 27.6663 12.0549 27.8996 11.3929 27.8996ZM24.9929 27.8996C24.331 27.8996 23.7667 27.6639 23.3 27.1925C22.8333 26.7211 22.6 26.1545 22.6 25.4925C22.6 24.8306 22.8357 24.2663 23.3071 23.7996C23.7785 23.3329 24.3451 23.0996 25.0071 23.0996C25.669 23.0996 26.2333 23.3353 26.7 23.8067C27.1667 24.2781 27.4 24.8447 27.4 25.5067C27.4 26.1686 27.1643 26.7329 26.6929 27.1996C26.2215 27.6663 25.6549 27.8996 24.9929 27.8996ZM38.5929 27.8996C37.931 27.8996 37.3667 27.6639 36.9 27.1925C36.4333 26.7211 36.2 26.1545 36.2 25.4925C36.2 24.8306 36.4357 24.2663 36.9071 23.7996C37.3785 23.3329 37.9451 23.0996 38.6071 23.0996C39.269 23.0996 39.8333 23.3353 40.3 23.8067C40.7667 24.2781 41 24.8447 41 25.5067C41 26.1686 40.7643 26.7329 40.2929 27.1996C39.8215 27.6663 39.2549 27.8996 38.5929 27.8996Z" fill="#007AFF"/>
</svg>
