<svg width="48" height="49" viewBox="0 0 48 49" fill="none" xmlns="http://www.w3.org/2000/svg">
<path d="M10.3929 26.8996C9.73097 26.8996 9.16667 26.6639 8.7 26.1925C8.23333 25.7211 8 25.1545 8 24.4925C8 23.8306 8.2357 23.2663 8.7071 22.7996C9.17847 22.3329 9.74513 22.0996 10.4071 22.0996C11.069 22.0996 11.6333 22.3353 12.1 22.8067C12.5667 23.2781 12.8 23.8447 12.8 24.5067C12.8 25.1686 12.5643 25.7329 12.0929 26.1996C11.6215 26.6663 11.0549 26.8996 10.3929 26.8996ZM23.9929 26.8996C23.331 26.8996 22.7667 26.6639 22.3 26.1925C21.8333 25.7211 21.6 25.1545 21.6 24.4925C21.6 23.8306 21.8357 23.2663 22.3071 22.7996C22.7785 22.3329 23.3451 22.0996 24.0071 22.0996C24.669 22.0996 25.2333 22.3353 25.7 22.8067C26.1667 23.2781 26.4 23.8447 26.4 24.5067C26.4 25.1686 26.1643 25.7329 25.6929 26.1996C25.2215 26.6663 24.6549 26.8996 23.9929 26.8996ZM37.5929 26.8996C36.931 26.8996 36.3667 26.6639 35.9 26.1925C35.4333 25.7211 35.2 25.1545 35.2 24.4925C35.2 23.8306 35.4357 23.2663 35.9071 22.7996C36.3785 22.3329 36.9451 22.0996 37.6071 22.0996C38.269 22.0996 38.8333 22.3353 39.3 22.8067C39.7667 23.2781 40 23.8447 40 24.5067C40 25.1686 39.7643 25.7329 39.2929 26.1996C38.8215 26.6663 38.2549 26.8996 37.5929 26.8996Z" fill="black"/>
</svg>
