<svg width="83" height="116" viewBox="0 0 83 116" fill="none" xmlns="http://www.w3.org/2000/svg">
<mask id="mask0_872_414" style="mask-type:luminance" maskUnits="userSpaceOnUse" x="0" y="0" width="83" height="116">
<path d="M82.5 0.5H0.5V115.5H82.5V0.5Z" fill="white"/>
</mask>
<g mask="url(#mask0_872_414)">
<mask id="mask1_872_414" style="mask-type:luminance" maskUnits="userSpaceOnUse" x="0" y="1" width="83" height="114">
<path d="M82.5 1H0.5V115H82.5V1Z" fill="white"/>
</mask>
<g mask="url(#mask1_872_414)">
<path d="M37.8628 112.89C40.0107 115.038 43.4931 115.038 45.641 112.89L80.6428 77.8877C82.7907 75.7398 82.7907 72.2574 80.6428 70.1095C78.4949 67.9616 75.0125 67.9616 72.8646 70.1095L41.7519 101.223L10.6392 70.1095C8.4912 67.9616 5.00879 67.9616 2.86091 70.1095C0.713029 72.2574 0.713029 75.7398 2.86091 77.8877L37.8628 112.89ZM36.2519 0.998047V109.001H47.2519V0.998047H36.2519Z" fill="#869900"/>
</g>
</g>
</svg>
