<svg width="41" height="41" viewBox="0 0 41 41" fill="none" xmlns="http://www.w3.org/2000/svg">
<g clip-path="url(#clip0_880_246)">
<mask id="mask0_880_246" style="mask-type:luminance" maskUnits="userSpaceOnUse" x="0" y="0" width="41" height="41">
<path d="M40.5 0.5H0.5V40.5H40.5V0.5Z" fill="white"/>
</mask>
<g mask="url(#mask0_880_246)">
<path d="M40.5 20.5C40.5 9.4543 31.5457 0.5 20.5 0.5C9.4543 0.5 0.5 9.4543 0.5 20.5C0.5 31.5457 9.4543 40.5 20.5 40.5C31.5457 40.5 40.5 31.5457 40.5 20.5Z" fill="white"/>
<path d="M37.0844 15.1896C36.8691 14.5691 36.2793 14.1536 35.6229 14.1536H27.8072C27.4738 14.1536 27.1456 14.2613 26.884 14.4562L25.0583 15.8101L24.0275 14.6819C23.766 14.3947 23.407 14.2203 23.0172 14.1844L22.6428 14.1536C22.5916 14.0716 22.5454 13.9947 22.4839 13.9126C21.3402 12.292 19.2068 11.4458 15.9657 11.333C12.7091 11.2151 10.2064 12.651 9.28332 13.2716C8.31918 13.9177 7.57556 14.487 7.21657 14.7639C6.8781 15.0255 6.66783 15.4152 6.6268 15.8409C6.58578 16.2666 6.72938 16.6922 7.01657 17.0102L8.32943 18.4769C8.82176 19.0308 9.64232 19.1539 10.2731 18.7744C10.5911 18.5846 11.4526 18.0718 12.6322 17.4051C13.5245 16.9025 14.2322 16.6358 15.0836 16.4973C15.8785 16.3691 17.1452 16.6512 17.4426 16.9486C17.0118 17.3128 15.5708 17.7692 14.9964 17.9538L14.9246 17.9743C13.263 18.5025 11.1962 19.159 9.06793 20.5283C6.13448 22.4104 4.68314 24.3797 4.36005 26.9183C4.30363 27.3542 4.4421 27.7952 4.72929 28.1286C5.02161 28.4619 5.44214 28.6568 5.88318 28.6568L17.576 28.7286H17.5862C17.8785 28.7286 18.1555 28.6465 18.3965 28.4978C18.6529 28.6773 18.9606 28.7799 19.2837 28.7799H20.5966C20.9505 28.7799 21.2941 28.6568 21.5659 28.4363L23.3352 27.0106L24.3147 28.2055C24.607 28.5696 25.0481 28.7799 25.5148 28.7799H33.7664C34.3613 28.7799 34.8946 28.4465 35.1562 27.9132C35.4177 27.3798 35.3511 26.7542 34.9869 26.2875L31.0688 21.2719L36.587 16.9025C37.0998 16.4922 37.305 15.805 37.0844 15.1845V15.1896ZM22.9198 22.1796L20.971 23.8105C20.7146 23.6207 20.3966 23.513 20.0581 23.513H14.9759C16.1298 23.0617 16.74 22.8617 17.1657 22.7181C17.6375 22.5591 17.976 22.4463 18.5452 22.1745C19.8427 21.554 20.8684 21.0616 21.8479 19.8872C21.9761 19.7334 22.171 19.4975 22.371 19.2L23.3352 20.2257C23.8634 20.7847 24.7352 20.8719 25.3609 20.4206L27.2892 19.0359L26.2686 19.8205C25.9404 20.077 25.725 20.4565 25.6789 20.8719C25.6327 21.2821 25.7558 21.7078 26.0173 22.0258L28.3559 24.8925H27.1764L25.0993 22.3796C24.8327 22.0617 24.4634 21.8617 24.048 21.8258C23.6377 21.7899 23.2326 21.9129 22.9147 22.1796H22.9198Z" fill="black"/>
<path d="M33.7616 29.6206H25.51C24.7869 29.6206 24.1151 29.2975 23.6587 28.7385L23.2073 28.1897L22.0842 29.0923C21.6637 29.4308 21.1303 29.6206 20.5867 29.6206H19.2739C18.9559 29.6206 18.6482 29.559 18.361 29.4411C18.1097 29.5283 17.843 29.5744 17.5763 29.5744L5.86818 29.5026C5.1861 29.5026 4.53479 29.2 4.08862 28.6872C3.64245 28.1744 3.43218 27.4923 3.51936 26.8205C3.87322 24.0152 5.44252 21.8613 8.60163 19.8304C8.65291 19.7945 8.70933 19.7638 8.76061 19.733C8.36059 19.6099 7.98622 19.374 7.6939 19.0458L6.38102 17.5791C5.93998 17.0867 5.72459 16.4303 5.78613 15.7739C5.84254 15.1225 6.17589 14.5123 6.69386 14.1122C7.15029 13.7584 7.88878 13.2045 8.80676 12.5891C9.80167 11.9224 12.4941 10.3838 15.9865 10.507C19.4533 10.6249 21.7868 11.5583 23.1048 13.3635C23.6945 13.4199 24.2382 13.6917 24.6382 14.1276L25.1613 14.702L26.3818 13.7943C26.7818 13.4917 27.2896 13.3225 27.8024 13.3225H35.6181C36.6284 13.3225 37.5361 13.9635 37.8695 14.9225C38.2028 15.8815 37.8951 16.9431 37.1002 17.5739L32.2334 21.4254L35.6386 25.7845C36.2027 26.5076 36.3053 27.4718 35.9002 28.2974C35.5002 29.1231 34.6745 29.636 33.7565 29.636L33.7616 29.6206ZM23.4535 25.8409L24.9613 27.682C25.0997 27.8513 25.2997 27.9487 25.5151 27.9487H33.7667C34.0437 27.9487 34.2796 27.8 34.4027 27.5538C34.5258 27.3025 34.495 27.0256 34.3258 26.8102L29.8948 21.1382L36.0694 16.2559C36.3053 16.0713 36.3976 15.7533 36.3002 15.4713C36.2027 15.1892 35.9309 14.9943 35.6335 14.9943H27.8178C27.6691 14.9943 27.5152 15.0456 27.4024 15.1328L24.9613 16.9431L23.4176 15.2559C23.2997 15.1277 23.1304 15.0456 22.9509 15.0302L22.1611 14.9636L21.9406 14.6097C21.8893 14.5276 21.8534 14.4661 21.8073 14.4097C20.8226 13.0148 18.9046 12.2865 15.9455 12.184C12.9556 12.0763 10.6171 13.4045 9.76065 13.984C8.87856 14.5789 8.17596 15.102 7.74005 15.4405C7.5862 15.5585 7.48876 15.738 7.47337 15.9328C7.45286 16.1277 7.51953 16.3226 7.65287 16.4713L8.96575 17.938C9.1914 18.1893 9.56576 18.2509 9.85295 18.0765C10.1709 17.8868 11.0427 17.3688 12.2274 16.697C13.2121 16.1431 13.9967 15.8508 14.9506 15.6918C15.8891 15.5379 17.4738 15.8098 18.0379 16.379L18.6841 17.0252L17.9866 17.615C17.5866 17.9483 16.7968 18.2868 15.2583 18.7791L15.1865 18.7996C13.5762 19.3125 11.5659 19.9535 9.52987 21.2561C6.8272 22.9895 5.48868 24.7793 5.20149 27.0461C5.17584 27.2461 5.23739 27.4461 5.37073 27.6C5.50406 27.7538 5.69894 27.841 5.90408 27.841L17.5917 27.9128C17.7302 27.9128 17.8584 27.8769 17.9712 27.8051L18.443 27.5128L18.8943 27.8308C19.0123 27.9128 19.1559 27.959 19.2995 27.959H20.6124C20.7713 27.959 20.9303 27.9026 21.0585 27.8L23.474 25.8512L23.4535 25.8409ZM30.1307 25.7332H26.787L24.4587 22.9126C24.3356 22.7639 24.1715 22.6767 23.9766 22.6613C23.7869 22.6459 23.6022 22.7023 23.4586 22.8203L21.0073 24.8717L20.479 24.487C20.356 24.3998 20.2124 24.3537 20.0636 24.3537H10.5196L14.6737 22.7331C15.8532 22.2716 16.484 22.0613 16.9045 21.9228C17.3609 21.769 17.6635 21.6715 18.1866 21.4202C19.438 20.8202 20.3457 20.3894 21.2073 19.3535C21.3098 19.2355 21.4945 19.0099 21.6791 18.7381L22.2688 17.8714L23.951 19.6612C24.192 19.9176 24.592 19.9535 24.8792 19.7484L26.8075 18.3637L27.8075 19.7073L26.787 20.492C26.6383 20.6099 26.5357 20.7843 26.5152 20.9689C26.4947 21.1536 26.5511 21.3536 26.669 21.4972L30.1256 25.7332H30.1307ZM19.4431 22.6767H20.0636C20.3406 22.6767 20.6072 22.7229 20.8637 22.8152L22.3868 21.5433C22.6022 21.3638 22.8432 21.2254 23.0996 21.133C22.9663 21.0407 22.8432 20.9382 22.7304 20.8151L22.4381 20.5023C21.5047 21.5946 20.5354 22.1485 19.4482 22.6818L19.4431 22.6767Z" fill="black"/>
<path d="M27.0269 20.9238L32.4528 16.7237H28.4526L24.6832 19.4468L22.1908 16.7749L22.1754 16.6519L23.3088 15.657L25.114 17.6416L27.8218 15.6211L35.9196 15.498L35.9914 15.6416L29.227 20.9597L33.9708 26.9702V27.0779L25.6063 27.0933L23.8165 24.8932L21.1036 27.0933H19.1958L19.1445 26.9702L24.2114 22.8726L26.6987 25.9035H31.0681L27.0269 20.9238Z" fill="#4F4A42"/>
<path d="M10.001 17.8771L9.76506 17.7335L8.48295 16.1848C8.48295 16.1848 9.31889 15.5078 10.5548 14.677C11.9087 13.7642 13.9704 12.9692 16.1653 13.0462C19.2065 13.1487 20.6681 13.9642 21.3758 14.9642C21.7707 15.5283 21.8835 16.0207 21.8989 16.1489C22.0784 17.6617 21.1655 18.7233 20.8168 19.1439C20.0783 20.0259 19.2885 20.4054 18.1193 20.9644C17.109 21.4465 17.0731 21.2927 14.1447 22.4619C13.6011 22.6773 12.9601 22.9235 12.3395 23.2927C11.5497 23.7594 10.9754 24.2671 10.6061 24.6261L20.4732 24.4466L20.6732 24.6261L17.8218 27.0775L6.38544 27.0057C6.40595 27.0057 6.12901 27.0057 6.14952 26.8621C6.44184 25.0364 7.806 23.2056 10.3138 21.5952C12.2267 20.3695 14.0678 19.79 15.6525 19.2875C17.3243 18.7541 18.8988 18.2054 18.8988 17.1951C18.8988 15.5694 16.1499 15.2975 15.1448 15.4617C14.0627 15.6411 13.2319 16.0053 12.4011 16.472C10.9549 17.2925 9.98558 17.8771 9.98558 17.8771H10.001Z" fill="#4F4A42"/>
<path d="M9.77837 17.7123L8.26549 16.0148C8.26549 16.0148 9.10141 15.3379 10.3374 14.5071C11.6912 13.5942 13.7528 12.7993 15.9478 12.8762C18.989 12.9788 20.4505 13.7942 21.1583 14.7943C21.5532 15.3584 21.666 15.8507 21.6814 15.9789C21.8609 17.4918 20.948 18.5534 20.5993 18.9739C19.8608 19.856 19.071 20.2355 17.9017 20.7945C16.8914 21.2766 16.8555 21.1227 13.9272 22.292C13.3836 22.5074 12.7425 22.7536 12.122 23.1228C11.3322 23.5895 10.7578 24.0972 10.3886 24.4562H20.4557L17.6043 26.9076L6.16797 26.8358C6.35259 24.81 7.38853 23.1638 10.1015 21.4253C12.0143 20.1996 13.8554 19.6201 15.4401 19.1175C17.1119 18.5842 18.6864 18.0354 18.6864 17.0251C18.6864 15.3994 15.9375 15.1276 14.9324 15.2917C13.8503 15.4712 13.0195 15.8353 12.1887 16.302C10.7425 17.1226 9.77324 17.7072 9.77324 17.7072L9.77837 17.7123Z" fill="url(#paint0_linear_880_246)"/>
<path d="M26.9913 20.7808L32.4171 16.5807H28.417L24.6476 19.3039L22.1552 16.632L21.9757 15.4062L23.2732 15.5139L25.0784 17.4986L27.781 15.478H35.8942L29.1914 20.8167L33.9505 26.9503H25.5707L23.7809 24.7502L21.068 26.9503H19.1602L24.1758 22.7297L26.6631 25.7605H31.0325L26.9913 20.7808Z" fill="url(#paint1_linear_880_246)"/>
</g>
</g>
<defs>
<linearGradient id="paint0_linear_880_246" x1="6.1731" y1="19.8919" x2="21.707" y2="19.8919" gradientUnits="userSpaceOnUse">
<stop stop-color="#C4D23A"/>
<stop offset="1" stop-color="#A0B81C"/>
</linearGradient>
<linearGradient id="paint1_linear_880_246" x1="19.1602" y1="21.1808" x2="35.8942" y2="21.1808" gradientUnits="userSpaceOnUse">
<stop stop-color="#C4D23A"/>
<stop offset="1" stop-color="#A0B81C"/>
</linearGradient>
<clipPath id="clip0_880_246">
<rect width="40" height="40" fill="white" transform="translate(0.5 0.5)"/>
</clipPath>
</defs>
</svg>
