<svg width="40" height="40" viewBox="0 0 40 40" fill="none" xmlns="http://www.w3.org/2000/svg">
<rect width="40" height="40" rx="20" fill="white"/>
<path d="M36.5844 14.6896C36.3691 14.0691 35.7793 13.6536 35.1229 13.6536H27.3072C26.9738 13.6536 26.6456 13.7613 26.384 13.9562L24.5583 15.3101L23.5275 14.1819C23.266 13.8947 22.907 13.7203 22.5172 13.6844L22.1428 13.6536C22.0916 13.5716 22.0454 13.4947 21.9839 13.4126C20.8402 11.792 18.7068 10.9458 15.4657 10.833C12.2091 10.7151 9.70644 12.151 8.78332 12.7716C7.81918 13.4177 7.07556 13.987 6.71657 14.2639C6.3781 14.5255 6.16783 14.9152 6.1268 15.3409C6.08578 15.7666 6.22938 16.1922 6.51657 16.5102L7.82943 17.9769C8.32176 18.5308 9.14232 18.6539 9.77311 18.2744C10.0911 18.0846 10.9526 17.5718 12.1322 16.9051C13.0245 16.4025 13.7322 16.1358 14.5836 15.9973C15.3785 15.8691 16.6452 16.1512 16.9426 16.4486C16.5118 16.8128 15.0708 17.2692 14.4964 17.4538L14.4246 17.4743C12.763 18.0025 10.6962 18.659 8.56793 20.0283C5.63448 21.9104 4.18314 23.8797 3.86005 26.4183C3.80363 26.8542 3.9421 27.2952 4.22929 27.6286C4.52161 27.9619 4.94214 28.1568 5.38318 28.1568L17.076 28.2286H17.0862C17.3785 28.2286 17.6555 28.1465 17.8965 27.9978C18.1529 28.1773 18.4606 28.2799 18.7837 28.2799H20.0966C20.4505 28.2799 20.7941 28.1568 21.0659 27.9363L22.8352 26.5106L23.8147 27.7055C24.107 28.0696 24.5481 28.2799 25.0148 28.2799H33.2664C33.8613 28.2799 34.3946 27.9465 34.6562 27.4132C34.9177 26.8798 34.8511 26.2542 34.4869 25.7875L30.5688 20.7719L36.087 16.4025C36.5998 15.9922 36.805 15.305 36.5844 14.6845V14.6896ZM22.4198 21.6796L20.471 23.3105C20.2146 23.1207 19.8966 23.013 19.5581 23.013H14.4759C15.6298 22.5617 16.24 22.3617 16.6657 22.2181C17.1375 22.0591 17.476 21.9463 18.0452 21.6745C19.3427 21.054 20.3684 20.5616 21.3479 19.3872C21.4761 19.2334 21.671 18.9975 21.871 18.7L22.8352 19.7257C23.3634 20.2847 24.2352 20.3719 24.8609 19.9206L26.7892 18.5359L25.7686 19.3205C25.4404 19.577 25.225 19.9565 25.1789 20.3719C25.1327 20.7821 25.2558 21.2078 25.5173 21.5258L27.8559 24.3925H26.6764L24.5993 21.8796C24.3327 21.5617 23.9634 21.3617 23.548 21.3258C23.1377 21.2899 22.7326 21.4129 22.4147 21.6796H22.4198Z" fill="black"/>
<path d="M33.2616 29.1206H25.01C24.2869 29.1206 23.6151 28.7975 23.1587 28.2385L22.7073 27.6897L21.5842 28.5923C21.1637 28.9308 20.6303 29.1206 20.0867 29.1206H18.7739C18.4559 29.1206 18.1482 29.059 17.861 28.9411C17.6097 29.0283 17.343 29.0744 17.0763 29.0744L5.36818 29.0026C4.6861 29.0026 4.03479 28.7 3.58862 28.1872C3.14245 27.6744 2.93218 26.9923 3.01936 26.3205C3.37322 23.5152 4.94252 21.3613 8.10163 19.3304C8.15291 19.2945 8.20933 19.2638 8.26061 19.233C7.86059 19.1099 7.48622 18.874 7.1939 18.5458L5.88102 17.0791C5.43998 16.5867 5.22459 15.9303 5.28613 15.2739C5.34254 14.6225 5.67589 14.0123 6.19386 13.6122C6.65029 13.2584 7.38878 12.7045 8.30676 12.0891C9.30167 11.4224 11.9941 9.88389 15.4865 10.007C18.9533 10.1249 21.2868 11.0583 22.6048 12.8635C23.1945 12.9199 23.7382 13.1917 24.1382 13.6276L24.6613 14.202L25.8818 13.2943C26.2818 12.9917 26.7896 12.8225 27.3024 12.8225H35.1181C36.1284 12.8225 37.0361 13.4635 37.3695 14.4225C37.7028 15.3815 37.3951 16.4431 36.6002 17.0739L31.7334 20.9254L35.1386 25.2845C35.7027 26.0076 35.8053 26.9718 35.4002 27.7974C35.0002 28.6231 34.1745 29.136 33.2565 29.136L33.2616 29.1206ZM22.9535 25.3409L24.4613 27.182C24.5997 27.3513 24.7997 27.4487 25.0151 27.4487H33.2667C33.5437 27.4487 33.7796 27.3 33.9027 27.0538C34.0258 26.8025 33.995 26.5256 33.8258 26.3102L29.3948 20.6382L35.5694 15.7559C35.8053 15.5713 35.8976 15.2533 35.8002 14.9713C35.7027 14.6892 35.4309 14.4943 35.1335 14.4943H27.3178C27.1691 14.4943 27.0152 14.5456 26.9024 14.6328L24.4613 16.4431L22.9176 14.7559C22.7997 14.6277 22.6304 14.5456 22.4509 14.5302L21.6611 14.4636L21.4406 14.1097C21.3893 14.0276 21.3534 13.9661 21.3073 13.9097C20.3226 12.5148 18.4046 11.7865 15.4455 11.684C12.4556 11.5763 10.1171 12.9045 9.26065 13.484C8.37856 14.0789 7.67596 14.602 7.24005 14.9405C7.0862 15.0585 6.98876 15.238 6.97337 15.4328C6.95286 15.6277 7.01953 15.8226 7.15287 15.9713L8.46575 17.438C8.6914 17.6893 9.06576 17.7509 9.35295 17.5765C9.67091 17.3868 10.5427 16.8688 11.7274 16.197C12.7121 15.6431 13.4967 15.3508 14.4506 15.1918C15.3891 15.0379 16.9738 15.3098 17.5379 15.879L18.1841 16.5252L17.4866 17.115C17.0866 17.4483 16.2968 17.7868 14.7583 18.2791L14.6865 18.2996C13.0762 18.8125 11.0659 19.4535 9.02987 20.7561C6.3272 22.4895 4.98868 24.2793 4.70149 26.5461C4.67584 26.7461 4.73739 26.9461 4.87073 27.1C5.00406 27.2538 5.19894 27.341 5.40408 27.341L17.0917 27.4128C17.2302 27.4128 17.3584 27.3769 17.4712 27.3051L17.943 27.0128L18.3943 27.3308C18.5123 27.4128 18.6559 27.459 18.7995 27.459H20.1124C20.2713 27.459 20.4303 27.4026 20.5585 27.3L22.974 25.3512L22.9535 25.3409ZM29.6307 25.2332H26.287L23.9587 22.4126C23.8356 22.2639 23.6715 22.1767 23.4766 22.1613C23.2869 22.1459 23.1022 22.2023 22.9586 22.3203L20.5073 24.3717L19.979 23.987C19.856 23.8998 19.7124 23.8537 19.5636 23.8537H10.0196L14.1737 22.2331C15.3532 21.7716 15.984 21.5613 16.4045 21.4228C16.8609 21.269 17.1635 21.1715 17.6866 20.9202C18.938 20.3202 19.8457 19.8894 20.7073 18.8535C20.8098 18.7355 20.9945 18.5099 21.1791 18.2381L21.7688 17.3714L23.451 19.1612C23.692 19.4176 24.092 19.4535 24.3792 19.2484L26.3075 17.8637L27.3075 19.2073L26.287 19.992C26.1383 20.1099 26.0357 20.2843 26.0152 20.4689C25.9947 20.6536 26.0511 20.8536 26.169 20.9972L29.6256 25.2332H29.6307ZM18.9431 22.1767H19.5636C19.8406 22.1767 20.1072 22.2229 20.3637 22.3152L21.8868 21.0433C22.1022 20.8638 22.3432 20.7254 22.5996 20.633C22.4663 20.5407 22.3432 20.4382 22.2304 20.3151L21.9381 20.0023C21.0047 21.0946 20.0354 21.6485 18.9482 22.1818L18.9431 22.1767Z" fill="black"/>
<path d="M26.5269 20.4229L31.9528 16.2228H27.9526L24.1832 18.9459L21.6908 16.274L21.6754 16.151L22.8088 15.1561L24.614 17.1407L27.3218 15.1202L35.4196 14.9971L35.4914 15.1407L28.727 20.4588L33.4708 26.4693V26.577L25.1063 26.5924L23.3165 24.3923L20.6036 26.5924H18.6958L18.6445 26.4693L23.7114 22.3717L26.1987 25.4026H30.5681L26.5269 20.4229Z" fill="#4F4A42"/>
<path d="M9.50097 17.3771L9.26506 17.2335L7.98295 15.6848C7.98295 15.6848 8.81889 15.0078 10.0548 14.177C11.4087 13.2642 13.4704 12.4692 15.6653 12.5462C18.7065 12.6487 20.1681 13.4642 20.8758 14.4642C21.2707 15.0283 21.3835 15.5207 21.3989 15.6489C21.5784 17.1617 20.6655 18.2233 20.3168 18.6439C19.5783 19.5259 18.7885 19.9054 17.6193 20.4644C16.609 20.9465 16.5731 20.7927 13.6447 21.9619C13.1011 22.1773 12.4601 22.4235 11.8395 22.7927C11.0497 23.2594 10.4754 23.7671 10.1061 24.1261L19.9732 23.9466L20.1732 24.1261L17.3218 26.5775L5.88544 26.5057C5.90595 26.5057 5.62901 26.5057 5.64952 26.3621C5.94184 24.5364 7.306 22.7056 9.81379 21.0952C11.7267 19.8695 13.5678 19.29 15.1525 18.7875C16.8243 18.2541 18.3988 17.7054 18.3988 16.6951C18.3988 15.0694 15.6499 14.7975 14.6448 14.9617C13.5627 15.1411 12.7319 15.5053 11.9011 15.972C10.4549 16.7925 9.48558 17.3771 9.48558 17.3771H9.50097Z" fill="#4F4A42"/>
<path d="M9.28032 17.2133L7.76744 15.5158C7.76744 15.5158 8.60336 14.8389 9.83931 14.0081C11.1932 13.0952 13.2548 12.3003 15.4498 12.3772C18.491 12.4798 19.9525 13.2952 20.6603 14.2953C21.0552 14.8594 21.168 15.3517 21.1834 15.4799C21.3629 16.9928 20.45 18.0544 20.1013 18.4749C19.3628 19.357 18.573 19.7365 17.4037 20.2955C16.3934 20.7776 16.3575 20.6237 13.4292 21.793C12.8856 22.0084 12.2445 22.2546 11.624 22.6238C10.8342 23.0905 10.2598 23.5982 9.8906 23.9572H19.9577L17.1063 26.4086L5.66992 26.3368C5.85454 24.311 6.89048 22.6648 9.60341 20.9263C11.5163 19.7006 13.3574 19.1211 14.9421 18.6185C16.6139 18.0852 18.1884 17.5364 18.1884 16.5261C18.1884 14.9004 15.4395 14.6286 14.4344 14.7927C13.3523 14.9722 12.5215 15.3363 11.6907 15.803C10.2445 16.6236 9.27519 17.2082 9.27519 17.2082L9.28032 17.2133Z" fill="url(#paint0_linear_826_140)"/>
<path d="M26.4903 20.2808L31.9161 16.0807H27.916L24.1466 18.8038L21.6542 16.1319L21.4747 14.9062L22.7722 15.0139L24.5774 16.9986L27.28 14.978H35.3932L28.6904 20.3167L33.4495 26.4503H25.0697L23.2799 24.2502L20.567 26.4503H18.6592L23.6748 22.2296L26.1621 25.2605H30.5315L26.4903 20.2808Z" fill="url(#paint1_linear_826_140)"/>
<defs>
<linearGradient id="paint0_linear_826_140" x1="5.67505" y1="19.3929" x2="21.209" y2="19.3929" gradientUnits="userSpaceOnUse">
<stop stop-color="#C4D23A"/>
<stop offset="1" stop-color="#A0B81C"/>
</linearGradient>
<linearGradient id="paint1_linear_826_140" x1="18.6592" y1="20.6808" x2="35.3932" y2="20.6808" gradientUnits="userSpaceOnUse">
<stop stop-color="#C4D23A"/>
<stop offset="1" stop-color="#A0B81C"/>
</linearGradient>
</defs>
</svg>
