<svg width="162" height="32" viewBox="0 0 162 32" fill="none" xmlns="http://www.w3.org/2000/svg">
<path d="M152.484 20.2512C152.483 20.7444 152.385 21.2325 152.196 21.6878C152.006 22.1431 151.729 22.5566 151.38 22.9047C151.032 23.2528 150.618 23.5287 150.162 23.7166C149.707 23.9046 149.219 24.0009 148.726 24L139.244 23.9834C138.249 23.9817 137.296 23.5844 136.594 22.8789C135.892 22.1734 135.498 21.2175 135.5 20.2216L135.516 10.7488C135.517 10.2556 135.615 9.76747 135.804 9.31218C135.994 8.8569 136.271 8.44339 136.62 8.09529C136.968 7.74718 137.382 7.47129 137.838 7.28336C138.293 7.09543 138.781 6.99915 139.274 7.00001L148.756 7.01658C149.751 7.01832 150.704 7.41564 151.406 8.12113C152.108 8.82661 152.502 9.78247 152.5 10.7784L152.484 20.2512ZM151.259 10.9507C151.259 10.5993 151.191 10.2512 151.057 9.92625C150.923 9.60133 150.727 9.30597 150.479 9.05703C150.231 8.80809 149.937 8.61045 149.613 8.47539C149.289 8.34034 148.942 8.27051 148.591 8.26989L139.424 8.25387C139.073 8.25325 138.725 8.32186 138.401 8.45578C138.076 8.5897 137.781 8.78631 137.532 9.03438C137.284 9.28244 137.086 9.57712 136.952 9.90156C136.817 10.226 136.747 10.5739 136.746 10.9253L136.731 19.9839C136.73 20.3353 136.798 20.6834 136.932 21.0083C137.066 21.3333 137.262 21.6286 137.51 21.8776C137.758 22.1265 138.052 22.3241 138.376 22.4592C138.7 22.5943 139.048 22.6641 139.399 22.6647L148.565 22.6807C148.916 22.6813 149.264 22.6127 149.589 22.4788C149.913 22.3449 150.208 22.1483 150.457 21.9002C150.705 21.6522 150.903 21.3575 151.038 21.033C151.172 20.7086 151.242 20.3607 151.243 20.0093L151.259 10.9507Z" fill="#007AFF"/>
<path d="M147.69 15.0195H140.633C140.279 15.0195 139.992 15.3067 139.992 15.661C139.992 16.0153 140.279 16.3026 140.633 16.3026H147.69C148.044 16.3026 148.332 16.0153 148.332 15.661C148.332 15.3067 148.044 15.0195 147.69 15.0195Z" fill="#007AFF"/>
<path d="M144.803 19.1883V12.1317C144.803 11.7774 144.516 11.4902 144.161 11.4902C143.807 11.4902 143.52 11.7774 143.52 12.1317V19.1883C143.52 19.5426 143.807 19.8298 144.161 19.8298C144.516 19.8298 144.803 19.5426 144.803 19.1883Z" fill="#007AFF"/>
<path d="M8.94531 21L12.2525 11.8403H13.4014V13.4463H12.9698L10.4434 21H8.94531ZM10.5386 18.5244L10.9385 17.3818H15.1089L15.5088 18.5244H10.5386ZM15.5977 21L13.0777 13.4463V11.8403H13.7949L17.0957 21H15.5977ZM20.2731 21.1143C19.6976 21.1143 19.194 20.9704 18.7624 20.6826C18.335 20.3906 18.0028 19.978 17.7658 19.4448C17.533 18.9116 17.4167 18.2832 17.4167 17.5596V17.5469C17.4167 16.819 17.533 16.1885 17.7658 15.6553C17.9985 15.1221 18.3286 14.7116 18.756 14.4238C19.1834 14.1318 19.6891 13.9858 20.2731 13.9858C20.5905 13.9858 20.8867 14.0366 21.1618 14.1382C21.4368 14.2355 21.6802 14.3752 21.8918 14.5571C22.1033 14.7349 22.2705 14.9486 22.3932 15.1982H22.4948V11.4023H23.8786V21H22.4948V19.9146H22.3932C22.2578 20.1642 22.0864 20.38 21.8791 20.562C21.6717 20.7397 21.4326 20.8773 21.1618 20.9746C20.8909 21.0677 20.5947 21.1143 20.2731 21.1143ZM20.6667 19.9336C21.0475 19.9336 21.3776 19.8384 21.6569 19.6479C21.9362 19.4575 22.1499 19.1846 22.298 18.8291C22.4461 18.4694 22.5202 18.0462 22.5202 17.5596V17.5469C22.5202 17.056 22.444 16.6328 22.2917 16.2773C22.1436 15.9219 21.9298 15.6489 21.6506 15.4585C21.3755 15.2638 21.0475 15.1665 20.6667 15.1665C20.2858 15.1665 19.9557 15.2638 19.6764 15.4585C19.4014 15.6489 19.1898 15.9219 19.0417 16.2773C18.8978 16.6286 18.8258 17.0518 18.8258 17.5469V17.5596C18.8258 18.0505 18.8978 18.4736 19.0417 18.8291C19.1898 19.1846 19.4014 19.4575 19.6764 19.6479C19.9557 19.8384 20.2858 19.9336 20.6667 19.9336ZM28.0462 21.1143C27.4707 21.1143 26.9671 20.9704 26.5355 20.6826C26.108 20.3906 25.7758 19.978 25.5389 19.4448C25.3061 18.9116 25.1897 18.2832 25.1897 17.5596V17.5469C25.1897 16.819 25.3061 16.1885 25.5389 15.6553C25.7716 15.1221 26.1017 14.7116 26.5291 14.4238C26.9565 14.1318 27.4622 13.9858 28.0462 13.9858C28.3636 13.9858 28.6598 14.0366 28.9349 14.1382C29.2099 14.2355 29.4533 14.3752 29.6648 14.5571C29.8764 14.7349 30.0436 14.9486 30.1663 15.1982H30.2679V11.4023H31.6517V21H30.2679V19.9146H30.1663C30.0309 20.1642 29.8595 20.38 29.6522 20.562C29.4448 20.7397 29.2057 20.8773 28.9349 20.9746C28.664 21.0677 28.3678 21.1143 28.0462 21.1143ZM28.4397 19.9336C28.8206 19.9336 29.1507 19.8384 29.43 19.6479C29.7093 19.4575 29.923 19.1846 30.0711 18.8291C30.2192 18.4694 30.2933 18.0462 30.2933 17.5596V17.5469C30.2933 17.056 30.2171 16.6328 30.0647 16.2773C29.9166 15.9219 29.7029 15.6489 29.4236 15.4585C29.1486 15.2638 28.8206 15.1665 28.4397 15.1665C28.0589 15.1665 27.7288 15.2638 27.4495 15.4585C27.1744 15.6489 26.9629 15.9219 26.8147 16.2773C26.6709 16.6286 26.5989 17.0518 26.5989 17.5469V17.5596C26.5989 18.0505 26.6709 18.4736 26.8147 18.8291C26.9629 19.1846 27.1744 19.4575 27.4495 19.6479C27.7288 19.8384 28.0589 19.9336 28.4397 19.9336ZM39.0601 21.0444C38.3069 21.0444 37.761 20.9006 37.4224 20.6128C37.0881 20.3208 36.921 19.8447 36.921 19.1846V15.1919H35.8419V14.1064H36.921V12.3672H38.3302V14.1064H39.8092V15.1919H38.3302V18.8481C38.3302 19.2205 38.4042 19.4893 38.5523 19.6543C38.7004 19.8151 38.9459 19.8955 39.2887 19.8955C39.3902 19.8955 39.477 19.8934 39.5489 19.8892C39.6251 19.8849 39.7118 19.8786 39.8092 19.8701V20.9746C39.6991 20.9915 39.5806 21.0063 39.4537 21.019C39.3267 21.036 39.1956 21.0444 39.0601 21.0444ZM43.8752 21.1333C43.2024 21.1333 42.6205 20.9894 42.1296 20.7017C41.643 20.4139 41.2684 20.0034 41.0061 19.4702C40.7437 18.9328 40.6125 18.2959 40.6125 17.5596V17.5469C40.6125 16.8063 40.7437 16.1694 41.0061 15.6362C41.2727 15.103 41.6493 14.6925 42.136 14.4048C42.6268 14.117 43.2066 13.9731 43.8752 13.9731C44.5481 13.9731 45.1278 14.117 45.6145 14.4048C46.1011 14.6883 46.4756 15.0988 46.738 15.6362C47.0046 16.1694 47.1379 16.8063 47.1379 17.5469V17.5596C47.1379 18.2959 47.0046 18.9328 46.738 19.4702C46.4756 20.0034 46.1011 20.4139 45.6145 20.7017C45.1321 20.9894 44.5523 21.1333 43.8752 21.1333ZM43.8752 19.978C44.2688 19.978 44.6031 19.8828 44.8781 19.6924C45.1532 19.4977 45.3627 19.2205 45.5066 18.8608C45.6504 18.5011 45.7224 18.0674 45.7224 17.5596V17.5469C45.7224 17.0348 45.6504 16.599 45.5066 16.2393C45.3627 15.8796 45.1532 15.6045 44.8781 15.4141C44.6031 15.2194 44.2688 15.1221 43.8752 15.1221C43.4817 15.1221 43.1474 15.2194 42.8723 15.4141C42.5972 15.6045 42.3856 15.8796 42.2375 16.2393C42.0936 16.599 42.0217 17.0348 42.0217 17.5469V17.5596C42.0217 18.0674 42.0936 18.5011 42.2375 18.8608C42.3856 19.2205 42.5972 19.4977 42.8723 19.6924C43.1474 19.8828 43.4817 19.978 43.8752 19.978ZM51.6963 21V11.8403H53.1182V15.7124H57.8154V11.8403H59.2437V21H57.8154V16.9438H53.1182V21H51.6963ZM63.9191 21.1333C63.2462 21.1333 62.6644 20.9894 62.1735 20.7017C61.6868 20.4139 61.3123 20.0034 61.0499 19.4702C60.7876 18.9328 60.6564 18.2959 60.6564 17.5596V17.5469C60.6564 16.8063 60.7876 16.1694 61.0499 15.6362C61.3165 15.103 61.6932 14.6925 62.1798 14.4048C62.6707 14.117 63.2505 13.9731 63.9191 13.9731C64.5919 13.9731 65.1717 14.117 65.6583 14.4048C66.145 14.6883 66.5195 15.0988 66.7819 15.6362C67.0485 16.1694 67.1818 16.8063 67.1818 17.5469V17.5596C67.1818 18.2959 67.0485 18.9328 66.7819 19.4702C66.5195 20.0034 66.145 20.4139 65.6583 20.7017C65.1759 20.9894 64.5962 21.1333 63.9191 21.1333ZM63.9191 19.978C64.3126 19.978 64.647 19.8828 64.922 19.6924C65.1971 19.4977 65.4066 19.2205 65.5504 18.8608C65.6943 18.5011 65.7663 18.0674 65.7663 17.5596V17.5469C65.7663 17.0348 65.6943 16.599 65.5504 16.2393C65.4066 15.8796 65.1971 15.6045 64.922 15.4141C64.647 15.2194 64.3126 15.1221 63.9191 15.1221C63.5255 15.1221 63.1912 15.2194 62.9162 15.4141C62.6411 15.6045 62.4295 15.8796 62.2814 16.2393C62.1375 16.599 62.0656 17.0348 62.0656 17.5469V17.5596C62.0656 18.0674 62.1375 18.5011 62.2814 18.8608C62.4295 19.2205 62.6411 19.4977 62.9162 19.6924C63.1912 19.8828 63.5255 19.978 63.9191 19.978ZM68.4295 21V14.1064H69.8069V15.1665H69.9148C70.0672 14.7856 70.3042 14.4915 70.6258 14.2842C70.9516 14.0768 71.3409 13.9731 71.7937 13.9731C72.1069 13.9731 72.3883 14.0239 72.638 14.1255C72.8876 14.2271 73.1014 14.3709 73.2791 14.5571C73.4611 14.7391 73.6028 14.9549 73.7044 15.2046H73.8123C73.9265 14.9549 74.0874 14.7391 74.2947 14.5571C74.5021 14.3709 74.7433 14.2271 75.0183 14.1255C75.2976 14.0239 75.5939 13.9731 75.907 13.9731C76.3725 13.9731 76.7703 14.0641 77.1004 14.2461C77.4305 14.4238 77.6822 14.682 77.8557 15.0205C78.0293 15.359 78.116 15.7674 78.116 16.2456V21H76.7386V16.5757C76.7386 16.2583 76.6899 15.9959 76.5926 15.7886C76.4952 15.577 76.3471 15.4183 76.1482 15.3125C75.9536 15.2067 75.7081 15.1538 75.4119 15.1538C75.1199 15.1538 74.8639 15.2215 74.6438 15.3569C74.428 15.4881 74.2587 15.6659 74.136 15.8901C74.0175 16.1102 73.9583 16.3599 73.9583 16.6392V21H72.5808V16.436C72.5808 16.1737 72.5258 15.9473 72.4158 15.7568C72.31 15.5622 72.1577 15.4141 71.9588 15.3125C71.7599 15.2067 71.525 15.1538 71.2542 15.1538C70.9791 15.1538 70.7316 15.2257 70.5115 15.3696C70.2957 15.5135 70.1243 15.7082 69.9973 15.9536C69.8704 16.1948 69.8069 16.4657 69.8069 16.7661V21H68.4295ZM82.5502 21.1333C81.8774 21.1333 81.2997 20.9894 80.8173 20.7017C80.3349 20.4097 79.9625 19.9971 79.7001 19.4639C79.442 18.9307 79.3129 18.3001 79.3129 17.5723V17.5659C79.3129 16.8465 79.442 16.2181 79.7001 15.6807C79.9625 15.1432 80.3307 14.7243 80.8046 14.4238C81.2828 14.1234 81.8414 13.9731 82.4804 13.9731C83.1236 13.9731 83.6759 14.117 84.1371 14.4048C84.6026 14.6925 84.9602 15.0967 85.2099 15.6172C85.4596 16.1335 85.5844 16.7386 85.5844 17.4326V17.915H80.0112V16.9312H84.8989L84.2387 17.8452V17.293C84.2387 16.8021 84.1625 16.3958 84.0102 16.0742C83.8621 15.7484 83.6568 15.505 83.3945 15.3442C83.1321 15.1834 82.8295 15.103 82.4867 15.103C82.144 15.103 81.8372 15.1877 81.5663 15.3569C81.2997 15.522 81.0881 15.7674 80.9316 16.0933C80.7792 16.4191 80.703 16.819 80.703 17.293V17.8452C80.703 18.298 80.7792 18.6852 80.9316 19.0068C81.0839 19.3285 81.2997 19.5739 81.579 19.7432C81.8626 19.9124 82.1969 19.9971 82.582 19.9971C82.8782 19.9971 83.1321 19.9569 83.3437 19.8765C83.5595 19.7918 83.7351 19.6882 83.8705 19.5654C84.0102 19.4427 84.1054 19.3221 84.1562 19.2036L84.1816 19.1528H85.5146L85.5019 19.21C85.4426 19.4385 85.339 19.667 85.1908 19.8955C85.0427 20.1198 84.846 20.325 84.6005 20.5112C84.3593 20.6974 84.0673 20.8477 83.7245 20.9619C83.386 21.0762 82.9946 21.1333 82.5502 21.1333ZM93.2404 21.2222C92.5507 21.2222 91.9497 21.1143 91.4377 20.8984C90.9257 20.6784 90.5215 20.3737 90.2253 19.9844C89.9291 19.5951 89.7598 19.1444 89.7175 18.6323L89.7111 18.5498H91.114L91.1203 18.6196C91.1499 18.8947 91.2578 19.1338 91.444 19.3369C91.6345 19.54 91.8884 19.6987 92.2058 19.813C92.5274 19.9272 92.8934 19.9844 93.3039 19.9844C93.689 19.9844 94.0318 19.923 94.3322 19.8003C94.6327 19.6776 94.8675 19.5083 95.0368 19.2925C95.2103 19.0767 95.2971 18.8291 95.2971 18.5498V18.5435C95.2971 18.1922 95.1638 17.9002 94.8972 17.6675C94.6306 17.4347 94.1947 17.2528 93.5896 17.1216L92.5866 16.9121C91.6599 16.7132 90.9849 16.3979 90.5617 15.9663C90.1385 15.5304 89.927 14.974 89.927 14.2969V14.2905C89.9312 13.7616 90.073 13.2961 90.3522 12.894C90.6358 12.492 91.0272 12.1789 91.5266 11.9546C92.0259 11.7303 92.5993 11.6182 93.2468 11.6182C93.8942 11.6182 94.4592 11.7303 94.9416 11.9546C95.4283 12.1746 95.8112 12.4751 96.0905 12.856C96.3741 13.2368 96.5328 13.6663 96.5666 14.1445L96.573 14.2271H95.1828L95.1701 14.1445C95.132 13.8949 95.0284 13.6727 94.8591 13.478C94.694 13.2834 94.4719 13.131 94.1926 13.021C93.9175 12.9067 93.5959 12.8517 93.2277 12.856C92.8723 12.856 92.5549 12.911 92.2756 13.021C91.9963 13.1268 91.7741 13.2812 91.6091 13.4844C91.4483 13.6875 91.3679 13.9329 91.3679 14.2207V14.2271C91.3679 14.5656 91.4969 14.8491 91.7551 15.0776C92.0175 15.3019 92.4427 15.4775 93.031 15.6045L94.0339 15.8267C94.6729 15.9621 95.1913 16.1419 95.5891 16.3662C95.9869 16.5905 96.2767 16.8677 96.4587 17.1978C96.6449 17.5236 96.738 17.9129 96.738 18.3657V18.3721C96.738 18.9561 96.5941 19.4618 96.3064 19.8892C96.0228 20.3123 95.6187 20.6403 95.0939 20.873C94.5692 21.1058 93.9514 21.2222 93.2404 21.2222ZM100.963 21.1333C100.294 21.1333 99.7165 20.9894 99.2298 20.7017C98.7474 20.4097 98.375 19.995 98.1126 19.4575C97.8503 18.9201 97.7191 18.279 97.7191 17.5342V17.5215C97.7191 16.7894 97.8482 16.1589 98.1063 15.6299C98.3687 15.1009 98.7411 14.6925 99.2235 14.4048C99.7101 14.117 100.288 13.9731 100.956 13.9731C101.536 13.9731 102.033 14.0747 102.448 14.2778C102.867 14.4767 103.199 14.7518 103.445 15.103C103.694 15.45 103.851 15.8457 103.914 16.29L103.921 16.3218H102.594L102.588 16.3091C102.512 15.9705 102.336 15.6891 102.061 15.4648C101.786 15.2363 101.42 15.1221 100.963 15.1221C100.582 15.1221 100.254 15.2194 99.9789 15.4141C99.7038 15.6045 99.4922 15.8796 99.3441 16.2393C99.2002 16.599 99.1283 17.0264 99.1283 17.5215V17.5342C99.1283 18.042 99.2023 18.4779 99.3504 18.8418C99.4985 19.2057 99.7101 19.4871 99.9852 19.686C100.26 19.8807 100.586 19.978 100.963 19.978C101.394 19.978 101.744 19.8828 102.01 19.6924C102.281 19.502 102.471 19.2205 102.581 18.8481L102.594 18.8164L103.914 18.8101L103.902 18.8672C103.821 19.3158 103.658 19.7093 103.413 20.0479C103.167 20.3864 102.84 20.653 102.429 20.8477C102.023 21.0381 101.534 21.1333 100.963 21.1333ZM105.086 21V14.1064H106.463V15.1475H106.571C106.694 14.7793 106.91 14.4937 107.219 14.2905C107.532 14.0874 107.917 13.9858 108.374 13.9858C108.488 13.9858 108.6 13.9922 108.71 14.0049C108.82 14.0176 108.909 14.0324 108.977 14.0493V15.3188C108.854 15.2935 108.732 15.2744 108.609 15.2617C108.49 15.249 108.366 15.2427 108.234 15.2427C107.883 15.2427 107.574 15.3104 107.308 15.4458C107.045 15.5812 106.838 15.7716 106.686 16.0171C106.537 16.2583 106.463 16.5461 106.463 16.8804V21H105.086ZM112.63 21.1333C111.958 21.1333 111.38 20.9894 110.898 20.7017C110.415 20.4097 110.043 19.9971 109.78 19.4639C109.522 18.9307 109.393 18.3001 109.393 17.5723V17.5659C109.393 16.8465 109.522 16.2181 109.78 15.6807C110.043 15.1432 110.411 14.7243 110.885 14.4238C111.363 14.1234 111.922 13.9731 112.561 13.9731C113.204 13.9731 113.756 14.117 114.217 14.4048C114.683 14.6925 115.04 15.0967 115.29 15.6172C115.54 16.1335 115.665 16.7386 115.665 17.4326V17.915H110.091V16.9312H114.979L114.319 17.8452V17.293C114.319 16.8021 114.243 16.3958 114.09 16.0742C113.942 15.7484 113.737 15.505 113.475 15.3442C113.212 15.1834 112.91 15.103 112.567 15.103C112.224 15.103 111.917 15.1877 111.647 15.3569C111.38 15.522 111.168 15.7674 111.012 16.0933C110.859 16.4191 110.783 16.819 110.783 17.293V17.8452C110.783 18.298 110.859 18.6852 111.012 19.0068C111.164 19.3285 111.38 19.5739 111.659 19.7432C111.943 19.9124 112.277 19.9971 112.662 19.9971C112.958 19.9971 113.212 19.9569 113.424 19.8765C113.64 19.7918 113.815 19.6882 113.951 19.5654C114.09 19.4427 114.186 19.3221 114.236 19.2036L114.262 19.1528H115.595L115.582 19.21C115.523 19.4385 115.419 19.667 115.271 19.8955C115.123 20.1198 114.926 20.325 114.681 20.5112C114.44 20.6974 114.148 20.8477 113.805 20.9619C113.466 21.0762 113.075 21.1333 112.63 21.1333ZM119.807 21.1333C119.134 21.1333 118.556 20.9894 118.074 20.7017C117.592 20.4097 117.219 19.9971 116.957 19.4639C116.699 18.9307 116.57 18.3001 116.57 17.5723V17.5659C116.57 16.8465 116.699 16.2181 116.957 15.6807C117.219 15.1432 117.587 14.7243 118.061 14.4238C118.539 14.1234 119.098 13.9731 119.737 13.9731C120.38 13.9731 120.933 14.117 121.394 14.4048C121.859 14.6925 122.217 15.0967 122.467 15.6172C122.716 16.1335 122.841 16.7386 122.841 17.4326V17.915H117.268V16.9312H122.156L121.495 17.8452V17.293C121.495 16.8021 121.419 16.3958 121.267 16.0742C121.119 15.7484 120.914 15.505 120.651 15.3442C120.389 15.1834 120.086 15.103 119.743 15.103C119.401 15.103 119.094 15.1877 118.823 15.3569C118.556 15.522 118.345 15.7674 118.188 16.0933C118.036 16.4191 117.96 16.819 117.96 17.293V17.8452C117.96 18.298 118.036 18.6852 118.188 19.0068C118.341 19.3285 118.556 19.5739 118.836 19.7432C119.119 19.9124 119.454 19.9971 119.839 19.9971C120.135 19.9971 120.389 19.9569 120.6 19.8765C120.816 19.7918 120.992 19.6882 121.127 19.5654C121.267 19.4427 121.362 19.3221 121.413 19.2036L121.438 19.1528H122.771L122.759 19.21C122.699 19.4385 122.596 19.667 122.448 19.8955C122.299 20.1198 122.103 20.325 121.857 20.5112C121.616 20.6974 121.324 20.8477 120.981 20.9619C120.643 21.0762 120.251 21.1333 119.807 21.1333ZM124.089 21V14.1064H125.466V15.1475H125.574C125.743 14.7793 125.993 14.4915 126.323 14.2842C126.653 14.0768 127.07 13.9731 127.574 13.9731C128.348 13.9731 128.941 14.1953 129.351 14.6396C129.761 15.084 129.967 15.7166 129.967 16.5376V21H128.583V16.8613C128.583 16.2858 128.462 15.8584 128.221 15.5791C127.984 15.2956 127.612 15.1538 127.104 15.1538C126.77 15.1538 126.48 15.2279 126.234 15.376C125.989 15.5199 125.798 15.7272 125.663 15.998C125.532 16.2646 125.466 16.5841 125.466 16.9565V21H124.089Z" fill="#007AFF"/>
</svg>
