<svg width="17" height="18" viewBox="0 0 17 18" fill="none" xmlns="http://www.w3.org/2000/svg">
<g clip-path="url(#clip0_837_410)">
<mask id="mask0_837_410" style="mask-type:luminance" maskUnits="userSpaceOnUse" x="0" y="0" width="17" height="18">
<path d="M17 0.5H0V17.5H17V0.5Z" fill="white"/>
</mask>
<g mask="url(#mask0_837_410)">
<path d="M16.984 13.7512C16.983 14.2444 16.885 14.7325 16.696 15.1878C16.506 15.6431 16.229 16.0566 15.88 16.4047C15.532 16.7528 15.118 17.0287 14.662 17.2166C14.207 17.4046 13.719 17.5009 13.226 17.5L3.74401 17.4834C2.74901 17.4817 1.796 17.0844 1.094 16.3789C0.392002 15.6734 -0.00199242 14.7175 7.57726e-06 13.7216L0.016014 4.24879C0.017014 3.75563 0.115008 3.26747 0.304008 2.81218C0.494008 2.3569 0.771003 1.94339 1.12 1.59529C1.468 1.24718 1.88201 0.971286 2.33801 0.783356C2.79301 0.595426 3.28101 0.499146 3.77401 0.500006L13.256 0.516576C14.251 0.518316 15.204 0.915636 15.906 1.62113C16.608 2.32661 17.002 3.28247 17 4.27844L16.984 13.7512ZM15.759 4.45072C15.759 4.09929 15.691 3.75117 15.557 3.42625C15.423 3.10133 15.227 2.80597 14.979 2.55703C14.731 2.30809 14.437 2.11045 14.113 1.97539C13.789 1.84034 13.442 1.77051 13.091 1.76989L3.924 1.75387C3.573 1.75325 3.22501 1.82186 2.90101 1.95578C2.57601 2.0897 2.28101 2.28631 2.03201 2.53438C1.78401 2.78244 1.586 3.07712 1.452 3.40156C1.317 3.72601 1.24701 4.07389 1.24601 4.42532L1.23101 13.4839C1.23001 13.8353 1.29801 14.1834 1.43201 14.5083C1.56601 14.8333 1.762 15.1286 2.01 15.3776C2.258 15.6265 2.55201 15.8241 2.87601 15.9592C3.20001 16.0943 3.54801 16.1641 3.89901 16.1647L13.065 16.1807C13.416 16.1813 13.764 16.1127 14.089 15.9788C14.413 15.8449 14.708 15.6483 14.957 15.4002C15.205 15.1522 15.403 14.8575 15.538 14.533C15.672 14.2086 15.742 13.8607 15.743 13.5093L15.759 4.45072Z" fill="black"/>
<path d="M12.1893 8.51953H5.13272C4.77843 8.51953 4.49121 8.80674 4.49121 9.16104C4.49121 9.51534 4.77843 9.80255 5.13272 9.80255H12.1893C12.5436 9.80255 12.8308 9.51534 12.8308 9.16104C12.8308 8.80674 12.5436 8.51953 12.1893 8.51953Z" fill="black"/>
<path d="M9.30182 12.6883V5.63174C9.30182 5.27744 9.0146 4.99023 8.66031 4.99023C8.30601 4.99023 8.0188 5.27744 8.0188 5.63174V12.6883C8.0188 13.0426 8.30601 13.3298 8.66031 13.3298C9.0146 13.3298 9.30182 13.0426 9.30182 12.6883Z" fill="black"/>
</g>
</g>
<defs>
<clipPath id="clip0_837_410">
<rect width="17" height="17" fill="white" transform="translate(0 0.5)"/>
</clipPath>
</defs>
</svg>
