<svg width="19" height="20" viewBox="0 0 19 20" fill="none" xmlns="http://www.w3.org/2000/svg">
<mask id="mask0_880_301" style="mask-type:luminance" maskUnits="userSpaceOnUse" x="1" y="1" width="17" height="18">
<path d="M18 1H1V19H18V1Z" fill="white"/>
</mask>
<g mask="url(#mask0_880_301)">
<mask id="mask1_880_301" style="mask-type:luminance" maskUnits="userSpaceOnUse" x="1" y="1" width="17" height="18">
<path d="M18 1.5H1V18.5H18V1.5Z" fill="white"/>
</mask>
<g mask="url(#mask1_880_301)">
<mask id="mask2_880_301" style="mask-type:luminance" maskUnits="userSpaceOnUse" x="1" y="1" width="17" height="18">
<path d="M18 1.5H1V18.5H18V1.5Z" fill="white"/>
</mask>
<g mask="url(#mask2_880_301)">
<path d="M17.984 14.7512C17.983 15.2444 17.885 15.7325 17.696 16.1878C17.506 16.6431 17.229 17.0566 16.88 17.4047C16.532 17.7528 16.118 18.0287 15.662 18.2166C15.207 18.4046 14.719 18.5009 14.226 18.5L4.74401 18.4834C3.74901 18.4817 2.796 18.0844 2.094 17.3789C1.392 16.6734 0.998008 15.7175 1.00001 14.7216L1.01601 5.24879C1.01701 4.75563 1.11501 4.26747 1.30401 3.81218C1.49401 3.3569 1.771 2.94339 2.12 2.59529C2.468 2.24718 2.88201 1.97129 3.33801 1.78336C3.79301 1.59543 4.28101 1.49914 4.77401 1.50001L14.256 1.51658C15.251 1.51832 16.204 1.91564 16.906 2.62113C17.608 3.32661 18.002 4.28247 18 5.27844L17.984 14.7512ZM16.759 5.45072C16.759 5.09929 16.691 4.75117 16.557 4.42625C16.423 4.10133 16.227 3.80597 15.979 3.55703C15.731 3.30809 15.437 3.11045 15.113 2.97539C14.789 2.84034 14.442 2.77051 14.091 2.76989L4.924 2.75387C4.573 2.75325 4.22501 2.82186 3.90101 2.95578C3.57601 3.0897 3.28101 3.28631 3.03201 3.53438C2.78401 3.78244 2.586 4.07712 2.452 4.40156C2.317 4.72601 2.24701 5.07389 2.24601 5.42532L2.23101 14.4839C2.23001 14.8353 2.29801 15.1834 2.43201 15.5083C2.56601 15.8333 2.762 16.1286 3.01 16.3776C3.258 16.6265 3.55201 16.8241 3.87601 16.9592C4.20001 17.0943 4.54801 17.1641 4.89901 17.1647L14.065 17.1807C14.416 17.1813 14.764 17.1127 15.089 16.9788C15.413 16.8449 15.708 16.6483 15.957 16.4002C16.205 16.1522 16.403 15.8575 16.538 15.533C16.672 15.2086 16.742 14.8607 16.743 14.5093L16.759 5.45072Z" fill="#007AFF"/>
<path d="M13.1903 9.51953H6.1337C5.77941 9.51953 5.49219 9.80674 5.49219 10.161C5.49219 10.5153 5.77941 10.8026 6.1337 10.8026H13.1903C13.5446 10.8026 13.8318 10.5153 13.8318 10.161C13.8318 9.80674 13.5446 9.51953 13.1903 9.51953Z" fill="#007AFF"/>
<path d="M10.3026 13.6883V6.63174C10.3026 6.27744 10.0153 5.99023 9.66104 5.99023C9.30674 5.99023 9.01953 6.27744 9.01953 6.63174V13.6883C9.01953 14.0426 9.30674 14.3298 9.66104 14.3298C10.0153 14.3298 10.3026 14.0426 10.3026 13.6883Z" fill="#007AFF"/>
</g>
</g>
</g>
</svg>
