<svg width="51" height="52" viewBox="0 0 51 52" fill="none" xmlns="http://www.w3.org/2000/svg">
<path d="M14.8 46.2H35.6C37.4 46.2 38.7 45.8 39.6 44.9C40.5 44 40.9 42.7 40.9 41V22.4C40.9 20.7 40.5 19.4 39.6 18.5C38.7 17.6 37.4 17.2 35.6 17.2H30.5V19.4H35.6C36.6 19.4 37.4 19.7 37.9 20.2C38.4 20.7 38.7 21.5 38.7 22.6V40.8C38.7 41.8 38.4 42.6 37.9 43.2C37.4 43.8 36.6 44 35.6 44H14.9C13.9 44 13.1 43.7 12.6 43.2C12.1 42.7 11.8 41.9 11.8 40.8V22.5C11.8 21.5 12.1 20.7 12.6 20.1C13.1 19.5 13.9 19.3 14.9 19.3H20V17.1H14.8C13 17.1 11.7 17.5 10.8 18.4C9.9 19.3 9.5 20.7 9.5 22.4V40.9C9.5 42.6 9.9 44 10.8 44.8C11.7 45.6 13.1 46.2 14.8 46.2ZM25.2 32.3C25.5 32.3 25.8 32.2 26 32C26.2 31.8 26.3 31.5 26.3 31.2V11.7L26.2 9.1L27.8 10.8L30.9 14C31.1 14.2 31.4 14.3 31.7 14.3C32 14.3 32.2 14.2 32.4 14C32.6 13.8 32.7 13.6 32.7 13.3C32.7 13 32.6 12.8 32.4 12.6L26 6.4C25.9 6.3 25.7 6.2 25.6 6.1C25.5 6 25.4 6 25.2 6C25.1 6 24.9 6 24.8 6.1C24.7 6.2 24.5 6.3 24.4 6.4L18.1 12.6C17.8 12.8 17.7 13 17.7 13.3C17.7 13.6 17.8 13.8 18 14C18.2 14.2 18.4 14.3 18.7 14.3C19 14.3 19.3 14.2 19.5 14L22.6 10.8L24.2 9.1L24.1 11.7V31.2C24.1 31.5 24.2 31.7 24.4 32C24.6 32.3 24.9 32.3 25.2 32.3Z" fill="#007AFF"/>
</svg>
