<svg width="48" height="49" viewBox="0 0 48 49" fill="none" xmlns="http://www.w3.org/2000/svg">
<path d="M11 46.5C10.2 46.5 9.5 46.2 8.9 45.6C8.3 45 8 44.3 8 43.5V18.05C8 17.25 8.3 16.55 8.9 15.95C9.5 15.35 10.2 15.05 11 15.05H19.45V18.05H11V43.5H37V18.05H28.45V15.05H37C37.8 15.05 38.5 15.35 39.1 15.95C39.7 16.55 40 17.25 40 18.05V43.5C40 44.3 39.7 45 39.1 45.6C38.5 46.2 37.8 46.5 37 46.5H11ZM22.45 31.15V8.3L18.05 12.7L15.9 10.55L23.95 2.5L32 10.55L29.85 12.7L25.45 8.3V31.15H22.45Z" fill="black"/>
</svg>
