<svg width="18" height="24" viewBox="0 0 18 24" fill="none" xmlns="http://www.w3.org/2000/svg">
<g clip-path="url(#clip0_839_603)">
<mask id="mask0_839_603" style="mask-type:luminance" maskUnits="userSpaceOnUse" x="0" y="1" width="18" height="22">
<path d="M17.5 1H0.5V23H17.5V1Z" fill="white"/>
</mask>
<g mask="url(#mask0_839_603)">
<path d="M3.26815 22.1993H14.1318C15.072 22.1993 15.751 21.9904 16.221 21.5203C16.6911 21.0502 16.9 20.3712 16.9 19.4834V9.76873C16.9 8.88083 16.6911 8.20185 16.221 7.73179C15.751 7.26172 15.072 7.05281 14.1318 7.05281H11.4682V8.20185H14.1318C14.6541 8.20185 15.072 8.35854 15.3331 8.61969C15.5943 8.88083 15.751 9.29867 15.751 9.87319V19.3789C15.751 19.9012 15.5943 20.319 15.3331 20.6324C15.072 20.9458 14.6541 21.0502 14.1318 21.0502H3.32038C2.79809 21.0502 2.38025 20.8935 2.11911 20.6324C1.85796 20.3712 1.70127 19.9534 1.70127 19.3789V9.82096C1.70127 9.29867 1.85796 8.88083 2.11911 8.56746C2.38025 8.25408 2.79809 8.14962 3.32038 8.14962H5.98408V7.00058H3.26815C2.32803 7.00058 1.64904 7.2095 1.17898 7.67956C0.708917 8.14962 0.5 8.88083 0.5 9.76873V19.4311C0.5 20.319 0.708917 21.0502 1.17898 21.4681C1.64904 21.8859 2.38025 22.1993 3.26815 22.1993ZM8.7 14.9394C8.85669 14.9394 9.01338 14.8872 9.11783 14.7827C9.22229 14.6783 9.27452 14.5216 9.27452 14.3649V4.1802L9.22229 2.82223L10.058 3.71013L11.6771 5.38147C11.7815 5.48593 11.9382 5.53816 12.0949 5.53816C12.2516 5.53816 12.3561 5.48593 12.4605 5.38147C12.565 5.27701 12.6172 5.17255 12.6172 5.01587C12.6172 4.85918 12.565 4.75472 12.4605 4.65026L9.11783 1.41204C9.0656 1.35981 8.96115 1.30758 8.90892 1.25536C8.85669 1.20312 8.80446 1.20312 8.7 1.20312C8.64777 1.20312 8.54331 1.20312 8.49108 1.25536C8.43885 1.30758 8.33439 1.35981 8.28217 1.41204L4.99172 4.65026C4.83503 4.75472 4.7828 4.85918 4.7828 5.01587C4.7828 5.17255 4.83503 5.27701 4.93949 5.38147C5.04395 5.48593 5.14841 5.53816 5.3051 5.53816C5.46178 5.53816 5.61847 5.48593 5.72293 5.38147L7.34204 3.71013L8.17771 2.82223L8.12548 4.1802V14.3649C8.12548 14.5216 8.17771 14.626 8.28217 14.7827C8.38662 14.9394 8.54331 14.9394 8.7 14.9394Z" fill="#007AFF"/>
</g>
</g>
<defs>
<clipPath id="clip0_839_603">
<rect width="17" height="23" fill="white" transform="translate(0.5 0.5)"/>
</clipPath>
</defs>
</svg>
