<svg width="17" height="24" viewBox="0 0 17 24" fill="none" xmlns="http://www.w3.org/2000/svg">
<mask id="mask0_872_458" style="mask-type:luminance" maskUnits="userSpaceOnUse" x="0" y="0" width="17" height="24">
<path d="M16.5 0.5H0.5V23.5H16.5V0.5Z" fill="white"/>
</mask>
<g mask="url(#mask0_872_458)">
<mask id="mask1_872_458" style="mask-type:luminance" maskUnits="userSpaceOnUse" x="0" y="1" width="17" height="22">
<path d="M16.5 1H0.5V23H16.5V1Z" fill="white"/>
</mask>
<g mask="url(#mask1_872_458)">
<mask id="mask2_872_458" style="mask-type:luminance" maskUnits="userSpaceOnUse" x="0" y="1" width="17" height="22">
<path d="M16.5 1H0.5V23H16.5V1Z" fill="white"/>
</mask>
<g mask="url(#mask2_872_458)">
<path d="M2 23C1.6 23 1.25 22.85 0.95 22.55C0.65 22.25 0.5 21.9 0.5 21.5V8.775C0.5 8.375 0.65 8.025 0.95 7.725C1.25 7.425 1.6 7.275 2 7.275H6.225V8.775H2V21.5H15V8.775H10.725V7.275H15C15.4 7.275 15.75 7.425 16.05 7.725C16.35 8.025 16.5 8.375 16.5 8.775V21.5C16.5 21.9 16.35 22.25 16.05 22.55C15.75 22.85 15.4 23 15 23H2ZM7.725 15.325V3.9L5.525 6.1L4.45 5.025L8.475 1L12.5 5.025L11.425 6.1L9.225 3.9V15.325H7.725Z" fill="#3A3838"/>
</g>
</g>
</g>
</svg>
