<svg width="162" height="32" viewBox="0 0 162 32" fill="none" xmlns="http://www.w3.org/2000/svg">
<path d="M152.484 20.2512C152.483 20.7444 152.385 21.2325 152.196 21.6878C152.006 22.1431 151.729 22.5566 151.38 22.9047C151.032 23.2528 150.618 23.5287 150.162 23.7166C149.707 23.9046 149.219 24.0009 148.726 24L139.244 23.9834C138.249 23.9817 137.296 23.5844 136.594 22.8789C135.892 22.1734 135.498 21.2175 135.5 20.2216L135.516 10.7488C135.517 10.2556 135.615 9.76747 135.804 9.31218C135.994 8.8569 136.271 8.44339 136.62 8.09529C136.968 7.74718 137.382 7.47129 137.838 7.28336C138.293 7.09543 138.781 6.99915 139.274 7.00001L148.756 7.01658C149.751 7.01832 150.704 7.41564 151.406 8.12113C152.108 8.82661 152.502 9.78247 152.5 10.7784L152.484 20.2512ZM151.259 10.9507C151.259 10.5993 151.191 10.2512 151.057 9.92625C150.923 9.60133 150.727 9.30597 150.479 9.05703C150.231 8.80809 149.937 8.61045 149.613 8.47539C149.289 8.34034 148.942 8.27051 148.591 8.26989L139.424 8.25387C139.073 8.25325 138.725 8.32186 138.401 8.45578C138.076 8.5897 137.781 8.78631 137.532 9.03438C137.284 9.28244 137.086 9.57712 136.952 9.90156C136.817 10.226 136.747 10.5739 136.746 10.9253L136.731 19.9839C136.73 20.3353 136.798 20.6834 136.932 21.0083C137.066 21.3333 137.262 21.6286 137.51 21.8776C137.758 22.1265 138.052 22.3241 138.376 22.4592C138.7 22.5943 139.048 22.6641 139.399 22.6647L148.565 22.6807C148.916 22.6813 149.264 22.6127 149.589 22.4788C149.913 22.3449 150.208 22.1483 150.457 21.9002C150.705 21.6522 150.903 21.3575 151.038 21.033C151.172 20.7086 151.242 20.3607 151.243 20.0093L151.259 10.9507Z" fill="black"/>
<path d="M147.689 15.0195H140.632C140.278 15.0195 139.991 15.3067 139.991 15.661C139.991 16.0153 140.278 16.3026 140.632 16.3026H147.689C148.043 16.3026 148.331 16.0153 148.331 15.661C148.331 15.3067 148.043 15.0195 147.689 15.0195Z" fill="black"/>
<path d="M144.802 19.1883V12.1317C144.802 11.7774 144.515 11.4902 144.16 11.4902C143.806 11.4902 143.519 11.7774 143.519 12.1317V19.1883C143.519 19.5426 143.806 19.8298 144.16 19.8298C144.515 19.8298 144.802 19.5426 144.802 19.1883Z" fill="black"/>
<path d="M8.94434 21L12.2515 11.8403H13.4004V13.4463H12.9688L10.4424 21H8.94434ZM10.5376 18.5244L10.9375 17.3818H15.1079L15.5078 18.5244H10.5376ZM15.5967 21L13.0767 13.4463V11.8403H13.7939L17.0947 21H15.5967ZM20.2721 21.1143C19.6966 21.1143 19.193 20.9704 18.7614 20.6826C18.334 20.3906 18.0018 19.978 17.7648 19.4448C17.532 18.9116 17.4157 18.2832 17.4157 17.5596V17.5469C17.4157 16.819 17.532 16.1885 17.7648 15.6553C17.9975 15.1221 18.3276 14.7116 18.755 14.4238C19.1824 14.1318 19.6881 13.9858 20.2721 13.9858C20.5895 13.9858 20.8857 14.0366 21.1608 14.1382C21.4358 14.2355 21.6792 14.3752 21.8908 14.5571C22.1023 14.7349 22.2695 14.9486 22.3922 15.1982H22.4938V11.4023H23.8776V21H22.4938V19.9146H22.3922C22.2568 20.1642 22.0854 20.38 21.8781 20.562C21.6707 20.7397 21.4316 20.8773 21.1608 20.9746C20.8899 21.0677 20.5937 21.1143 20.2721 21.1143ZM20.6657 19.9336C21.0465 19.9336 21.3766 19.8384 21.6559 19.6479C21.9352 19.4575 22.1489 19.1846 22.297 18.8291C22.4451 18.4694 22.5192 18.0462 22.5192 17.5596V17.5469C22.5192 17.056 22.443 16.6328 22.2907 16.2773C22.1426 15.9219 21.9288 15.6489 21.6496 15.4585C21.3745 15.2638 21.0465 15.1665 20.6657 15.1665C20.2848 15.1665 19.9547 15.2638 19.6754 15.4585C19.4004 15.6489 19.1888 15.9219 19.0407 16.2773C18.8968 16.6286 18.8248 17.0518 18.8248 17.5469V17.5596C18.8248 18.0505 18.8968 18.4736 19.0407 18.8291C19.1888 19.1846 19.4004 19.4575 19.6754 19.6479C19.9547 19.8384 20.2848 19.9336 20.6657 19.9336ZM28.0452 21.1143C27.4697 21.1143 26.9661 20.9704 26.5345 20.6826C26.107 20.3906 25.7748 19.978 25.5379 19.4448C25.3051 18.9116 25.1887 18.2832 25.1887 17.5596V17.5469C25.1887 16.819 25.3051 16.1885 25.5379 15.6553C25.7706 15.1221 26.1007 14.7116 26.5281 14.4238C26.9555 14.1318 27.4612 13.9858 28.0452 13.9858C28.3626 13.9858 28.6588 14.0366 28.9339 14.1382C29.2089 14.2355 29.4523 14.3752 29.6638 14.5571C29.8754 14.7349 30.0426 14.9486 30.1653 15.1982H30.2669V11.4023H31.6507V21H30.2669V19.9146H30.1653C30.0299 20.1642 29.8585 20.38 29.6512 20.562C29.4438 20.7397 29.2047 20.8773 28.9339 20.9746C28.663 21.0677 28.3668 21.1143 28.0452 21.1143ZM28.4387 19.9336C28.8196 19.9336 29.1497 19.8384 29.429 19.6479C29.7083 19.4575 29.922 19.1846 30.0701 18.8291C30.2182 18.4694 30.2923 18.0462 30.2923 17.5596V17.5469C30.2923 17.056 30.2161 16.6328 30.0637 16.2773C29.9156 15.9219 29.7019 15.6489 29.4226 15.4585C29.1476 15.2638 28.8196 15.1665 28.4387 15.1665C28.0579 15.1665 27.7278 15.2638 27.4485 15.4585C27.1734 15.6489 26.9619 15.9219 26.8137 16.2773C26.6699 16.6286 26.5979 17.0518 26.5979 17.5469V17.5596C26.5979 18.0505 26.6699 18.4736 26.8137 18.8291C26.9619 19.1846 27.1734 19.4575 27.4485 19.6479C27.7278 19.8384 28.0579 19.9336 28.4387 19.9336ZM39.0591 21.0444C38.3059 21.0444 37.76 20.9006 37.4214 20.6128C37.0871 20.3208 36.92 19.8447 36.92 19.1846V15.1919H35.8409V14.1064H36.92V12.3672H38.3292V14.1064H39.8082V15.1919H38.3292V18.8481C38.3292 19.2205 38.4032 19.4893 38.5513 19.6543C38.6994 19.8151 38.9449 19.8955 39.2877 19.8955C39.3892 19.8955 39.476 19.8934 39.5479 19.8892C39.6241 19.8849 39.7108 19.8786 39.8082 19.8701V20.9746C39.6981 20.9915 39.5796 21.0063 39.4527 21.019C39.3257 21.036 39.1946 21.0444 39.0591 21.0444ZM43.8742 21.1333C43.2014 21.1333 42.6195 20.9894 42.1286 20.7017C41.642 20.4139 41.2674 20.0034 41.0051 19.4702C40.7427 18.9328 40.6115 18.2959 40.6115 17.5596V17.5469C40.6115 16.8063 40.7427 16.1694 41.0051 15.6362C41.2717 15.103 41.6483 14.6925 42.135 14.4048C42.6258 14.117 43.2056 13.9731 43.8742 13.9731C44.5471 13.9731 45.1268 14.117 45.6135 14.4048C46.1001 14.6883 46.4746 15.0988 46.737 15.6362C47.0036 16.1694 47.1369 16.8063 47.1369 17.5469V17.5596C47.1369 18.2959 47.0036 18.9328 46.737 19.4702C46.4746 20.0034 46.1001 20.4139 45.6135 20.7017C45.1311 20.9894 44.5513 21.1333 43.8742 21.1333ZM43.8742 19.978C44.2678 19.978 44.6021 19.8828 44.8771 19.6924C45.1522 19.4977 45.3617 19.2205 45.5056 18.8608C45.6494 18.5011 45.7214 18.0674 45.7214 17.5596V17.5469C45.7214 17.0348 45.6494 16.599 45.5056 16.2393C45.3617 15.8796 45.1522 15.6045 44.8771 15.4141C44.6021 15.2194 44.2678 15.1221 43.8742 15.1221C43.4807 15.1221 43.1464 15.2194 42.8713 15.4141C42.5962 15.6045 42.3846 15.8796 42.2365 16.2393C42.0926 16.599 42.0207 17.0348 42.0207 17.5469V17.5596C42.0207 18.0674 42.0926 18.5011 42.2365 18.8608C42.3846 19.2205 42.5962 19.4977 42.8713 19.6924C43.1464 19.8828 43.4807 19.978 43.8742 19.978ZM51.6953 21V11.8403H53.1172V15.7124H57.8144V11.8403H59.2427V21H57.8144V16.9438H53.1172V21H51.6953ZM63.9181 21.1333C63.2452 21.1333 62.6634 20.9894 62.1725 20.7017C61.6858 20.4139 61.3113 20.0034 61.0489 19.4702C60.7866 18.9328 60.6554 18.2959 60.6554 17.5596V17.5469C60.6554 16.8063 60.7866 16.1694 61.0489 15.6362C61.3155 15.103 61.6922 14.6925 62.1788 14.4048C62.6697 14.117 63.2495 13.9731 63.9181 13.9731C64.5909 13.9731 65.1707 14.117 65.6573 14.4048C66.144 14.6883 66.5185 15.0988 66.7809 15.6362C67.0475 16.1694 67.1808 16.8063 67.1808 17.5469V17.5596C67.1808 18.2959 67.0475 18.9328 66.7809 19.4702C66.5185 20.0034 66.144 20.4139 65.6573 20.7017C65.1749 20.9894 64.5952 21.1333 63.9181 21.1333ZM63.9181 19.978C64.3116 19.978 64.646 19.8828 64.921 19.6924C65.1961 19.4977 65.4056 19.2205 65.5494 18.8608C65.6933 18.5011 65.7653 18.0674 65.7653 17.5596V17.5469C65.7653 17.0348 65.6933 16.599 65.5494 16.2393C65.4056 15.8796 65.1961 15.6045 64.921 15.4141C64.646 15.2194 64.3116 15.1221 63.9181 15.1221C63.5245 15.1221 63.1902 15.2194 62.9152 15.4141C62.6401 15.6045 62.4285 15.8796 62.2804 16.2393C62.1365 16.599 62.0646 17.0348 62.0646 17.5469V17.5596C62.0646 18.0674 62.1365 18.5011 62.2804 18.8608C62.4285 19.2205 62.6401 19.4977 62.9152 19.6924C63.1902 19.8828 63.5245 19.978 63.9181 19.978ZM68.4285 21V14.1064H69.8059V15.1665H69.9138C70.0662 14.7856 70.3032 14.4915 70.6248 14.2842C70.9506 14.0768 71.3399 13.9731 71.7927 13.9731C72.1059 13.9731 72.3873 14.0239 72.637 14.1255C72.8866 14.2271 73.1004 14.3709 73.2781 14.5571C73.4601 14.7391 73.6018 14.9549 73.7034 15.2046H73.8113C73.9255 14.9549 74.0864 14.7391 74.2937 14.5571C74.5011 14.3709 74.7423 14.2271 75.0173 14.1255C75.2966 14.0239 75.5929 13.9731 75.906 13.9731C76.3715 13.9731 76.7693 14.0641 77.0994 14.2461C77.4295 14.4238 77.6812 14.682 77.8547 15.0205C78.0283 15.359 78.115 15.7674 78.115 16.2456V21H76.7376V16.5757C76.7376 16.2583 76.6889 15.9959 76.5916 15.7886C76.4942 15.577 76.3461 15.4183 76.1472 15.3125C75.9526 15.2067 75.7071 15.1538 75.4109 15.1538C75.1189 15.1538 74.8629 15.2215 74.6428 15.3569C74.427 15.4881 74.2577 15.6659 74.135 15.8901C74.0165 16.1102 73.9573 16.3599 73.9573 16.6392V21H72.5798V16.436C72.5798 16.1737 72.5248 15.9473 72.4148 15.7568C72.309 15.5622 72.1567 15.4141 71.9578 15.3125C71.7589 15.2067 71.524 15.1538 71.2532 15.1538C70.9781 15.1538 70.7306 15.2257 70.5105 15.3696C70.2947 15.5135 70.1233 15.7082 69.9963 15.9536C69.8694 16.1948 69.8059 16.4657 69.8059 16.7661V21H68.4285ZM82.5492 21.1333C81.8764 21.1333 81.2987 20.9894 80.8163 20.7017C80.3339 20.4097 79.9615 19.9971 79.6991 19.4639C79.441 18.9307 79.3119 18.3001 79.3119 17.5723V17.5659C79.3119 16.8465 79.441 16.2181 79.6991 15.6807C79.9615 15.1432 80.3297 14.7243 80.8036 14.4238C81.2818 14.1234 81.8404 13.9731 82.4794 13.9731C83.1226 13.9731 83.6749 14.117 84.1361 14.4048C84.6016 14.6925 84.9592 15.0967 85.2089 15.6172C85.4586 16.1335 85.5834 16.7386 85.5834 17.4326V17.915H80.0102V16.9312H84.8979L84.2377 17.8452V17.293C84.2377 16.8021 84.1615 16.3958 84.0092 16.0742C83.8611 15.7484 83.6558 15.505 83.3935 15.3442C83.1311 15.1834 82.8285 15.103 82.4857 15.103C82.143 15.103 81.8362 15.1877 81.5653 15.3569C81.2987 15.522 81.0871 15.7674 80.9306 16.0933C80.7782 16.4191 80.702 16.819 80.702 17.293V17.8452C80.702 18.298 80.7782 18.6852 80.9306 19.0068C81.0829 19.3285 81.2987 19.5739 81.578 19.7432C81.8616 19.9124 82.1959 19.9971 82.581 19.9971C82.8772 19.9971 83.1311 19.9569 83.3427 19.8765C83.5585 19.7918 83.7341 19.6882 83.8695 19.5654C84.0092 19.4427 84.1044 19.3221 84.1552 19.2036L84.1806 19.1528H85.5136L85.5009 19.21C85.4416 19.4385 85.338 19.667 85.1898 19.8955C85.0417 20.1198 84.845 20.325 84.5995 20.5112C84.3583 20.6974 84.0663 20.8477 83.7235 20.9619C83.385 21.0762 82.9936 21.1333 82.5492 21.1333ZM93.2394 21.2222C92.5497 21.2222 91.9487 21.1143 91.4367 20.8984C90.9247 20.6784 90.5205 20.3737 90.2243 19.9844C89.9281 19.5951 89.7588 19.1444 89.7165 18.6323L89.7101 18.5498H91.113L91.1193 18.6196C91.1489 18.8947 91.2568 19.1338 91.443 19.3369C91.6335 19.54 91.8874 19.6987 92.2048 19.813C92.5264 19.9272 92.8924 19.9844 93.3029 19.9844C93.688 19.9844 94.0308 19.923 94.3312 19.8003C94.6317 19.6776 94.8665 19.5083 95.0358 19.2925C95.2093 19.0767 95.2961 18.8291 95.2961 18.5498V18.5435C95.2961 18.1922 95.1628 17.9002 94.8962 17.6675C94.6296 17.4347 94.1937 17.2528 93.5886 17.1216L92.5856 16.9121C91.6589 16.7132 90.9839 16.3979 90.5607 15.9663C90.1375 15.5304 89.926 14.974 89.926 14.2969V14.2905C89.9302 13.7616 90.072 13.2961 90.3512 12.894C90.6348 12.492 91.0262 12.1789 91.5256 11.9546C92.0249 11.7303 92.5983 11.6182 93.2458 11.6182C93.8932 11.6182 94.4582 11.7303 94.9406 11.9546C95.4273 12.1746 95.8102 12.4751 96.0895 12.856C96.3731 13.2368 96.5318 13.6663 96.5656 14.1445L96.572 14.2271H95.1818L95.1691 14.1445C95.131 13.8949 95.0274 13.6727 94.8581 13.478C94.693 13.2834 94.4709 13.131 94.1916 13.021C93.9165 12.9067 93.5949 12.8517 93.2267 12.856C92.8713 12.856 92.5539 12.911 92.2746 13.021C91.9953 13.1268 91.7731 13.2812 91.6081 13.4844C91.4473 13.6875 91.3669 13.9329 91.3669 14.2207V14.2271C91.3669 14.5656 91.4959 14.8491 91.7541 15.0776C92.0165 15.3019 92.4417 15.4775 93.03 15.6045L94.0329 15.8267C94.6719 15.9621 95.1903 16.1419 95.5881 16.3662C95.9859 16.5905 96.2757 16.8677 96.4577 17.1978C96.6439 17.5236 96.737 17.9129 96.737 18.3657V18.3721C96.737 18.9561 96.5931 19.4618 96.3054 19.8892C96.0218 20.3123 95.6177 20.6403 95.0929 20.873C94.5682 21.1058 93.9504 21.2222 93.2394 21.2222ZM100.962 21.1333C100.293 21.1333 99.7155 20.9894 99.2288 20.7017C98.7464 20.4097 98.374 19.995 98.1116 19.4575C97.8493 18.9201 97.7181 18.279 97.7181 17.5342V17.5215C97.7181 16.7894 97.8472 16.1589 98.1053 15.6299C98.3677 15.1009 98.7401 14.6925 99.2225 14.4048C99.7091 14.117 100.287 13.9731 100.955 13.9731C101.535 13.9731 102.032 14.0747 102.447 14.2778C102.866 14.4767 103.198 14.7518 103.444 15.103C103.693 15.45 103.85 15.8457 103.913 16.29L103.92 16.3218H102.593L102.587 16.3091C102.511 15.9705 102.335 15.6891 102.06 15.4648C101.785 15.2363 101.419 15.1221 100.962 15.1221C100.581 15.1221 100.253 15.2194 99.9779 15.4141C99.7028 15.6045 99.4912 15.8796 99.3431 16.2393C99.1992 16.599 99.1273 17.0264 99.1273 17.5215V17.5342C99.1273 18.042 99.2013 18.4779 99.3494 18.8418C99.4975 19.2057 99.7091 19.4871 99.9842 19.686C100.259 19.8807 100.585 19.978 100.962 19.978C101.393 19.978 101.743 19.8828 102.009 19.6924C102.28 19.502 102.47 19.2205 102.58 18.8481L102.593 18.8164L103.913 18.8101L103.901 18.8672C103.82 19.3158 103.657 19.7093 103.412 20.0479C103.166 20.3864 102.839 20.653 102.428 20.8477C102.022 21.0381 101.533 21.1333 100.962 21.1333ZM105.085 21V14.1064H106.462V15.1475H106.57C106.693 14.7793 106.909 14.4937 107.218 14.2905C107.531 14.0874 107.916 13.9858 108.373 13.9858C108.487 13.9858 108.599 13.9922 108.709 14.0049C108.819 14.0176 108.908 14.0324 108.976 14.0493V15.3188C108.853 15.2935 108.731 15.2744 108.608 15.2617C108.489 15.249 108.365 15.2427 108.233 15.2427C107.882 15.2427 107.573 15.3104 107.307 15.4458C107.044 15.5812 106.837 15.7716 106.685 16.0171C106.536 16.2583 106.462 16.5461 106.462 16.8804V21H105.085ZM112.629 21.1333C111.957 21.1333 111.379 20.9894 110.897 20.7017C110.414 20.4097 110.042 19.9971 109.779 19.4639C109.521 18.9307 109.392 18.3001 109.392 17.5723V17.5659C109.392 16.8465 109.521 16.2181 109.779 15.6807C110.042 15.1432 110.41 14.7243 110.884 14.4238C111.362 14.1234 111.921 13.9731 112.56 13.9731C113.203 13.9731 113.755 14.117 114.216 14.4048C114.682 14.6925 115.039 15.0967 115.289 15.6172C115.539 16.1335 115.664 16.7386 115.664 17.4326V17.915H110.09V16.9312H114.978L114.318 17.8452V17.293C114.318 16.8021 114.242 16.3958 114.089 16.0742C113.941 15.7484 113.736 15.505 113.474 15.3442C113.211 15.1834 112.909 15.103 112.566 15.103C112.223 15.103 111.916 15.1877 111.646 15.3569C111.379 15.522 111.167 15.7674 111.011 16.0933C110.858 16.4191 110.782 16.819 110.782 17.293V17.8452C110.782 18.298 110.858 18.6852 111.011 19.0068C111.163 19.3285 111.379 19.5739 111.658 19.7432C111.942 19.9124 112.276 19.9971 112.661 19.9971C112.957 19.9971 113.211 19.9569 113.423 19.8765C113.639 19.7918 113.814 19.6882 113.95 19.5654C114.089 19.4427 114.185 19.3221 114.235 19.2036L114.261 19.1528H115.594L115.581 19.21C115.522 19.4385 115.418 19.667 115.27 19.8955C115.122 20.1198 114.925 20.325 114.68 20.5112C114.439 20.6974 114.147 20.8477 113.804 20.9619C113.465 21.0762 113.074 21.1333 112.629 21.1333ZM119.806 21.1333C119.133 21.1333 118.555 20.9894 118.073 20.7017C117.591 20.4097 117.218 19.9971 116.956 19.4639C116.698 18.9307 116.569 18.3001 116.569 17.5723V17.5659C116.569 16.8465 116.698 16.2181 116.956 15.6807C117.218 15.1432 117.586 14.7243 118.06 14.4238C118.538 14.1234 119.097 13.9731 119.736 13.9731C120.379 13.9731 120.932 14.117 121.393 14.4048C121.858 14.6925 122.216 15.0967 122.466 15.6172C122.715 16.1335 122.84 16.7386 122.84 17.4326V17.915H117.267V16.9312H122.155L121.494 17.8452V17.293C121.494 16.8021 121.418 16.3958 121.266 16.0742C121.118 15.7484 120.913 15.505 120.65 15.3442C120.388 15.1834 120.085 15.103 119.742 15.103C119.4 15.103 119.093 15.1877 118.822 15.3569C118.555 15.522 118.344 15.7674 118.187 16.0933C118.035 16.4191 117.959 16.819 117.959 17.293V17.8452C117.959 18.298 118.035 18.6852 118.187 19.0068C118.34 19.3285 118.555 19.5739 118.835 19.7432C119.118 19.9124 119.453 19.9971 119.838 19.9971C120.134 19.9971 120.388 19.9569 120.599 19.8765C120.815 19.7918 120.991 19.6882 121.126 19.5654C121.266 19.4427 121.361 19.3221 121.412 19.2036L121.437 19.1528H122.77L122.758 19.21C122.698 19.4385 122.595 19.667 122.447 19.8955C122.298 20.1198 122.102 20.325 121.856 20.5112C121.615 20.6974 121.323 20.8477 120.98 20.9619C120.642 21.0762 120.25 21.1333 119.806 21.1333ZM124.088 21V14.1064H125.465V15.1475H125.573C125.742 14.7793 125.992 14.4915 126.322 14.2842C126.652 14.0768 127.069 13.9731 127.573 13.9731C128.347 13.9731 128.94 14.1953 129.35 14.6396C129.76 15.084 129.966 15.7166 129.966 16.5376V21H128.582V16.8613C128.582 16.2858 128.461 15.8584 128.22 15.5791C127.983 15.2956 127.611 15.1538 127.103 15.1538C126.769 15.1538 126.479 15.2279 126.233 15.376C125.988 15.5199 125.797 15.7272 125.662 15.998C125.531 16.2646 125.465 16.5841 125.465 16.9565V21H124.088Z" fill="black"/>
</svg>
