<svg width="50" height="51" viewBox="0 0 50 51" fill="none" xmlns="http://www.w3.org/2000/svg">
<path d="M14.3 45.7H35.1C36.9 45.7 38.2 45.3 39.1 44.4C40 43.5 40.4 42.2 40.4 40.5V21.9C40.4 20.2 40 18.9 39.1 18C38.2 17.1 36.9 16.7 35.1 16.7H30V18.9H35.1C36.1 18.9 36.9 19.2 37.4 19.7C37.9 20.2 38.2 21 38.2 22.1V40.3C38.2 41.3 37.9 42.1 37.4 42.7C36.9 43.3 36.1 43.5 35.1 43.5H14.4C13.4 43.5 12.6 43.2 12.1 42.7C11.6 42.2 11.3 41.4 11.3 40.3V22C11.3 21 11.6 20.2 12.1 19.6C12.6 19 13.4 18.8 14.4 18.8H19.5V16.6H14.3C12.5 16.6 11.2 17 10.3 17.9C9.4 18.8 9 20.2 9 21.9V40.4C9 42.1 9.4 43.5 10.3 44.3C11.2 45.1 12.6 45.7 14.3 45.7ZM24.7 31.8C25 31.8 25.3 31.7 25.5 31.5C25.7 31.3 25.8 31 25.8 30.7V11.2L25.7 8.6L27.3 10.3L30.4 13.5C30.6 13.7 30.9 13.8 31.2 13.8C31.5 13.8 31.7 13.7 31.9 13.5C32.1 13.3 32.2 13.1 32.2 12.8C32.2 12.5 32.1 12.3 31.9 12.1L25.5 5.9C25.4 5.8 25.2 5.7 25.1 5.6C25 5.5 24.9 5.5 24.7 5.5C24.6 5.5 24.4 5.5 24.3 5.6C24.2 5.7 24 5.8 23.9 5.9L17.6 12.1C17.3 12.3 17.2 12.5 17.2 12.8C17.2 13.1 17.3 13.3 17.5 13.5C17.7 13.7 17.9 13.8 18.2 13.8C18.5 13.8 18.8 13.7 19 13.5L22.1 10.3L23.7 8.6L23.6 11.2V30.7C23.6 31 23.7 31.2 23.9 31.5C24.1 31.8 24.4 31.8 24.7 31.8Z" fill="#007AFF"/>
</svg>
