<svg width="18" height="19" viewBox="0 0 18 19" fill="none" xmlns="http://www.w3.org/2000/svg">
<mask id="mask0_872_477" style="mask-type:luminance" maskUnits="userSpaceOnUse" x="0" y="0" width="18" height="19">
<path d="M17.5 0.5H0.5V18.5H17.5V0.5Z" fill="white"/>
</mask>
<g mask="url(#mask0_872_477)">
<mask id="mask1_872_477" style="mask-type:luminance" maskUnits="userSpaceOnUse" x="0" y="1" width="18" height="17">
<path d="M17.5 1H0.5V18H17.5V1Z" fill="white"/>
</mask>
<g mask="url(#mask1_872_477)">
<mask id="mask2_872_477" style="mask-type:luminance" maskUnits="userSpaceOnUse" x="0" y="1" width="18" height="17">
<path d="M17.5 1H0.5V18H17.5V1Z" fill="white"/>
</mask>
<g mask="url(#mask2_872_477)">
<path d="M17.484 14.2512C17.483 14.7444 17.385 15.2325 17.196 15.6878C17.006 16.1431 16.729 16.5566 16.38 16.9047C16.032 17.2528 15.618 17.5287 15.162 17.7166C14.707 17.9046 14.219 18.0009 13.726 18L4.24401 17.9834C3.24901 17.9817 2.296 17.5844 1.594 16.8789C0.892002 16.1734 0.498008 15.2175 0.500008 14.2216L0.516014 4.74879C0.517014 4.25563 0.615008 3.76747 0.804008 3.31218C0.994008 2.8569 1.271 2.44339 1.62 2.09529C1.968 1.74718 2.38201 1.47129 2.83801 1.28336C3.29301 1.09543 3.78101 0.999142 4.27401 1.00001L13.756 1.01658C14.751 1.01832 15.704 1.41564 16.406 2.12113C17.108 2.82661 17.502 3.78247 17.5 4.77844L17.484 14.2512ZM16.259 4.95072C16.259 4.59929 16.191 4.25117 16.057 3.92625C15.923 3.60133 15.727 3.30597 15.479 3.05703C15.231 2.80809 14.937 2.61045 14.613 2.47539C14.289 2.34034 13.942 2.27051 13.591 2.26989L4.424 2.25387C4.073 2.25325 3.72501 2.32186 3.40101 2.45578C3.07601 2.5897 2.78101 2.78631 2.53201 3.03438C2.28401 3.28244 2.086 3.57712 1.952 3.90156C1.817 4.22601 1.74701 4.57389 1.74601 4.92532L1.73101 13.9839C1.73001 14.3353 1.79801 14.6834 1.93201 15.0083C2.06601 15.3333 2.262 15.6286 2.51 15.8776C2.758 16.1265 3.05201 16.3241 3.37601 16.4592C3.70001 16.5943 4.04801 16.6641 4.39901 16.6647L13.565 16.6807C13.916 16.6813 14.264 16.6127 14.589 16.4788C14.913 16.3449 15.208 16.1483 15.457 15.9002C15.705 15.6522 15.903 15.3575 16.038 15.033C16.172 14.7086 16.242 14.3607 16.243 14.0093L16.259 4.95072Z" fill="#007AFF"/>
<path d="M12.6903 9.01953H5.6337C5.27941 9.01953 4.99219 9.30674 4.99219 9.66104C4.99219 10.0153 5.27941 10.3026 5.6337 10.3026H12.6903C13.0446 10.3026 13.3318 10.0153 13.3318 9.66104C13.3318 9.30674 13.0446 9.01953 12.6903 9.01953Z" fill="#007AFF"/>
<path d="M9.80255 13.1883V6.13174C9.80255 5.77744 9.51533 5.49023 9.16104 5.49023C8.80674 5.49023 8.51953 5.77744 8.51953 6.13174V13.1883C8.51953 13.5426 8.80674 13.8298 9.16104 13.8298C9.51533 13.8298 9.80255 13.5426 9.80255 13.1883Z" fill="#007AFF"/>
</g>
</g>
</g>
</svg>
