<svg width="17" height="23" viewBox="0 0 17 23" fill="none" xmlns="http://www.w3.org/2000/svg">
<g clip-path="url(#clip0_837_429)">
<path d="M2.76815 21.6993H13.6318C14.572 21.6993 15.251 21.4904 15.721 21.0203C16.1911 20.5502 16.4 19.8712 16.4 18.9834V9.26873C16.4 8.38083 16.1911 7.70185 15.721 7.23179C15.251 6.76172 14.572 6.55281 13.6318 6.55281H10.9682V7.70185H13.6318C14.1541 7.70185 14.572 7.85854 14.8331 8.11969C15.0943 8.38083 15.251 8.79867 15.251 9.37319V18.8789C15.251 19.4012 15.0943 19.819 14.8331 20.1324C14.572 20.4458 14.1541 20.5502 13.6318 20.5502H2.82038C2.29809 20.5502 1.88025 20.3935 1.61911 20.1324C1.35796 19.8712 1.20127 19.4534 1.20127 18.8789V9.32096C1.20127 8.79867 1.35796 8.38083 1.61911 8.06746C1.88025 7.75408 2.29809 7.64962 2.82038 7.64962H5.48408V6.50058H2.76815C1.82803 6.50058 1.14904 6.7095 0.678981 7.17956C0.208917 7.64962 0 8.38083 0 9.26873V18.9311C0 19.819 0.208917 20.5502 0.678981 20.9681C1.14904 21.3859 1.88025 21.6993 2.76815 21.6993ZM8.2 14.4394C8.35669 14.4394 8.51338 14.3872 8.61783 14.2827C8.72229 14.1783 8.77452 14.0216 8.77452 13.8649V3.6802L8.72229 2.32223L9.55796 3.21013L11.1771 4.88147C11.2815 4.98593 11.4382 5.03816 11.5949 5.03816C11.7516 5.03816 11.8561 4.98593 11.9605 4.88147C12.065 4.77701 12.1172 4.67255 12.1172 4.51587C12.1172 4.35918 12.065 4.25472 11.9605 4.15026L8.61783 0.912043C8.5656 0.859813 8.46115 0.807584 8.40892 0.755355C8.35669 0.703125 8.30446 0.703125 8.2 0.703125C8.14777 0.703125 8.04331 0.703125 7.99108 0.755355C7.93885 0.807584 7.83439 0.859813 7.78217 0.912043L4.49172 4.15026C4.33503 4.25472 4.2828 4.35918 4.2828 4.51587C4.2828 4.67255 4.33503 4.77701 4.43949 4.88147C4.54395 4.98593 4.64841 5.03816 4.8051 5.03816C4.96178 5.03816 5.11847 4.98593 5.22293 4.88147L6.84204 3.21013L7.67771 2.32223L7.62548 3.6802V13.8649C7.62548 14.0216 7.67771 14.126 7.78217 14.2827C7.88662 14.4394 8.04331 14.4394 8.2 14.4394Z" fill="#007AFF"/>
</g>
<defs>
<clipPath id="clip0_837_429">
<rect width="17" height="22" fill="white" transform="translate(0 0.5)"/>
</clipPath>
</defs>
</svg>
