<svg width="52" height="53" viewBox="0 0 52 53" fill="none" xmlns="http://www.w3.org/2000/svg">
<path d="M15.3 46.7H36.1C37.9 46.7 39.2 46.3 40.1 45.4C41 44.5 41.4 43.2 41.4 41.5V22.9C41.4 21.2 41 19.9 40.1 19C39.2 18.1 37.9 17.7 36.1 17.7H31V19.9H36.1C37.1 19.9 37.9 20.2 38.4 20.7C38.9 21.2 39.2 22 39.2 23.1V41.3C39.2 42.3 38.9 43.1 38.4 43.7C37.9 44.3 37.1 44.5 36.1 44.5H15.4C14.4 44.5 13.6 44.2 13.1 43.7C12.6 43.2 12.3 42.4 12.3 41.3V23C12.3 22 12.6 21.2 13.1 20.6C13.6 20 14.4 19.8 15.4 19.8H20.5V17.6H15.3C13.5 17.6 12.2 18 11.3 18.9C10.4 19.8 10 21.2 10 22.9V41.4C10 43.1 10.4 44.5 11.3 45.3C12.2 46.1 13.6 46.7 15.3 46.7ZM25.7 32.8C26 32.8 26.3 32.7 26.5 32.5C26.7 32.3 26.8 32 26.8 31.7V12.2L26.7 9.6L28.3 11.3L31.4 14.5C31.6 14.7 31.9 14.8 32.2 14.8C32.5 14.8 32.7 14.7 32.9 14.5C33.1 14.3 33.2 14.1 33.2 13.8C33.2 13.5 33.1 13.3 32.9 13.1L26.5 6.9C26.4 6.8 26.2 6.7 26.1 6.6C26 6.5 25.9 6.5 25.7 6.5C25.6 6.5 25.4 6.5 25.3 6.6C25.2 6.7 25 6.8 24.9 6.9L18.6 13.1C18.3 13.3 18.2 13.5 18.2 13.8C18.2 14.1 18.3 14.3 18.5 14.5C18.7 14.7 18.9 14.8 19.2 14.8C19.5 14.8 19.8 14.7 20 14.5L23.1 11.3L24.7 9.6L24.6 12.2V31.7C24.6 32 24.7 32.2 24.9 32.5C25.1 32.8 25.4 32.8 25.7 32.8Z" fill="#007AFF"/>
</svg>
