<svg width="19" height="25" viewBox="0 0 19 25" fill="none" xmlns="http://www.w3.org/2000/svg">
<mask id="mask0_880_323" style="mask-type:luminance" maskUnits="userSpaceOnUse" x="1" y="1" width="17" height="23">
<path d="M18 1H1V24H18V1Z" fill="white"/>
</mask>
<g mask="url(#mask0_880_323)">
<mask id="mask1_880_323" style="mask-type:luminance" maskUnits="userSpaceOnUse" x="1" y="1" width="17" height="23">
<path d="M18 1.5H1V23.5H18V1.5Z" fill="white"/>
</mask>
<g mask="url(#mask1_880_323)">
<path d="M3.76815 22.6993H14.6318C15.572 22.6993 16.251 22.4904 16.721 22.0203C17.1911 21.5502 17.4 20.8712 17.4 19.9834V10.2687C17.4 9.38083 17.1911 8.70186 16.721 8.2318C16.251 7.76173 15.572 7.55282 14.6318 7.55282H11.9682V8.70185H14.6318C15.1541 8.70185 15.572 8.85854 15.8331 9.11969C16.0943 9.38083 16.251 9.79867 16.251 10.3732V19.8789C16.251 20.4012 16.0943 20.819 15.8331 21.1324C15.572 21.4458 15.1541 21.5502 14.6318 21.5502H3.82038C3.29809 21.5502 2.88025 21.3935 2.61911 21.1324C2.35796 20.8712 2.20127 20.4534 2.20127 19.8789V10.321C2.20127 9.79867 2.35796 9.38083 2.61911 9.06746C2.88025 8.75408 3.29809 8.64962 3.82038 8.64962H6.48408V7.50058H3.76815C2.82803 7.50058 2.14904 7.70951 1.67898 8.17957C1.20892 8.64963 1 9.38083 1 10.2687V19.9311C1 20.819 1.20892 21.5502 1.67898 21.9681C2.14904 22.3859 2.88025 22.6993 3.76815 22.6993ZM9.2 15.4394C9.35669 15.4394 9.51338 15.3872 9.61783 15.2827C9.72229 15.1783 9.77452 15.0216 9.77452 14.8649V4.68022L9.72229 3.32225L10.558 4.21013L12.1771 5.88148C12.2815 5.98594 12.4382 6.03817 12.5949 6.03817C12.7516 6.03817 12.8561 5.98594 12.9605 5.88148C13.065 5.77702 13.1172 5.67257 13.1172 5.51589C13.1172 5.3592 13.065 5.25472 12.9605 5.15026L9.61783 1.91206C9.5656 1.85983 9.46115 1.8076 9.40892 1.75538C9.35669 1.70314 9.30446 1.70312 9.2 1.70312C9.14777 1.70312 9.04331 1.70314 8.99108 1.75538C8.93885 1.8076 8.83439 1.85983 8.78217 1.91206L5.49172 5.15026C5.33503 5.25472 5.2828 5.3592 5.2828 5.51589C5.2828 5.67257 5.33503 5.77702 5.43949 5.88148C5.54395 5.98594 5.64841 6.03817 5.8051 6.03817C5.96178 6.03817 6.11847 5.98594 6.22293 5.88148L7.84204 4.21013L8.67771 3.32225L8.62548 4.68022V14.8649C8.62548 15.0216 8.67771 15.126 8.78217 15.2827C8.88662 15.4394 9.04331 15.4394 9.2 15.4394Z" fill="#007AFF"/>
</g>
</g>
</svg>
