<svg width="161" height="31" viewBox="0 0 161 31" fill="none" xmlns="http://www.w3.org/2000/svg">
<path d="M151.984 19.7512C151.983 20.2444 151.885 20.7325 151.696 21.1878C151.506 21.6431 151.229 22.0566 150.88 22.4047C150.532 22.7528 150.118 23.0287 149.662 23.2166C149.207 23.4046 148.719 23.5009 148.226 23.5L138.744 23.4834C137.749 23.4817 136.796 23.0844 136.094 22.3789C135.392 21.6734 134.998 20.7175 135 19.7216L135.016 10.2488C135.017 9.75563 135.115 9.26747 135.304 8.81218C135.494 8.3569 135.771 7.94339 136.12 7.59529C136.468 7.24718 136.882 6.97129 137.338 6.78336C137.793 6.59543 138.281 6.49915 138.774 6.50001L148.256 6.51658C149.251 6.51832 150.204 6.91564 150.906 7.62113C151.608 8.32661 152.002 9.28247 152 10.2784L151.984 19.7512ZM150.759 10.4507C150.759 10.0993 150.691 9.75117 150.557 9.42625C150.423 9.10133 150.227 8.80597 149.979 8.55703C149.731 8.30809 149.437 8.11045 149.113 7.97539C148.789 7.84034 148.442 7.77051 148.091 7.76989L138.924 7.75387C138.573 7.75325 138.225 7.82186 137.901 7.95578C137.576 8.0897 137.281 8.28631 137.032 8.53438C136.784 8.78244 136.586 9.07712 136.452 9.40156C136.317 9.72601 136.247 10.0739 136.246 10.4253L136.231 19.4839C136.23 19.8353 136.298 20.1834 136.432 20.5083C136.566 20.8333 136.762 21.1286 137.01 21.3776C137.258 21.6265 137.552 21.8241 137.876 21.9592C138.2 22.0943 138.548 22.1641 138.899 22.1647L148.065 22.1807C148.416 22.1813 148.764 22.1127 149.089 21.9788C149.413 21.8449 149.708 21.6483 149.957 21.4002C150.205 21.1522 150.403 20.8575 150.538 20.533C150.672 20.2086 150.742 19.8607 150.743 19.5093L150.759 10.4507Z" fill="black"/>
<path d="M147.189 14.5195H140.132C139.778 14.5195 139.491 14.8067 139.491 15.161V15.161C139.491 15.5153 139.778 15.8026 140.132 15.8026H147.189C147.543 15.8026 147.831 15.5153 147.831 15.161C147.831 14.8067 147.543 14.5195 147.189 14.5195Z" fill="black"/>
<path d="M144.302 18.6883V11.6317C144.302 11.2774 144.015 10.9902 143.66 10.9902H143.66C143.306 10.9902 143.019 11.2774 143.019 11.6317V18.6883C143.019 19.0426 143.306 19.3298 143.66 19.3298C144.015 19.3298 144.302 19.0426 144.302 18.6883Z" fill="black"/>
<path d="M8.44434 20.5L11.7515 11.3403H12.9004V12.9463H12.4688L9.94238 20.5H8.44434ZM10.0376 18.0244L10.4375 16.8818H14.6079L15.0078 18.0244H10.0376ZM15.0967 20.5L12.5767 12.9463V11.3403H13.2939L16.5947 20.5H15.0967ZM19.7721 20.6143C19.1966 20.6143 18.693 20.4704 18.2614 20.1826C17.834 19.8906 17.5018 19.478 17.2648 18.9448C17.032 18.4116 16.9157 17.7832 16.9157 17.0596V17.0469C16.9157 16.319 17.032 15.6885 17.2648 15.1553C17.4975 14.6221 17.8276 14.2116 18.255 13.9238C18.6824 13.6318 19.1881 13.4858 19.7721 13.4858C20.0895 13.4858 20.3857 13.5366 20.6608 13.6382C20.9358 13.7355 21.1792 13.8752 21.3908 14.0571C21.6023 14.2349 21.7695 14.4486 21.8922 14.6982H21.9938V10.9023H23.3776V20.5H21.9938V19.4146H21.8922C21.7568 19.6642 21.5854 19.88 21.3781 20.062C21.1707 20.2397 20.9316 20.3773 20.6608 20.4746C20.3899 20.5677 20.0937 20.6143 19.7721 20.6143ZM20.1657 19.4336C20.5465 19.4336 20.8766 19.3384 21.1559 19.1479C21.4352 18.9575 21.6489 18.6846 21.797 18.3291C21.9451 17.9694 22.0192 17.5462 22.0192 17.0596V17.0469C22.0192 16.556 21.943 16.1328 21.7907 15.7773C21.6426 15.4219 21.4288 15.1489 21.1496 14.9585C20.8745 14.7638 20.5465 14.6665 20.1657 14.6665C19.7848 14.6665 19.4547 14.7638 19.1754 14.9585C18.9004 15.1489 18.6888 15.4219 18.5407 15.7773C18.3968 16.1286 18.3248 16.5518 18.3248 17.0469V17.0596C18.3248 17.5505 18.3968 17.9736 18.5407 18.3291C18.6888 18.6846 18.9004 18.9575 19.1754 19.1479C19.4547 19.3384 19.7848 19.4336 20.1657 19.4336ZM27.5452 20.6143C26.9697 20.6143 26.4661 20.4704 26.0345 20.1826C25.607 19.8906 25.2748 19.478 25.0379 18.9448C24.8051 18.4116 24.6887 17.7832 24.6887 17.0596V17.0469C24.6887 16.319 24.8051 15.6885 25.0379 15.1553C25.2706 14.6221 25.6007 14.2116 26.0281 13.9238C26.4555 13.6318 26.9612 13.4858 27.5452 13.4858C27.8626 13.4858 28.1588 13.5366 28.4339 13.6382C28.7089 13.7355 28.9523 13.8752 29.1638 14.0571C29.3754 14.2349 29.5426 14.4486 29.6653 14.6982H29.7669V10.9023H31.1507V20.5H29.7669V19.4146H29.6653C29.5299 19.6642 29.3585 19.88 29.1512 20.062C28.9438 20.2397 28.7047 20.3773 28.4339 20.4746C28.163 20.5677 27.8668 20.6143 27.5452 20.6143ZM27.9387 19.4336C28.3196 19.4336 28.6497 19.3384 28.929 19.1479C29.2083 18.9575 29.422 18.6846 29.5701 18.3291C29.7182 17.9694 29.7923 17.5462 29.7923 17.0596V17.0469C29.7923 16.556 29.7161 16.1328 29.5637 15.7773C29.4156 15.4219 29.2019 15.1489 28.9226 14.9585C28.6476 14.7638 28.3196 14.6665 27.9387 14.6665C27.5579 14.6665 27.2278 14.7638 26.9485 14.9585C26.6734 15.1489 26.4619 15.4219 26.3137 15.7773C26.1699 16.1286 26.0979 16.5518 26.0979 17.0469V17.0596C26.0979 17.5505 26.1699 17.9736 26.3137 18.3291C26.4619 18.6846 26.6734 18.9575 26.9485 19.1479C27.2278 19.3384 27.5579 19.4336 27.9387 19.4336ZM38.5591 20.5444C37.8059 20.5444 37.26 20.4006 36.9214 20.1128C36.5871 19.8208 36.42 19.3447 36.42 18.6846V14.6919H35.3409V13.6064H36.42V11.8672H37.8292V13.6064H39.3082V14.6919H37.8292V18.3481C37.8292 18.7205 37.9032 18.9893 38.0513 19.1543C38.1994 19.3151 38.4449 19.3955 38.7877 19.3955C38.8892 19.3955 38.976 19.3934 39.0479 19.3892C39.1241 19.3849 39.2108 19.3786 39.3082 19.3701V20.4746C39.1981 20.4915 39.0796 20.5063 38.9527 20.519C38.8257 20.536 38.6946 20.5444 38.5591 20.5444ZM43.3742 20.6333C42.7014 20.6333 42.1195 20.4894 41.6286 20.2017C41.142 19.9139 40.7674 19.5034 40.5051 18.9702C40.2427 18.4328 40.1115 17.7959 40.1115 17.0596V17.0469C40.1115 16.3063 40.2427 15.6694 40.5051 15.1362C40.7717 14.603 41.1483 14.1925 41.635 13.9048C42.1258 13.617 42.7056 13.4731 43.3742 13.4731C44.0471 13.4731 44.6268 13.617 45.1135 13.9048C45.6001 14.1883 45.9746 14.5988 46.237 15.1362C46.5036 15.6694 46.6369 16.3063 46.6369 17.0469V17.0596C46.6369 17.7959 46.5036 18.4328 46.237 18.9702C45.9746 19.5034 45.6001 19.9139 45.1135 20.2017C44.6311 20.4894 44.0513 20.6333 43.3742 20.6333ZM43.3742 19.478C43.7678 19.478 44.1021 19.3828 44.3771 19.1924C44.6522 18.9977 44.8617 18.7205 45.0056 18.3608C45.1494 18.0011 45.2214 17.5674 45.2214 17.0596V17.0469C45.2214 16.5348 45.1494 16.099 45.0056 15.7393C44.8617 15.3796 44.6522 15.1045 44.3771 14.9141C44.1021 14.7194 43.7678 14.6221 43.3742 14.6221C42.9807 14.6221 42.6464 14.7194 42.3713 14.9141C42.0962 15.1045 41.8846 15.3796 41.7365 15.7393C41.5926 16.099 41.5207 16.5348 41.5207 17.0469V17.0596C41.5207 17.5674 41.5926 18.0011 41.7365 18.3608C41.8846 18.7205 42.0962 18.9977 42.3713 19.1924C42.6464 19.3828 42.9807 19.478 43.3742 19.478ZM51.1953 20.5V11.3403H52.6172V15.2124H57.3144V11.3403H58.7427V20.5H57.3144V16.4438H52.6172V20.5H51.1953ZM63.4181 20.6333C62.7452 20.6333 62.1634 20.4894 61.6725 20.2017C61.1858 19.9139 60.8113 19.5034 60.5489 18.9702C60.2866 18.4328 60.1554 17.7959 60.1554 17.0596V17.0469C60.1554 16.3063 60.2866 15.6694 60.5489 15.1362C60.8155 14.603 61.1922 14.1925 61.6788 13.9048C62.1697 13.617 62.7495 13.4731 63.4181 13.4731C64.0909 13.4731 64.6707 13.617 65.1573 13.9048C65.644 14.1883 66.0185 14.5988 66.2809 15.1362C66.5475 15.6694 66.6808 16.3063 66.6808 17.0469V17.0596C66.6808 17.7959 66.5475 18.4328 66.2809 18.9702C66.0185 19.5034 65.644 19.9139 65.1573 20.2017C64.6749 20.4894 64.0952 20.6333 63.4181 20.6333ZM63.4181 19.478C63.8116 19.478 64.146 19.3828 64.421 19.1924C64.6961 18.9977 64.9056 18.7205 65.0494 18.3608C65.1933 18.0011 65.2653 17.5674 65.2653 17.0596V17.0469C65.2653 16.5348 65.1933 16.099 65.0494 15.7393C64.9056 15.3796 64.6961 15.1045 64.421 14.9141C64.146 14.7194 63.8116 14.6221 63.4181 14.6221C63.0245 14.6221 62.6902 14.7194 62.4152 14.9141C62.1401 15.1045 61.9285 15.3796 61.7804 15.7393C61.6365 16.099 61.5646 16.5348 61.5646 17.0469V17.0596C61.5646 17.5674 61.6365 18.0011 61.7804 18.3608C61.9285 18.7205 62.1401 18.9977 62.4152 19.1924C62.6902 19.3828 63.0245 19.478 63.4181 19.478ZM67.9285 20.5V13.6064H69.3059V14.6665H69.4138C69.5662 14.2856 69.8032 13.9915 70.1248 13.7842C70.4506 13.5768 70.8399 13.4731 71.2927 13.4731C71.6059 13.4731 71.8873 13.5239 72.137 13.6255C72.3866 13.7271 72.6004 13.8709 72.7781 14.0571C72.9601 14.2391 73.1018 14.4549 73.2034 14.7046H73.3113C73.4255 14.4549 73.5864 14.2391 73.7937 14.0571C74.0011 13.8709 74.2423 13.7271 74.5173 13.6255C74.7966 13.5239 75.0929 13.4731 75.406 13.4731C75.8715 13.4731 76.2693 13.5641 76.5994 13.7461C76.9295 13.9238 77.1812 14.182 77.3547 14.5205C77.5283 14.859 77.615 15.2674 77.615 15.7456V20.5H76.2376V16.0757C76.2376 15.7583 76.1889 15.4959 76.0916 15.2886C75.9942 15.077 75.8461 14.9183 75.6472 14.8125C75.4526 14.7067 75.2071 14.6538 74.9109 14.6538C74.6189 14.6538 74.3629 14.7215 74.1428 14.8569C73.927 14.9881 73.7577 15.1659 73.635 15.3901C73.5165 15.6102 73.4573 15.8599 73.4573 16.1392V20.5H72.0798V15.936C72.0798 15.6737 72.0248 15.4473 71.9148 15.2568C71.809 15.0622 71.6567 14.9141 71.4578 14.8125C71.2589 14.7067 71.024 14.6538 70.7532 14.6538C70.4781 14.6538 70.2306 14.7257 70.0105 14.8696C69.7947 15.0135 69.6233 15.2082 69.4963 15.4536C69.3694 15.6948 69.3059 15.9657 69.3059 16.2661V20.5H67.9285ZM82.0492 20.6333C81.3764 20.6333 80.7987 20.4894 80.3163 20.2017C79.8339 19.9097 79.4615 19.4971 79.1991 18.9639C78.941 18.4307 78.8119 17.8001 78.8119 17.0723V17.0659C78.8119 16.3465 78.941 15.7181 79.1991 15.1807C79.4615 14.6432 79.8297 14.2243 80.3036 13.9238C80.7818 13.6234 81.3404 13.4731 81.9794 13.4731C82.6226 13.4731 83.1749 13.617 83.6361 13.9048C84.1016 14.1925 84.4592 14.5967 84.7089 15.1172C84.9586 15.6335 85.0834 16.2386 85.0834 16.9326V17.415H79.5102V16.4312H84.3979L83.7377 17.3452V16.793C83.7377 16.3021 83.6615 15.8958 83.5092 15.5742C83.3611 15.2484 83.1558 15.005 82.8935 14.8442C82.6311 14.6834 82.3285 14.603 81.9857 14.603C81.643 14.603 81.3362 14.6877 81.0653 14.8569C80.7987 15.022 80.5871 15.2674 80.4306 15.5933C80.2782 15.9191 80.202 16.319 80.202 16.793V17.3452C80.202 17.798 80.2782 18.1852 80.4306 18.5068C80.5829 18.8285 80.7987 19.0739 81.078 19.2432C81.3616 19.4124 81.6959 19.4971 82.081 19.4971C82.3772 19.4971 82.6311 19.4569 82.8427 19.3765C83.0585 19.2918 83.2341 19.1882 83.3695 19.0654C83.5092 18.9427 83.6044 18.8221 83.6552 18.7036L83.6806 18.6528H85.0136L85.0009 18.71C84.9416 18.9385 84.838 19.167 84.6898 19.3955C84.5417 19.6198 84.345 19.825 84.0995 20.0112C83.8583 20.1974 83.5663 20.3477 83.2235 20.4619C82.885 20.5762 82.4936 20.6333 82.0492 20.6333ZM92.7394 20.7222C92.0497 20.7222 91.4487 20.6143 90.9367 20.3984C90.4247 20.1784 90.0205 19.8737 89.7243 19.4844C89.4281 19.0951 89.2588 18.6444 89.2165 18.1323L89.2101 18.0498H90.613L90.6193 18.1196C90.6489 18.3947 90.7568 18.6338 90.943 18.8369C91.1335 19.04 91.3874 19.1987 91.7048 19.313C92.0264 19.4272 92.3924 19.4844 92.8029 19.4844C93.188 19.4844 93.5308 19.423 93.8312 19.3003C94.1317 19.1776 94.3665 19.0083 94.5358 18.7925C94.7093 18.5767 94.7961 18.3291 94.7961 18.0498V18.0435C94.7961 17.6922 94.6628 17.4002 94.3962 17.1675C94.1296 16.9347 93.6937 16.7528 93.0886 16.6216L92.0856 16.4121C91.1589 16.2132 90.4839 15.8979 90.0607 15.4663C89.6375 15.0304 89.426 14.474 89.426 13.7969V13.7905C89.4302 13.2616 89.572 12.7961 89.8512 12.394C90.1348 11.992 90.5262 11.6789 91.0256 11.4546C91.5249 11.2303 92.0983 11.1182 92.7458 11.1182C93.3932 11.1182 93.9582 11.2303 94.4406 11.4546C94.9273 11.6746 95.3102 11.9751 95.5895 12.356C95.8731 12.7368 96.0318 13.1663 96.0656 13.6445L96.072 13.7271H94.6818L94.6691 13.6445C94.631 13.3949 94.5274 13.1727 94.3581 12.978C94.193 12.7834 93.9709 12.631 93.6916 12.521C93.4165 12.4067 93.0949 12.3517 92.7267 12.356C92.3713 12.356 92.0539 12.411 91.7746 12.521C91.4953 12.6268 91.2731 12.7812 91.1081 12.9844C90.9473 13.1875 90.8669 13.4329 90.8669 13.7207V13.7271C90.8669 14.0656 90.9959 14.3491 91.2541 14.5776C91.5165 14.8019 91.9417 14.9775 92.53 15.1045L93.5329 15.3267C94.1719 15.4621 94.6903 15.6419 95.0881 15.8662C95.4859 16.0905 95.7757 16.3677 95.9577 16.6978C96.1439 17.0236 96.237 17.4129 96.237 17.8657V17.8721C96.237 18.4561 96.0931 18.9618 95.8054 19.3892C95.5218 19.8123 95.1177 20.1403 94.5929 20.373C94.0682 20.6058 93.4504 20.7222 92.7394 20.7222ZM100.462 20.6333C99.7931 20.6333 99.2155 20.4894 98.7288 20.2017C98.2464 19.9097 97.874 19.495 97.6116 18.9575C97.3493 18.4201 97.2181 17.779 97.2181 17.0342V17.0215C97.2181 16.2894 97.3472 15.6589 97.6053 15.1299C97.8677 14.6009 98.2401 14.1925 98.7225 13.9048C99.2091 13.617 99.7868 13.4731 100.455 13.4731C101.035 13.4731 101.532 13.5747 101.947 13.7778C102.366 13.9767 102.698 14.2518 102.944 14.603C103.193 14.95 103.35 15.3457 103.413 15.79L103.42 15.8218H102.093L102.087 15.8091C102.011 15.4705 101.835 15.1891 101.56 14.9648C101.285 14.7363 100.919 14.6221 100.462 14.6221C100.081 14.6221 99.7529 14.7194 99.4779 14.9141C99.2028 15.1045 98.9912 15.3796 98.8431 15.7393C98.6992 16.099 98.6273 16.5264 98.6273 17.0215V17.0342C98.6273 17.542 98.7013 17.9779 98.8494 18.3418C98.9975 18.7057 99.2091 18.9871 99.4842 19.186C99.7593 19.3807 100.085 19.478 100.462 19.478C100.893 19.478 101.243 19.3828 101.509 19.1924C101.78 19.002 101.97 18.7205 102.08 18.3481L102.093 18.3164L103.413 18.3101L103.401 18.3672C103.32 18.8158 103.157 19.2093 102.912 19.5479C102.666 19.8864 102.339 20.153 101.928 20.3477C101.522 20.5381 101.033 20.6333 100.462 20.6333ZM104.585 20.5V13.6064H105.962V14.6475H106.07C106.193 14.2793 106.409 13.9937 106.718 13.7905C107.031 13.5874 107.416 13.4858 107.873 13.4858C107.987 13.4858 108.099 13.4922 108.209 13.5049C108.319 13.5176 108.408 13.5324 108.476 13.5493V14.8188C108.353 14.7935 108.231 14.7744 108.108 14.7617C107.989 14.749 107.865 14.7427 107.733 14.7427C107.382 14.7427 107.073 14.8104 106.807 14.9458C106.544 15.0812 106.337 15.2716 106.185 15.5171C106.036 15.7583 105.962 16.0461 105.962 16.3804V20.5H104.585ZM112.129 20.6333C111.457 20.6333 110.879 20.4894 110.397 20.2017C109.914 19.9097 109.542 19.4971 109.279 18.9639C109.021 18.4307 108.892 17.8001 108.892 17.0723V17.0659C108.892 16.3465 109.021 15.7181 109.279 15.1807C109.542 14.6432 109.91 14.2243 110.384 13.9238C110.862 13.6234 111.421 13.4731 112.06 13.4731C112.703 13.4731 113.255 13.617 113.716 13.9048C114.182 14.1925 114.539 14.5967 114.789 15.1172C115.039 15.6335 115.164 16.2386 115.164 16.9326V17.415H109.59V16.4312H114.478L113.818 17.3452V16.793C113.818 16.3021 113.742 15.8958 113.589 15.5742C113.441 15.2484 113.236 15.005 112.974 14.8442C112.711 14.6834 112.409 14.603 112.066 14.603C111.723 14.603 111.416 14.6877 111.146 14.8569C110.879 15.022 110.667 15.2674 110.511 15.5933C110.358 15.9191 110.282 16.319 110.282 16.793V17.3452C110.282 17.798 110.358 18.1852 110.511 18.5068C110.663 18.8285 110.879 19.0739 111.158 19.2432C111.442 19.4124 111.776 19.4971 112.161 19.4971C112.457 19.4971 112.711 19.4569 112.923 19.3765C113.139 19.2918 113.314 19.1882 113.45 19.0654C113.589 18.9427 113.685 18.8221 113.735 18.7036L113.761 18.6528H115.094L115.081 18.71C115.022 18.9385 114.918 19.167 114.77 19.3955C114.622 19.6198 114.425 19.825 114.18 20.0112C113.939 20.1974 113.647 20.3477 113.304 20.4619C112.965 20.5762 112.574 20.6333 112.129 20.6333ZM119.306 20.6333C118.633 20.6333 118.055 20.4894 117.573 20.2017C117.091 19.9097 116.718 19.4971 116.456 18.9639C116.198 18.4307 116.069 17.8001 116.069 17.0723V17.0659C116.069 16.3465 116.198 15.7181 116.456 15.1807C116.718 14.6432 117.086 14.2243 117.56 13.9238C118.038 13.6234 118.597 13.4731 119.236 13.4731C119.879 13.4731 120.432 13.617 120.893 13.9048C121.358 14.1925 121.716 14.5967 121.966 15.1172C122.215 15.6335 122.34 16.2386 122.34 16.9326V17.415H116.767V16.4312H121.655L120.994 17.3452V16.793C120.994 16.3021 120.918 15.8958 120.766 15.5742C120.618 15.2484 120.413 15.005 120.15 14.8442C119.888 14.6834 119.585 14.603 119.242 14.603C118.9 14.603 118.593 14.6877 118.322 14.8569C118.055 15.022 117.844 15.2674 117.687 15.5933C117.535 15.9191 117.459 16.319 117.459 16.793V17.3452C117.459 17.798 117.535 18.1852 117.687 18.5068C117.84 18.8285 118.055 19.0739 118.335 19.2432C118.618 19.4124 118.953 19.4971 119.338 19.4971C119.634 19.4971 119.888 19.4569 120.099 19.3765C120.315 19.2918 120.491 19.1882 120.626 19.0654C120.766 18.9427 120.861 18.8221 120.912 18.7036L120.937 18.6528H122.27L122.258 18.71C122.198 18.9385 122.095 19.167 121.947 19.3955C121.798 19.6198 121.602 19.825 121.356 20.0112C121.115 20.1974 120.823 20.3477 120.48 20.4619C120.142 20.5762 119.75 20.6333 119.306 20.6333ZM123.588 20.5V13.6064H124.965V14.6475H125.073C125.242 14.2793 125.492 13.9915 125.822 13.7842C126.152 13.5768 126.569 13.4731 127.073 13.4731C127.847 13.4731 128.44 13.6953 128.85 14.1396C129.26 14.584 129.466 15.2166 129.466 16.0376V20.5H128.082V16.3613C128.082 15.7858 127.961 15.3584 127.72 15.0791C127.483 14.7956 127.111 14.6538 126.603 14.6538C126.269 14.6538 125.979 14.7279 125.733 14.876C125.488 15.0199 125.297 15.2272 125.162 15.498C125.031 15.7646 124.965 16.0841 124.965 16.4565V20.5H123.588Z" fill="black"/>
</svg>
