<svg width="163" height="33" viewBox="0 0 163 33" fill="none" xmlns="http://www.w3.org/2000/svg">
<path d="M152.984 20.7512C152.983 21.2444 152.885 21.7325 152.696 22.1878C152.506 22.6431 152.229 23.0566 151.88 23.4047C151.532 23.7528 151.118 24.0287 150.662 24.2166C150.207 24.4046 149.719 24.5009 149.226 24.5L139.744 24.4834C138.749 24.4817 137.796 24.0844 137.094 23.3789C136.392 22.6734 135.998 21.7175 136 20.7216L136.016 11.2488C136.017 10.7556 136.115 10.2675 136.304 9.81218C136.494 9.3569 136.771 8.94339 137.12 8.59529C137.468 8.24718 137.882 7.97129 138.338 7.78336C138.793 7.59543 139.281 7.49915 139.774 7.50001L149.256 7.51658C150.251 7.51832 151.204 7.91564 151.906 8.62113C152.608 9.32661 153.002 10.2825 153 11.2784L152.984 20.7512ZM151.759 11.4507C151.759 11.0993 151.691 10.7512 151.557 10.4262C151.423 10.1013 151.227 9.80597 150.979 9.55703C150.731 9.30809 150.437 9.11045 150.113 8.97539C149.789 8.84034 149.442 8.77051 149.091 8.76989L139.924 8.75387C139.573 8.75325 139.225 8.82186 138.901 8.95578C138.576 9.0897 138.281 9.28631 138.032 9.53438C137.784 9.78244 137.586 10.0771 137.452 10.4016C137.317 10.726 137.247 11.0739 137.246 11.4253L137.231 20.4839C137.23 20.8353 137.298 21.1834 137.432 21.5083C137.566 21.8333 137.762 22.1286 138.01 22.3776C138.258 22.6265 138.552 22.8241 138.876 22.9592C139.2 23.0943 139.548 23.1641 139.899 23.1647L149.065 23.1807C149.416 23.1813 149.764 23.1127 150.089 22.9788C150.413 22.8449 150.708 22.6483 150.957 22.4002C151.205 22.1522 151.403 21.8575 151.538 21.533C151.672 21.2086 151.742 20.8607 151.743 20.5093L151.759 11.4507Z" fill="#007AFF"/>
<path d="M148.19 15.5195H141.133C140.779 15.5195 140.492 15.8067 140.492 16.161C140.492 16.5153 140.779 16.8026 141.133 16.8026H148.19C148.544 16.8026 148.832 16.5153 148.832 16.161C148.832 15.8067 148.544 15.5195 148.19 15.5195Z" fill="#007AFF"/>
<path d="M145.303 19.6883V12.6317C145.303 12.2774 145.016 11.9902 144.661 11.9902C144.307 11.9902 144.02 12.2774 144.02 12.6317V19.6883C144.02 20.0426 144.307 20.3298 144.661 20.3298C145.016 20.3298 145.303 20.0426 145.303 19.6883Z" fill="#007AFF"/>
<path d="M9.44531 21.5L12.7525 12.3403H13.9014V13.9463H13.4698L10.9434 21.5H9.44531ZM11.0386 19.0244L11.4385 17.8818H15.6089L16.0088 19.0244H11.0386ZM16.0977 21.5L13.5777 13.9463V12.3403H14.2949L17.5957 21.5H16.0977ZM20.7731 21.6143C20.1976 21.6143 19.694 21.4704 19.2624 21.1826C18.835 20.8906 18.5028 20.478 18.2658 19.9448C18.033 19.4116 17.9167 18.7832 17.9167 18.0596V18.0469C17.9167 17.319 18.033 16.6885 18.2658 16.1553C18.4985 15.6221 18.8286 15.2116 19.256 14.9238C19.6834 14.6318 20.1891 14.4858 20.7731 14.4858C21.0905 14.4858 21.3867 14.5366 21.6618 14.6382C21.9368 14.7355 22.1802 14.8752 22.3918 15.0571C22.6033 15.2349 22.7705 15.4486 22.8932 15.6982H22.9948V11.9023H24.3786V21.5H22.9948V20.4146H22.8932C22.7578 20.6642 22.5864 20.88 22.3791 21.062C22.1717 21.2397 21.9326 21.3773 21.6618 21.4746C21.3909 21.5677 21.0947 21.6143 20.7731 21.6143ZM21.1667 20.4336C21.5475 20.4336 21.8776 20.3384 22.1569 20.1479C22.4362 19.9575 22.6499 19.6846 22.798 19.3291C22.9461 18.9694 23.0202 18.5462 23.0202 18.0596V18.0469C23.0202 17.556 22.944 17.1328 22.7917 16.7773C22.6436 16.4219 22.4298 16.1489 22.1506 15.9585C21.8755 15.7638 21.5475 15.6665 21.1667 15.6665C20.7858 15.6665 20.4557 15.7638 20.1764 15.9585C19.9014 16.1489 19.6898 16.4219 19.5417 16.7773C19.3978 17.1286 19.3258 17.5518 19.3258 18.0469V18.0596C19.3258 18.5505 19.3978 18.9736 19.5417 19.3291C19.6898 19.6846 19.9014 19.9575 20.1764 20.1479C20.4557 20.3384 20.7858 20.4336 21.1667 20.4336ZM28.5462 21.6143C27.9707 21.6143 27.4671 21.4704 27.0355 21.1826C26.608 20.8906 26.2758 20.478 26.0389 19.9448C25.8061 19.4116 25.6897 18.7832 25.6897 18.0596V18.0469C25.6897 17.319 25.8061 16.6885 26.0389 16.1553C26.2716 15.6221 26.6017 15.2116 27.0291 14.9238C27.4565 14.6318 27.9622 14.4858 28.5462 14.4858C28.8636 14.4858 29.1598 14.5366 29.4349 14.6382C29.7099 14.7355 29.9533 14.8752 30.1648 15.0571C30.3764 15.2349 30.5436 15.4486 30.6663 15.6982H30.7679V11.9023H32.1517V21.5H30.7679V20.4146H30.6663C30.5309 20.6642 30.3595 20.88 30.1522 21.062C29.9448 21.2397 29.7057 21.3773 29.4349 21.4746C29.164 21.5677 28.8678 21.6143 28.5462 21.6143ZM28.9397 20.4336C29.3206 20.4336 29.6507 20.3384 29.93 20.1479C30.2093 19.9575 30.423 19.6846 30.5711 19.3291C30.7192 18.9694 30.7933 18.5462 30.7933 18.0596V18.0469C30.7933 17.556 30.7171 17.1328 30.5647 16.7773C30.4166 16.4219 30.2029 16.1489 29.9236 15.9585C29.6486 15.7638 29.3206 15.6665 28.9397 15.6665C28.5589 15.6665 28.2288 15.7638 27.9495 15.9585C27.6744 16.1489 27.4629 16.4219 27.3147 16.7773C27.1709 17.1286 27.0989 17.5518 27.0989 18.0469V18.0596C27.0989 18.5505 27.1709 18.9736 27.3147 19.3291C27.4629 19.6846 27.6744 19.9575 27.9495 20.1479C28.2288 20.3384 28.5589 20.4336 28.9397 20.4336ZM39.5601 21.5444C38.8069 21.5444 38.261 21.4006 37.9224 21.1128C37.5881 20.8208 37.421 20.3447 37.421 19.6846V15.6919H36.3419V14.6064H37.421V12.8672H38.8302V14.6064H40.3092V15.6919H38.8302V19.3481C38.8302 19.7205 38.9042 19.9893 39.0523 20.1543C39.2004 20.3151 39.4459 20.3955 39.7887 20.3955C39.8902 20.3955 39.977 20.3934 40.0489 20.3892C40.1251 20.3849 40.2118 20.3786 40.3092 20.3701V21.4746C40.1991 21.4915 40.0806 21.5063 39.9537 21.519C39.8267 21.536 39.6956 21.5444 39.5601 21.5444ZM44.3752 21.6333C43.7024 21.6333 43.1205 21.4894 42.6296 21.2017C42.143 20.9139 41.7684 20.5034 41.5061 19.9702C41.2437 19.4328 41.1125 18.7959 41.1125 18.0596V18.0469C41.1125 17.3063 41.2437 16.6694 41.5061 16.1362C41.7727 15.603 42.1493 15.1925 42.636 14.9048C43.1268 14.617 43.7066 14.4731 44.3752 14.4731C45.0481 14.4731 45.6278 14.617 46.1145 14.9048C46.6011 15.1883 46.9756 15.5988 47.238 16.1362C47.5046 16.6694 47.6379 17.3063 47.6379 18.0469V18.0596C47.6379 18.7959 47.5046 19.4328 47.238 19.9702C46.9756 20.5034 46.6011 20.9139 46.1145 21.2017C45.6321 21.4894 45.0523 21.6333 44.3752 21.6333ZM44.3752 20.478C44.7688 20.478 45.1031 20.3828 45.3781 20.1924C45.6532 19.9977 45.8627 19.7205 46.0066 19.3608C46.1504 19.0011 46.2224 18.5674 46.2224 18.0596V18.0469C46.2224 17.5348 46.1504 17.099 46.0066 16.7393C45.8627 16.3796 45.6532 16.1045 45.3781 15.9141C45.1031 15.7194 44.7688 15.6221 44.3752 15.6221C43.9817 15.6221 43.6474 15.7194 43.3723 15.9141C43.0972 16.1045 42.8856 16.3796 42.7375 16.7393C42.5936 17.099 42.5217 17.5348 42.5217 18.0469V18.0596C42.5217 18.5674 42.5936 19.0011 42.7375 19.3608C42.8856 19.7205 43.0972 19.9977 43.3723 20.1924C43.6474 20.3828 43.9817 20.478 44.3752 20.478ZM52.1963 21.5V12.3403H53.6182V16.2124H58.3154V12.3403H59.7437V21.5H58.3154V17.4438H53.6182V21.5H52.1963ZM64.4191 21.6333C63.7462 21.6333 63.1644 21.4894 62.6735 21.2017C62.1868 20.9139 61.8123 20.5034 61.5499 19.9702C61.2876 19.4328 61.1564 18.7959 61.1564 18.0596V18.0469C61.1564 17.3063 61.2876 16.6694 61.5499 16.1362C61.8165 15.603 62.1932 15.1925 62.6798 14.9048C63.1707 14.617 63.7505 14.4731 64.4191 14.4731C65.0919 14.4731 65.6717 14.617 66.1583 14.9048C66.645 15.1883 67.0195 15.5988 67.2819 16.1362C67.5485 16.6694 67.6818 17.3063 67.6818 18.0469V18.0596C67.6818 18.7959 67.5485 19.4328 67.2819 19.9702C67.0195 20.5034 66.645 20.9139 66.1583 21.2017C65.6759 21.4894 65.0962 21.6333 64.4191 21.6333ZM64.4191 20.478C64.8126 20.478 65.147 20.3828 65.422 20.1924C65.6971 19.9977 65.9066 19.7205 66.0504 19.3608C66.1943 19.0011 66.2663 18.5674 66.2663 18.0596V18.0469C66.2663 17.5348 66.1943 17.099 66.0504 16.7393C65.9066 16.3796 65.6971 16.1045 65.422 15.9141C65.147 15.7194 64.8126 15.6221 64.4191 15.6221C64.0255 15.6221 63.6912 15.7194 63.4162 15.9141C63.1411 16.1045 62.9295 16.3796 62.7814 16.7393C62.6375 17.099 62.5656 17.5348 62.5656 18.0469V18.0596C62.5656 18.5674 62.6375 19.0011 62.7814 19.3608C62.9295 19.7205 63.1411 19.9977 63.4162 20.1924C63.6912 20.3828 64.0255 20.478 64.4191 20.478ZM68.9295 21.5V14.6064H70.3069V15.6665H70.4148C70.5672 15.2856 70.8042 14.9915 71.1258 14.7842C71.4516 14.5768 71.8409 14.4731 72.2937 14.4731C72.6069 14.4731 72.8883 14.5239 73.138 14.6255C73.3876 14.7271 73.6014 14.8709 73.7791 15.0571C73.9611 15.2391 74.1028 15.4549 74.2044 15.7046H74.3123C74.4265 15.4549 74.5874 15.2391 74.7947 15.0571C75.0021 14.8709 75.2433 14.7271 75.5183 14.6255C75.7976 14.5239 76.0939 14.4731 76.407 14.4731C76.8725 14.4731 77.2703 14.5641 77.6004 14.7461C77.9305 14.9238 78.1822 15.182 78.3557 15.5205C78.5293 15.859 78.616 16.2674 78.616 16.7456V21.5H77.2386V17.0757C77.2386 16.7583 77.1899 16.4959 77.0926 16.2886C76.9952 16.077 76.8471 15.9183 76.6482 15.8125C76.4536 15.7067 76.2081 15.6538 75.9119 15.6538C75.6199 15.6538 75.3639 15.7215 75.1438 15.8569C74.928 15.9881 74.7587 16.1659 74.636 16.3901C74.5175 16.6102 74.4583 16.8599 74.4583 17.1392V21.5H73.0808V16.936C73.0808 16.6737 73.0258 16.4473 72.9158 16.2568C72.81 16.0622 72.6577 15.9141 72.4588 15.8125C72.2599 15.7067 72.025 15.6538 71.7542 15.6538C71.4791 15.6538 71.2316 15.7257 71.0115 15.8696C70.7957 16.0135 70.6243 16.2082 70.4973 16.4536C70.3704 16.6948 70.3069 16.9657 70.3069 17.2661V21.5H68.9295ZM83.0502 21.6333C82.3774 21.6333 81.7997 21.4894 81.3173 21.2017C80.8349 20.9097 80.4625 20.4971 80.2001 19.9639C79.942 19.4307 79.8129 18.8001 79.8129 18.0723V18.0659C79.8129 17.3465 79.942 16.7181 80.2001 16.1807C80.4625 15.6432 80.8307 15.2243 81.3046 14.9238C81.7828 14.6234 82.3414 14.4731 82.9804 14.4731C83.6236 14.4731 84.1759 14.617 84.6371 14.9048C85.1026 15.1925 85.4602 15.5967 85.7099 16.1172C85.9596 16.6335 86.0844 17.2386 86.0844 17.9326V18.415H80.5112V17.4312H85.3989L84.7387 18.3452V17.793C84.7387 17.3021 84.6625 16.8958 84.5102 16.5742C84.3621 16.2484 84.1568 16.005 83.8945 15.8442C83.6321 15.6834 83.3295 15.603 82.9867 15.603C82.644 15.603 82.3372 15.6877 82.0663 15.8569C81.7997 16.022 81.5881 16.2674 81.4316 16.5933C81.2792 16.9191 81.203 17.319 81.203 17.793V18.3452C81.203 18.798 81.2792 19.1852 81.4316 19.5068C81.5839 19.8285 81.7997 20.0739 82.079 20.2432C82.3626 20.4124 82.6969 20.4971 83.082 20.4971C83.3782 20.4971 83.6321 20.4569 83.8437 20.3765C84.0595 20.2918 84.2351 20.1882 84.3705 20.0654C84.5102 19.9427 84.6054 19.8221 84.6562 19.7036L84.6816 19.6528H86.0146L86.0019 19.71C85.9426 19.9385 85.839 20.167 85.6908 20.3955C85.5427 20.6198 85.346 20.825 85.1005 21.0112C84.8593 21.1974 84.5673 21.3477 84.2245 21.4619C83.886 21.5762 83.4946 21.6333 83.0502 21.6333ZM93.7404 21.7222C93.0507 21.7222 92.4497 21.6143 91.9377 21.3984C91.4257 21.1784 91.0215 20.8737 90.7253 20.4844C90.4291 20.0951 90.2598 19.6444 90.2175 19.1323L90.2111 19.0498H91.614L91.6203 19.1196C91.6499 19.3947 91.7578 19.6338 91.944 19.8369C92.1345 20.04 92.3884 20.1987 92.7058 20.313C93.0274 20.4272 93.3934 20.4844 93.8039 20.4844C94.189 20.4844 94.5318 20.423 94.8322 20.3003C95.1327 20.1776 95.3675 20.0083 95.5368 19.7925C95.7103 19.5767 95.7971 19.3291 95.7971 19.0498V19.0435C95.7971 18.6922 95.6638 18.4002 95.3972 18.1675C95.1306 17.9347 94.6947 17.7528 94.0896 17.6216L93.0866 17.4121C92.1599 17.2132 91.4849 16.8979 91.0617 16.4663C90.6385 16.0304 90.427 15.474 90.427 14.7969V14.7905C90.4312 14.2616 90.573 13.7961 90.8522 13.394C91.1358 12.992 91.5272 12.6789 92.0266 12.4546C92.5259 12.2303 93.0993 12.1182 93.7468 12.1182C94.3942 12.1182 94.9592 12.2303 95.4416 12.4546C95.9283 12.6746 96.3112 12.9751 96.5905 13.356C96.8741 13.7368 97.0328 14.1663 97.0666 14.6445L97.073 14.7271H95.6828L95.6701 14.6445C95.632 14.3949 95.5284 14.1727 95.3591 13.978C95.194 13.7834 94.9719 13.631 94.6926 13.521C94.4175 13.4067 94.0959 13.3517 93.7277 13.356C93.3723 13.356 93.0549 13.411 92.7756 13.521C92.4963 13.6268 92.2741 13.7812 92.1091 13.9844C91.9483 14.1875 91.8679 14.4329 91.8679 14.7207V14.7271C91.8679 15.0656 91.9969 15.3491 92.2551 15.5776C92.5175 15.8019 92.9427 15.9775 93.531 16.1045L94.5339 16.3267C95.1729 16.4621 95.6913 16.6419 96.0891 16.8662C96.4869 17.0905 96.7767 17.3677 96.9587 17.6978C97.1449 18.0236 97.238 18.4129 97.238 18.8657V18.8721C97.238 19.4561 97.0941 19.9618 96.8064 20.3892C96.5228 20.8123 96.1187 21.1403 95.5939 21.373C95.0692 21.6058 94.4514 21.7222 93.7404 21.7222ZM101.463 21.6333C100.794 21.6333 100.216 21.4894 99.7298 21.2017C99.2474 20.9097 98.875 20.495 98.6126 19.9575C98.3503 19.4201 98.2191 18.779 98.2191 18.0342V18.0215C98.2191 17.2894 98.3482 16.6589 98.6063 16.1299C98.8687 15.6009 99.2411 15.1925 99.7235 14.9048C100.21 14.617 100.788 14.4731 101.456 14.4731C102.036 14.4731 102.533 14.5747 102.948 14.7778C103.367 14.9767 103.699 15.2518 103.945 15.603C104.194 15.95 104.351 16.3457 104.414 16.79L104.421 16.8218H103.094L103.088 16.8091C103.012 16.4705 102.836 16.1891 102.561 15.9648C102.286 15.7363 101.92 15.6221 101.463 15.6221C101.082 15.6221 100.754 15.7194 100.479 15.9141C100.204 16.1045 99.9922 16.3796 99.8441 16.7393C99.7002 17.099 99.6283 17.5264 99.6283 18.0215V18.0342C99.6283 18.542 99.7023 18.9779 99.8504 19.3418C99.9985 19.7057 100.21 19.9871 100.485 20.186C100.76 20.3807 101.086 20.478 101.463 20.478C101.894 20.478 102.244 20.3828 102.51 20.1924C102.781 20.002 102.971 19.7205 103.081 19.3481L103.094 19.3164L104.414 19.3101L104.402 19.3672C104.321 19.8158 104.158 20.2093 103.913 20.5479C103.667 20.8864 103.34 21.153 102.929 21.3477C102.523 21.5381 102.034 21.6333 101.463 21.6333ZM105.586 21.5V14.6064H106.963V15.6475H107.071C107.194 15.2793 107.41 14.9937 107.719 14.7905C108.032 14.5874 108.417 14.4858 108.874 14.4858C108.988 14.4858 109.1 14.4922 109.21 14.5049C109.32 14.5176 109.409 14.5324 109.477 14.5493V15.8188C109.354 15.7935 109.232 15.7744 109.109 15.7617C108.99 15.749 108.866 15.7427 108.734 15.7427C108.383 15.7427 108.074 15.8104 107.808 15.9458C107.545 16.0812 107.338 16.2716 107.186 16.5171C107.037 16.7583 106.963 17.0461 106.963 17.3804V21.5H105.586ZM113.13 21.6333C112.458 21.6333 111.88 21.4894 111.398 21.2017C110.915 20.9097 110.543 20.4971 110.28 19.9639C110.022 19.4307 109.893 18.8001 109.893 18.0723V18.0659C109.893 17.3465 110.022 16.7181 110.28 16.1807C110.543 15.6432 110.911 15.2243 111.385 14.9238C111.863 14.6234 112.422 14.4731 113.061 14.4731C113.704 14.4731 114.256 14.617 114.717 14.9048C115.183 15.1925 115.54 15.5967 115.79 16.1172C116.04 16.6335 116.165 17.2386 116.165 17.9326V18.415H110.591V17.4312H115.479L114.819 18.3452V17.793C114.819 17.3021 114.743 16.8958 114.59 16.5742C114.442 16.2484 114.237 16.005 113.975 15.8442C113.712 15.6834 113.41 15.603 113.067 15.603C112.724 15.603 112.417 15.6877 112.147 15.8569C111.88 16.022 111.668 16.2674 111.512 16.5933C111.359 16.9191 111.283 17.319 111.283 17.793V18.3452C111.283 18.798 111.359 19.1852 111.512 19.5068C111.664 19.8285 111.88 20.0739 112.159 20.2432C112.443 20.4124 112.777 20.4971 113.162 20.4971C113.458 20.4971 113.712 20.4569 113.924 20.3765C114.14 20.2918 114.315 20.1882 114.451 20.0654C114.59 19.9427 114.686 19.8221 114.736 19.7036L114.762 19.6528H116.095L116.082 19.71C116.023 19.9385 115.919 20.167 115.771 20.3955C115.623 20.6198 115.426 20.825 115.181 21.0112C114.94 21.1974 114.648 21.3477 114.305 21.4619C113.966 21.5762 113.575 21.6333 113.13 21.6333ZM120.307 21.6333C119.634 21.6333 119.056 21.4894 118.574 21.2017C118.092 20.9097 117.719 20.4971 117.457 19.9639C117.199 19.4307 117.07 18.8001 117.07 18.0723V18.0659C117.07 17.3465 117.199 16.7181 117.457 16.1807C117.719 15.6432 118.087 15.2243 118.561 14.9238C119.039 14.6234 119.598 14.4731 120.237 14.4731C120.88 14.4731 121.433 14.617 121.894 14.9048C122.359 15.1925 122.717 15.5967 122.967 16.1172C123.216 16.6335 123.341 17.2386 123.341 17.9326V18.415H117.768V17.4312H122.656L121.995 18.3452V17.793C121.995 17.3021 121.919 16.8958 121.767 16.5742C121.619 16.2484 121.414 16.005 121.151 15.8442C120.889 15.6834 120.586 15.603 120.243 15.603C119.901 15.603 119.594 15.6877 119.323 15.8569C119.056 16.022 118.845 16.2674 118.688 16.5933C118.536 16.9191 118.46 17.319 118.46 17.793V18.3452C118.46 18.798 118.536 19.1852 118.688 19.5068C118.841 19.8285 119.056 20.0739 119.336 20.2432C119.619 20.4124 119.954 20.4971 120.339 20.4971C120.635 20.4971 120.889 20.4569 121.1 20.3765C121.316 20.2918 121.492 20.1882 121.627 20.0654C121.767 19.9427 121.862 19.8221 121.913 19.7036L121.938 19.6528H123.271L123.259 19.71C123.199 19.9385 123.096 20.167 122.948 20.3955C122.799 20.6198 122.603 20.825 122.357 21.0112C122.116 21.1974 121.824 21.3477 121.481 21.4619C121.143 21.5762 120.751 21.6333 120.307 21.6333ZM124.589 21.5V14.6064H125.966V15.6475H126.074C126.243 15.2793 126.493 14.9915 126.823 14.7842C127.153 14.5768 127.57 14.4731 128.074 14.4731C128.848 14.4731 129.441 14.6953 129.851 15.1396C130.261 15.584 130.467 16.2166 130.467 17.0376V21.5H129.083V17.3613C129.083 16.7858 128.962 16.3584 128.721 16.0791C128.484 15.7956 128.112 15.6538 127.604 15.6538C127.27 15.6538 126.98 15.7279 126.734 15.876C126.489 16.0199 126.298 16.2272 126.163 16.498C126.032 16.7646 125.966 17.0841 125.966 17.4565V21.5H124.589Z" fill="#007AFF"/>
</svg>
