<svg width="50" height="51" viewBox="0 0 50 51" fill="none" xmlns="http://www.w3.org/2000/svg">
<path d="M12 47.5C11.2 47.5 10.5 47.2 9.9 46.6C9.3 46 9 45.3 9 44.5V19.05C9 18.25 9.3 17.55 9.9 16.95C10.5 16.35 11.2 16.05 12 16.05H20.45V19.05H12V44.5H38V19.05H29.45V16.05H38C38.8 16.05 39.5 16.35 40.1 16.95C40.7 17.55 41 18.25 41 19.05V44.5C41 45.3 40.7 46 40.1 46.6C39.5 47.2 38.8 47.5 38 47.5H12ZM23.45 32.15V9.3L19.05 13.7L16.9 11.55L24.95 3.5L33 11.55L30.85 13.7L26.45 9.3V32.15H23.45Z" fill="#007AFF"/>
</svg>
