<svg width="25" height="26" viewBox="0 0 25 26" fill="none" xmlns="http://www.w3.org/2000/svg">
<g clip-path="url(#clip0_839_611)">
<mask id="mask0_839_611" style="mask-type:luminance" maskUnits="userSpaceOnUse" x="0" y="1" width="25" height="24">
<path d="M24.5 1H0.5V25H24.5V1Z" fill="white"/>
</mask>
<g mask="url(#mask0_839_611)">
<path d="M12.5 25C5.873 25 0.5 19.627 0.5 13C0.5 6.373 5.873 1 12.5 1C19.127 1 24.5 6.373 24.5 13C24.5 19.627 19.127 25 12.5 25ZM12.5 24.25C18.713 24.25 23.75 19.213 23.75 13C23.75 6.787 18.713 1.75 12.5 1.75C6.287 1.75 1.25 6.787 1.25 13C1.25 19.213 6.287 24.25 12.5 24.25ZM12.5 3C12.5663 3 12.6299 3.02634 12.6768 3.07322C12.7237 3.12011 12.75 3.1837 12.75 3.25V4.25C12.75 4.3163 12.7237 4.37989 12.6768 4.42678C12.6299 4.47366 12.5663 4.5 12.5 4.5C12.4337 4.5 12.3701 4.47366 12.3232 4.42678C12.2763 4.37989 12.25 4.3163 12.25 4.25V3.25C12.25 3.1837 12.2763 3.12011 12.3232 3.07322C12.3701 3.02634 12.4337 3 12.5 3ZM12.5 21.5C12.5663 21.5 12.6299 21.5263 12.6768 21.5732C12.7237 21.6201 12.75 21.6837 12.75 21.75V22.75C12.75 22.8163 12.7237 22.8799 12.6768 22.9268C12.6299 22.9737 12.5663 23 12.5 23C12.4337 23 12.3701 22.9737 12.3232 22.9268C12.2763 22.8799 12.25 22.8163 12.25 22.75V21.75C12.25 21.6837 12.2763 21.6201 12.3232 21.5732C12.3701 21.5263 12.4337 21.5 12.5 21.5ZM19.571 5.929C19.6177 5.97586 19.6439 6.03933 19.6439 6.1055C19.6439 6.17167 19.6177 6.23514 19.571 6.282L18.864 6.99C18.8171 7.03694 18.7534 7.06332 18.687 7.06332C18.6206 7.06332 18.5569 7.03694 18.51 6.99C18.4631 6.94306 18.4367 6.87939 18.4367 6.813C18.4367 6.74661 18.4631 6.68294 18.51 6.636L19.218 5.929C19.2649 5.88228 19.3283 5.85605 19.3945 5.85605C19.4607 5.85605 19.5241 5.88228 19.571 5.929ZM6.49 19.01C6.51328 19.0332 6.53175 19.0608 6.54436 19.0912C6.55696 19.1216 6.56345 19.1541 6.56345 19.187C6.56345 19.2199 6.55696 19.2524 6.54436 19.2828C6.53175 19.3132 6.51328 19.3408 6.49 19.364L5.782 20.071C5.75934 20.0964 5.73174 20.1168 5.70089 20.1311C5.67004 20.1455 5.6366 20.1533 5.60261 20.1543C5.56861 20.1552 5.53478 20.1492 5.50318 20.1367C5.47158 20.1241 5.44288 20.1052 5.41884 20.0812C5.39479 20.0571 5.3759 20.0284 5.36333 19.9968C5.35075 19.9652 5.34476 19.9314 5.34571 19.8974C5.34666 19.8634 5.35454 19.83 5.36886 19.7991C5.38318 19.7683 5.40365 19.7407 5.429 19.718L6.136 19.01C6.15922 18.9867 6.18681 18.9682 6.21718 18.9556C6.24756 18.943 6.28012 18.9366 6.313 18.9366C6.34588 18.9366 6.37844 18.943 6.40882 18.9556C6.43919 18.9682 6.46678 18.9867 6.49 19.01ZM5.429 5.93C5.47586 5.88328 5.53933 5.85705 5.6055 5.85705C5.67167 5.85705 5.73514 5.88328 5.782 5.93L6.49 6.637C6.51324 6.66024 6.53168 6.68784 6.54426 6.71821C6.55684 6.74858 6.56332 6.78113 6.56332 6.814C6.56332 6.84687 6.55684 6.87942 6.54426 6.90979C6.53168 6.94016 6.51324 6.96776 6.49 6.991C6.46676 7.01424 6.43916 7.03268 6.40879 7.04526C6.37842 7.05784 6.34587 7.06432 6.313 7.06432C6.28013 7.06432 6.24758 7.05784 6.21721 7.04526C6.18684 7.03268 6.15924 7.01424 6.136 6.991L5.429 6.283C5.38228 6.23614 5.35605 6.17267 5.35605 6.1065C5.35605 6.04033 5.38228 5.97686 5.429 5.93ZM18.51 19.01C18.5332 18.9867 18.5608 18.9682 18.5912 18.9556C18.6216 18.943 18.6541 18.9366 18.687 18.9366C18.7199 18.9366 18.7524 18.943 18.7828 18.9556C18.8132 18.9682 18.8408 18.9867 18.864 19.01L19.571 19.718C19.5964 19.7407 19.6168 19.7683 19.6311 19.7991C19.6455 19.83 19.6533 19.8634 19.6543 19.8974C19.6552 19.9314 19.6492 19.9652 19.6367 19.9968C19.6241 20.0284 19.6052 20.0571 19.5812 20.0812C19.5571 20.1052 19.5284 20.1241 19.4968 20.1367C19.4652 20.1492 19.4314 20.1552 19.3974 20.1543C19.3634 20.1533 19.33 20.1455 19.2991 20.1311C19.2683 20.1168 19.2407 20.0964 19.218 20.071L18.51 19.364C18.4867 19.3408 18.4682 19.3132 18.4556 19.2828C18.443 19.2524 18.4366 19.2199 18.4366 19.187C18.4366 19.1541 18.443 19.1216 18.4556 19.0912C18.4682 19.0608 18.4867 19.0332 18.51 19.01ZM2.5 13C2.5 12.9337 2.52634 12.8701 2.57322 12.8232C2.62011 12.7763 2.6837 12.75 2.75 12.75H3.75C3.8163 12.75 3.87989 12.7763 3.92678 12.8232C3.97366 12.8701 4 12.9337 4 13C4 13.0663 3.97366 13.1299 3.92678 13.1768C3.87989 13.2237 3.8163 13.25 3.75 13.25H2.75C2.6837 13.25 2.62011 13.2237 2.57322 13.1768C2.52634 13.1299 2.5 13.0663 2.5 13ZM21 13C21 12.9337 21.0263 12.8701 21.0732 12.8232C21.1201 12.7763 21.1837 12.75 21.25 12.75H22.25C22.3163 12.75 22.3799 12.7763 22.4268 12.8232C22.4737 12.8701 22.5 12.9337 22.5 13C22.5 13.0663 22.4737 13.1299 22.4268 13.1768C22.3799 13.2237 22.3163 13.25 22.25 13.25H21.25C21.1837 13.25 21.1201 13.2237 21.0732 13.1768C21.0263 13.1299 21 13.0663 21 13ZM16.407 3.795C16.4373 3.80777 16.4648 3.8264 16.4879 3.84981C16.5109 3.87321 16.5292 3.90095 16.5415 3.93141C16.5539 3.96188 16.5601 3.99448 16.5599 4.02736C16.5596 4.06023 16.5528 4.09273 16.54 4.123L16.149 5.043C16.1371 5.07446 16.1189 5.10319 16.0956 5.12748C16.0723 5.15176 16.0444 5.17109 16.0135 5.18431C15.9825 5.19753 15.9492 5.20437 15.9156 5.20441C15.8819 5.20446 15.8486 5.19772 15.8176 5.18459C15.7867 5.17146 15.7587 5.15221 15.7353 5.12799C15.7119 5.10378 15.6937 5.0751 15.6817 5.04367C15.6697 5.01224 15.6641 4.97871 15.6654 4.94509C15.6666 4.91147 15.6747 4.87845 15.689 4.848L16.079 3.928C16.0918 3.89771 16.1104 3.87023 16.1338 3.84715C16.1572 3.82406 16.1849 3.80582 16.2154 3.79346C16.2459 3.78111 16.2785 3.77489 16.3114 3.77515C16.3442 3.77541 16.3767 3.78216 16.407 3.795ZM9.18 20.825C9.24075 20.851 9.28874 20.9 9.31348 20.9613C9.33821 21.0225 9.33768 21.0911 9.312 21.152L8.922 22.072C8.89449 22.1305 8.8454 22.176 8.78504 22.1991C8.72467 22.2222 8.65771 22.221 8.59821 22.1958C8.5387 22.1705 8.49128 22.1232 8.46589 22.0638C8.44049 22.0044 8.4391 21.9374 8.462 21.877L8.852 20.957C8.86477 20.9267 8.8834 20.8992 8.90681 20.8761C8.93021 20.8531 8.95794 20.8348 8.98841 20.8225C9.01888 20.8101 9.05148 20.8039 9.08436 20.8041C9.11723 20.8044 9.14974 20.8112 9.18 20.824V20.825ZM21.772 9.253C21.7967 9.31441 21.7961 9.3831 21.7702 9.44403C21.7443 9.50495 21.6953 9.55313 21.634 9.578L20.707 9.953C20.6765 9.96534 20.6439 9.97157 20.6111 9.97131C20.5782 9.97106 20.5457 9.96433 20.5154 9.95152C20.4851 9.9387 20.4577 9.92005 20.4346 9.89663C20.4116 9.8732 20.3933 9.84547 20.381 9.815C20.3687 9.78453 20.3624 9.75193 20.3627 9.71906C20.3629 9.68619 20.3697 9.65369 20.3825 9.62342C20.3953 9.59315 20.4139 9.5657 20.4374 9.54263C20.4608 9.51957 20.4885 9.50134 20.519 9.489L21.446 9.115C21.4765 9.10261 21.5091 9.09636 21.542 9.09659C21.5748 9.09682 21.6073 9.10354 21.6376 9.11636C21.6679 9.12918 21.6954 9.14785 21.7184 9.17129C21.7415 9.19474 21.7597 9.22251 21.772 9.253ZM4.619 16.183C4.63139 16.2135 4.63764 16.2461 4.63741 16.279C4.63718 16.3118 4.63046 16.3444 4.61764 16.3746C4.60482 16.4049 4.58615 16.4324 4.56271 16.4554C4.53926 16.4785 4.51149 16.4967 4.481 16.509L3.554 16.883C3.52337 16.8967 3.4903 16.904 3.45676 16.9046C3.42322 16.9053 3.3899 16.8991 3.35878 16.8866C3.32767 16.8741 3.29939 16.8554 3.27564 16.8317C3.25188 16.808 3.23314 16.7798 3.22052 16.7487C3.2079 16.7177 3.20166 16.6844 3.20218 16.6508C3.2027 16.6173 3.20996 16.5842 3.22354 16.5535C3.23711 16.5228 3.25672 16.4952 3.2812 16.4723C3.30567 16.4493 3.33451 16.4316 3.366 16.42L4.293 16.045C4.32346 16.0326 4.35607 16.0264 4.38895 16.0266C4.42184 16.0268 4.45435 16.0335 4.48463 16.0464C4.51492 16.0592 4.54237 16.0778 4.56543 16.1013C4.58849 16.1247 4.60669 16.1525 4.619 16.183ZM8.754 3.728C8.81541 3.70329 8.8841 3.70395 8.94503 3.72982C9.00595 3.75569 9.05413 3.80466 9.079 3.866L9.454 4.793C9.46634 4.82347 9.47257 4.85607 9.47231 4.88894C9.47206 4.92181 9.46533 4.95431 9.45252 4.98458C9.4397 5.01485 9.42105 5.0423 9.39763 5.06537C9.3742 5.08843 9.34647 5.10666 9.316 5.119C9.28553 5.13134 9.25293 5.13757 9.22006 5.13731C9.18719 5.13706 9.15469 5.13033 9.12442 5.11752C9.09415 5.1047 9.0667 5.08605 9.04363 5.06263C9.02057 5.0392 9.00234 5.01147 8.99 4.981L8.616 4.054C8.60361 4.02354 8.59736 3.99093 8.59759 3.95805C8.59782 3.92516 8.60454 3.89265 8.61736 3.86237C8.63018 3.83208 8.64885 3.80463 8.67229 3.78157C8.69574 3.75851 8.72351 3.74031 8.754 3.728ZM15.684 20.881C15.7145 20.8686 15.7471 20.8624 15.78 20.8626C15.8128 20.8628 15.8453 20.8695 15.8756 20.8824C15.9059 20.8952 15.9334 20.9138 15.9564 20.9373C15.9795 20.9607 15.9977 20.9885 16.01 21.019L16.384 21.946C16.3977 21.9766 16.405 22.0097 16.4056 22.0432C16.4063 22.0768 16.4001 22.1101 16.3876 22.1412C16.3751 22.1723 16.3564 22.2006 16.3327 22.2244C16.309 22.2481 16.2808 22.2669 16.2497 22.2795C16.2187 22.2921 16.1854 22.2983 16.1518 22.2978C16.1183 22.2973 16.0852 22.29 16.0545 22.2765C16.0238 22.2629 15.9962 22.2433 15.9733 22.2188C15.9503 22.1943 15.9326 22.1655 15.921 22.134L15.546 21.207C15.5336 21.1765 15.5274 21.1439 15.5276 21.111C15.5278 21.0782 15.5345 21.0457 15.5474 21.0154C15.5602 20.9851 15.5788 20.9576 15.6023 20.9346C15.6257 20.9115 15.6535 20.8933 15.684 20.881ZM3.295 9.093C3.30777 9.06271 3.3264 9.03523 3.34981 9.01215C3.37321 8.98906 3.40095 8.97082 3.43141 8.95846C3.46188 8.94611 3.49448 8.93989 3.52736 8.94015C3.56023 8.94041 3.59273 8.94716 3.623 8.96L4.543 9.351C4.60148 9.37851 4.64704 9.4276 4.67011 9.48797C4.69318 9.54833 4.69198 9.61529 4.66676 9.67479C4.64153 9.7343 4.59425 9.78172 4.53482 9.80711C4.47539 9.83251 4.40843 9.8339 4.348 9.811L3.428 9.421C3.39771 9.40822 3.37023 9.3896 3.34715 9.36619C3.32406 9.34279 3.30582 9.31505 3.29346 9.28459C3.28111 9.25412 3.27489 9.22152 3.27515 9.18864C3.27541 9.15577 3.28216 9.12327 3.295 9.093ZM20.325 16.321C20.351 16.2602 20.4 16.2123 20.4613 16.1875C20.5225 16.1628 20.5911 16.1633 20.652 16.189L21.572 16.579C21.6035 16.5909 21.6322 16.6091 21.6565 16.6324C21.6808 16.6557 21.7001 16.6836 21.7133 16.7145C21.7265 16.7455 21.7334 16.7788 21.7334 16.8124C21.7335 16.8461 21.7267 16.8794 21.7136 16.9104C21.7005 16.9413 21.6812 16.9693 21.657 16.9927C21.6328 17.0161 21.6041 17.0343 21.5727 17.0463C21.5412 17.0583 21.5077 17.0639 21.4741 17.0626C21.4405 17.0614 21.4074 17.0533 21.377 17.039L20.457 16.649C20.4267 16.6362 20.3992 16.6176 20.3761 16.5942C20.3531 16.5708 20.3348 16.5431 20.3225 16.5126C20.3101 16.4821 20.3039 16.4495 20.3041 16.4166C20.3044 16.3838 20.3112 16.3513 20.324 16.321H20.325ZM13.379 13.879L11.62 12.12L7.479 18.02L13.378 13.878L13.379 13.879ZM19.571 5.929L13.737 14.237L5.429 20.071L11.263 11.763L19.571 5.929Z" fill="black"/>
</g>
</g>
<defs>
<clipPath id="clip0_839_611">
<rect width="24" height="25" fill="white" transform="translate(0.5 0.5)"/>
</clipPath>
</defs>
</svg>
