<svg width="24" height="25" viewBox="0 0 24 25" fill="none" xmlns="http://www.w3.org/2000/svg">
<g clip-path="url(#clip0_837_435)">
<path d="M12 24.5C5.373 24.5 0 19.127 0 12.5C0 5.873 5.373 0.5 12 0.5C18.627 0.5 24 5.873 24 12.5C24 19.127 18.627 24.5 12 24.5ZM12 23.75C18.213 23.75 23.25 18.713 23.25 12.5C23.25 6.287 18.213 1.25 12 1.25C5.787 1.25 0.75 6.287 0.75 12.5C0.75 18.713 5.787 23.75 12 23.75ZM12 2.5C12.0663 2.5 12.1299 2.52634 12.1768 2.57322C12.2237 2.62011 12.25 2.6837 12.25 2.75V3.75C12.25 3.8163 12.2237 3.87989 12.1768 3.92678C12.1299 3.97366 12.0663 4 12 4C11.9337 4 11.8701 3.97366 11.8232 3.92678C11.7763 3.87989 11.75 3.8163 11.75 3.75V2.75C11.75 2.6837 11.7763 2.62011 11.8232 2.57322C11.8701 2.52634 11.9337 2.5 12 2.5ZM12 21C12.0663 21 12.1299 21.0263 12.1768 21.0732C12.2237 21.1201 12.25 21.1837 12.25 21.25V22.25C12.25 22.3163 12.2237 22.3799 12.1768 22.4268C12.1299 22.4737 12.0663 22.5 12 22.5C11.9337 22.5 11.8701 22.4737 11.8232 22.4268C11.7763 22.3799 11.75 22.3163 11.75 22.25V21.25C11.75 21.1837 11.7763 21.1201 11.8232 21.0732C11.8701 21.0263 11.9337 21 12 21ZM19.071 5.429C19.1177 5.47586 19.1439 5.53933 19.1439 5.6055C19.1439 5.67167 19.1177 5.73514 19.071 5.782L18.364 6.49C18.3171 6.53694 18.2534 6.56332 18.187 6.56332C18.1206 6.56332 18.0569 6.53694 18.01 6.49C17.9631 6.44306 17.9367 6.37939 17.9367 6.313C17.9367 6.24661 17.9631 6.18294 18.01 6.136L18.718 5.429C18.7649 5.38228 18.8283 5.35605 18.8945 5.35605C18.9607 5.35605 19.0241 5.38228 19.071 5.429ZM5.99 18.51C6.01328 18.5332 6.03175 18.5608 6.04436 18.5912C6.05696 18.6216 6.06345 18.6541 6.06345 18.687C6.06345 18.7199 6.05696 18.7524 6.04436 18.7828C6.03175 18.8132 6.01328 18.8408 5.99 18.864L5.282 19.571C5.25934 19.5964 5.23174 19.6168 5.20089 19.6311C5.17004 19.6455 5.1366 19.6533 5.10261 19.6543C5.06861 19.6552 5.03478 19.6492 5.00318 19.6367C4.97158 19.6241 4.94288 19.6052 4.91884 19.5812C4.89479 19.5571 4.8759 19.5284 4.86333 19.4968C4.85075 19.4652 4.84476 19.4314 4.84571 19.3974C4.84666 19.3634 4.85454 19.33 4.86886 19.2991C4.88318 19.2683 4.90365 19.2407 4.929 19.218L5.636 18.51C5.65922 18.4867 5.68681 18.4682 5.71718 18.4556C5.74756 18.443 5.78012 18.4366 5.813 18.4366C5.84588 18.4366 5.87844 18.443 5.90882 18.4556C5.93919 18.4682 5.96678 18.4867 5.99 18.51ZM4.929 5.43C4.97586 5.38328 5.03933 5.35705 5.1055 5.35705C5.17167 5.35705 5.23514 5.38328 5.282 5.43L5.99 6.137C6.01324 6.16024 6.03168 6.18784 6.04426 6.21821C6.05684 6.24858 6.06332 6.28113 6.06332 6.314C6.06332 6.34687 6.05684 6.37942 6.04426 6.40979C6.03168 6.44016 6.01324 6.46776 5.99 6.491C5.96676 6.51424 5.93916 6.53268 5.90879 6.54526C5.87842 6.55784 5.84587 6.56432 5.813 6.56432C5.78013 6.56432 5.74758 6.55784 5.71721 6.54526C5.68684 6.53268 5.65924 6.51424 5.636 6.491L4.929 5.783C4.88228 5.73614 4.85605 5.67267 4.85605 5.6065C4.85605 5.54033 4.88228 5.47686 4.929 5.43ZM18.01 18.51C18.0332 18.4867 18.0608 18.4682 18.0912 18.4556C18.1216 18.443 18.1541 18.4366 18.187 18.4366C18.2199 18.4366 18.2524 18.443 18.2828 18.4556C18.3132 18.4682 18.3408 18.4867 18.364 18.51L19.071 19.218C19.0964 19.2407 19.1168 19.2683 19.1311 19.2991C19.1455 19.33 19.1533 19.3634 19.1543 19.3974C19.1552 19.4314 19.1492 19.4652 19.1367 19.4968C19.1241 19.5284 19.1052 19.5571 19.0812 19.5812C19.0571 19.6052 19.0284 19.6241 18.9968 19.6367C18.9652 19.6492 18.9314 19.6552 18.8974 19.6543C18.8634 19.6533 18.83 19.6455 18.7991 19.6311C18.7683 19.6168 18.7407 19.5964 18.718 19.571L18.01 18.864C17.9867 18.8408 17.9682 18.8132 17.9556 18.7828C17.943 18.7524 17.9366 18.7199 17.9366 18.687C17.9366 18.6541 17.943 18.6216 17.9556 18.5912C17.9682 18.5608 17.9867 18.5332 18.01 18.51ZM2 12.5C2 12.4337 2.02634 12.3701 2.07322 12.3232C2.12011 12.2763 2.1837 12.25 2.25 12.25H3.25C3.3163 12.25 3.37989 12.2763 3.42678 12.3232C3.47366 12.3701 3.5 12.4337 3.5 12.5C3.5 12.5663 3.47366 12.6299 3.42678 12.6768C3.37989 12.7237 3.3163 12.75 3.25 12.75H2.25C2.1837 12.75 2.12011 12.7237 2.07322 12.6768C2.02634 12.6299 2 12.5663 2 12.5ZM20.5 12.5C20.5 12.4337 20.5263 12.3701 20.5732 12.3232C20.6201 12.2763 20.6837 12.25 20.75 12.25H21.75C21.8163 12.25 21.8799 12.2763 21.9268 12.3232C21.9737 12.3701 22 12.4337 22 12.5C22 12.5663 21.9737 12.6299 21.9268 12.6768C21.8799 12.7237 21.8163 12.75 21.75 12.75H20.75C20.6837 12.75 20.6201 12.7237 20.5732 12.6768C20.5263 12.6299 20.5 12.5663 20.5 12.5ZM15.907 3.295C15.9373 3.30777 15.9648 3.3264 15.9879 3.34981C16.0109 3.37321 16.0292 3.40095 16.0415 3.43141C16.0539 3.46188 16.0601 3.49448 16.0599 3.52736C16.0596 3.56023 16.0528 3.59273 16.04 3.623L15.649 4.543C15.6371 4.57446 15.6189 4.60319 15.5956 4.62748C15.5723 4.65176 15.5444 4.67109 15.5135 4.68431C15.4825 4.69753 15.4492 4.70437 15.4156 4.70441C15.3819 4.70446 15.3486 4.69772 15.3176 4.68459C15.2867 4.67146 15.2587 4.65221 15.2353 4.62799C15.2119 4.60378 15.1937 4.5751 15.1817 4.54367C15.1697 4.51224 15.1641 4.47871 15.1654 4.44509C15.1666 4.41147 15.1747 4.37845 15.189 4.348L15.579 3.428C15.5918 3.39771 15.6104 3.37023 15.6338 3.34715C15.6572 3.32406 15.6849 3.30582 15.7154 3.29346C15.7459 3.28111 15.7785 3.27489 15.8114 3.27515C15.8442 3.27541 15.8767 3.28216 15.907 3.295ZM8.68 20.325C8.74075 20.351 8.78874 20.4 8.81348 20.4613C8.83821 20.5225 8.83768 20.5911 8.812 20.652L8.422 21.572C8.39449 21.6305 8.3454 21.676 8.28504 21.6991C8.22467 21.7222 8.15771 21.721 8.09821 21.6958C8.0387 21.6705 7.99128 21.6232 7.96589 21.5638C7.94049 21.5044 7.9391 21.4374 7.962 21.377L8.352 20.457C8.36477 20.4267 8.3834 20.3992 8.40681 20.3761C8.43021 20.3531 8.45794 20.3348 8.48841 20.3225C8.51888 20.3101 8.55148 20.3039 8.58436 20.3041C8.61723 20.3044 8.64974 20.3112 8.68 20.324V20.325ZM21.272 8.753C21.2967 8.81441 21.2961 8.8831 21.2702 8.94403C21.2443 9.00495 21.1953 9.05313 21.134 9.078L20.207 9.453C20.1765 9.46534 20.1439 9.47157 20.1111 9.47131C20.0782 9.47106 20.0457 9.46433 20.0154 9.45152C19.9851 9.4387 19.9577 9.42005 19.9346 9.39663C19.9116 9.3732 19.8933 9.34547 19.881 9.315C19.8687 9.28453 19.8624 9.25193 19.8627 9.21906C19.8629 9.18619 19.8697 9.15369 19.8825 9.12342C19.8953 9.09315 19.9139 9.0657 19.9374 9.04263C19.9608 9.01957 19.9885 9.00134 20.019 8.989L20.946 8.615C20.9765 8.60261 21.0091 8.59636 21.042 8.59659C21.0748 8.59682 21.1073 8.60354 21.1376 8.61636C21.1679 8.62918 21.1954 8.64785 21.2184 8.67129C21.2415 8.69474 21.2597 8.72251 21.272 8.753ZM4.119 15.683C4.13139 15.7135 4.13764 15.7461 4.13741 15.779C4.13718 15.8118 4.13046 15.8444 4.11764 15.8746C4.10482 15.9049 4.08615 15.9324 4.06271 15.9554C4.03926 15.9785 4.01149 15.9967 3.981 16.009L3.054 16.383C3.02337 16.3967 2.9903 16.404 2.95676 16.4046C2.92322 16.4053 2.8899 16.3991 2.85878 16.3866C2.82767 16.3741 2.79939 16.3554 2.77564 16.3317C2.75188 16.308 2.73314 16.2798 2.72052 16.2487C2.7079 16.2177 2.70166 16.1844 2.70218 16.1508C2.7027 16.1173 2.70996 16.0842 2.72354 16.0535C2.73711 16.0228 2.75672 15.9952 2.7812 15.9723C2.80567 15.9493 2.83451 15.9316 2.866 15.92L3.793 15.545C3.82346 15.5326 3.85607 15.5264 3.88895 15.5266C3.92184 15.5268 3.95435 15.5335 3.98463 15.5464C4.01492 15.5592 4.04237 15.5778 4.06543 15.6013C4.08849 15.6247 4.10669 15.6525 4.119 15.683ZM8.254 3.228C8.31541 3.20329 8.3841 3.20395 8.44503 3.22982C8.50595 3.25569 8.55413 3.30466 8.579 3.366L8.954 4.293C8.96634 4.32347 8.97257 4.35607 8.97231 4.38894C8.97206 4.42181 8.96533 4.45431 8.95252 4.48458C8.9397 4.51485 8.92105 4.5423 8.89763 4.56537C8.8742 4.58843 8.84647 4.60666 8.816 4.619C8.78553 4.63134 8.75293 4.63757 8.72006 4.63731C8.68719 4.63706 8.65469 4.63033 8.62442 4.61752C8.59415 4.6047 8.5667 4.58605 8.54363 4.56263C8.52057 4.5392 8.50234 4.51147 8.49 4.481L8.116 3.554C8.10361 3.52354 8.09736 3.49093 8.09759 3.45805C8.09782 3.42516 8.10454 3.39265 8.11736 3.36237C8.13018 3.33208 8.14885 3.30463 8.17229 3.28157C8.19574 3.25851 8.22351 3.24031 8.254 3.228ZM15.184 20.381C15.2145 20.3686 15.2471 20.3624 15.28 20.3626C15.3128 20.3628 15.3453 20.3695 15.3756 20.3824C15.4059 20.3952 15.4334 20.4138 15.4564 20.4373C15.4795 20.4607 15.4977 20.4885 15.51 20.519L15.884 21.446C15.8977 21.4766 15.905 21.5097 15.9056 21.5432C15.9063 21.5768 15.9001 21.6101 15.8876 21.6412C15.8751 21.6723 15.8564 21.7006 15.8327 21.7244C15.809 21.7481 15.7808 21.7669 15.7497 21.7795C15.7187 21.7921 15.6854 21.7983 15.6518 21.7978C15.6183 21.7973 15.5852 21.79 15.5545 21.7765C15.5238 21.7629 15.4962 21.7433 15.4733 21.7188C15.4503 21.6943 15.4326 21.6655 15.421 21.634L15.046 20.707C15.0336 20.6765 15.0274 20.6439 15.0276 20.611C15.0278 20.5782 15.0345 20.5457 15.0474 20.5154C15.0602 20.4851 15.0788 20.4576 15.1023 20.4346C15.1257 20.4115 15.1535 20.3933 15.184 20.381ZM2.795 8.593C2.80777 8.56271 2.8264 8.53523 2.84981 8.51215C2.87321 8.48906 2.90095 8.47082 2.93141 8.45846C2.96188 8.44611 2.99448 8.43989 3.02736 8.44015C3.06023 8.44041 3.09273 8.44716 3.123 8.46L4.043 8.851C4.10148 8.87851 4.14704 8.9276 4.17011 8.98797C4.19318 9.04833 4.19198 9.11529 4.16676 9.17479C4.14153 9.2343 4.09425 9.28172 4.03482 9.30711C3.97539 9.33251 3.90843 9.3339 3.848 9.311L2.928 8.921C2.89771 8.90822 2.87023 8.8896 2.84715 8.86619C2.82406 8.84279 2.80582 8.81505 2.79346 8.78459C2.78111 8.75412 2.77489 8.72152 2.77515 8.68864C2.77541 8.65577 2.78216 8.62327 2.795 8.593ZM19.825 15.821C19.851 15.7602 19.9 15.7123 19.9613 15.6875C20.0225 15.6628 20.0911 15.6633 20.152 15.689L21.072 16.079C21.1035 16.0909 21.1322 16.1091 21.1565 16.1324C21.1808 16.1557 21.2001 16.1836 21.2133 16.2145C21.2265 16.2455 21.2334 16.2788 21.2334 16.3124C21.2335 16.3461 21.2267 16.3794 21.2136 16.4104C21.2005 16.4413 21.1812 16.4693 21.157 16.4927C21.1328 16.5161 21.1041 16.5343 21.0727 16.5463C21.0412 16.5583 21.0077 16.5639 20.9741 16.5626C20.9405 16.5614 20.9074 16.5533 20.877 16.539L19.957 16.149C19.9267 16.1362 19.8992 16.1176 19.8761 16.0942C19.8531 16.0708 19.8348 16.0431 19.8225 16.0126C19.8101 15.9821 19.8039 15.9495 19.8041 15.9166C19.8044 15.8838 19.8112 15.8513 19.824 15.821H19.825ZM12.879 13.379L11.12 11.62L6.979 17.52L12.878 13.378L12.879 13.379ZM19.071 5.429L13.237 13.737L4.929 19.571L10.763 11.263L19.071 5.429Z" fill="black"/>
</g>
<defs>
<clipPath id="clip0_837_435">
<rect width="24" height="24" fill="white" transform="translate(0 0.5)"/>
</clipPath>
</defs>
</svg>
