<svg width="26" height="27" viewBox="0 0 26 27" fill="none" xmlns="http://www.w3.org/2000/svg">
<mask id="mask0_880_335" style="mask-type:luminance" maskUnits="userSpaceOnUse" x="1" y="1" width="24" height="25">
<path d="M25 1H1V26H25V1Z" fill="white"/>
</mask>
<g mask="url(#mask0_880_335)">
<mask id="mask1_880_335" style="mask-type:luminance" maskUnits="userSpaceOnUse" x="1" y="1" width="24" height="25">
<path d="M25 1.5H1V25.5H25V1.5Z" fill="white"/>
</mask>
<g mask="url(#mask1_880_335)">
<path d="M13 25.5C6.373 25.5 1 20.127 1 13.5C1 6.873 6.373 1.5 13 1.5C19.627 1.5 25 6.873 25 13.5C25 20.127 19.627 25.5 13 25.5ZM13 24.75C19.213 24.75 24.25 19.713 24.25 13.5C24.25 7.287 19.213 2.25 13 2.25C6.787 2.25 1.75 7.287 1.75 13.5C1.75 19.713 6.787 24.75 13 24.75ZM13 3.5C13.0663 3.5 13.1299 3.52634 13.1768 3.57322C13.2237 3.62011 13.25 3.6837 13.25 3.75V4.75C13.25 4.8163 13.2237 4.87989 13.1768 4.92678C13.1299 4.97366 13.0663 5 13 5C12.9337 5 12.8701 4.97366 12.8232 4.92678C12.7763 4.87989 12.75 4.8163 12.75 4.75V3.75C12.75 3.6837 12.7763 3.62011 12.8232 3.57322C12.8701 3.52634 12.9337 3.5 13 3.5ZM13 22C13.0663 22 13.1299 22.0263 13.1768 22.0732C13.2237 22.1201 13.25 22.1837 13.25 22.25V23.25C13.25 23.3163 13.2237 23.3799 13.1768 23.4268C13.1299 23.4737 13.0663 23.5 13 23.5C12.9337 23.5 12.8701 23.4737 12.8232 23.4268C12.7763 23.3799 12.75 23.3163 12.75 23.25V22.25C12.75 22.1837 12.7763 22.1201 12.8232 22.0732C12.8701 22.0263 12.9337 22 13 22ZM20.071 6.429C20.1177 6.47586 20.1439 6.53933 20.1439 6.6055C20.1439 6.67167 20.1177 6.73514 20.071 6.782L19.364 7.49C19.3171 7.53694 19.2534 7.56332 19.187 7.56332C19.1206 7.56332 19.0569 7.53694 19.01 7.49C18.9631 7.44306 18.9367 7.37939 18.9367 7.313C18.9367 7.24661 18.9631 7.18294 19.01 7.136L19.718 6.429C19.7649 6.38228 19.8283 6.35605 19.8945 6.35605C19.9607 6.35605 20.0241 6.38228 20.071 6.429ZM6.99 19.51C7.01328 19.5332 7.03175 19.5608 7.04436 19.5912C7.05696 19.6216 7.06345 19.6541 7.06345 19.687C7.06345 19.7199 7.05696 19.7524 7.04436 19.7828C7.03175 19.8132 7.01328 19.8408 6.99 19.864L6.282 20.571C6.25934 20.5964 6.23174 20.6168 6.20089 20.6311C6.17004 20.6455 6.1366 20.6533 6.10261 20.6543C6.06861 20.6552 6.03478 20.6492 6.00318 20.6367C5.97158 20.6241 5.94288 20.6052 5.91884 20.5812C5.89479 20.5571 5.8759 20.5284 5.86333 20.4968C5.85075 20.4652 5.84476 20.4314 5.84571 20.3974C5.84666 20.3634 5.85454 20.33 5.86886 20.2991C5.88318 20.2683 5.90365 20.2407 5.929 20.218L6.636 19.51C6.65922 19.4867 6.68681 19.4682 6.71718 19.4556C6.74756 19.443 6.78012 19.4366 6.813 19.4366C6.84588 19.4366 6.87844 19.443 6.90882 19.4556C6.93919 19.4682 6.96678 19.4867 6.99 19.51ZM5.929 6.43C5.97586 6.38328 6.03933 6.35705 6.1055 6.35705C6.17167 6.35705 6.23514 6.38328 6.282 6.43L6.99 7.137C7.01324 7.16024 7.03168 7.18784 7.04426 7.21821C7.05684 7.24858 7.06332 7.28113 7.06332 7.314C7.06332 7.34687 7.05684 7.37942 7.04426 7.40979C7.03168 7.44016 7.01324 7.46776 6.99 7.491C6.96676 7.51424 6.93916 7.53268 6.90879 7.54526C6.87842 7.55784 6.84587 7.56432 6.813 7.56432C6.78013 7.56432 6.74758 7.55784 6.71721 7.54526C6.68684 7.53268 6.65924 7.51424 6.636 7.491L5.929 6.783C5.88228 6.73614 5.85605 6.67267 5.85605 6.6065C5.85605 6.54033 5.88228 6.47686 5.929 6.43ZM19.01 19.51C19.0332 19.4867 19.0608 19.4682 19.0912 19.4556C19.1216 19.443 19.1541 19.4366 19.187 19.4366C19.2199 19.4366 19.2524 19.443 19.2828 19.4556C19.3132 19.4682 19.3408 19.4867 19.364 19.51L20.071 20.218C20.0964 20.2407 20.1168 20.2683 20.1311 20.2991C20.1455 20.33 20.1533 20.3634 20.1543 20.3974C20.1552 20.4314 20.1492 20.4652 20.1367 20.4968C20.1241 20.5284 20.1052 20.5571 20.0812 20.5812C20.0571 20.6052 20.0284 20.6241 19.9968 20.6367C19.9652 20.6492 19.9314 20.6552 19.8974 20.6543C19.8634 20.6533 19.83 20.6455 19.7991 20.6311C19.7683 20.6168 19.7407 20.5964 19.718 20.571L19.01 19.864C18.9867 19.8408 18.9682 19.8132 18.9556 19.7828C18.943 19.7524 18.9366 19.7199 18.9366 19.687C18.9366 19.6541 18.943 19.6216 18.9556 19.5912C18.9682 19.5608 18.9867 19.5332 19.01 19.51ZM3 13.5C3 13.4337 3.02634 13.3701 3.07322 13.3232C3.12011 13.2763 3.1837 13.25 3.25 13.25H4.25C4.3163 13.25 4.37989 13.2763 4.42678 13.3232C4.47366 13.3701 4.5 13.4337 4.5 13.5C4.5 13.5663 4.47366 13.6299 4.42678 13.6768C4.37989 13.7237 4.3163 13.75 4.25 13.75H3.25C3.1837 13.75 3.12011 13.7237 3.07322 13.6768C3.02634 13.6299 3 13.5663 3 13.5ZM21.5 13.5C21.5 13.4337 21.5263 13.3701 21.5732 13.3232C21.6201 13.2763 21.6837 13.25 21.75 13.25H22.75C22.8163 13.25 22.8799 13.2763 22.9268 13.3232C22.9737 13.3701 23 13.4337 23 13.5C23 13.5663 22.9737 13.6299 22.9268 13.6768C22.8799 13.7237 22.8163 13.75 22.75 13.75H21.75C21.6837 13.75 21.6201 13.7237 21.5732 13.6768C21.5263 13.6299 21.5 13.5663 21.5 13.5ZM16.907 4.295C16.9373 4.30777 16.9648 4.3264 16.9879 4.34981C17.0109 4.37321 17.0292 4.40095 17.0415 4.43141C17.0539 4.46188 17.0601 4.49448 17.0599 4.52736C17.0596 4.56023 17.0528 4.59273 17.04 4.623L16.649 5.543C16.6371 5.57446 16.6189 5.60319 16.5956 5.62748C16.5723 5.65176 16.5444 5.67109 16.5135 5.68431C16.4825 5.69753 16.4492 5.70437 16.4156 5.70441C16.3819 5.70446 16.3486 5.69772 16.3176 5.68459C16.2867 5.67146 16.2587 5.65221 16.2353 5.62799C16.2119 5.60378 16.1937 5.5751 16.1817 5.54367C16.1697 5.51224 16.1641 5.47871 16.1654 5.44509C16.1666 5.41147 16.1747 5.37845 16.189 5.348L16.579 4.428C16.5918 4.39771 16.6104 4.37023 16.6338 4.34715C16.6572 4.32406 16.6849 4.30582 16.7154 4.29346C16.7459 4.28111 16.7785 4.27489 16.8114 4.27515C16.8442 4.27541 16.8767 4.28216 16.907 4.295ZM9.68 21.325C9.74075 21.351 9.78874 21.4 9.81348 21.4613C9.83821 21.5225 9.83768 21.5911 9.812 21.652L9.422 22.572C9.39449 22.6305 9.3454 22.676 9.28504 22.6991C9.22467 22.7222 9.15771 22.721 9.09821 22.6958C9.0387 22.6705 8.99128 22.6232 8.96589 22.5638C8.94049 22.5044 8.9391 22.4374 8.962 22.377L9.352 21.457C9.36477 21.4267 9.3834 21.3992 9.40681 21.3761C9.43021 21.3531 9.45794 21.3348 9.48841 21.3225C9.51888 21.3101 9.55148 21.3039 9.58436 21.3041C9.61723 21.3044 9.64974 21.3112 9.68 21.324V21.325ZM22.272 9.753C22.2967 9.81441 22.2961 9.8831 22.2702 9.94403C22.2443 10.0049 22.1953 10.0531 22.134 10.078L21.207 10.453C21.1765 10.4653 21.1439 10.4716 21.1111 10.4713C21.0782 10.4711 21.0457 10.4643 21.0154 10.4515C20.9851 10.4387 20.9577 10.4201 20.9346 10.3966C20.9116 10.3732 20.8933 10.3455 20.881 10.315C20.8687 10.2845 20.8624 10.2519 20.8627 10.2191C20.8629 10.1862 20.8697 10.1537 20.8825 10.1234C20.8953 10.0931 20.9139 10.0657 20.9374 10.0426C20.9608 10.0196 20.9885 10.0013 21.019 9.989L21.946 9.615C21.9765 9.60261 22.0091 9.59636 22.042 9.59659C22.0748 9.59682 22.1073 9.60354 22.1376 9.61636C22.1679 9.62918 22.1954 9.64785 22.2184 9.67129C22.2415 9.69474 22.2597 9.72251 22.272 9.753ZM5.119 16.683C5.13139 16.7135 5.13764 16.7461 5.13741 16.779C5.13718 16.8118 5.13046 16.8444 5.11764 16.8746C5.10482 16.9049 5.08615 16.9324 5.06271 16.9554C5.03926 16.9785 5.01149 16.9967 4.981 17.009L4.054 17.383C4.02337 17.3967 3.9903 17.404 3.95676 17.4046C3.92322 17.4053 3.8899 17.3991 3.85878 17.3866C3.82767 17.3741 3.79939 17.3554 3.77564 17.3317C3.75188 17.308 3.73314 17.2798 3.72052 17.2487C3.7079 17.2177 3.70166 17.1844 3.70218 17.1508C3.7027 17.1173 3.70996 17.0842 3.72354 17.0535C3.73711 17.0228 3.75672 16.9952 3.7812 16.9723C3.80567 16.9493 3.83451 16.9316 3.866 16.92L4.793 16.545C4.82346 16.5326 4.85607 16.5264 4.88895 16.5266C4.92184 16.5268 4.95435 16.5335 4.98463 16.5464C5.01492 16.5592 5.04237 16.5778 5.06543 16.6013C5.08849 16.6247 5.10669 16.6525 5.119 16.683ZM9.254 4.228C9.31541 4.20329 9.3841 4.20395 9.44503 4.22982C9.50595 4.25569 9.55413 4.30466 9.579 4.366L9.954 5.293C9.96634 5.32347 9.97257 5.35607 9.97231 5.38894C9.97206 5.42181 9.96533 5.45431 9.95252 5.48458C9.9397 5.51485 9.92105 5.5423 9.89763 5.56537C9.8742 5.58843 9.84647 5.60666 9.816 5.619C9.78553 5.63134 9.75293 5.63757 9.72006 5.63731C9.68719 5.63706 9.65469 5.63033 9.62442 5.61752C9.59415 5.6047 9.5667 5.58605 9.54363 5.56263C9.52057 5.5392 9.50234 5.51147 9.49 5.481L9.116 4.554C9.10361 4.52354 9.09736 4.49093 9.09759 4.45805C9.09782 4.42516 9.10454 4.39265 9.11736 4.36237C9.13018 4.33208 9.14885 4.30463 9.17229 4.28157C9.19574 4.25851 9.22351 4.24031 9.254 4.228ZM16.184 21.381C16.2145 21.3686 16.2471 21.3624 16.28 21.3626C16.3128 21.3628 16.3453 21.3695 16.3756 21.3824C16.4059 21.3952 16.4334 21.4138 16.4564 21.4373C16.4795 21.4607 16.4977 21.4885 16.51 21.519L16.884 22.446C16.8977 22.4766 16.905 22.5097 16.9056 22.5432C16.9063 22.5768 16.9001 22.6101 16.8876 22.6412C16.8751 22.6723 16.8564 22.7006 16.8327 22.7244C16.809 22.7481 16.7808 22.7669 16.7497 22.7795C16.7187 22.7921 16.6854 22.7983 16.6518 22.7978C16.6183 22.7973 16.5852 22.79 16.5545 22.7765C16.5238 22.7629 16.4962 22.7433 16.4733 22.7188C16.4503 22.6943 16.4326 22.6655 16.421 22.634L16.046 21.707C16.0336 21.6765 16.0274 21.6439 16.0276 21.611C16.0278 21.5782 16.0345 21.5457 16.0474 21.5154C16.0602 21.4851 16.0788 21.4576 16.1023 21.4346C16.1257 21.4115 16.1535 21.3933 16.184 21.381ZM3.795 9.593C3.80777 9.56271 3.8264 9.53523 3.84981 9.51215C3.87321 9.48906 3.90095 9.47082 3.93141 9.45846C3.96188 9.44611 3.99448 9.43989 4.02736 9.44015C4.06023 9.44041 4.09273 9.44716 4.123 9.46L5.043 9.851C5.10148 9.87851 5.14704 9.9276 5.17011 9.98797C5.19318 10.0483 5.19198 10.1153 5.16676 10.1748C5.14153 10.2343 5.09425 10.2817 5.03482 10.3071C4.97539 10.3325 4.90843 10.3339 4.848 10.311L3.928 9.921C3.89771 9.90822 3.87023 9.8896 3.84715 9.86619C3.82406 9.84279 3.80582 9.81505 3.79346 9.78459C3.78111 9.75412 3.77489 9.72152 3.77515 9.68864C3.77541 9.65577 3.78216 9.62327 3.795 9.593ZM20.825 16.821C20.851 16.7602 20.9 16.7123 20.9613 16.6875C21.0225 16.6628 21.0911 16.6633 21.152 16.689L22.072 17.079C22.1035 17.0909 22.1322 17.1091 22.1565 17.1324C22.1808 17.1557 22.2001 17.1836 22.2133 17.2145C22.2265 17.2455 22.2334 17.2788 22.2334 17.3124C22.2335 17.3461 22.2267 17.3794 22.2136 17.4104C22.2005 17.4413 22.1812 17.4693 22.157 17.4927C22.1328 17.5161 22.1041 17.5343 22.0727 17.5463C22.0412 17.5583 22.0077 17.5639 21.9741 17.5626C21.9405 17.5614 21.9074 17.5533 21.877 17.539L20.957 17.149C20.9267 17.1362 20.8992 17.1176 20.8761 17.0942C20.8531 17.0708 20.8348 17.0431 20.8225 17.0126C20.8101 16.9821 20.8039 16.9495 20.8041 16.9166C20.8044 16.8838 20.8112 16.8513 20.824 16.821H20.825ZM13.879 14.379L12.12 12.62L7.979 18.52L13.878 14.378L13.879 14.379ZM20.071 6.429L14.237 14.737L5.929 20.571L11.763 12.263L20.071 6.429Z" fill="#007AFF"/>
</g>
</g>
</svg>
