<svg width="802" height="802" viewBox="0 0 802 802" fill="none" xmlns="http://www.w3.org/2000/svg">
<g clip-path="url(#clip0_880_345)">
<mask id="mask0_880_345" style="mask-type:luminance" maskUnits="userSpaceOnUse" x="0" y="0" width="802" height="802">
<path d="M801.5 0.5H0.5V801.5H801.5V0.5Z" fill="white"/>
</mask>
<g mask="url(#mask0_880_345)">
<mask id="mask1_880_345" style="mask-type:luminance" maskUnits="userSpaceOnUse" x="1" y="1" width="800" height="800">
<path d="M801 1H1V801H801V1Z" fill="white"/>
</mask>
<g mask="url(#mask1_880_345)">
<mask id="mask2_880_345" style="mask-type:luminance" maskUnits="userSpaceOnUse" x="1" y="1" width="800" height="800">
<path d="M801 1H1V801H801V1Z" fill="white"/>
</mask>
<g mask="url(#mask2_880_345)">
<path d="M639.4 1H162.6C73.3 1 1 73.3 1 162.6V639.5C1 728.7 73.3 801 162.6 801H639.5C728.7 801 801.1 728.7 801.1 639.4V162.6C801 73.3 728.7 1 639.4 1Z" fill="url(#paint0_linear_880_345)"/>
<path d="M397.602 184.799L413.802 156.799C423.802 139.299 446.102 133.399 463.602 143.399C481.102 153.399 487.002 175.699 477.002 193.199L320.902 463.399H433.802C470.402 463.399 490.902 506.399 475.002 536.199H144.002C123.802 536.199 107.602 520 107.602 499.799C107.602 479.599 123.802 463.399 144.002 463.399H236.802L355.602 257.499L318.502 193.099C308.502 175.599 314.402 153.499 331.902 143.299C349.402 133.299 371.502 139.199 381.702 156.699L397.602 184.799ZM257.202 573.699L222.202 634.401C212.202 651.901 189.902 657.799 172.402 647.799C154.902 637.799 149.002 615.5 159.002 598L185.002 553C214.402 543.9 238.302 550.899 257.202 573.699ZM558.602 463.599H653.302C673.502 463.599 689.702 479.799 689.702 499.999C689.702 520.199 673.502 536.401 653.302 536.401H600.702L636.202 598C646.202 615.5 640.302 637.599 622.802 647.799C605.302 657.799 583.202 651.901 573.002 634.401C513.202 530.701 468.302 453.099 438.502 401.399C408.002 348.799 429.802 295.999 451.302 278.099C475.202 319.099 510.902 380.999 558.602 463.599Z" fill="white"/>
</g>
</g>
</g>
</g>
<defs>
<linearGradient id="paint0_linear_880_345" x1="401.05" y1="1" x2="401.05" y2="801" gradientUnits="userSpaceOnUse">
<stop stop-color="#18BFFB"/>
<stop offset="1" stop-color="#2072F3"/>
</linearGradient>
<clipPath id="clip0_880_345">
<rect width="801" height="801" fill="white" transform="translate(0.5 0.5)"/>
</clipPath>
</defs>
</svg>
