<svg width="801" height="801" viewBox="0 0 801 801" fill="none" xmlns="http://www.w3.org/2000/svg">
<g clip-path="url(#clip0_872_521)">
<mask id="mask0_872_521" style="mask-type:luminance" maskUnits="userSpaceOnUse" x="0" y="0" width="801" height="801">
<path d="M800.5 0.5H0.5V800.5H800.5V0.5Z" fill="white"/>
</mask>
<g mask="url(#mask0_872_521)">
<mask id="mask1_872_521" style="mask-type:luminance" maskUnits="userSpaceOnUse" x="0" y="0" width="801" height="801">
<path d="M800.5 0.5H0.5V800.5H800.5V0.5Z" fill="white"/>
</mask>
<g mask="url(#mask1_872_521)">
<path d="M638.9 0.5H162.1C72.8 0.5 0.5 72.8 0.5 162.1V639C0.5 728.2 72.8 800.5 162.1 800.5H639C728.2 800.5 800.6 728.2 800.6 638.9V162.1C800.5 72.8 728.2 0.5 638.9 0.5Z" fill="url(#paint0_linear_872_521)"/>
<path d="M397.102 184.299L413.302 156.299C423.302 138.799 445.602 132.899 463.102 142.899C480.602 152.899 486.502 175.199 476.502 192.699L320.402 462.899H433.302C469.902 462.899 490.402 505.899 474.502 535.699H143.502C123.302 535.699 107.102 519.5 107.102 499.299C107.102 479.099 123.302 462.899 143.502 462.899H236.302L355.102 256.999L318.002 192.599C308.002 175.099 313.902 152.999 331.402 142.799C348.902 132.799 371.002 138.699 381.202 156.199L397.102 184.299ZM256.702 573.199L221.702 633.901C211.702 651.401 189.402 657.299 171.902 647.299C154.402 637.299 148.502 615 158.502 597.5L184.502 552.5C213.902 543.4 237.802 550.399 256.702 573.199ZM558.102 463.099H652.802C673.002 463.099 689.202 479.299 689.202 499.499C689.202 519.699 673.002 535.901 652.802 535.901H600.202L635.702 597.5C645.702 615 639.802 637.099 622.302 647.299C604.802 657.299 582.702 651.401 572.502 633.901C512.702 530.201 467.802 452.599 438.002 400.899C407.502 348.299 429.302 295.499 450.802 277.599C474.702 318.599 510.402 380.499 558.102 463.099Z" fill="white"/>
</g>
</g>
</g>
<defs>
<linearGradient id="paint0_linear_872_521" x1="400.55" y1="0.5" x2="400.55" y2="800.5" gradientUnits="userSpaceOnUse">
<stop stop-color="#18BFFB"/>
<stop offset="1" stop-color="#2072F3"/>
</linearGradient>
<clipPath id="clip0_872_521">
<rect width="801" height="801" fill="white"/>
</clipPath>
</defs>
</svg>
