<svg width="801" height="801" viewBox="0 0 801 801" fill="none" xmlns="http://www.w3.org/2000/svg">
<g clip-path="url(#clip0_839_617)">
<mask id="mask0_839_617" style="mask-type:luminance" maskUnits="userSpaceOnUse" x="0" y="0" width="801" height="801">
<path d="M800.5 0.5H0.5V800.5H800.5V0.5Z" fill="white"/>
</mask>
<g mask="url(#mask0_839_617)">
<path d="M638.9 0.5H162.1C72.8 0.5 0.5 72.8 0.5 162.1V639C0.5 728.2 72.8 800.5 162.1 800.5H639C728.2 800.5 800.6 728.2 800.6 638.9V162.1C800.5 72.8 728.2 0.5 638.9 0.5Z" fill="url(#paint0_linear_839_617)"/>
<path d="M397.1 184.299L413.3 156.299C423.3 138.799 445.6 132.899 463.1 142.899C480.6 152.899 486.5 175.199 476.5 192.699L320.4 462.899H433.3C469.9 462.899 490.4 505.899 474.5 535.699H143.5C123.3 535.699 107.1 519.5 107.1 499.299C107.1 479.099 123.3 462.899 143.5 462.899H236.3L355.1 256.999L318 192.599C308 175.099 313.9 152.999 331.4 142.799C348.9 132.799 371 138.699 381.2 156.199L397.1 184.299ZM256.7 573.199L221.7 633.901C211.7 651.401 189.4 657.299 171.9 647.299C154.4 637.299 148.5 615 158.5 597.5L184.5 552.5C213.9 543.4 237.8 550.399 256.7 573.199ZM558.1 463.099H652.8C673 463.099 689.2 479.299 689.2 499.499C689.2 519.699 673 535.901 652.8 535.901H600.2L635.7 597.5C645.7 615 639.8 637.099 622.3 647.299C604.8 657.299 582.7 651.401 572.5 633.901C512.7 530.201 467.8 452.599 438 400.899C407.5 348.299 429.3 295.499 450.8 277.599C474.7 318.599 510.4 380.499 558.1 463.099Z" fill="white"/>
</g>
</g>
<defs>
<linearGradient id="paint0_linear_839_617" x1="400.55" y1="0.5" x2="400.55" y2="800.5" gradientUnits="userSpaceOnUse">
<stop stop-color="#18BFFB"/>
<stop offset="1" stop-color="#2072F3"/>
</linearGradient>
<clipPath id="clip0_839_617">
<rect width="800" height="800" fill="white" transform="translate(0.5 0.5)"/>
</clipPath>
</defs>
</svg>
