<svg width="800" height="800" viewBox="0 0 800 800" fill="none" xmlns="http://www.w3.org/2000/svg">
<g clip-path="url(#clip0_837_437)">
<path d="M638.4 0H161.6C72.3 0 0 72.3 0 161.6V638.5C0 727.7 72.3 800 161.6 800H638.5C727.7 800 800.1 727.7 800.1 638.4V161.6C800 72.3 727.7 0 638.4 0Z" fill="url(#paint0_linear_837_437)"/>
<path d="M396.6 183.799L412.8 155.799C422.8 138.299 445.1 132.399 462.6 142.399C480.1 152.399 486 174.699 476 192.199L319.9 462.399H432.8C469.4 462.399 489.9 505.399 474 535.199H143C122.8 535.199 106.6 518.999 106.6 498.799C106.6 478.599 122.8 462.399 143 462.399H235.8L354.6 256.499L317.5 192.099C307.5 174.599 313.4 152.499 330.9 142.299C348.4 132.299 370.5 138.199 380.7 155.699L396.6 183.799ZM256.2 572.699L221.2 633.4C211.2 650.9 188.9 656.799 171.4 646.799C153.9 636.799 148 614.499 158 596.999L184 551.999C213.4 542.899 237.3 549.899 256.2 572.699ZM557.6 462.599H652.3C672.5 462.599 688.7 478.799 688.7 498.999C688.7 519.199 672.5 535.4 652.3 535.4H599.7L635.2 596.999C645.2 614.499 639.3 636.599 621.8 646.799C604.3 656.799 582.2 650.9 572 633.4C512.2 529.7 467.3 452.099 437.5 400.399C407 347.799 428.8 294.999 450.3 277.099C474.2 318.099 509.9 379.999 557.6 462.599Z" fill="white"/>
</g>
<defs>
<linearGradient id="paint0_linear_837_437" x1="400.05" y1="0" x2="400.05" y2="800" gradientUnits="userSpaceOnUse">
<stop stop-color="#18BFFB"/>
<stop offset="1" stop-color="#2072F3"/>
</linearGradient>
<clipPath id="clip0_837_437">
<rect width="800" height="800" fill="white"/>
</clipPath>
</defs>
</svg>
